G04 #@! TF.GenerationSoftware,KiCad,Pcbnew,(5.1.4)-1*
G04 #@! TF.CreationDate,2020-01-11T22:22:39+00:00*
G04 #@! TF.ProjectId,Plotter,506c6f74-7465-4722-9e6b-696361645f70,V1.0*
G04 #@! TF.SameCoordinates,Original*
G04 #@! TF.FileFunction,Legend,Top*
G04 #@! TF.FilePolarity,Positive*
%FSLAX46Y46*%
G04 Gerber Fmt 4.6, Leading zero omitted, Abs format (unit mm)*
G04 Created by KiCad (PCBNEW (5.1.4)-1) date 2020-01-11 22:22:39*
%MOMM*%
%LPD*%
G04 APERTURE LIST*
%ADD10C,0.150000*%
%ADD11C,0.300000*%
%ADD12C,0.248000*%
%ADD13C,0.250000*%
%ADD14C,0.120000*%
%ADD15C,0.127000*%
%ADD16C,0.200000*%
%ADD17C,0.015000*%
G04 APERTURE END LIST*
D10*
X169934000Y-111505904D02*
X169886380Y-111601142D01*
X169886380Y-111744000D01*
X169934000Y-111886857D01*
X170029238Y-111982095D01*
X170124476Y-112029714D01*
X170314952Y-112077333D01*
X170457809Y-112077333D01*
X170648285Y-112029714D01*
X170743523Y-111982095D01*
X170838761Y-111886857D01*
X170886380Y-111744000D01*
X170886380Y-111648761D01*
X170838761Y-111505904D01*
X170791142Y-111458285D01*
X170457809Y-111458285D01*
X170457809Y-111648761D01*
X170886380Y-111029714D02*
X169886380Y-111029714D01*
X170886380Y-110458285D01*
X169886380Y-110458285D01*
X170886380Y-109982095D02*
X169886380Y-109982095D01*
X169886380Y-109744000D01*
X169934000Y-109601142D01*
X170029238Y-109505904D01*
X170124476Y-109458285D01*
X170314952Y-109410666D01*
X170457809Y-109410666D01*
X170648285Y-109458285D01*
X170743523Y-109505904D01*
X170838761Y-109601142D01*
X170886380Y-109744000D01*
X170886380Y-109982095D01*
X177800095Y-116594000D02*
X177704857Y-116546380D01*
X177562000Y-116546380D01*
X177419142Y-116594000D01*
X177323904Y-116689238D01*
X177276285Y-116784476D01*
X177228666Y-116974952D01*
X177228666Y-117117809D01*
X177276285Y-117308285D01*
X177323904Y-117403523D01*
X177419142Y-117498761D01*
X177562000Y-117546380D01*
X177657238Y-117546380D01*
X177800095Y-117498761D01*
X177847714Y-117451142D01*
X177847714Y-117117809D01*
X177657238Y-117117809D01*
X178276285Y-117546380D02*
X178276285Y-116546380D01*
X178847714Y-117546380D01*
X178847714Y-116546380D01*
X179323904Y-117546380D02*
X179323904Y-116546380D01*
X179562000Y-116546380D01*
X179704857Y-116594000D01*
X179800095Y-116689238D01*
X179847714Y-116784476D01*
X179895333Y-116974952D01*
X179895333Y-117117809D01*
X179847714Y-117308285D01*
X179800095Y-117403523D01*
X179704857Y-117498761D01*
X179562000Y-117546380D01*
X179323904Y-117546380D01*
X177244571Y-109926380D02*
X177244571Y-108926380D01*
X177577904Y-109640666D01*
X177911238Y-108926380D01*
X177911238Y-109926380D01*
X178387428Y-109926380D02*
X178387428Y-108926380D01*
X178816000Y-109878761D02*
X178958857Y-109926380D01*
X179196952Y-109926380D01*
X179292190Y-109878761D01*
X179339809Y-109831142D01*
X179387428Y-109735904D01*
X179387428Y-109640666D01*
X179339809Y-109545428D01*
X179292190Y-109497809D01*
X179196952Y-109450190D01*
X179006476Y-109402571D01*
X178911238Y-109354952D01*
X178863619Y-109307333D01*
X178816000Y-109212095D01*
X178816000Y-109116857D01*
X178863619Y-109021619D01*
X178911238Y-108974000D01*
X179006476Y-108926380D01*
X179244571Y-108926380D01*
X179387428Y-108974000D01*
X180006476Y-108926380D02*
X180196952Y-108926380D01*
X180292190Y-108974000D01*
X180387428Y-109069238D01*
X180435047Y-109259714D01*
X180435047Y-109593047D01*
X180387428Y-109783523D01*
X180292190Y-109878761D01*
X180196952Y-109926380D01*
X180006476Y-109926380D01*
X179911238Y-109878761D01*
X179816000Y-109783523D01*
X179768380Y-109593047D01*
X179768380Y-109259714D01*
X179816000Y-109069238D01*
X179911238Y-108974000D01*
X180006476Y-108926380D01*
X177276285Y-112418761D02*
X177419142Y-112466380D01*
X177657238Y-112466380D01*
X177752476Y-112418761D01*
X177800095Y-112371142D01*
X177847714Y-112275904D01*
X177847714Y-112180666D01*
X177800095Y-112085428D01*
X177752476Y-112037809D01*
X177657238Y-111990190D01*
X177466761Y-111942571D01*
X177371523Y-111894952D01*
X177323904Y-111847333D01*
X177276285Y-111752095D01*
X177276285Y-111656857D01*
X177323904Y-111561619D01*
X177371523Y-111514000D01*
X177466761Y-111466380D01*
X177704857Y-111466380D01*
X177847714Y-111514000D01*
X178847714Y-112371142D02*
X178800095Y-112418761D01*
X178657238Y-112466380D01*
X178562000Y-112466380D01*
X178419142Y-112418761D01*
X178323904Y-112323523D01*
X178276285Y-112228285D01*
X178228666Y-112037809D01*
X178228666Y-111894952D01*
X178276285Y-111704476D01*
X178323904Y-111609238D01*
X178419142Y-111514000D01*
X178562000Y-111466380D01*
X178657238Y-111466380D01*
X178800095Y-111514000D01*
X178847714Y-111561619D01*
X179276285Y-112466380D02*
X179276285Y-111466380D01*
X179847714Y-112466380D02*
X179419142Y-111894952D01*
X179847714Y-111466380D02*
X179276285Y-112037809D01*
X177760380Y-115006380D02*
X177427047Y-114530190D01*
X177188952Y-115006380D02*
X177188952Y-114006380D01*
X177569904Y-114006380D01*
X177665142Y-114054000D01*
X177712761Y-114101619D01*
X177760380Y-114196857D01*
X177760380Y-114339714D01*
X177712761Y-114434952D01*
X177665142Y-114482571D01*
X177569904Y-114530190D01*
X177188952Y-114530190D01*
X178141333Y-114958761D02*
X178284190Y-115006380D01*
X178522285Y-115006380D01*
X178617523Y-114958761D01*
X178665142Y-114911142D01*
X178712761Y-114815904D01*
X178712761Y-114720666D01*
X178665142Y-114625428D01*
X178617523Y-114577809D01*
X178522285Y-114530190D01*
X178331809Y-114482571D01*
X178236571Y-114434952D01*
X178188952Y-114387333D01*
X178141333Y-114292095D01*
X178141333Y-114196857D01*
X178188952Y-114101619D01*
X178236571Y-114054000D01*
X178331809Y-114006380D01*
X178569904Y-114006380D01*
X178712761Y-114054000D01*
X178998476Y-114006380D02*
X179569904Y-114006380D01*
X179284190Y-115006380D02*
X179284190Y-114006380D01*
X169934000Y-116331904D02*
X169886380Y-116427142D01*
X169886380Y-116570000D01*
X169934000Y-116712857D01*
X170029238Y-116808095D01*
X170124476Y-116855714D01*
X170314952Y-116903333D01*
X170457809Y-116903333D01*
X170648285Y-116855714D01*
X170743523Y-116808095D01*
X170838761Y-116712857D01*
X170886380Y-116570000D01*
X170886380Y-116474761D01*
X170838761Y-116331904D01*
X170791142Y-116284285D01*
X170457809Y-116284285D01*
X170457809Y-116474761D01*
X170886380Y-115855714D02*
X169886380Y-115855714D01*
X170886380Y-115284285D01*
X169886380Y-115284285D01*
X170886380Y-114808095D02*
X169886380Y-114808095D01*
X169886380Y-114570000D01*
X169934000Y-114427142D01*
X170029238Y-114331904D01*
X170124476Y-114284285D01*
X170314952Y-114236666D01*
X170457809Y-114236666D01*
X170648285Y-114284285D01*
X170743523Y-114331904D01*
X170838761Y-114427142D01*
X170886380Y-114570000D01*
X170886380Y-114808095D01*
X168592666Y-119340380D02*
X168926000Y-120340380D01*
X169259333Y-119340380D01*
X170164095Y-120245142D02*
X170116476Y-120292761D01*
X169973619Y-120340380D01*
X169878380Y-120340380D01*
X169735523Y-120292761D01*
X169640285Y-120197523D01*
X169592666Y-120102285D01*
X169545047Y-119911809D01*
X169545047Y-119768952D01*
X169592666Y-119578476D01*
X169640285Y-119483238D01*
X169735523Y-119388000D01*
X169878380Y-119340380D01*
X169973619Y-119340380D01*
X170116476Y-119388000D01*
X170164095Y-119435619D01*
X171164095Y-120245142D02*
X171116476Y-120292761D01*
X170973619Y-120340380D01*
X170878380Y-120340380D01*
X170735523Y-120292761D01*
X170640285Y-120197523D01*
X170592666Y-120102285D01*
X170545047Y-119911809D01*
X170545047Y-119768952D01*
X170592666Y-119578476D01*
X170640285Y-119483238D01*
X170735523Y-119388000D01*
X170878380Y-119340380D01*
X170973619Y-119340380D01*
X171116476Y-119388000D01*
X171164095Y-119435619D01*
X177244571Y-120086380D02*
X177244571Y-119086380D01*
X177577904Y-119800666D01*
X177911238Y-119086380D01*
X177911238Y-120086380D01*
X178577904Y-119086380D02*
X178768380Y-119086380D01*
X178863619Y-119134000D01*
X178958857Y-119229238D01*
X179006476Y-119419714D01*
X179006476Y-119753047D01*
X178958857Y-119943523D01*
X178863619Y-120038761D01*
X178768380Y-120086380D01*
X178577904Y-120086380D01*
X178482666Y-120038761D01*
X178387428Y-119943523D01*
X178339809Y-119753047D01*
X178339809Y-119419714D01*
X178387428Y-119229238D01*
X178482666Y-119134000D01*
X178577904Y-119086380D01*
X179387428Y-120038761D02*
X179530285Y-120086380D01*
X179768380Y-120086380D01*
X179863619Y-120038761D01*
X179911238Y-119991142D01*
X179958857Y-119895904D01*
X179958857Y-119800666D01*
X179911238Y-119705428D01*
X179863619Y-119657809D01*
X179768380Y-119610190D01*
X179577904Y-119562571D01*
X179482666Y-119514952D01*
X179435047Y-119467333D01*
X179387428Y-119372095D01*
X179387428Y-119276857D01*
X179435047Y-119181619D01*
X179482666Y-119134000D01*
X179577904Y-119086380D01*
X179816000Y-119086380D01*
X179958857Y-119134000D01*
X180387428Y-120086380D02*
X180387428Y-119086380D01*
X165878000Y-97353428D02*
X166639904Y-97353428D01*
X167116095Y-97067714D02*
X167878000Y-97353428D01*
X167116095Y-97639142D01*
X202184095Y-119134000D02*
X202088857Y-119086380D01*
X201946000Y-119086380D01*
X201803142Y-119134000D01*
X201707904Y-119229238D01*
X201660285Y-119324476D01*
X201612666Y-119514952D01*
X201612666Y-119657809D01*
X201660285Y-119848285D01*
X201707904Y-119943523D01*
X201803142Y-120038761D01*
X201946000Y-120086380D01*
X202041238Y-120086380D01*
X202184095Y-120038761D01*
X202231714Y-119991142D01*
X202231714Y-119657809D01*
X202041238Y-119657809D01*
X202660285Y-120086380D02*
X202660285Y-119086380D01*
X203231714Y-120086380D01*
X203231714Y-119086380D01*
X203707904Y-120086380D02*
X203707904Y-119086380D01*
X203946000Y-119086380D01*
X204088857Y-119134000D01*
X204184095Y-119229238D01*
X204231714Y-119324476D01*
X204279333Y-119514952D01*
X204279333Y-119657809D01*
X204231714Y-119848285D01*
X204184095Y-119943523D01*
X204088857Y-120038761D01*
X203946000Y-120086380D01*
X203707904Y-120086380D01*
X210550285Y-119705428D02*
X211312190Y-119705428D01*
X210931238Y-120086380D02*
X210931238Y-119324476D01*
X212264571Y-119086380D02*
X211788380Y-119086380D01*
X211740761Y-119562571D01*
X211788380Y-119514952D01*
X211883619Y-119467333D01*
X212121714Y-119467333D01*
X212216952Y-119514952D01*
X212264571Y-119562571D01*
X212312190Y-119657809D01*
X212312190Y-119895904D01*
X212264571Y-119991142D01*
X212216952Y-120038761D01*
X212121714Y-120086380D01*
X211883619Y-120086380D01*
X211788380Y-120038761D01*
X211740761Y-119991142D01*
X212597904Y-119086380D02*
X212931238Y-120086380D01*
X213264571Y-119086380D01*
X157488000Y-118617904D02*
X157440380Y-118713142D01*
X157440380Y-118856000D01*
X157488000Y-118998857D01*
X157583238Y-119094095D01*
X157678476Y-119141714D01*
X157868952Y-119189333D01*
X158011809Y-119189333D01*
X158202285Y-119141714D01*
X158297523Y-119094095D01*
X158392761Y-118998857D01*
X158440380Y-118856000D01*
X158440380Y-118760761D01*
X158392761Y-118617904D01*
X158345142Y-118570285D01*
X158011809Y-118570285D01*
X158011809Y-118760761D01*
X158440380Y-118141714D02*
X157440380Y-118141714D01*
X158440380Y-117570285D01*
X157440380Y-117570285D01*
X158440380Y-117094095D02*
X157440380Y-117094095D01*
X157440380Y-116856000D01*
X157488000Y-116713142D01*
X157583238Y-116617904D01*
X157678476Y-116570285D01*
X157868952Y-116522666D01*
X158011809Y-116522666D01*
X158202285Y-116570285D01*
X158297523Y-116617904D01*
X158392761Y-116713142D01*
X158440380Y-116856000D01*
X158440380Y-117094095D01*
X158440380Y-113418761D02*
X157440380Y-113418761D01*
X157440380Y-113037809D01*
X157488000Y-112942571D01*
X157535619Y-112894952D01*
X157630857Y-112847333D01*
X157773714Y-112847333D01*
X157868952Y-112894952D01*
X157916571Y-112942571D01*
X157964190Y-113037809D01*
X157964190Y-113418761D01*
X157440380Y-112514000D02*
X158440380Y-112275904D01*
X157726095Y-112085428D01*
X158440380Y-111894952D01*
X157440380Y-111656857D01*
X158440380Y-111275904D02*
X157440380Y-111275904D01*
X158154666Y-110942571D01*
X157440380Y-110609238D01*
X158440380Y-110609238D01*
D11*
X123027714Y-94150571D02*
X123027714Y-92650571D01*
X123599142Y-92650571D01*
X123742000Y-92722000D01*
X123813428Y-92793428D01*
X123884857Y-92936285D01*
X123884857Y-93150571D01*
X123813428Y-93293428D01*
X123742000Y-93364857D01*
X123599142Y-93436285D01*
X123027714Y-93436285D01*
X124813428Y-92650571D02*
X125099142Y-92650571D01*
X125242000Y-92722000D01*
X125384857Y-92864857D01*
X125456285Y-93150571D01*
X125456285Y-93650571D01*
X125384857Y-93936285D01*
X125242000Y-94079142D01*
X125099142Y-94150571D01*
X124813428Y-94150571D01*
X124670571Y-94079142D01*
X124527714Y-93936285D01*
X124456285Y-93650571D01*
X124456285Y-93150571D01*
X124527714Y-92864857D01*
X124670571Y-92722000D01*
X124813428Y-92650571D01*
X125956285Y-92650571D02*
X126313428Y-94150571D01*
X126599142Y-93079142D01*
X126884857Y-94150571D01*
X127242000Y-92650571D01*
X127813428Y-93364857D02*
X128313428Y-93364857D01*
X128527714Y-94150571D02*
X127813428Y-94150571D01*
X127813428Y-92650571D01*
X128527714Y-92650571D01*
X130027714Y-94150571D02*
X129527714Y-93436285D01*
X129170571Y-94150571D02*
X129170571Y-92650571D01*
X129742000Y-92650571D01*
X129884857Y-92722000D01*
X129956285Y-92793428D01*
X130027714Y-92936285D01*
X130027714Y-93150571D01*
X129956285Y-93293428D01*
X129884857Y-93364857D01*
X129742000Y-93436285D01*
X129170571Y-93436285D01*
D12*
X123704190Y-91198000D02*
X123609714Y-91150761D01*
X123468000Y-91150761D01*
X123326285Y-91198000D01*
X123231809Y-91292476D01*
X123184571Y-91386952D01*
X123137333Y-91575904D01*
X123137333Y-91717619D01*
X123184571Y-91906571D01*
X123231809Y-92001047D01*
X123326285Y-92095523D01*
X123468000Y-92142761D01*
X123562476Y-92142761D01*
X123704190Y-92095523D01*
X123751428Y-92048285D01*
X123751428Y-91717619D01*
X123562476Y-91717619D01*
X124176571Y-92142761D02*
X124176571Y-91150761D01*
X124743428Y-92142761D01*
X124743428Y-91150761D01*
X125215809Y-92142761D02*
X125215809Y-91150761D01*
X125452000Y-91150761D01*
X125593714Y-91198000D01*
X125688190Y-91292476D01*
X125735428Y-91386952D01*
X125782666Y-91575904D01*
X125782666Y-91717619D01*
X125735428Y-91906571D01*
X125688190Y-92001047D01*
X125593714Y-92095523D01*
X125452000Y-92142761D01*
X125215809Y-92142761D01*
D10*
X94488095Y-119134000D02*
X94392857Y-119086380D01*
X94250000Y-119086380D01*
X94107142Y-119134000D01*
X94011904Y-119229238D01*
X93964285Y-119324476D01*
X93916666Y-119514952D01*
X93916666Y-119657809D01*
X93964285Y-119848285D01*
X94011904Y-119943523D01*
X94107142Y-120038761D01*
X94250000Y-120086380D01*
X94345238Y-120086380D01*
X94488095Y-120038761D01*
X94535714Y-119991142D01*
X94535714Y-119657809D01*
X94345238Y-119657809D01*
X94964285Y-120086380D02*
X94964285Y-119086380D01*
X95535714Y-120086380D01*
X95535714Y-119086380D01*
X96011904Y-120086380D02*
X96011904Y-119086380D01*
X96250000Y-119086380D01*
X96392857Y-119134000D01*
X96488095Y-119229238D01*
X96535714Y-119324476D01*
X96583333Y-119514952D01*
X96583333Y-119657809D01*
X96535714Y-119848285D01*
X96488095Y-119943523D01*
X96392857Y-120038761D01*
X96250000Y-120086380D01*
X96011904Y-120086380D01*
X102600285Y-119705428D02*
X103362190Y-119705428D01*
X102981238Y-120086380D02*
X102981238Y-119324476D01*
X104314571Y-119086380D02*
X103838380Y-119086380D01*
X103790761Y-119562571D01*
X103838380Y-119514952D01*
X103933619Y-119467333D01*
X104171714Y-119467333D01*
X104266952Y-119514952D01*
X104314571Y-119562571D01*
X104362190Y-119657809D01*
X104362190Y-119895904D01*
X104314571Y-119991142D01*
X104266952Y-120038761D01*
X104171714Y-120086380D01*
X103933619Y-120086380D01*
X103838380Y-120038761D01*
X103790761Y-119991142D01*
X104647904Y-119086380D02*
X104981238Y-120086380D01*
X105314571Y-119086380D01*
X106362571Y-118070380D02*
X106553047Y-118070380D01*
X106648285Y-118118000D01*
X106743523Y-118213238D01*
X106791142Y-118403714D01*
X106791142Y-118737047D01*
X106743523Y-118927523D01*
X106648285Y-119022761D01*
X106553047Y-119070380D01*
X106362571Y-119070380D01*
X106267333Y-119022761D01*
X106172095Y-118927523D01*
X106124476Y-118737047D01*
X106124476Y-118403714D01*
X106172095Y-118213238D01*
X106267333Y-118118000D01*
X106362571Y-118070380D01*
X107648285Y-118403714D02*
X107648285Y-119070380D01*
X107410190Y-118022761D02*
X107172095Y-118737047D01*
X107791142Y-118737047D01*
X106362571Y-115530380D02*
X106553047Y-115530380D01*
X106648285Y-115578000D01*
X106743523Y-115673238D01*
X106791142Y-115863714D01*
X106791142Y-116197047D01*
X106743523Y-116387523D01*
X106648285Y-116482761D01*
X106553047Y-116530380D01*
X106362571Y-116530380D01*
X106267333Y-116482761D01*
X106172095Y-116387523D01*
X106124476Y-116197047D01*
X106124476Y-115863714D01*
X106172095Y-115673238D01*
X106267333Y-115578000D01*
X106362571Y-115530380D01*
X107124476Y-115530380D02*
X107743523Y-115530380D01*
X107410190Y-115911333D01*
X107553047Y-115911333D01*
X107648285Y-115958952D01*
X107695904Y-116006571D01*
X107743523Y-116101809D01*
X107743523Y-116339904D01*
X107695904Y-116435142D01*
X107648285Y-116482761D01*
X107553047Y-116530380D01*
X107267333Y-116530380D01*
X107172095Y-116482761D01*
X107124476Y-116435142D01*
X106362571Y-112990380D02*
X106553047Y-112990380D01*
X106648285Y-113038000D01*
X106743523Y-113133238D01*
X106791142Y-113323714D01*
X106791142Y-113657047D01*
X106743523Y-113847523D01*
X106648285Y-113942761D01*
X106553047Y-113990380D01*
X106362571Y-113990380D01*
X106267333Y-113942761D01*
X106172095Y-113847523D01*
X106124476Y-113657047D01*
X106124476Y-113323714D01*
X106172095Y-113133238D01*
X106267333Y-113038000D01*
X106362571Y-112990380D01*
X107172095Y-113085619D02*
X107219714Y-113038000D01*
X107314952Y-112990380D01*
X107553047Y-112990380D01*
X107648285Y-113038000D01*
X107695904Y-113085619D01*
X107743523Y-113180857D01*
X107743523Y-113276095D01*
X107695904Y-113418952D01*
X107124476Y-113990380D01*
X107743523Y-113990380D01*
X106362571Y-110704380D02*
X106553047Y-110704380D01*
X106648285Y-110752000D01*
X106743523Y-110847238D01*
X106791142Y-111037714D01*
X106791142Y-111371047D01*
X106743523Y-111561523D01*
X106648285Y-111656761D01*
X106553047Y-111704380D01*
X106362571Y-111704380D01*
X106267333Y-111656761D01*
X106172095Y-111561523D01*
X106124476Y-111371047D01*
X106124476Y-111037714D01*
X106172095Y-110847238D01*
X106267333Y-110752000D01*
X106362571Y-110704380D01*
X107743523Y-111704380D02*
X107172095Y-111704380D01*
X107457809Y-111704380D02*
X107457809Y-110704380D01*
X107362571Y-110847238D01*
X107267333Y-110942476D01*
X107172095Y-110990095D01*
X199326571Y-118324380D02*
X199517047Y-118324380D01*
X199612285Y-118372000D01*
X199707523Y-118467238D01*
X199755142Y-118657714D01*
X199755142Y-118991047D01*
X199707523Y-119181523D01*
X199612285Y-119276761D01*
X199517047Y-119324380D01*
X199326571Y-119324380D01*
X199231333Y-119276761D01*
X199136095Y-119181523D01*
X199088476Y-118991047D01*
X199088476Y-118657714D01*
X199136095Y-118467238D01*
X199231333Y-118372000D01*
X199326571Y-118324380D01*
X200612285Y-118657714D02*
X200612285Y-119324380D01*
X200374190Y-118276761D02*
X200136095Y-118991047D01*
X200755142Y-118991047D01*
X199326571Y-115784380D02*
X199517047Y-115784380D01*
X199612285Y-115832000D01*
X199707523Y-115927238D01*
X199755142Y-116117714D01*
X199755142Y-116451047D01*
X199707523Y-116641523D01*
X199612285Y-116736761D01*
X199517047Y-116784380D01*
X199326571Y-116784380D01*
X199231333Y-116736761D01*
X199136095Y-116641523D01*
X199088476Y-116451047D01*
X199088476Y-116117714D01*
X199136095Y-115927238D01*
X199231333Y-115832000D01*
X199326571Y-115784380D01*
X200088476Y-115784380D02*
X200707523Y-115784380D01*
X200374190Y-116165333D01*
X200517047Y-116165333D01*
X200612285Y-116212952D01*
X200659904Y-116260571D01*
X200707523Y-116355809D01*
X200707523Y-116593904D01*
X200659904Y-116689142D01*
X200612285Y-116736761D01*
X200517047Y-116784380D01*
X200231333Y-116784380D01*
X200136095Y-116736761D01*
X200088476Y-116689142D01*
X199326571Y-113244380D02*
X199517047Y-113244380D01*
X199612285Y-113292000D01*
X199707523Y-113387238D01*
X199755142Y-113577714D01*
X199755142Y-113911047D01*
X199707523Y-114101523D01*
X199612285Y-114196761D01*
X199517047Y-114244380D01*
X199326571Y-114244380D01*
X199231333Y-114196761D01*
X199136095Y-114101523D01*
X199088476Y-113911047D01*
X199088476Y-113577714D01*
X199136095Y-113387238D01*
X199231333Y-113292000D01*
X199326571Y-113244380D01*
X200136095Y-113339619D02*
X200183714Y-113292000D01*
X200278952Y-113244380D01*
X200517047Y-113244380D01*
X200612285Y-113292000D01*
X200659904Y-113339619D01*
X200707523Y-113434857D01*
X200707523Y-113530095D01*
X200659904Y-113672952D01*
X200088476Y-114244380D01*
X200707523Y-114244380D01*
X199326571Y-110450380D02*
X199517047Y-110450380D01*
X199612285Y-110498000D01*
X199707523Y-110593238D01*
X199755142Y-110783714D01*
X199755142Y-111117047D01*
X199707523Y-111307523D01*
X199612285Y-111402761D01*
X199517047Y-111450380D01*
X199326571Y-111450380D01*
X199231333Y-111402761D01*
X199136095Y-111307523D01*
X199088476Y-111117047D01*
X199088476Y-110783714D01*
X199136095Y-110593238D01*
X199231333Y-110498000D01*
X199326571Y-110450380D01*
X200707523Y-111450380D02*
X200136095Y-111450380D01*
X200421809Y-111450380D02*
X200421809Y-110450380D01*
X200326571Y-110593238D01*
X200231333Y-110688476D01*
X200136095Y-110736095D01*
D11*
X88562571Y-111334285D02*
X87062571Y-111334285D01*
X87062571Y-110762857D01*
X87134000Y-110620000D01*
X87205428Y-110548571D01*
X87348285Y-110477142D01*
X87562571Y-110477142D01*
X87705428Y-110548571D01*
X87776857Y-110620000D01*
X87848285Y-110762857D01*
X87848285Y-111334285D01*
X88562571Y-109834285D02*
X87562571Y-109834285D01*
X87062571Y-109834285D02*
X87134000Y-109905714D01*
X87205428Y-109834285D01*
X87134000Y-109762857D01*
X87062571Y-109834285D01*
X87205428Y-109834285D01*
X88562571Y-109120000D02*
X87062571Y-109120000D01*
X87991142Y-108977142D02*
X88562571Y-108548571D01*
X87562571Y-108548571D02*
X88134000Y-109120000D01*
X88562571Y-107262857D02*
X87776857Y-107262857D01*
X87634000Y-107334285D01*
X87562571Y-107477142D01*
X87562571Y-107762857D01*
X87634000Y-107905714D01*
X88491142Y-107262857D02*
X88562571Y-107405714D01*
X88562571Y-107762857D01*
X88491142Y-107905714D01*
X88348285Y-107977142D01*
X88205428Y-107977142D01*
X88062571Y-107905714D01*
X87991142Y-107762857D01*
X87991142Y-107405714D01*
X87919714Y-107262857D01*
X88491142Y-106620000D02*
X88562571Y-106477142D01*
X88562571Y-106191428D01*
X88491142Y-106048571D01*
X88348285Y-105977142D01*
X88276857Y-105977142D01*
X88134000Y-106048571D01*
X88062571Y-106191428D01*
X88062571Y-106405714D01*
X87991142Y-106548571D01*
X87848285Y-106620000D01*
X87776857Y-106620000D01*
X87634000Y-106548571D01*
X87562571Y-106405714D01*
X87562571Y-106191428D01*
X87634000Y-106048571D01*
X88491142Y-105405714D02*
X88562571Y-105262857D01*
X88562571Y-104977142D01*
X88491142Y-104834285D01*
X88348285Y-104762857D01*
X88276857Y-104762857D01*
X88134000Y-104834285D01*
X88062571Y-104977142D01*
X88062571Y-105191428D01*
X87991142Y-105334285D01*
X87848285Y-105405714D01*
X87776857Y-105405714D01*
X87634000Y-105334285D01*
X87562571Y-105191428D01*
X87562571Y-104977142D01*
X87634000Y-104834285D01*
X88562571Y-103905714D02*
X88491142Y-104048571D01*
X88419714Y-104120000D01*
X88276857Y-104191428D01*
X87848285Y-104191428D01*
X87705428Y-104120000D01*
X87634000Y-104048571D01*
X87562571Y-103905714D01*
X87562571Y-103691428D01*
X87634000Y-103548571D01*
X87705428Y-103477142D01*
X87848285Y-103405714D01*
X88276857Y-103405714D01*
X88419714Y-103477142D01*
X88491142Y-103548571D01*
X88562571Y-103691428D01*
X88562571Y-103905714D01*
X88562571Y-101620000D02*
X87062571Y-101620000D01*
X87062571Y-101048571D01*
X87134000Y-100905714D01*
X87205428Y-100834285D01*
X87348285Y-100762857D01*
X87562571Y-100762857D01*
X87705428Y-100834285D01*
X87776857Y-100905714D01*
X87848285Y-101048571D01*
X87848285Y-101620000D01*
X88562571Y-100120000D02*
X87562571Y-100120000D01*
X87848285Y-100120000D02*
X87705428Y-100048571D01*
X87634000Y-99977142D01*
X87562571Y-99834285D01*
X87562571Y-99691428D01*
X88562571Y-98977142D02*
X88491142Y-99120000D01*
X88419714Y-99191428D01*
X88276857Y-99262857D01*
X87848285Y-99262857D01*
X87705428Y-99191428D01*
X87634000Y-99120000D01*
X87562571Y-98977142D01*
X87562571Y-98762857D01*
X87634000Y-98620000D01*
X87705428Y-98548571D01*
X87848285Y-98477142D01*
X88276857Y-98477142D01*
X88419714Y-98548571D01*
X88491142Y-98620000D01*
X88562571Y-98762857D01*
X88562571Y-98977142D01*
X87562571Y-97834285D02*
X88848285Y-97834285D01*
X88991142Y-97905714D01*
X89062571Y-98048571D01*
X89062571Y-98120000D01*
X87062571Y-97834285D02*
X87134000Y-97905714D01*
X87205428Y-97834285D01*
X87134000Y-97762857D01*
X87062571Y-97834285D01*
X87205428Y-97834285D01*
X88491142Y-96548571D02*
X88562571Y-96691428D01*
X88562571Y-96977142D01*
X88491142Y-97120000D01*
X88348285Y-97191428D01*
X87776857Y-97191428D01*
X87634000Y-97120000D01*
X87562571Y-96977142D01*
X87562571Y-96691428D01*
X87634000Y-96548571D01*
X87776857Y-96477142D01*
X87919714Y-96477142D01*
X88062571Y-97191428D01*
X88491142Y-95191428D02*
X88562571Y-95334285D01*
X88562571Y-95620000D01*
X88491142Y-95762857D01*
X88419714Y-95834285D01*
X88276857Y-95905714D01*
X87848285Y-95905714D01*
X87705428Y-95834285D01*
X87634000Y-95762857D01*
X87562571Y-95620000D01*
X87562571Y-95334285D01*
X87634000Y-95191428D01*
X87562571Y-94762857D02*
X87562571Y-94191428D01*
X87062571Y-94548571D02*
X88348285Y-94548571D01*
X88491142Y-94477142D01*
X88562571Y-94334285D01*
X88562571Y-94191428D01*
D13*
X94178380Y-115989142D02*
X94178380Y-116465333D01*
X93178380Y-116465333D01*
X93892666Y-115703428D02*
X93892666Y-115227238D01*
X94178380Y-115798666D02*
X93178380Y-115465333D01*
X94178380Y-115132000D01*
X93654571Y-114465333D02*
X93702190Y-114322476D01*
X93749809Y-114274857D01*
X93845047Y-114227238D01*
X93987904Y-114227238D01*
X94083142Y-114274857D01*
X94130761Y-114322476D01*
X94178380Y-114417714D01*
X94178380Y-114798666D01*
X93178380Y-114798666D01*
X93178380Y-114465333D01*
X93226000Y-114370095D01*
X93273619Y-114322476D01*
X93368857Y-114274857D01*
X93464095Y-114274857D01*
X93559333Y-114322476D01*
X93606952Y-114370095D01*
X93654571Y-114465333D01*
X93654571Y-114798666D01*
X94130761Y-113846285D02*
X94178380Y-113703428D01*
X94178380Y-113465333D01*
X94130761Y-113370095D01*
X94083142Y-113322476D01*
X93987904Y-113274857D01*
X93892666Y-113274857D01*
X93797428Y-113322476D01*
X93749809Y-113370095D01*
X93702190Y-113465333D01*
X93654571Y-113655809D01*
X93606952Y-113751047D01*
X93559333Y-113798666D01*
X93464095Y-113846285D01*
X93368857Y-113846285D01*
X93273619Y-113798666D01*
X93226000Y-113751047D01*
X93178380Y-113655809D01*
X93178380Y-113417714D01*
X93226000Y-113274857D01*
X94178380Y-112846285D02*
X93178380Y-112846285D01*
X93130761Y-110893904D02*
X94416476Y-111751047D01*
X94178380Y-109322476D02*
X94178380Y-109798666D01*
X93178380Y-109798666D01*
X93654571Y-108989142D02*
X93654571Y-108655809D01*
X94178380Y-108512952D02*
X94178380Y-108989142D01*
X93178380Y-108989142D01*
X93178380Y-108512952D01*
X93654571Y-108084380D02*
X93654571Y-107751047D01*
X94178380Y-107608190D02*
X94178380Y-108084380D01*
X93178380Y-108084380D01*
X93178380Y-107608190D01*
X94083142Y-106608190D02*
X94130761Y-106655809D01*
X94178380Y-106798666D01*
X94178380Y-106893904D01*
X94130761Y-107036761D01*
X94035523Y-107132000D01*
X93940285Y-107179619D01*
X93749809Y-107227238D01*
X93606952Y-107227238D01*
X93416476Y-107179619D01*
X93321238Y-107132000D01*
X93226000Y-107036761D01*
X93178380Y-106893904D01*
X93178380Y-106798666D01*
X93226000Y-106655809D01*
X93273619Y-106608190D01*
X93130761Y-104703428D02*
X94416476Y-105560571D01*
X94178380Y-103608190D02*
X93178380Y-103608190D01*
X93178380Y-103370095D01*
X93226000Y-103227238D01*
X93321238Y-103132000D01*
X93416476Y-103084380D01*
X93606952Y-103036761D01*
X93749809Y-103036761D01*
X93940285Y-103084380D01*
X94035523Y-103132000D01*
X94130761Y-103227238D01*
X94178380Y-103370095D01*
X94178380Y-103608190D01*
X93654571Y-102608190D02*
X93654571Y-102274857D01*
X94178380Y-102132000D02*
X94178380Y-102608190D01*
X93178380Y-102608190D01*
X93178380Y-102132000D01*
X93654571Y-101703428D02*
X93654571Y-101370095D01*
X94178380Y-101227238D02*
X94178380Y-101703428D01*
X93178380Y-101703428D01*
X93178380Y-101227238D01*
X93130761Y-99322476D02*
X94416476Y-100179619D01*
X94178380Y-98227238D02*
X93178380Y-98227238D01*
X94130761Y-97798666D02*
X94178380Y-97655809D01*
X94178380Y-97417714D01*
X94130761Y-97322476D01*
X94083142Y-97274857D01*
X93987904Y-97227238D01*
X93892666Y-97227238D01*
X93797428Y-97274857D01*
X93749809Y-97322476D01*
X93702190Y-97417714D01*
X93654571Y-97608190D01*
X93606952Y-97703428D01*
X93559333Y-97751047D01*
X93464095Y-97798666D01*
X93368857Y-97798666D01*
X93273619Y-97751047D01*
X93226000Y-97703428D01*
X93178380Y-97608190D01*
X93178380Y-97370095D01*
X93226000Y-97227238D01*
X93654571Y-96798666D02*
X93654571Y-96465333D01*
X94178380Y-96322476D02*
X94178380Y-96798666D01*
X93178380Y-96798666D01*
X93178380Y-96322476D01*
X94178380Y-95893904D02*
X93178380Y-95893904D01*
X93178380Y-95512952D01*
X93226000Y-95417714D01*
X93273619Y-95370095D01*
X93368857Y-95322476D01*
X93511714Y-95322476D01*
X93606952Y-95370095D01*
X93654571Y-95417714D01*
X93702190Y-95512952D01*
X93702190Y-95893904D01*
X93273619Y-94179619D02*
X93226000Y-94132000D01*
X93178380Y-94036761D01*
X93178380Y-93798666D01*
X93226000Y-93703428D01*
X93273619Y-93655809D01*
X93368857Y-93608190D01*
X93464095Y-93608190D01*
X93606952Y-93655809D01*
X94178380Y-94227238D01*
X94178380Y-93608190D01*
X93178380Y-92989142D02*
X93178380Y-92893904D01*
X93226000Y-92798666D01*
X93273619Y-92751047D01*
X93368857Y-92703428D01*
X93559333Y-92655809D01*
X93797428Y-92655809D01*
X93987904Y-92703428D01*
X94083142Y-92751047D01*
X94130761Y-92798666D01*
X94178380Y-92893904D01*
X94178380Y-92989142D01*
X94130761Y-93084380D01*
X94083142Y-93132000D01*
X93987904Y-93179619D01*
X93797428Y-93227238D01*
X93559333Y-93227238D01*
X93368857Y-93179619D01*
X93273619Y-93132000D01*
X93226000Y-93084380D01*
X93178380Y-92989142D01*
X93273619Y-92274857D02*
X93226000Y-92227238D01*
X93178380Y-92132000D01*
X93178380Y-91893904D01*
X93226000Y-91798666D01*
X93273619Y-91751047D01*
X93368857Y-91703428D01*
X93464095Y-91703428D01*
X93606952Y-91751047D01*
X94178380Y-92322476D01*
X94178380Y-91703428D01*
X93178380Y-91084380D02*
X93178380Y-90989142D01*
X93226000Y-90893904D01*
X93273619Y-90846285D01*
X93368857Y-90798666D01*
X93559333Y-90751047D01*
X93797428Y-90751047D01*
X93987904Y-90798666D01*
X94083142Y-90846285D01*
X94130761Y-90893904D01*
X94178380Y-90989142D01*
X94178380Y-91084380D01*
X94130761Y-91179619D01*
X94083142Y-91227238D01*
X93987904Y-91274857D01*
X93797428Y-91322476D01*
X93559333Y-91322476D01*
X93368857Y-91274857D01*
X93273619Y-91227238D01*
X93226000Y-91179619D01*
X93178380Y-91084380D01*
X91035142Y-110346190D02*
X91082761Y-110393809D01*
X91130380Y-110536666D01*
X91130380Y-110631904D01*
X91082761Y-110774761D01*
X90987523Y-110870000D01*
X90892285Y-110917619D01*
X90701809Y-110965238D01*
X90558952Y-110965238D01*
X90368476Y-110917619D01*
X90273238Y-110870000D01*
X90178000Y-110774761D01*
X90130380Y-110631904D01*
X90130380Y-110536666D01*
X90178000Y-110393809D01*
X90225619Y-110346190D01*
X91130380Y-109489047D02*
X90606571Y-109489047D01*
X90511333Y-109536666D01*
X90463714Y-109631904D01*
X90463714Y-109822380D01*
X90511333Y-109917619D01*
X91082761Y-109489047D02*
X91130380Y-109584285D01*
X91130380Y-109822380D01*
X91082761Y-109917619D01*
X90987523Y-109965238D01*
X90892285Y-109965238D01*
X90797047Y-109917619D01*
X90749428Y-109822380D01*
X90749428Y-109584285D01*
X90701809Y-109489047D01*
X91130380Y-109012857D02*
X90463714Y-109012857D01*
X90654190Y-109012857D02*
X90558952Y-108965238D01*
X90511333Y-108917619D01*
X90463714Y-108822380D01*
X90463714Y-108727142D01*
X91130380Y-108250952D02*
X91082761Y-108346190D01*
X90987523Y-108393809D01*
X90130380Y-108393809D01*
X91130380Y-107727142D02*
X91082761Y-107822380D01*
X91035142Y-107870000D01*
X90939904Y-107917619D01*
X90654190Y-107917619D01*
X90558952Y-107870000D01*
X90511333Y-107822380D01*
X90463714Y-107727142D01*
X90463714Y-107584285D01*
X90511333Y-107489047D01*
X90558952Y-107441428D01*
X90654190Y-107393809D01*
X90939904Y-107393809D01*
X91035142Y-107441428D01*
X91082761Y-107489047D01*
X91130380Y-107584285D01*
X91130380Y-107727142D01*
X91082761Y-107012857D02*
X91130380Y-106917619D01*
X91130380Y-106727142D01*
X91082761Y-106631904D01*
X90987523Y-106584285D01*
X90939904Y-106584285D01*
X90844666Y-106631904D01*
X90797047Y-106727142D01*
X90797047Y-106870000D01*
X90749428Y-106965238D01*
X90654190Y-107012857D01*
X90606571Y-107012857D01*
X90511333Y-106965238D01*
X90463714Y-106870000D01*
X90463714Y-106727142D01*
X90511333Y-106631904D01*
X91082761Y-105441428D02*
X91130380Y-105298571D01*
X91130380Y-105060476D01*
X91082761Y-104965238D01*
X91035142Y-104917619D01*
X90939904Y-104870000D01*
X90844666Y-104870000D01*
X90749428Y-104917619D01*
X90701809Y-104965238D01*
X90654190Y-105060476D01*
X90606571Y-105250952D01*
X90558952Y-105346190D01*
X90511333Y-105393809D01*
X90416095Y-105441428D01*
X90320857Y-105441428D01*
X90225619Y-105393809D01*
X90178000Y-105346190D01*
X90130380Y-105250952D01*
X90130380Y-105012857D01*
X90178000Y-104870000D01*
X91130380Y-104441428D02*
X90463714Y-104441428D01*
X90130380Y-104441428D02*
X90178000Y-104489047D01*
X90225619Y-104441428D01*
X90178000Y-104393809D01*
X90130380Y-104441428D01*
X90225619Y-104441428D01*
X91130380Y-103822380D02*
X91082761Y-103917619D01*
X90987523Y-103965238D01*
X90130380Y-103965238D01*
X90463714Y-103536666D02*
X91130380Y-103298571D01*
X90463714Y-103060476D01*
X91130380Y-102250952D02*
X90606571Y-102250952D01*
X90511333Y-102298571D01*
X90463714Y-102393809D01*
X90463714Y-102584285D01*
X90511333Y-102679523D01*
X91082761Y-102250952D02*
X91130380Y-102346190D01*
X91130380Y-102584285D01*
X91082761Y-102679523D01*
X90987523Y-102727142D01*
X90892285Y-102727142D01*
X90797047Y-102679523D01*
X90749428Y-102584285D01*
X90749428Y-102346190D01*
X90701809Y-102250952D01*
X91130380Y-100489047D02*
X91130380Y-101060476D01*
X91130380Y-100774761D02*
X90130380Y-100774761D01*
X90273238Y-100870000D01*
X90368476Y-100965238D01*
X90416095Y-101060476D01*
X91130380Y-99536666D02*
X91130380Y-100108095D01*
X91130380Y-99822380D02*
X90130380Y-99822380D01*
X90273238Y-99917619D01*
X90368476Y-100012857D01*
X90416095Y-100108095D01*
X90130380Y-98679523D02*
X90130380Y-98870000D01*
X90178000Y-98965238D01*
X90225619Y-99012857D01*
X90368476Y-99108095D01*
X90558952Y-99155714D01*
X90939904Y-99155714D01*
X91035142Y-99108095D01*
X91082761Y-99060476D01*
X91130380Y-98965238D01*
X91130380Y-98774761D01*
X91082761Y-98679523D01*
X91035142Y-98631904D01*
X90939904Y-98584285D01*
X90701809Y-98584285D01*
X90606571Y-98631904D01*
X90558952Y-98679523D01*
X90511333Y-98774761D01*
X90511333Y-98965238D01*
X90558952Y-99060476D01*
X90606571Y-99108095D01*
X90701809Y-99155714D01*
X90130380Y-97965238D02*
X90130380Y-97870000D01*
X90178000Y-97774761D01*
X90225619Y-97727142D01*
X90320857Y-97679523D01*
X90511333Y-97631904D01*
X90749428Y-97631904D01*
X90939904Y-97679523D01*
X91035142Y-97727142D01*
X91082761Y-97774761D01*
X91130380Y-97870000D01*
X91130380Y-97965238D01*
X91082761Y-98060476D01*
X91035142Y-98108095D01*
X90939904Y-98155714D01*
X90749428Y-98203333D01*
X90511333Y-98203333D01*
X90320857Y-98155714D01*
X90225619Y-98108095D01*
X90178000Y-98060476D01*
X90130380Y-97965238D01*
X90130380Y-96774761D02*
X90130380Y-96965238D01*
X90178000Y-97060476D01*
X90225619Y-97108095D01*
X90368476Y-97203333D01*
X90558952Y-97250952D01*
X90939904Y-97250952D01*
X91035142Y-97203333D01*
X91082761Y-97155714D01*
X91130380Y-97060476D01*
X91130380Y-96870000D01*
X91082761Y-96774761D01*
X91035142Y-96727142D01*
X90939904Y-96679523D01*
X90701809Y-96679523D01*
X90606571Y-96727142D01*
X90558952Y-96774761D01*
X90511333Y-96870000D01*
X90511333Y-97060476D01*
X90558952Y-97155714D01*
X90606571Y-97203333D01*
X90701809Y-97250952D01*
X90225619Y-96298571D02*
X90178000Y-96250952D01*
X90130380Y-96155714D01*
X90130380Y-95917619D01*
X90178000Y-95822380D01*
X90225619Y-95774761D01*
X90320857Y-95727142D01*
X90416095Y-95727142D01*
X90558952Y-95774761D01*
X91130380Y-96346190D01*
X91130380Y-95727142D01*
X90558952Y-95155714D02*
X90511333Y-95250952D01*
X90463714Y-95298571D01*
X90368476Y-95346190D01*
X90320857Y-95346190D01*
X90225619Y-95298571D01*
X90178000Y-95250952D01*
X90130380Y-95155714D01*
X90130380Y-94965238D01*
X90178000Y-94870000D01*
X90225619Y-94822380D01*
X90320857Y-94774761D01*
X90368476Y-94774761D01*
X90463714Y-94822380D01*
X90511333Y-94870000D01*
X90558952Y-94965238D01*
X90558952Y-95155714D01*
X90606571Y-95250952D01*
X90654190Y-95298571D01*
X90749428Y-95346190D01*
X90939904Y-95346190D01*
X91035142Y-95298571D01*
X91082761Y-95250952D01*
X91130380Y-95155714D01*
X91130380Y-94965238D01*
X91082761Y-94870000D01*
X91035142Y-94822380D01*
X90939904Y-94774761D01*
X90749428Y-94774761D01*
X90654190Y-94822380D01*
X90606571Y-94870000D01*
X90558952Y-94965238D01*
D14*
X216816000Y-104616000D02*
X219556000Y-104616000D01*
X219556000Y-104616000D02*
X219556000Y-98076000D01*
X219556000Y-98076000D02*
X216816000Y-98076000D01*
X216816000Y-98076000D02*
X216816000Y-104616000D01*
X218186000Y-105386000D02*
X218186000Y-104616000D01*
X218186000Y-97306000D02*
X218186000Y-98076000D01*
X214630000Y-97306000D02*
X214630000Y-98076000D01*
X214630000Y-105386000D02*
X214630000Y-104616000D01*
X213260000Y-98076000D02*
X213260000Y-104616000D01*
X216000000Y-98076000D02*
X213260000Y-98076000D01*
X216000000Y-104616000D02*
X216000000Y-98076000D01*
X213260000Y-104616000D02*
X216000000Y-104616000D01*
X159198000Y-118678000D02*
X161858000Y-118678000D01*
X159198000Y-113538000D02*
X159198000Y-118678000D01*
X161858000Y-113538000D02*
X161858000Y-118678000D01*
X159198000Y-113538000D02*
X161858000Y-113538000D01*
X159198000Y-112268000D02*
X159198000Y-110938000D01*
X159198000Y-110938000D02*
X160528000Y-110938000D01*
D15*
X186496000Y-83334000D02*
X186496000Y-88334000D01*
X206696000Y-88334000D02*
X206696000Y-83334000D01*
X206696000Y-83334000D02*
X186496000Y-83334000D01*
D16*
X187806000Y-94554000D02*
G75*
G03X187806000Y-94554000I-100000J0D01*
G01*
D14*
X137236000Y-94273000D02*
X137236000Y-94338000D01*
X137236000Y-92098000D02*
X137236000Y-92163000D01*
X133996000Y-94273000D02*
X133996000Y-94338000D01*
X133996000Y-92098000D02*
X133996000Y-92163000D01*
X133996000Y-94338000D02*
X137236000Y-94338000D01*
X133996000Y-92098000D02*
X137236000Y-92098000D01*
X139838000Y-91844000D02*
X143078000Y-91844000D01*
X139838000Y-94084000D02*
X143078000Y-94084000D01*
X139838000Y-91844000D02*
X139838000Y-91909000D01*
X139838000Y-94019000D02*
X139838000Y-94084000D01*
X143078000Y-91844000D02*
X143078000Y-91909000D01*
X143078000Y-94019000D02*
X143078000Y-94084000D01*
X140854000Y-116736000D02*
X144094000Y-116736000D01*
X140854000Y-118976000D02*
X144094000Y-118976000D01*
X140854000Y-116736000D02*
X140854000Y-116801000D01*
X140854000Y-118911000D02*
X140854000Y-118976000D01*
X144094000Y-116736000D02*
X144094000Y-116801000D01*
X144094000Y-118911000D02*
X144094000Y-118976000D01*
X144094000Y-105449000D02*
X144094000Y-105514000D01*
X144094000Y-103274000D02*
X144094000Y-103339000D01*
X140854000Y-105449000D02*
X140854000Y-105514000D01*
X140854000Y-103274000D02*
X140854000Y-103339000D01*
X140854000Y-105514000D02*
X144094000Y-105514000D01*
X140854000Y-103274000D02*
X144094000Y-103274000D01*
X129918000Y-96848000D02*
X130248000Y-96848000D01*
X130248000Y-96848000D02*
X130248000Y-102288000D01*
X130248000Y-102288000D02*
X129918000Y-102288000D01*
X127638000Y-96848000D02*
X127308000Y-96848000D01*
X127308000Y-96848000D02*
X127308000Y-102288000D01*
X127308000Y-102288000D02*
X127638000Y-102288000D01*
X130248000Y-97748000D02*
X127308000Y-97748000D01*
X130248000Y-97868000D02*
X127308000Y-97868000D01*
X130248000Y-97628000D02*
X127308000Y-97628000D01*
X135128462Y-102674000D02*
G75*
G03X133583170Y-108224000I-462J-2990000D01*
G01*
X135127538Y-102674000D02*
G75*
G02X136672830Y-108224000I462J-2990000D01*
G01*
X137628000Y-105664000D02*
G75*
G03X137628000Y-105664000I-2500000J0D01*
G01*
X133583000Y-108224000D02*
X136673000Y-108224000D01*
X166350000Y-85323000D02*
X166350000Y-88413000D01*
X171410000Y-86868000D02*
G75*
G03X171410000Y-86868000I-2500000J0D01*
G01*
X171900000Y-86867538D02*
G75*
G02X166350000Y-88412830I-2990000J-462D01*
G01*
X171900000Y-86868462D02*
G75*
G03X166350000Y-85323170I-2990000J462D01*
G01*
X208950000Y-99768000D02*
X208950000Y-96828000D01*
X208710000Y-99768000D02*
X208710000Y-96828000D01*
X208830000Y-99768000D02*
X208830000Y-96828000D01*
X204290000Y-96828000D02*
X204290000Y-97158000D01*
X209730000Y-96828000D02*
X204290000Y-96828000D01*
X209730000Y-97158000D02*
X209730000Y-96828000D01*
X204290000Y-99768000D02*
X204290000Y-99438000D01*
X209730000Y-99768000D02*
X204290000Y-99768000D01*
X209730000Y-99438000D02*
X209730000Y-99768000D01*
X188122000Y-99768000D02*
X188122000Y-96828000D01*
X187882000Y-99768000D02*
X187882000Y-96828000D01*
X188002000Y-99768000D02*
X188002000Y-96828000D01*
X183462000Y-96828000D02*
X183462000Y-97158000D01*
X188902000Y-96828000D02*
X183462000Y-96828000D01*
X188902000Y-97158000D02*
X188902000Y-96828000D01*
X183462000Y-99768000D02*
X183462000Y-99438000D01*
X188902000Y-99768000D02*
X183462000Y-99768000D01*
X188902000Y-99438000D02*
X188902000Y-99768000D01*
X122590000Y-99006000D02*
X122590000Y-96066000D01*
X122350000Y-99006000D02*
X122350000Y-96066000D01*
X122470000Y-99006000D02*
X122470000Y-96066000D01*
X117930000Y-96066000D02*
X117930000Y-96396000D01*
X123370000Y-96066000D02*
X117930000Y-96066000D01*
X123370000Y-96396000D02*
X123370000Y-96066000D01*
X117930000Y-99006000D02*
X117930000Y-98676000D01*
X123370000Y-99006000D02*
X117930000Y-99006000D01*
X123370000Y-98676000D02*
X123370000Y-99006000D01*
X101508000Y-99006000D02*
X101508000Y-96066000D01*
X101268000Y-99006000D02*
X101268000Y-96066000D01*
X101388000Y-99006000D02*
X101388000Y-96066000D01*
X96848000Y-96066000D02*
X96848000Y-96396000D01*
X102288000Y-96066000D02*
X96848000Y-96066000D01*
X102288000Y-96396000D02*
X102288000Y-96066000D01*
X96848000Y-99006000D02*
X96848000Y-98676000D01*
X102288000Y-99006000D02*
X96848000Y-99006000D01*
X102288000Y-98676000D02*
X102288000Y-99006000D01*
X209984000Y-105788000D02*
X209984000Y-106118000D01*
X209984000Y-106118000D02*
X204544000Y-106118000D01*
X204544000Y-106118000D02*
X204544000Y-105788000D01*
X209984000Y-103508000D02*
X209984000Y-103178000D01*
X209984000Y-103178000D02*
X204544000Y-103178000D01*
X204544000Y-103178000D02*
X204544000Y-103508000D01*
X209084000Y-106118000D02*
X209084000Y-103178000D01*
X208964000Y-106118000D02*
X208964000Y-103178000D01*
X209204000Y-106118000D02*
X209204000Y-103178000D01*
X189156000Y-105534000D02*
X189156000Y-105864000D01*
X189156000Y-105864000D02*
X183716000Y-105864000D01*
X183716000Y-105864000D02*
X183716000Y-105534000D01*
X189156000Y-103254000D02*
X189156000Y-102924000D01*
X189156000Y-102924000D02*
X183716000Y-102924000D01*
X183716000Y-102924000D02*
X183716000Y-103254000D01*
X188256000Y-105864000D02*
X188256000Y-102924000D01*
X188136000Y-105864000D02*
X188136000Y-102924000D01*
X188376000Y-105864000D02*
X188376000Y-102924000D01*
X123370000Y-104772000D02*
X123370000Y-105102000D01*
X123370000Y-105102000D02*
X117930000Y-105102000D01*
X117930000Y-105102000D02*
X117930000Y-104772000D01*
X123370000Y-102492000D02*
X123370000Y-102162000D01*
X123370000Y-102162000D02*
X117930000Y-102162000D01*
X117930000Y-102162000D02*
X117930000Y-102492000D01*
X122470000Y-105102000D02*
X122470000Y-102162000D01*
X122350000Y-105102000D02*
X122350000Y-102162000D01*
X122590000Y-105102000D02*
X122590000Y-102162000D01*
X102288000Y-104772000D02*
X102288000Y-105102000D01*
X102288000Y-105102000D02*
X96848000Y-105102000D01*
X96848000Y-105102000D02*
X96848000Y-104772000D01*
X102288000Y-102492000D02*
X102288000Y-102162000D01*
X102288000Y-102162000D02*
X96848000Y-102162000D01*
X96848000Y-102162000D02*
X96848000Y-102492000D01*
X101388000Y-105102000D02*
X101388000Y-102162000D01*
X101268000Y-105102000D02*
X101268000Y-102162000D01*
X101508000Y-105102000D02*
X101508000Y-102162000D01*
X209984000Y-111122000D02*
X209984000Y-111452000D01*
X209984000Y-111452000D02*
X204544000Y-111452000D01*
X204544000Y-111452000D02*
X204544000Y-111122000D01*
X209984000Y-108842000D02*
X209984000Y-108512000D01*
X209984000Y-108512000D02*
X204544000Y-108512000D01*
X204544000Y-108512000D02*
X204544000Y-108842000D01*
X209084000Y-111452000D02*
X209084000Y-108512000D01*
X208964000Y-111452000D02*
X208964000Y-108512000D01*
X209204000Y-111452000D02*
X209204000Y-108512000D01*
X188376000Y-112214000D02*
X188376000Y-109274000D01*
X188136000Y-112214000D02*
X188136000Y-109274000D01*
X188256000Y-112214000D02*
X188256000Y-109274000D01*
X183716000Y-109274000D02*
X183716000Y-109604000D01*
X189156000Y-109274000D02*
X183716000Y-109274000D01*
X189156000Y-109604000D02*
X189156000Y-109274000D01*
X183716000Y-112214000D02*
X183716000Y-111884000D01*
X189156000Y-112214000D02*
X183716000Y-112214000D01*
X189156000Y-111884000D02*
X189156000Y-112214000D01*
X121828000Y-111198000D02*
X121828000Y-108258000D01*
X121588000Y-111198000D02*
X121588000Y-108258000D01*
X121708000Y-111198000D02*
X121708000Y-108258000D01*
X117168000Y-108258000D02*
X117168000Y-108588000D01*
X122608000Y-108258000D02*
X117168000Y-108258000D01*
X122608000Y-108588000D02*
X122608000Y-108258000D01*
X117168000Y-111198000D02*
X117168000Y-110868000D01*
X122608000Y-111198000D02*
X117168000Y-111198000D01*
X122608000Y-110868000D02*
X122608000Y-111198000D01*
X101508000Y-111198000D02*
X101508000Y-108258000D01*
X101268000Y-111198000D02*
X101268000Y-108258000D01*
X101388000Y-111198000D02*
X101388000Y-108258000D01*
X96848000Y-108258000D02*
X96848000Y-108588000D01*
X102288000Y-108258000D02*
X96848000Y-108258000D01*
X102288000Y-108588000D02*
X102288000Y-108258000D01*
X96848000Y-111198000D02*
X96848000Y-110868000D01*
X102288000Y-111198000D02*
X96848000Y-111198000D01*
X102288000Y-110868000D02*
X102288000Y-111198000D01*
X209984000Y-117218000D02*
X209984000Y-117548000D01*
X209984000Y-117548000D02*
X204544000Y-117548000D01*
X204544000Y-117548000D02*
X204544000Y-117218000D01*
X209984000Y-114938000D02*
X209984000Y-114608000D01*
X209984000Y-114608000D02*
X204544000Y-114608000D01*
X204544000Y-114608000D02*
X204544000Y-114938000D01*
X209084000Y-117548000D02*
X209084000Y-114608000D01*
X208964000Y-117548000D02*
X208964000Y-114608000D01*
X209204000Y-117548000D02*
X209204000Y-114608000D01*
X189410000Y-117980000D02*
X189410000Y-118310000D01*
X189410000Y-118310000D02*
X183970000Y-118310000D01*
X183970000Y-118310000D02*
X183970000Y-117980000D01*
X189410000Y-115700000D02*
X189410000Y-115370000D01*
X189410000Y-115370000D02*
X183970000Y-115370000D01*
X183970000Y-115370000D02*
X183970000Y-115700000D01*
X188510000Y-118310000D02*
X188510000Y-115370000D01*
X188390000Y-118310000D02*
X188390000Y-115370000D01*
X188630000Y-118310000D02*
X188630000Y-115370000D01*
X122608000Y-117472000D02*
X122608000Y-117802000D01*
X122608000Y-117802000D02*
X117168000Y-117802000D01*
X117168000Y-117802000D02*
X117168000Y-117472000D01*
X122608000Y-115192000D02*
X122608000Y-114862000D01*
X122608000Y-114862000D02*
X117168000Y-114862000D01*
X117168000Y-114862000D02*
X117168000Y-115192000D01*
X121708000Y-117802000D02*
X121708000Y-114862000D01*
X121588000Y-117802000D02*
X121588000Y-114862000D01*
X121828000Y-117802000D02*
X121828000Y-114862000D01*
X101508000Y-117548000D02*
X101508000Y-114608000D01*
X101268000Y-117548000D02*
X101268000Y-114608000D01*
X101388000Y-117548000D02*
X101388000Y-114608000D01*
X96848000Y-114608000D02*
X96848000Y-114938000D01*
X102288000Y-114608000D02*
X96848000Y-114608000D01*
X102288000Y-114938000D02*
X102288000Y-114608000D01*
X96848000Y-117548000D02*
X96848000Y-117218000D01*
X102288000Y-117548000D02*
X96848000Y-117548000D01*
X102288000Y-117218000D02*
X102288000Y-117548000D01*
X123662000Y-89722000D02*
X124432000Y-89722000D01*
X126012000Y-89722000D02*
X126972000Y-89722000D01*
X128552000Y-89722000D02*
X129322000Y-89722000D01*
X123662000Y-84422000D02*
X129322000Y-84422000D01*
X123662000Y-83962000D02*
X129322000Y-83962000D01*
X123662000Y-90282000D02*
X124432000Y-90282000D01*
X126012000Y-90282000D02*
X126972000Y-90282000D01*
X128552000Y-90282000D02*
X129322000Y-90282000D01*
X123662000Y-83962000D02*
X123662000Y-90282000D01*
X129322000Y-83962000D02*
X129322000Y-90282000D01*
X123422000Y-89782000D02*
X123422000Y-90522000D01*
X123422000Y-90522000D02*
X123922000Y-90522000D01*
X176844000Y-108144000D02*
X171644000Y-108144000D01*
X176844000Y-118364000D02*
X176844000Y-108144000D01*
X171644000Y-120964000D02*
X171644000Y-108144000D01*
X176844000Y-118364000D02*
X174244000Y-118364000D01*
X174244000Y-118364000D02*
X174244000Y-120964000D01*
X174244000Y-120964000D02*
X171644000Y-120964000D01*
X176844000Y-119634000D02*
X176844000Y-120964000D01*
X176844000Y-120964000D02*
X175514000Y-120964000D01*
X159198000Y-97476000D02*
X161798000Y-97476000D01*
X159198000Y-97476000D02*
X159198000Y-107756000D01*
X159198000Y-107756000D02*
X164398000Y-107756000D01*
X164398000Y-100076000D02*
X164398000Y-107756000D01*
X161798000Y-100076000D02*
X164398000Y-100076000D01*
X161798000Y-97476000D02*
X161798000Y-100076000D01*
X164398000Y-97476000D02*
X164398000Y-98806000D01*
X163068000Y-97476000D02*
X164398000Y-97476000D01*
X195520000Y-120202000D02*
X198180000Y-120202000D01*
X195520000Y-112522000D02*
X195520000Y-120202000D01*
X198180000Y-112522000D02*
X198180000Y-120202000D01*
X195520000Y-112522000D02*
X198180000Y-112522000D01*
X195520000Y-111252000D02*
X195520000Y-109922000D01*
X195520000Y-109922000D02*
X196850000Y-109922000D01*
X108398000Y-109922000D02*
X109728000Y-109922000D01*
X108398000Y-111252000D02*
X108398000Y-109922000D01*
X108398000Y-112522000D02*
X111058000Y-112522000D01*
X111058000Y-112522000D02*
X111058000Y-120202000D01*
X108398000Y-112522000D02*
X108398000Y-120202000D01*
X108398000Y-120202000D02*
X111058000Y-120202000D01*
X134390000Y-99568000D02*
X135160000Y-99568000D01*
X142470000Y-99568000D02*
X141700000Y-99568000D01*
X135160000Y-100938000D02*
X141700000Y-100938000D01*
X135160000Y-98198000D02*
X135160000Y-100938000D01*
X141700000Y-98198000D02*
X135160000Y-98198000D01*
X141700000Y-100938000D02*
X141700000Y-98198000D01*
X128370000Y-108490000D02*
X125630000Y-108490000D01*
X125630000Y-108490000D02*
X125630000Y-115030000D01*
X125630000Y-115030000D02*
X128370000Y-115030000D01*
X128370000Y-115030000D02*
X128370000Y-108490000D01*
X127000000Y-107720000D02*
X127000000Y-108490000D01*
X127000000Y-115800000D02*
X127000000Y-115030000D01*
X158396000Y-92932000D02*
X161136000Y-92932000D01*
X161136000Y-92932000D02*
X161136000Y-86392000D01*
X161136000Y-86392000D02*
X158396000Y-86392000D01*
X158396000Y-86392000D02*
X158396000Y-92932000D01*
X159766000Y-93702000D02*
X159766000Y-92932000D01*
X159766000Y-85622000D02*
X159766000Y-86392000D01*
X137144000Y-116498000D02*
X137144000Y-111998000D01*
X133144000Y-117748000D02*
X134644000Y-117748000D01*
X130644000Y-111998000D02*
X130644000Y-116498000D01*
X134644000Y-110748000D02*
X133144000Y-110748000D01*
X152638000Y-83760000D02*
G75*
G02X150638000Y-83760000I-1000000J0D01*
G01*
X150638000Y-83760000D02*
X148988000Y-83760000D01*
X148988000Y-83760000D02*
X148988000Y-119440000D01*
X148988000Y-119440000D02*
X154288000Y-119440000D01*
X154288000Y-119440000D02*
X154288000Y-83760000D01*
X154288000Y-83760000D02*
X152638000Y-83760000D01*
X133056000Y-84106000D02*
X143296000Y-84106000D01*
X133056000Y-88747000D02*
X143296000Y-88747000D01*
X133056000Y-84106000D02*
X133056000Y-88747000D01*
X143296000Y-84106000D02*
X143296000Y-88747000D01*
X133056000Y-85616000D02*
X143296000Y-85616000D01*
X136326000Y-84106000D02*
X136326000Y-85616000D01*
X140027000Y-84106000D02*
X140027000Y-85616000D01*
D16*
X101192000Y-94808000D02*
G75*
G03X101192000Y-94808000I-100000J0D01*
G01*
D15*
X120082000Y-83588000D02*
X99882000Y-83588000D01*
X120082000Y-88588000D02*
X120082000Y-83588000D01*
X99882000Y-83588000D02*
X99882000Y-88588000D01*
D14*
X144344000Y-109024000D02*
X144344000Y-113724000D01*
X140644000Y-109024000D02*
X140644000Y-113724000D01*
X140644000Y-109024000D02*
G75*
G02X144344000Y-109024000I1850000J0D01*
G01*
X140644000Y-113724000D02*
G75*
G03X144344000Y-113724000I1850000J0D01*
G01*
X179070000Y-96012000D02*
G75*
G03X179070000Y-96012000I-5120000J0D01*
G01*
X173950000Y-90932000D02*
X173950000Y-101092000D01*
X173990000Y-90932000D02*
X173990000Y-101092000D01*
X174030000Y-90932000D02*
X174030000Y-101092000D01*
X174070000Y-90933000D02*
X174070000Y-101091000D01*
X174110000Y-90934000D02*
X174110000Y-101090000D01*
X174150000Y-90935000D02*
X174150000Y-101089000D01*
X174190000Y-90937000D02*
X174190000Y-101087000D01*
X174230000Y-90939000D02*
X174230000Y-101085000D01*
X174270000Y-90942000D02*
X174270000Y-101082000D01*
X174310000Y-90944000D02*
X174310000Y-101080000D01*
X174350000Y-90947000D02*
X174350000Y-101077000D01*
X174390000Y-90950000D02*
X174390000Y-101074000D01*
X174430000Y-90954000D02*
X174430000Y-101070000D01*
X174470000Y-90958000D02*
X174470000Y-101066000D01*
X174510000Y-90962000D02*
X174510000Y-101062000D01*
X174550000Y-90967000D02*
X174550000Y-101057000D01*
X174590000Y-90972000D02*
X174590000Y-101052000D01*
X174630000Y-90977000D02*
X174630000Y-101047000D01*
X174671000Y-90982000D02*
X174671000Y-101042000D01*
X174711000Y-90988000D02*
X174711000Y-101036000D01*
X174751000Y-90994000D02*
X174751000Y-101030000D01*
X174791000Y-91001000D02*
X174791000Y-101023000D01*
X174831000Y-91008000D02*
X174831000Y-101016000D01*
X174871000Y-91015000D02*
X174871000Y-101009000D01*
X174911000Y-91022000D02*
X174911000Y-101002000D01*
X174951000Y-91030000D02*
X174951000Y-100994000D01*
X174991000Y-91038000D02*
X174991000Y-100986000D01*
X175031000Y-91047000D02*
X175031000Y-100977000D01*
X175071000Y-91056000D02*
X175071000Y-100968000D01*
X175111000Y-91065000D02*
X175111000Y-100959000D01*
X175151000Y-91074000D02*
X175151000Y-100950000D01*
X175191000Y-91084000D02*
X175191000Y-100940000D01*
X175231000Y-91094000D02*
X175231000Y-94771000D01*
X175231000Y-97253000D02*
X175231000Y-100930000D01*
X175271000Y-91105000D02*
X175271000Y-94771000D01*
X175271000Y-97253000D02*
X175271000Y-100919000D01*
X175311000Y-91115000D02*
X175311000Y-94771000D01*
X175311000Y-97253000D02*
X175311000Y-100909000D01*
X175351000Y-91127000D02*
X175351000Y-94771000D01*
X175351000Y-97253000D02*
X175351000Y-100897000D01*
X175391000Y-91138000D02*
X175391000Y-94771000D01*
X175391000Y-97253000D02*
X175391000Y-100886000D01*
X175431000Y-91150000D02*
X175431000Y-94771000D01*
X175431000Y-97253000D02*
X175431000Y-100874000D01*
X175471000Y-91162000D02*
X175471000Y-94771000D01*
X175471000Y-97253000D02*
X175471000Y-100862000D01*
X175511000Y-91175000D02*
X175511000Y-94771000D01*
X175511000Y-97253000D02*
X175511000Y-100849000D01*
X175551000Y-91188000D02*
X175551000Y-94771000D01*
X175551000Y-97253000D02*
X175551000Y-100836000D01*
X175591000Y-91201000D02*
X175591000Y-94771000D01*
X175591000Y-97253000D02*
X175591000Y-100823000D01*
X175631000Y-91215000D02*
X175631000Y-94771000D01*
X175631000Y-97253000D02*
X175631000Y-100809000D01*
X175671000Y-91229000D02*
X175671000Y-94771000D01*
X175671000Y-97253000D02*
X175671000Y-100795000D01*
X175711000Y-91244000D02*
X175711000Y-94771000D01*
X175711000Y-97253000D02*
X175711000Y-100780000D01*
X175751000Y-91258000D02*
X175751000Y-94771000D01*
X175751000Y-97253000D02*
X175751000Y-100766000D01*
X175791000Y-91274000D02*
X175791000Y-94771000D01*
X175791000Y-97253000D02*
X175791000Y-100750000D01*
X175831000Y-91289000D02*
X175831000Y-94771000D01*
X175831000Y-97253000D02*
X175831000Y-100735000D01*
X175871000Y-91305000D02*
X175871000Y-94771000D01*
X175871000Y-97253000D02*
X175871000Y-100719000D01*
X175911000Y-91322000D02*
X175911000Y-94771000D01*
X175911000Y-97253000D02*
X175911000Y-100702000D01*
X175951000Y-91338000D02*
X175951000Y-94771000D01*
X175951000Y-97253000D02*
X175951000Y-100686000D01*
X175991000Y-91355000D02*
X175991000Y-94771000D01*
X175991000Y-97253000D02*
X175991000Y-100669000D01*
X176031000Y-91373000D02*
X176031000Y-94771000D01*
X176031000Y-97253000D02*
X176031000Y-100651000D01*
X176071000Y-91391000D02*
X176071000Y-94771000D01*
X176071000Y-97253000D02*
X176071000Y-100633000D01*
X176111000Y-91409000D02*
X176111000Y-94771000D01*
X176111000Y-97253000D02*
X176111000Y-100615000D01*
X176151000Y-91428000D02*
X176151000Y-94771000D01*
X176151000Y-97253000D02*
X176151000Y-100596000D01*
X176191000Y-91448000D02*
X176191000Y-94771000D01*
X176191000Y-97253000D02*
X176191000Y-100576000D01*
X176231000Y-91467000D02*
X176231000Y-94771000D01*
X176231000Y-97253000D02*
X176231000Y-100557000D01*
X176271000Y-91487000D02*
X176271000Y-94771000D01*
X176271000Y-97253000D02*
X176271000Y-100537000D01*
X176311000Y-91508000D02*
X176311000Y-94771000D01*
X176311000Y-97253000D02*
X176311000Y-100516000D01*
X176351000Y-91529000D02*
X176351000Y-94771000D01*
X176351000Y-97253000D02*
X176351000Y-100495000D01*
X176391000Y-91550000D02*
X176391000Y-94771000D01*
X176391000Y-97253000D02*
X176391000Y-100474000D01*
X176431000Y-91572000D02*
X176431000Y-94771000D01*
X176431000Y-97253000D02*
X176431000Y-100452000D01*
X176471000Y-91595000D02*
X176471000Y-94771000D01*
X176471000Y-97253000D02*
X176471000Y-100429000D01*
X176511000Y-91617000D02*
X176511000Y-94771000D01*
X176511000Y-97253000D02*
X176511000Y-100407000D01*
X176551000Y-91641000D02*
X176551000Y-94771000D01*
X176551000Y-97253000D02*
X176551000Y-100383000D01*
X176591000Y-91665000D02*
X176591000Y-94771000D01*
X176591000Y-97253000D02*
X176591000Y-100359000D01*
X176631000Y-91689000D02*
X176631000Y-94771000D01*
X176631000Y-97253000D02*
X176631000Y-100335000D01*
X176671000Y-91714000D02*
X176671000Y-94771000D01*
X176671000Y-97253000D02*
X176671000Y-100310000D01*
X176711000Y-91739000D02*
X176711000Y-94771000D01*
X176711000Y-97253000D02*
X176711000Y-100285000D01*
X176751000Y-91765000D02*
X176751000Y-94771000D01*
X176751000Y-97253000D02*
X176751000Y-100259000D01*
X176791000Y-91791000D02*
X176791000Y-94771000D01*
X176791000Y-97253000D02*
X176791000Y-100233000D01*
X176831000Y-91818000D02*
X176831000Y-94771000D01*
X176831000Y-97253000D02*
X176831000Y-100206000D01*
X176871000Y-91846000D02*
X176871000Y-94771000D01*
X176871000Y-97253000D02*
X176871000Y-100178000D01*
X176911000Y-91874000D02*
X176911000Y-94771000D01*
X176911000Y-97253000D02*
X176911000Y-100150000D01*
X176951000Y-91902000D02*
X176951000Y-94771000D01*
X176951000Y-97253000D02*
X176951000Y-100122000D01*
X176991000Y-91932000D02*
X176991000Y-94771000D01*
X176991000Y-97253000D02*
X176991000Y-100092000D01*
X177031000Y-91962000D02*
X177031000Y-94771000D01*
X177031000Y-97253000D02*
X177031000Y-100062000D01*
X177071000Y-91992000D02*
X177071000Y-94771000D01*
X177071000Y-97253000D02*
X177071000Y-100032000D01*
X177111000Y-92023000D02*
X177111000Y-94771000D01*
X177111000Y-97253000D02*
X177111000Y-100001000D01*
X177151000Y-92055000D02*
X177151000Y-94771000D01*
X177151000Y-97253000D02*
X177151000Y-99969000D01*
X177191000Y-92087000D02*
X177191000Y-94771000D01*
X177191000Y-97253000D02*
X177191000Y-99937000D01*
X177231000Y-92120000D02*
X177231000Y-94771000D01*
X177231000Y-97253000D02*
X177231000Y-99904000D01*
X177271000Y-92154000D02*
X177271000Y-94771000D01*
X177271000Y-97253000D02*
X177271000Y-99870000D01*
X177311000Y-92188000D02*
X177311000Y-94771000D01*
X177311000Y-97253000D02*
X177311000Y-99836000D01*
X177351000Y-92223000D02*
X177351000Y-94771000D01*
X177351000Y-97253000D02*
X177351000Y-99801000D01*
X177391000Y-92259000D02*
X177391000Y-94771000D01*
X177391000Y-97253000D02*
X177391000Y-99765000D01*
X177431000Y-92296000D02*
X177431000Y-94771000D01*
X177431000Y-97253000D02*
X177431000Y-99728000D01*
X177471000Y-92333000D02*
X177471000Y-94771000D01*
X177471000Y-97253000D02*
X177471000Y-99691000D01*
X177511000Y-92372000D02*
X177511000Y-94771000D01*
X177511000Y-97253000D02*
X177511000Y-99652000D01*
X177551000Y-92411000D02*
X177551000Y-94771000D01*
X177551000Y-97253000D02*
X177551000Y-99613000D01*
X177591000Y-92451000D02*
X177591000Y-94771000D01*
X177591000Y-97253000D02*
X177591000Y-99573000D01*
X177631000Y-92492000D02*
X177631000Y-94771000D01*
X177631000Y-97253000D02*
X177631000Y-99532000D01*
X177671000Y-92534000D02*
X177671000Y-94771000D01*
X177671000Y-97253000D02*
X177671000Y-99490000D01*
X177711000Y-92576000D02*
X177711000Y-99448000D01*
X177751000Y-92620000D02*
X177751000Y-99404000D01*
X177791000Y-92665000D02*
X177791000Y-99359000D01*
X177831000Y-92711000D02*
X177831000Y-99313000D01*
X177871000Y-92758000D02*
X177871000Y-99266000D01*
X177911000Y-92806000D02*
X177911000Y-99218000D01*
X177951000Y-92856000D02*
X177951000Y-99168000D01*
X177991000Y-92906000D02*
X177991000Y-99118000D01*
X178031000Y-92958000D02*
X178031000Y-99066000D01*
X178071000Y-93012000D02*
X178071000Y-99012000D01*
X178111000Y-93067000D02*
X178111000Y-98957000D01*
X178151000Y-93123000D02*
X178151000Y-98901000D01*
X178191000Y-93182000D02*
X178191000Y-98842000D01*
X178231000Y-93242000D02*
X178231000Y-98782000D01*
X178271000Y-93303000D02*
X178271000Y-98721000D01*
X178311000Y-93367000D02*
X178311000Y-98657000D01*
X178351000Y-93433000D02*
X178351000Y-98591000D01*
X178391000Y-93502000D02*
X178391000Y-98522000D01*
X178431000Y-93573000D02*
X178431000Y-98451000D01*
X178471000Y-93647000D02*
X178471000Y-98377000D01*
X178511000Y-93723000D02*
X178511000Y-98301000D01*
X178551000Y-93803000D02*
X178551000Y-98221000D01*
X178591000Y-93887000D02*
X178591000Y-98137000D01*
X178631000Y-93975000D02*
X178631000Y-98049000D01*
X178671000Y-94068000D02*
X178671000Y-97956000D01*
X178711000Y-94166000D02*
X178711000Y-97858000D01*
X178751000Y-94270000D02*
X178751000Y-97754000D01*
X178791000Y-94382000D02*
X178791000Y-97642000D01*
X178831000Y-94502000D02*
X178831000Y-97522000D01*
X178871000Y-94634000D02*
X178871000Y-97390000D01*
X178911000Y-94782000D02*
X178911000Y-97242000D01*
X178951000Y-94950000D02*
X178951000Y-97074000D01*
X178991000Y-95150000D02*
X178991000Y-96874000D01*
X179031000Y-95413000D02*
X179031000Y-96611000D01*
X168470354Y-93137000D02*
X169470354Y-93137000D01*
X168970354Y-92637000D02*
X168970354Y-93637000D01*
X104962354Y-97971000D02*
X104962354Y-98971000D01*
X104462354Y-98471000D02*
X105462354Y-98471000D01*
X115023000Y-100747000D02*
X115023000Y-101945000D01*
X114983000Y-100484000D02*
X114983000Y-102208000D01*
X114943000Y-100284000D02*
X114943000Y-102408000D01*
X114903000Y-100116000D02*
X114903000Y-102576000D01*
X114863000Y-99968000D02*
X114863000Y-102724000D01*
X114823000Y-99836000D02*
X114823000Y-102856000D01*
X114783000Y-99716000D02*
X114783000Y-102976000D01*
X114743000Y-99604000D02*
X114743000Y-103088000D01*
X114703000Y-99500000D02*
X114703000Y-103192000D01*
X114663000Y-99402000D02*
X114663000Y-103290000D01*
X114623000Y-99309000D02*
X114623000Y-103383000D01*
X114583000Y-99221000D02*
X114583000Y-103471000D01*
X114543000Y-99137000D02*
X114543000Y-103555000D01*
X114503000Y-99057000D02*
X114503000Y-103635000D01*
X114463000Y-98981000D02*
X114463000Y-103711000D01*
X114423000Y-98907000D02*
X114423000Y-103785000D01*
X114383000Y-98836000D02*
X114383000Y-103856000D01*
X114343000Y-98767000D02*
X114343000Y-103925000D01*
X114303000Y-98701000D02*
X114303000Y-103991000D01*
X114263000Y-98637000D02*
X114263000Y-104055000D01*
X114223000Y-98576000D02*
X114223000Y-104116000D01*
X114183000Y-98516000D02*
X114183000Y-104176000D01*
X114143000Y-98457000D02*
X114143000Y-104235000D01*
X114103000Y-98401000D02*
X114103000Y-104291000D01*
X114063000Y-98346000D02*
X114063000Y-104346000D01*
X114023000Y-98292000D02*
X114023000Y-104400000D01*
X113983000Y-98240000D02*
X113983000Y-104452000D01*
X113943000Y-98190000D02*
X113943000Y-104502000D01*
X113903000Y-98140000D02*
X113903000Y-104552000D01*
X113863000Y-98092000D02*
X113863000Y-104600000D01*
X113823000Y-98045000D02*
X113823000Y-104647000D01*
X113783000Y-97999000D02*
X113783000Y-104693000D01*
X113743000Y-97954000D02*
X113743000Y-104738000D01*
X113703000Y-97910000D02*
X113703000Y-104782000D01*
X113663000Y-102587000D02*
X113663000Y-104824000D01*
X113663000Y-97868000D02*
X113663000Y-100105000D01*
X113623000Y-102587000D02*
X113623000Y-104866000D01*
X113623000Y-97826000D02*
X113623000Y-100105000D01*
X113583000Y-102587000D02*
X113583000Y-104907000D01*
X113583000Y-97785000D02*
X113583000Y-100105000D01*
X113543000Y-102587000D02*
X113543000Y-104947000D01*
X113543000Y-97745000D02*
X113543000Y-100105000D01*
X113503000Y-102587000D02*
X113503000Y-104986000D01*
X113503000Y-97706000D02*
X113503000Y-100105000D01*
X113463000Y-102587000D02*
X113463000Y-105025000D01*
X113463000Y-97667000D02*
X113463000Y-100105000D01*
X113423000Y-102587000D02*
X113423000Y-105062000D01*
X113423000Y-97630000D02*
X113423000Y-100105000D01*
X113383000Y-102587000D02*
X113383000Y-105099000D01*
X113383000Y-97593000D02*
X113383000Y-100105000D01*
X113343000Y-102587000D02*
X113343000Y-105135000D01*
X113343000Y-97557000D02*
X113343000Y-100105000D01*
X113303000Y-102587000D02*
X113303000Y-105170000D01*
X113303000Y-97522000D02*
X113303000Y-100105000D01*
X113263000Y-102587000D02*
X113263000Y-105204000D01*
X113263000Y-97488000D02*
X113263000Y-100105000D01*
X113223000Y-102587000D02*
X113223000Y-105238000D01*
X113223000Y-97454000D02*
X113223000Y-100105000D01*
X113183000Y-102587000D02*
X113183000Y-105271000D01*
X113183000Y-97421000D02*
X113183000Y-100105000D01*
X113143000Y-102587000D02*
X113143000Y-105303000D01*
X113143000Y-97389000D02*
X113143000Y-100105000D01*
X113103000Y-102587000D02*
X113103000Y-105335000D01*
X113103000Y-97357000D02*
X113103000Y-100105000D01*
X113063000Y-102587000D02*
X113063000Y-105366000D01*
X113063000Y-97326000D02*
X113063000Y-100105000D01*
X113023000Y-102587000D02*
X113023000Y-105396000D01*
X113023000Y-97296000D02*
X113023000Y-100105000D01*
X112983000Y-102587000D02*
X112983000Y-105426000D01*
X112983000Y-97266000D02*
X112983000Y-100105000D01*
X112943000Y-102587000D02*
X112943000Y-105456000D01*
X112943000Y-97236000D02*
X112943000Y-100105000D01*
X112903000Y-102587000D02*
X112903000Y-105484000D01*
X112903000Y-97208000D02*
X112903000Y-100105000D01*
X112863000Y-102587000D02*
X112863000Y-105512000D01*
X112863000Y-97180000D02*
X112863000Y-100105000D01*
X112823000Y-102587000D02*
X112823000Y-105540000D01*
X112823000Y-97152000D02*
X112823000Y-100105000D01*
X112783000Y-102587000D02*
X112783000Y-105567000D01*
X112783000Y-97125000D02*
X112783000Y-100105000D01*
X112743000Y-102587000D02*
X112743000Y-105593000D01*
X112743000Y-97099000D02*
X112743000Y-100105000D01*
X112703000Y-102587000D02*
X112703000Y-105619000D01*
X112703000Y-97073000D02*
X112703000Y-100105000D01*
X112663000Y-102587000D02*
X112663000Y-105644000D01*
X112663000Y-97048000D02*
X112663000Y-100105000D01*
X112623000Y-102587000D02*
X112623000Y-105669000D01*
X112623000Y-97023000D02*
X112623000Y-100105000D01*
X112583000Y-102587000D02*
X112583000Y-105693000D01*
X112583000Y-96999000D02*
X112583000Y-100105000D01*
X112543000Y-102587000D02*
X112543000Y-105717000D01*
X112543000Y-96975000D02*
X112543000Y-100105000D01*
X112503000Y-102587000D02*
X112503000Y-105741000D01*
X112503000Y-96951000D02*
X112503000Y-100105000D01*
X112463000Y-102587000D02*
X112463000Y-105763000D01*
X112463000Y-96929000D02*
X112463000Y-100105000D01*
X112423000Y-102587000D02*
X112423000Y-105786000D01*
X112423000Y-96906000D02*
X112423000Y-100105000D01*
X112383000Y-102587000D02*
X112383000Y-105808000D01*
X112383000Y-96884000D02*
X112383000Y-100105000D01*
X112343000Y-102587000D02*
X112343000Y-105829000D01*
X112343000Y-96863000D02*
X112343000Y-100105000D01*
X112303000Y-102587000D02*
X112303000Y-105850000D01*
X112303000Y-96842000D02*
X112303000Y-100105000D01*
X112263000Y-102587000D02*
X112263000Y-105871000D01*
X112263000Y-96821000D02*
X112263000Y-100105000D01*
X112223000Y-102587000D02*
X112223000Y-105891000D01*
X112223000Y-96801000D02*
X112223000Y-100105000D01*
X112183000Y-102587000D02*
X112183000Y-105910000D01*
X112183000Y-96782000D02*
X112183000Y-100105000D01*
X112143000Y-102587000D02*
X112143000Y-105930000D01*
X112143000Y-96762000D02*
X112143000Y-100105000D01*
X112103000Y-102587000D02*
X112103000Y-105949000D01*
X112103000Y-96743000D02*
X112103000Y-100105000D01*
X112063000Y-102587000D02*
X112063000Y-105967000D01*
X112063000Y-96725000D02*
X112063000Y-100105000D01*
X112023000Y-102587000D02*
X112023000Y-105985000D01*
X112023000Y-96707000D02*
X112023000Y-100105000D01*
X111983000Y-102587000D02*
X111983000Y-106003000D01*
X111983000Y-96689000D02*
X111983000Y-100105000D01*
X111943000Y-102587000D02*
X111943000Y-106020000D01*
X111943000Y-96672000D02*
X111943000Y-100105000D01*
X111903000Y-102587000D02*
X111903000Y-106036000D01*
X111903000Y-96656000D02*
X111903000Y-100105000D01*
X111863000Y-102587000D02*
X111863000Y-106053000D01*
X111863000Y-96639000D02*
X111863000Y-100105000D01*
X111823000Y-102587000D02*
X111823000Y-106069000D01*
X111823000Y-96623000D02*
X111823000Y-100105000D01*
X111783000Y-102587000D02*
X111783000Y-106084000D01*
X111783000Y-96608000D02*
X111783000Y-100105000D01*
X111743000Y-102587000D02*
X111743000Y-106100000D01*
X111743000Y-96592000D02*
X111743000Y-100105000D01*
X111703000Y-102587000D02*
X111703000Y-106114000D01*
X111703000Y-96578000D02*
X111703000Y-100105000D01*
X111663000Y-102587000D02*
X111663000Y-106129000D01*
X111663000Y-96563000D02*
X111663000Y-100105000D01*
X111623000Y-102587000D02*
X111623000Y-106143000D01*
X111623000Y-96549000D02*
X111623000Y-100105000D01*
X111583000Y-102587000D02*
X111583000Y-106157000D01*
X111583000Y-96535000D02*
X111583000Y-100105000D01*
X111543000Y-102587000D02*
X111543000Y-106170000D01*
X111543000Y-96522000D02*
X111543000Y-100105000D01*
X111503000Y-102587000D02*
X111503000Y-106183000D01*
X111503000Y-96509000D02*
X111503000Y-100105000D01*
X111463000Y-102587000D02*
X111463000Y-106196000D01*
X111463000Y-96496000D02*
X111463000Y-100105000D01*
X111423000Y-102587000D02*
X111423000Y-106208000D01*
X111423000Y-96484000D02*
X111423000Y-100105000D01*
X111383000Y-102587000D02*
X111383000Y-106220000D01*
X111383000Y-96472000D02*
X111383000Y-100105000D01*
X111343000Y-102587000D02*
X111343000Y-106231000D01*
X111343000Y-96461000D02*
X111343000Y-100105000D01*
X111303000Y-102587000D02*
X111303000Y-106243000D01*
X111303000Y-96449000D02*
X111303000Y-100105000D01*
X111263000Y-102587000D02*
X111263000Y-106253000D01*
X111263000Y-96439000D02*
X111263000Y-100105000D01*
X111223000Y-102587000D02*
X111223000Y-106264000D01*
X111223000Y-96428000D02*
X111223000Y-100105000D01*
X111183000Y-96418000D02*
X111183000Y-106274000D01*
X111143000Y-96408000D02*
X111143000Y-106284000D01*
X111103000Y-96399000D02*
X111103000Y-106293000D01*
X111063000Y-96390000D02*
X111063000Y-106302000D01*
X111023000Y-96381000D02*
X111023000Y-106311000D01*
X110983000Y-96372000D02*
X110983000Y-106320000D01*
X110943000Y-96364000D02*
X110943000Y-106328000D01*
X110903000Y-96356000D02*
X110903000Y-106336000D01*
X110863000Y-96349000D02*
X110863000Y-106343000D01*
X110823000Y-96342000D02*
X110823000Y-106350000D01*
X110783000Y-96335000D02*
X110783000Y-106357000D01*
X110743000Y-96328000D02*
X110743000Y-106364000D01*
X110703000Y-96322000D02*
X110703000Y-106370000D01*
X110663000Y-96316000D02*
X110663000Y-106376000D01*
X110622000Y-96311000D02*
X110622000Y-106381000D01*
X110582000Y-96306000D02*
X110582000Y-106386000D01*
X110542000Y-96301000D02*
X110542000Y-106391000D01*
X110502000Y-96296000D02*
X110502000Y-106396000D01*
X110462000Y-96292000D02*
X110462000Y-106400000D01*
X110422000Y-96288000D02*
X110422000Y-106404000D01*
X110382000Y-96284000D02*
X110382000Y-106408000D01*
X110342000Y-96281000D02*
X110342000Y-106411000D01*
X110302000Y-96278000D02*
X110302000Y-106414000D01*
X110262000Y-96276000D02*
X110262000Y-106416000D01*
X110222000Y-96273000D02*
X110222000Y-106419000D01*
X110182000Y-96271000D02*
X110182000Y-106421000D01*
X110142000Y-96269000D02*
X110142000Y-106423000D01*
X110102000Y-96268000D02*
X110102000Y-106424000D01*
X110062000Y-96267000D02*
X110062000Y-106425000D01*
X110022000Y-96266000D02*
X110022000Y-106426000D01*
X109982000Y-96266000D02*
X109982000Y-106426000D01*
X109942000Y-96266000D02*
X109942000Y-106426000D01*
X115062000Y-101346000D02*
G75*
G03X115062000Y-101346000I-5120000J0D01*
G01*
X201676000Y-101092000D02*
G75*
G03X201676000Y-101092000I-5120000J0D01*
G01*
X196556000Y-96012000D02*
X196556000Y-106172000D01*
X196596000Y-96012000D02*
X196596000Y-106172000D01*
X196636000Y-96012000D02*
X196636000Y-106172000D01*
X196676000Y-96013000D02*
X196676000Y-106171000D01*
X196716000Y-96014000D02*
X196716000Y-106170000D01*
X196756000Y-96015000D02*
X196756000Y-106169000D01*
X196796000Y-96017000D02*
X196796000Y-106167000D01*
X196836000Y-96019000D02*
X196836000Y-106165000D01*
X196876000Y-96022000D02*
X196876000Y-106162000D01*
X196916000Y-96024000D02*
X196916000Y-106160000D01*
X196956000Y-96027000D02*
X196956000Y-106157000D01*
X196996000Y-96030000D02*
X196996000Y-106154000D01*
X197036000Y-96034000D02*
X197036000Y-106150000D01*
X197076000Y-96038000D02*
X197076000Y-106146000D01*
X197116000Y-96042000D02*
X197116000Y-106142000D01*
X197156000Y-96047000D02*
X197156000Y-106137000D01*
X197196000Y-96052000D02*
X197196000Y-106132000D01*
X197236000Y-96057000D02*
X197236000Y-106127000D01*
X197277000Y-96062000D02*
X197277000Y-106122000D01*
X197317000Y-96068000D02*
X197317000Y-106116000D01*
X197357000Y-96074000D02*
X197357000Y-106110000D01*
X197397000Y-96081000D02*
X197397000Y-106103000D01*
X197437000Y-96088000D02*
X197437000Y-106096000D01*
X197477000Y-96095000D02*
X197477000Y-106089000D01*
X197517000Y-96102000D02*
X197517000Y-106082000D01*
X197557000Y-96110000D02*
X197557000Y-106074000D01*
X197597000Y-96118000D02*
X197597000Y-106066000D01*
X197637000Y-96127000D02*
X197637000Y-106057000D01*
X197677000Y-96136000D02*
X197677000Y-106048000D01*
X197717000Y-96145000D02*
X197717000Y-106039000D01*
X197757000Y-96154000D02*
X197757000Y-106030000D01*
X197797000Y-96164000D02*
X197797000Y-106020000D01*
X197837000Y-96174000D02*
X197837000Y-99851000D01*
X197837000Y-102333000D02*
X197837000Y-106010000D01*
X197877000Y-96185000D02*
X197877000Y-99851000D01*
X197877000Y-102333000D02*
X197877000Y-105999000D01*
X197917000Y-96195000D02*
X197917000Y-99851000D01*
X197917000Y-102333000D02*
X197917000Y-105989000D01*
X197957000Y-96207000D02*
X197957000Y-99851000D01*
X197957000Y-102333000D02*
X197957000Y-105977000D01*
X197997000Y-96218000D02*
X197997000Y-99851000D01*
X197997000Y-102333000D02*
X197997000Y-105966000D01*
X198037000Y-96230000D02*
X198037000Y-99851000D01*
X198037000Y-102333000D02*
X198037000Y-105954000D01*
X198077000Y-96242000D02*
X198077000Y-99851000D01*
X198077000Y-102333000D02*
X198077000Y-105942000D01*
X198117000Y-96255000D02*
X198117000Y-99851000D01*
X198117000Y-102333000D02*
X198117000Y-105929000D01*
X198157000Y-96268000D02*
X198157000Y-99851000D01*
X198157000Y-102333000D02*
X198157000Y-105916000D01*
X198197000Y-96281000D02*
X198197000Y-99851000D01*
X198197000Y-102333000D02*
X198197000Y-105903000D01*
X198237000Y-96295000D02*
X198237000Y-99851000D01*
X198237000Y-102333000D02*
X198237000Y-105889000D01*
X198277000Y-96309000D02*
X198277000Y-99851000D01*
X198277000Y-102333000D02*
X198277000Y-105875000D01*
X198317000Y-96324000D02*
X198317000Y-99851000D01*
X198317000Y-102333000D02*
X198317000Y-105860000D01*
X198357000Y-96338000D02*
X198357000Y-99851000D01*
X198357000Y-102333000D02*
X198357000Y-105846000D01*
X198397000Y-96354000D02*
X198397000Y-99851000D01*
X198397000Y-102333000D02*
X198397000Y-105830000D01*
X198437000Y-96369000D02*
X198437000Y-99851000D01*
X198437000Y-102333000D02*
X198437000Y-105815000D01*
X198477000Y-96385000D02*
X198477000Y-99851000D01*
X198477000Y-102333000D02*
X198477000Y-105799000D01*
X198517000Y-96402000D02*
X198517000Y-99851000D01*
X198517000Y-102333000D02*
X198517000Y-105782000D01*
X198557000Y-96418000D02*
X198557000Y-99851000D01*
X198557000Y-102333000D02*
X198557000Y-105766000D01*
X198597000Y-96435000D02*
X198597000Y-99851000D01*
X198597000Y-102333000D02*
X198597000Y-105749000D01*
X198637000Y-96453000D02*
X198637000Y-99851000D01*
X198637000Y-102333000D02*
X198637000Y-105731000D01*
X198677000Y-96471000D02*
X198677000Y-99851000D01*
X198677000Y-102333000D02*
X198677000Y-105713000D01*
X198717000Y-96489000D02*
X198717000Y-99851000D01*
X198717000Y-102333000D02*
X198717000Y-105695000D01*
X198757000Y-96508000D02*
X198757000Y-99851000D01*
X198757000Y-102333000D02*
X198757000Y-105676000D01*
X198797000Y-96528000D02*
X198797000Y-99851000D01*
X198797000Y-102333000D02*
X198797000Y-105656000D01*
X198837000Y-96547000D02*
X198837000Y-99851000D01*
X198837000Y-102333000D02*
X198837000Y-105637000D01*
X198877000Y-96567000D02*
X198877000Y-99851000D01*
X198877000Y-102333000D02*
X198877000Y-105617000D01*
X198917000Y-96588000D02*
X198917000Y-99851000D01*
X198917000Y-102333000D02*
X198917000Y-105596000D01*
X198957000Y-96609000D02*
X198957000Y-99851000D01*
X198957000Y-102333000D02*
X198957000Y-105575000D01*
X198997000Y-96630000D02*
X198997000Y-99851000D01*
X198997000Y-102333000D02*
X198997000Y-105554000D01*
X199037000Y-96652000D02*
X199037000Y-99851000D01*
X199037000Y-102333000D02*
X199037000Y-105532000D01*
X199077000Y-96675000D02*
X199077000Y-99851000D01*
X199077000Y-102333000D02*
X199077000Y-105509000D01*
X199117000Y-96697000D02*
X199117000Y-99851000D01*
X199117000Y-102333000D02*
X199117000Y-105487000D01*
X199157000Y-96721000D02*
X199157000Y-99851000D01*
X199157000Y-102333000D02*
X199157000Y-105463000D01*
X199197000Y-96745000D02*
X199197000Y-99851000D01*
X199197000Y-102333000D02*
X199197000Y-105439000D01*
X199237000Y-96769000D02*
X199237000Y-99851000D01*
X199237000Y-102333000D02*
X199237000Y-105415000D01*
X199277000Y-96794000D02*
X199277000Y-99851000D01*
X199277000Y-102333000D02*
X199277000Y-105390000D01*
X199317000Y-96819000D02*
X199317000Y-99851000D01*
X199317000Y-102333000D02*
X199317000Y-105365000D01*
X199357000Y-96845000D02*
X199357000Y-99851000D01*
X199357000Y-102333000D02*
X199357000Y-105339000D01*
X199397000Y-96871000D02*
X199397000Y-99851000D01*
X199397000Y-102333000D02*
X199397000Y-105313000D01*
X199437000Y-96898000D02*
X199437000Y-99851000D01*
X199437000Y-102333000D02*
X199437000Y-105286000D01*
X199477000Y-96926000D02*
X199477000Y-99851000D01*
X199477000Y-102333000D02*
X199477000Y-105258000D01*
X199517000Y-96954000D02*
X199517000Y-99851000D01*
X199517000Y-102333000D02*
X199517000Y-105230000D01*
X199557000Y-96982000D02*
X199557000Y-99851000D01*
X199557000Y-102333000D02*
X199557000Y-105202000D01*
X199597000Y-97012000D02*
X199597000Y-99851000D01*
X199597000Y-102333000D02*
X199597000Y-105172000D01*
X199637000Y-97042000D02*
X199637000Y-99851000D01*
X199637000Y-102333000D02*
X199637000Y-105142000D01*
X199677000Y-97072000D02*
X199677000Y-99851000D01*
X199677000Y-102333000D02*
X199677000Y-105112000D01*
X199717000Y-97103000D02*
X199717000Y-99851000D01*
X199717000Y-102333000D02*
X199717000Y-105081000D01*
X199757000Y-97135000D02*
X199757000Y-99851000D01*
X199757000Y-102333000D02*
X199757000Y-105049000D01*
X199797000Y-97167000D02*
X199797000Y-99851000D01*
X199797000Y-102333000D02*
X199797000Y-105017000D01*
X199837000Y-97200000D02*
X199837000Y-99851000D01*
X199837000Y-102333000D02*
X199837000Y-104984000D01*
X199877000Y-97234000D02*
X199877000Y-99851000D01*
X199877000Y-102333000D02*
X199877000Y-104950000D01*
X199917000Y-97268000D02*
X199917000Y-99851000D01*
X199917000Y-102333000D02*
X199917000Y-104916000D01*
X199957000Y-97303000D02*
X199957000Y-99851000D01*
X199957000Y-102333000D02*
X199957000Y-104881000D01*
X199997000Y-97339000D02*
X199997000Y-99851000D01*
X199997000Y-102333000D02*
X199997000Y-104845000D01*
X200037000Y-97376000D02*
X200037000Y-99851000D01*
X200037000Y-102333000D02*
X200037000Y-104808000D01*
X200077000Y-97413000D02*
X200077000Y-99851000D01*
X200077000Y-102333000D02*
X200077000Y-104771000D01*
X200117000Y-97452000D02*
X200117000Y-99851000D01*
X200117000Y-102333000D02*
X200117000Y-104732000D01*
X200157000Y-97491000D02*
X200157000Y-99851000D01*
X200157000Y-102333000D02*
X200157000Y-104693000D01*
X200197000Y-97531000D02*
X200197000Y-99851000D01*
X200197000Y-102333000D02*
X200197000Y-104653000D01*
X200237000Y-97572000D02*
X200237000Y-99851000D01*
X200237000Y-102333000D02*
X200237000Y-104612000D01*
X200277000Y-97614000D02*
X200277000Y-99851000D01*
X200277000Y-102333000D02*
X200277000Y-104570000D01*
X200317000Y-97656000D02*
X200317000Y-104528000D01*
X200357000Y-97700000D02*
X200357000Y-104484000D01*
X200397000Y-97745000D02*
X200397000Y-104439000D01*
X200437000Y-97791000D02*
X200437000Y-104393000D01*
X200477000Y-97838000D02*
X200477000Y-104346000D01*
X200517000Y-97886000D02*
X200517000Y-104298000D01*
X200557000Y-97936000D02*
X200557000Y-104248000D01*
X200597000Y-97986000D02*
X200597000Y-104198000D01*
X200637000Y-98038000D02*
X200637000Y-104146000D01*
X200677000Y-98092000D02*
X200677000Y-104092000D01*
X200717000Y-98147000D02*
X200717000Y-104037000D01*
X200757000Y-98203000D02*
X200757000Y-103981000D01*
X200797000Y-98262000D02*
X200797000Y-103922000D01*
X200837000Y-98322000D02*
X200837000Y-103862000D01*
X200877000Y-98383000D02*
X200877000Y-103801000D01*
X200917000Y-98447000D02*
X200917000Y-103737000D01*
X200957000Y-98513000D02*
X200957000Y-103671000D01*
X200997000Y-98582000D02*
X200997000Y-103602000D01*
X201037000Y-98653000D02*
X201037000Y-103531000D01*
X201077000Y-98727000D02*
X201077000Y-103457000D01*
X201117000Y-98803000D02*
X201117000Y-103381000D01*
X201157000Y-98883000D02*
X201157000Y-103301000D01*
X201197000Y-98967000D02*
X201197000Y-103217000D01*
X201237000Y-99055000D02*
X201237000Y-103129000D01*
X201277000Y-99148000D02*
X201277000Y-103036000D01*
X201317000Y-99246000D02*
X201317000Y-102938000D01*
X201357000Y-99350000D02*
X201357000Y-102834000D01*
X201397000Y-99462000D02*
X201397000Y-102722000D01*
X201437000Y-99582000D02*
X201437000Y-102602000D01*
X201477000Y-99714000D02*
X201477000Y-102470000D01*
X201517000Y-99862000D02*
X201517000Y-102322000D01*
X201557000Y-100030000D02*
X201557000Y-102154000D01*
X201597000Y-100230000D02*
X201597000Y-101954000D01*
X201637000Y-100493000D02*
X201637000Y-101691000D01*
X191076354Y-98217000D02*
X192076354Y-98217000D01*
X191576354Y-97717000D02*
X191576354Y-98717000D01*
X176964000Y-105534000D02*
X176964000Y-105864000D01*
X176964000Y-105864000D02*
X171524000Y-105864000D01*
X171524000Y-105864000D02*
X171524000Y-105534000D01*
X176964000Y-103254000D02*
X176964000Y-102924000D01*
X176964000Y-102924000D02*
X171524000Y-102924000D01*
X171524000Y-102924000D02*
X171524000Y-103254000D01*
X176064000Y-105864000D02*
X176064000Y-102924000D01*
X175944000Y-105864000D02*
X175944000Y-102924000D01*
X176184000Y-105864000D02*
X176184000Y-102924000D01*
X164946000Y-86392000D02*
X162206000Y-86392000D01*
X162206000Y-86392000D02*
X162206000Y-92932000D01*
X162206000Y-92932000D02*
X164946000Y-92932000D01*
X164946000Y-92932000D02*
X164946000Y-86392000D01*
X163576000Y-85622000D02*
X163576000Y-86392000D01*
X163576000Y-93702000D02*
X163576000Y-92932000D01*
X165354000Y-119102000D02*
X165354000Y-118332000D01*
X165354000Y-111022000D02*
X165354000Y-111792000D01*
X166724000Y-118332000D02*
X166724000Y-111792000D01*
X163984000Y-118332000D02*
X166724000Y-118332000D01*
X163984000Y-111792000D02*
X163984000Y-118332000D01*
X166724000Y-111792000D02*
X163984000Y-111792000D01*
X173950000Y-83598000D02*
X184190000Y-83598000D01*
X173950000Y-88239000D02*
X184190000Y-88239000D01*
X173950000Y-83598000D02*
X173950000Y-88239000D01*
X184190000Y-83598000D02*
X184190000Y-88239000D01*
X173950000Y-85108000D02*
X184190000Y-85108000D01*
X177220000Y-83598000D02*
X177220000Y-85108000D01*
X180921000Y-83598000D02*
X180921000Y-85108000D01*
X102168000Y-121726000D02*
X102168000Y-119066000D01*
X99568000Y-121726000D02*
X102168000Y-121726000D01*
X99568000Y-119066000D02*
X102168000Y-119066000D01*
X99568000Y-121726000D02*
X99568000Y-119066000D01*
X98298000Y-121726000D02*
X96968000Y-121726000D01*
X96968000Y-121726000D02*
X96968000Y-120396000D01*
X210118000Y-121726000D02*
X210118000Y-119066000D01*
X207518000Y-121726000D02*
X210118000Y-121726000D01*
X207518000Y-119066000D02*
X210118000Y-119066000D01*
X207518000Y-121726000D02*
X207518000Y-119066000D01*
X206248000Y-121726000D02*
X204918000Y-121726000D01*
X204918000Y-121726000D02*
X204918000Y-120396000D01*
D10*
X218638380Y-103036666D02*
X218162190Y-103370000D01*
X218638380Y-103608095D02*
X217638380Y-103608095D01*
X217638380Y-103227142D01*
X217686000Y-103131904D01*
X217733619Y-103084285D01*
X217828857Y-103036666D01*
X217971714Y-103036666D01*
X218066952Y-103084285D01*
X218114571Y-103131904D01*
X218162190Y-103227142D01*
X218162190Y-103608095D01*
X217638380Y-102703333D02*
X217638380Y-102036666D01*
X218638380Y-102465238D01*
X218638380Y-100671238D02*
X218638380Y-101242666D01*
X218638380Y-100956952D02*
X217638380Y-100956952D01*
X217781238Y-101052190D01*
X217876476Y-101147428D01*
X217924095Y-101242666D01*
X217638380Y-100052190D02*
X217638380Y-99956952D01*
X217686000Y-99861714D01*
X217733619Y-99814095D01*
X217828857Y-99766476D01*
X218019333Y-99718857D01*
X218257428Y-99718857D01*
X218447904Y-99766476D01*
X218543142Y-99814095D01*
X218590761Y-99861714D01*
X218638380Y-99956952D01*
X218638380Y-100052190D01*
X218590761Y-100147428D01*
X218543142Y-100195047D01*
X218447904Y-100242666D01*
X218257428Y-100290285D01*
X218019333Y-100290285D01*
X217828857Y-100242666D01*
X217733619Y-100195047D01*
X217686000Y-100147428D01*
X217638380Y-100052190D01*
X218638380Y-99290285D02*
X217638380Y-99290285D01*
X218257428Y-99195047D02*
X218638380Y-98909333D01*
X217971714Y-98909333D02*
X218352666Y-99290285D01*
X215082380Y-103036666D02*
X214606190Y-103370000D01*
X215082380Y-103608095D02*
X214082380Y-103608095D01*
X214082380Y-103227142D01*
X214130000Y-103131904D01*
X214177619Y-103084285D01*
X214272857Y-103036666D01*
X214415714Y-103036666D01*
X214510952Y-103084285D01*
X214558571Y-103131904D01*
X214606190Y-103227142D01*
X214606190Y-103608095D01*
X214082380Y-102179523D02*
X214082380Y-102370000D01*
X214130000Y-102465238D01*
X214177619Y-102512857D01*
X214320476Y-102608095D01*
X214510952Y-102655714D01*
X214891904Y-102655714D01*
X214987142Y-102608095D01*
X215034761Y-102560476D01*
X215082380Y-102465238D01*
X215082380Y-102274761D01*
X215034761Y-102179523D01*
X214987142Y-102131904D01*
X214891904Y-102084285D01*
X214653809Y-102084285D01*
X214558571Y-102131904D01*
X214510952Y-102179523D01*
X214463333Y-102274761D01*
X214463333Y-102465238D01*
X214510952Y-102560476D01*
X214558571Y-102608095D01*
X214653809Y-102655714D01*
X215082380Y-100671238D02*
X215082380Y-101242666D01*
X215082380Y-100956952D02*
X214082380Y-100956952D01*
X214225238Y-101052190D01*
X214320476Y-101147428D01*
X214368095Y-101242666D01*
X214082380Y-100052190D02*
X214082380Y-99956952D01*
X214130000Y-99861714D01*
X214177619Y-99814095D01*
X214272857Y-99766476D01*
X214463333Y-99718857D01*
X214701428Y-99718857D01*
X214891904Y-99766476D01*
X214987142Y-99814095D01*
X215034761Y-99861714D01*
X215082380Y-99956952D01*
X215082380Y-100052190D01*
X215034761Y-100147428D01*
X214987142Y-100195047D01*
X214891904Y-100242666D01*
X214701428Y-100290285D01*
X214463333Y-100290285D01*
X214272857Y-100242666D01*
X214177619Y-100195047D01*
X214130000Y-100147428D01*
X214082380Y-100052190D01*
X215082380Y-99290285D02*
X214082380Y-99290285D01*
X214701428Y-99195047D02*
X215082380Y-98909333D01*
X214415714Y-98909333D02*
X214796666Y-99290285D01*
X160194666Y-109942380D02*
X160194666Y-110656666D01*
X160147047Y-110799523D01*
X160051809Y-110894761D01*
X159908952Y-110942380D01*
X159813714Y-110942380D01*
X160575619Y-109942380D02*
X161194666Y-109942380D01*
X160861333Y-110323333D01*
X161004190Y-110323333D01*
X161099428Y-110370952D01*
X161147047Y-110418571D01*
X161194666Y-110513809D01*
X161194666Y-110751904D01*
X161147047Y-110847142D01*
X161099428Y-110894761D01*
X161004190Y-110942380D01*
X160718476Y-110942380D01*
X160623238Y-110894761D01*
X160575619Y-110847142D01*
X162964761Y-118863428D02*
X163012380Y-118720571D01*
X163012380Y-118482476D01*
X162964761Y-118387238D01*
X162917142Y-118339619D01*
X162821904Y-118292000D01*
X162726666Y-118292000D01*
X162631428Y-118339619D01*
X162583809Y-118387238D01*
X162536190Y-118482476D01*
X162488571Y-118672952D01*
X162440952Y-118768190D01*
X162393333Y-118815809D01*
X162298095Y-118863428D01*
X162202857Y-118863428D01*
X162107619Y-118815809D01*
X162060000Y-118768190D01*
X162012380Y-118672952D01*
X162012380Y-118434857D01*
X162060000Y-118292000D01*
X162488571Y-117863428D02*
X162488571Y-117530095D01*
X163012380Y-117387238D02*
X163012380Y-117863428D01*
X162012380Y-117863428D01*
X162012380Y-117387238D01*
X163012380Y-116387238D02*
X162536190Y-116720571D01*
X163012380Y-116958666D02*
X162012380Y-116958666D01*
X162012380Y-116577714D01*
X162060000Y-116482476D01*
X162107619Y-116434857D01*
X162202857Y-116387238D01*
X162345714Y-116387238D01*
X162440952Y-116434857D01*
X162488571Y-116482476D01*
X162536190Y-116577714D01*
X162536190Y-116958666D01*
X162012380Y-116101523D02*
X163012380Y-115768190D01*
X162012380Y-115434857D01*
X162012380Y-114911047D02*
X162012380Y-114720571D01*
X162060000Y-114625333D01*
X162155238Y-114530095D01*
X162345714Y-114482476D01*
X162679047Y-114482476D01*
X162869523Y-114530095D01*
X162964761Y-114625333D01*
X163012380Y-114720571D01*
X163012380Y-114911047D01*
X162964761Y-115006285D01*
X162869523Y-115101523D01*
X162679047Y-115149142D01*
X162345714Y-115149142D01*
X162155238Y-115101523D01*
X162060000Y-115006285D01*
X162012380Y-114911047D01*
X163107619Y-114292000D02*
X163107619Y-113530095D01*
X163012380Y-113292000D02*
X162012380Y-113292000D01*
X162726666Y-112958666D01*
X162012380Y-112625333D01*
X163012380Y-112625333D01*
X162012380Y-111958666D02*
X162012380Y-111768190D01*
X162060000Y-111672952D01*
X162155238Y-111577714D01*
X162345714Y-111530095D01*
X162679047Y-111530095D01*
X162869523Y-111577714D01*
X162964761Y-111672952D01*
X163012380Y-111768190D01*
X163012380Y-111958666D01*
X162964761Y-112053904D01*
X162869523Y-112149142D01*
X162679047Y-112196761D01*
X162345714Y-112196761D01*
X162155238Y-112149142D01*
X162060000Y-112053904D01*
X162012380Y-111958666D01*
X162012380Y-111244380D02*
X162012380Y-110672952D01*
X163012380Y-110958666D02*
X162012380Y-110958666D01*
X162012380Y-110149142D02*
X162012380Y-109958666D01*
X162060000Y-109863428D01*
X162155238Y-109768190D01*
X162345714Y-109720571D01*
X162679047Y-109720571D01*
X162869523Y-109768190D01*
X162964761Y-109863428D01*
X163012380Y-109958666D01*
X163012380Y-110149142D01*
X162964761Y-110244380D01*
X162869523Y-110339619D01*
X162679047Y-110387238D01*
X162345714Y-110387238D01*
X162155238Y-110339619D01*
X162060000Y-110244380D01*
X162012380Y-110149142D01*
X163012380Y-108720571D02*
X162536190Y-109053904D01*
X163012380Y-109292000D02*
X162012380Y-109292000D01*
X162012380Y-108911047D01*
X162060000Y-108815809D01*
X162107619Y-108768190D01*
X162202857Y-108720571D01*
X162345714Y-108720571D01*
X162440952Y-108768190D01*
X162488571Y-108815809D01*
X162536190Y-108911047D01*
X162536190Y-109292000D01*
D17*
X184663380Y-91300904D02*
X185472904Y-91300904D01*
X185568142Y-91253285D01*
X185615761Y-91205666D01*
X185663380Y-91110428D01*
X185663380Y-90919952D01*
X185615761Y-90824714D01*
X185568142Y-90777095D01*
X185472904Y-90729476D01*
X184663380Y-90729476D01*
X184663380Y-90348523D02*
X184663380Y-89729476D01*
X185044333Y-90062809D01*
X185044333Y-89919952D01*
X185091952Y-89824714D01*
X185139571Y-89777095D01*
X185234809Y-89729476D01*
X185472904Y-89729476D01*
X185568142Y-89777095D01*
X185615761Y-89824714D01*
X185663380Y-89919952D01*
X185663380Y-90205666D01*
X185615761Y-90300904D01*
X185568142Y-90348523D01*
X195207142Y-84272380D02*
X194730952Y-84272380D01*
X194730952Y-83272380D01*
X195492857Y-83367619D02*
X195540476Y-83320000D01*
X195635714Y-83272380D01*
X195873809Y-83272380D01*
X195969047Y-83320000D01*
X196016666Y-83367619D01*
X196064285Y-83462857D01*
X196064285Y-83558095D01*
X196016666Y-83700952D01*
X195445238Y-84272380D01*
X196064285Y-84272380D01*
X196540476Y-84272380D02*
X196730952Y-84272380D01*
X196826190Y-84224761D01*
X196873809Y-84177142D01*
X196969047Y-84034285D01*
X197016666Y-83843809D01*
X197016666Y-83462857D01*
X196969047Y-83367619D01*
X196921428Y-83320000D01*
X196826190Y-83272380D01*
X196635714Y-83272380D01*
X196540476Y-83320000D01*
X196492857Y-83367619D01*
X196445238Y-83462857D01*
X196445238Y-83700952D01*
X196492857Y-83796190D01*
X196540476Y-83843809D01*
X196635714Y-83891428D01*
X196826190Y-83891428D01*
X196921428Y-83843809D01*
X196969047Y-83796190D01*
X197016666Y-83700952D01*
X197588095Y-83700952D02*
X197492857Y-83653333D01*
X197445238Y-83605714D01*
X197397619Y-83510476D01*
X197397619Y-83462857D01*
X197445238Y-83367619D01*
X197492857Y-83320000D01*
X197588095Y-83272380D01*
X197778571Y-83272380D01*
X197873809Y-83320000D01*
X197921428Y-83367619D01*
X197969047Y-83462857D01*
X197969047Y-83510476D01*
X197921428Y-83605714D01*
X197873809Y-83653333D01*
X197778571Y-83700952D01*
X197588095Y-83700952D01*
X197492857Y-83748571D01*
X197445238Y-83796190D01*
X197397619Y-83891428D01*
X197397619Y-84081904D01*
X197445238Y-84177142D01*
X197492857Y-84224761D01*
X197588095Y-84272380D01*
X197778571Y-84272380D01*
X197873809Y-84224761D01*
X197921428Y-84177142D01*
X197969047Y-84081904D01*
X197969047Y-83891428D01*
X197921428Y-83796190D01*
X197873809Y-83748571D01*
X197778571Y-83700952D01*
X198397619Y-84272380D02*
X198397619Y-83272380D01*
X198969047Y-84272380D01*
X198969047Y-83272380D01*
D10*
X89868476Y-85796380D02*
X89868476Y-84796380D01*
X90201809Y-85510666D01*
X90535142Y-84796380D01*
X90535142Y-85796380D01*
X91535142Y-85796380D02*
X90963714Y-85796380D01*
X91249428Y-85796380D02*
X91249428Y-84796380D01*
X91154190Y-84939238D01*
X91058952Y-85034476D01*
X90963714Y-85082095D01*
X89614476Y-115006380D02*
X89614476Y-114006380D01*
X89947809Y-114720666D01*
X90281142Y-114006380D01*
X90281142Y-115006380D01*
X90662095Y-114006380D02*
X91281142Y-114006380D01*
X90947809Y-114387333D01*
X91090666Y-114387333D01*
X91185904Y-114434952D01*
X91233523Y-114482571D01*
X91281142Y-114577809D01*
X91281142Y-114815904D01*
X91233523Y-114911142D01*
X91185904Y-114958761D01*
X91090666Y-115006380D01*
X90804952Y-115006380D01*
X90709714Y-114958761D01*
X90662095Y-114911142D01*
X215598476Y-114752380D02*
X215598476Y-113752380D01*
X215931809Y-114466666D01*
X216265142Y-113752380D01*
X216265142Y-114752380D01*
X217169904Y-114085714D02*
X217169904Y-114752380D01*
X216931809Y-113704761D02*
X216693714Y-114419047D01*
X217312761Y-114419047D01*
X215852476Y-85796380D02*
X215852476Y-84796380D01*
X216185809Y-85510666D01*
X216519142Y-84796380D01*
X216519142Y-85796380D01*
X216947714Y-84891619D02*
X216995333Y-84844000D01*
X217090571Y-84796380D01*
X217328666Y-84796380D01*
X217423904Y-84844000D01*
X217471523Y-84891619D01*
X217519142Y-84986857D01*
X217519142Y-85082095D01*
X217471523Y-85224952D01*
X216900095Y-85796380D01*
X217519142Y-85796380D01*
X135449333Y-91325142D02*
X135401714Y-91372761D01*
X135258857Y-91420380D01*
X135163619Y-91420380D01*
X135020761Y-91372761D01*
X134925523Y-91277523D01*
X134877904Y-91182285D01*
X134830285Y-90991809D01*
X134830285Y-90848952D01*
X134877904Y-90658476D01*
X134925523Y-90563238D01*
X135020761Y-90468000D01*
X135163619Y-90420380D01*
X135258857Y-90420380D01*
X135401714Y-90468000D01*
X135449333Y-90515619D01*
X136401714Y-91420380D02*
X135830285Y-91420380D01*
X136116000Y-91420380D02*
X136116000Y-90420380D01*
X136020761Y-90563238D01*
X135925523Y-90658476D01*
X135830285Y-90706095D01*
X135040952Y-94920380D02*
X135136190Y-94920380D01*
X135231428Y-94968000D01*
X135279047Y-95015619D01*
X135326666Y-95110857D01*
X135374285Y-95301333D01*
X135374285Y-95539428D01*
X135326666Y-95729904D01*
X135279047Y-95825142D01*
X135231428Y-95872761D01*
X135136190Y-95920380D01*
X135040952Y-95920380D01*
X134945714Y-95872761D01*
X134898095Y-95825142D01*
X134850476Y-95729904D01*
X134802857Y-95539428D01*
X134802857Y-95301333D01*
X134850476Y-95110857D01*
X134898095Y-95015619D01*
X134945714Y-94968000D01*
X135040952Y-94920380D01*
X135802857Y-95825142D02*
X135850476Y-95872761D01*
X135802857Y-95920380D01*
X135755238Y-95872761D01*
X135802857Y-95825142D01*
X135802857Y-95920380D01*
X136183809Y-94920380D02*
X136802857Y-94920380D01*
X136469523Y-95301333D01*
X136612380Y-95301333D01*
X136707619Y-95348952D01*
X136755238Y-95396571D01*
X136802857Y-95491809D01*
X136802857Y-95729904D01*
X136755238Y-95825142D01*
X136707619Y-95872761D01*
X136612380Y-95920380D01*
X136326666Y-95920380D01*
X136231428Y-95872761D01*
X136183809Y-95825142D01*
X137136190Y-94920380D02*
X137755238Y-94920380D01*
X137421904Y-95301333D01*
X137564761Y-95301333D01*
X137660000Y-95348952D01*
X137707619Y-95396571D01*
X137755238Y-95491809D01*
X137755238Y-95729904D01*
X137707619Y-95825142D01*
X137660000Y-95872761D01*
X137564761Y-95920380D01*
X137279047Y-95920380D01*
X137183809Y-95872761D01*
X137136190Y-95825142D01*
X138612380Y-95253714D02*
X138612380Y-95920380D01*
X138183809Y-95253714D02*
X138183809Y-95777523D01*
X138231428Y-95872761D01*
X138326666Y-95920380D01*
X138469523Y-95920380D01*
X138564761Y-95872761D01*
X138612380Y-95825142D01*
X139421904Y-95396571D02*
X139088571Y-95396571D01*
X139088571Y-95920380D02*
X139088571Y-94920380D01*
X139564761Y-94920380D01*
X142073333Y-91035142D02*
X142025714Y-91082761D01*
X141882857Y-91130380D01*
X141787619Y-91130380D01*
X141644761Y-91082761D01*
X141549523Y-90987523D01*
X141501904Y-90892285D01*
X141454285Y-90701809D01*
X141454285Y-90558952D01*
X141501904Y-90368476D01*
X141549523Y-90273238D01*
X141644761Y-90178000D01*
X141787619Y-90130380D01*
X141882857Y-90130380D01*
X142025714Y-90178000D01*
X142073333Y-90225619D01*
X142454285Y-90225619D02*
X142501904Y-90178000D01*
X142597142Y-90130380D01*
X142835238Y-90130380D01*
X142930476Y-90178000D01*
X142978095Y-90225619D01*
X143025714Y-90320857D01*
X143025714Y-90416095D01*
X142978095Y-90558952D01*
X142406666Y-91130380D01*
X143025714Y-91130380D01*
X141867142Y-94666380D02*
X141962380Y-94666380D01*
X142057619Y-94714000D01*
X142105238Y-94761619D01*
X142152857Y-94856857D01*
X142200476Y-95047333D01*
X142200476Y-95285428D01*
X142152857Y-95475904D01*
X142105238Y-95571142D01*
X142057619Y-95618761D01*
X141962380Y-95666380D01*
X141867142Y-95666380D01*
X141771904Y-95618761D01*
X141724285Y-95571142D01*
X141676666Y-95475904D01*
X141629047Y-95285428D01*
X141629047Y-95047333D01*
X141676666Y-94856857D01*
X141724285Y-94761619D01*
X141771904Y-94714000D01*
X141867142Y-94666380D01*
X142629047Y-95571142D02*
X142676666Y-95618761D01*
X142629047Y-95666380D01*
X142581428Y-95618761D01*
X142629047Y-95571142D01*
X142629047Y-95666380D01*
X143629047Y-95666380D02*
X143057619Y-95666380D01*
X143343333Y-95666380D02*
X143343333Y-94666380D01*
X143248095Y-94809238D01*
X143152857Y-94904476D01*
X143057619Y-94952095D01*
X144486190Y-94999714D02*
X144486190Y-95666380D01*
X144057619Y-94999714D02*
X144057619Y-95523523D01*
X144105238Y-95618761D01*
X144200476Y-95666380D01*
X144343333Y-95666380D01*
X144438571Y-95618761D01*
X144486190Y-95571142D01*
X145295714Y-95142571D02*
X144962380Y-95142571D01*
X144962380Y-95666380D02*
X144962380Y-94666380D01*
X145438571Y-94666380D01*
X145883333Y-119737142D02*
X145835714Y-119784761D01*
X145692857Y-119832380D01*
X145597619Y-119832380D01*
X145454761Y-119784761D01*
X145359523Y-119689523D01*
X145311904Y-119594285D01*
X145264285Y-119403809D01*
X145264285Y-119260952D01*
X145311904Y-119070476D01*
X145359523Y-118975238D01*
X145454761Y-118880000D01*
X145597619Y-118832380D01*
X145692857Y-118832380D01*
X145835714Y-118880000D01*
X145883333Y-118927619D01*
X146216666Y-118832380D02*
X146835714Y-118832380D01*
X146502380Y-119213333D01*
X146645238Y-119213333D01*
X146740476Y-119260952D01*
X146788095Y-119308571D01*
X146835714Y-119403809D01*
X146835714Y-119641904D01*
X146788095Y-119737142D01*
X146740476Y-119784761D01*
X146645238Y-119832380D01*
X146359523Y-119832380D01*
X146264285Y-119784761D01*
X146216666Y-119737142D01*
X140597142Y-118927619D02*
X140644761Y-118880000D01*
X140740000Y-118832380D01*
X140978095Y-118832380D01*
X141073333Y-118880000D01*
X141120952Y-118927619D01*
X141168571Y-119022857D01*
X141168571Y-119118095D01*
X141120952Y-119260952D01*
X140549523Y-119832380D01*
X141168571Y-119832380D01*
X141549523Y-118927619D02*
X141597142Y-118880000D01*
X141692380Y-118832380D01*
X141930476Y-118832380D01*
X142025714Y-118880000D01*
X142073333Y-118927619D01*
X142120952Y-119022857D01*
X142120952Y-119118095D01*
X142073333Y-119260952D01*
X141501904Y-119832380D01*
X142120952Y-119832380D01*
X142549523Y-119165714D02*
X142549523Y-120165714D01*
X142549523Y-119213333D02*
X142644761Y-119165714D01*
X142835238Y-119165714D01*
X142930476Y-119213333D01*
X142978095Y-119260952D01*
X143025714Y-119356190D01*
X143025714Y-119641904D01*
X142978095Y-119737142D01*
X142930476Y-119784761D01*
X142835238Y-119832380D01*
X142644761Y-119832380D01*
X142549523Y-119784761D01*
X143787619Y-119308571D02*
X143454285Y-119308571D01*
X143454285Y-119832380D02*
X143454285Y-118832380D01*
X143930476Y-118832380D01*
X139533333Y-104497142D02*
X139485714Y-104544761D01*
X139342857Y-104592380D01*
X139247619Y-104592380D01*
X139104761Y-104544761D01*
X139009523Y-104449523D01*
X138961904Y-104354285D01*
X138914285Y-104163809D01*
X138914285Y-104020952D01*
X138961904Y-103830476D01*
X139009523Y-103735238D01*
X139104761Y-103640000D01*
X139247619Y-103592380D01*
X139342857Y-103592380D01*
X139485714Y-103640000D01*
X139533333Y-103687619D01*
X140390476Y-103925714D02*
X140390476Y-104592380D01*
X140152380Y-103544761D02*
X139914285Y-104259047D01*
X140533333Y-104259047D01*
X140831142Y-106191619D02*
X140878761Y-106144000D01*
X140974000Y-106096380D01*
X141212095Y-106096380D01*
X141307333Y-106144000D01*
X141354952Y-106191619D01*
X141402571Y-106286857D01*
X141402571Y-106382095D01*
X141354952Y-106524952D01*
X140783523Y-107096380D01*
X141402571Y-107096380D01*
X141783523Y-106191619D02*
X141831142Y-106144000D01*
X141926380Y-106096380D01*
X142164476Y-106096380D01*
X142259714Y-106144000D01*
X142307333Y-106191619D01*
X142354952Y-106286857D01*
X142354952Y-106382095D01*
X142307333Y-106524952D01*
X141735904Y-107096380D01*
X142354952Y-107096380D01*
X142783523Y-106429714D02*
X142783523Y-107429714D01*
X142783523Y-106477333D02*
X142878761Y-106429714D01*
X143069238Y-106429714D01*
X143164476Y-106477333D01*
X143212095Y-106524952D01*
X143259714Y-106620190D01*
X143259714Y-106905904D01*
X143212095Y-107001142D01*
X143164476Y-107048761D01*
X143069238Y-107096380D01*
X142878761Y-107096380D01*
X142783523Y-107048761D01*
X144021619Y-106572571D02*
X143688285Y-106572571D01*
X143688285Y-107096380D02*
X143688285Y-106096380D01*
X144164476Y-106096380D01*
X129230380Y-100814095D02*
X128230380Y-100814095D01*
X128230380Y-100576000D01*
X128278000Y-100433142D01*
X128373238Y-100337904D01*
X128468476Y-100290285D01*
X128658952Y-100242666D01*
X128801809Y-100242666D01*
X128992285Y-100290285D01*
X129087523Y-100337904D01*
X129182761Y-100433142D01*
X129230380Y-100576000D01*
X129230380Y-100814095D01*
X129230380Y-99290285D02*
X129230380Y-99861714D01*
X129230380Y-99576000D02*
X128230380Y-99576000D01*
X128373238Y-99671238D01*
X128468476Y-99766476D01*
X128516095Y-99861714D01*
X131130380Y-96019904D02*
X130130380Y-96019904D01*
X131130380Y-95448476D02*
X130558952Y-95877047D01*
X130130380Y-95448476D02*
X130701809Y-96019904D01*
X131620380Y-106402095D02*
X130620380Y-106402095D01*
X130620380Y-106164000D01*
X130668000Y-106021142D01*
X130763238Y-105925904D01*
X130858476Y-105878285D01*
X131048952Y-105830666D01*
X131191809Y-105830666D01*
X131382285Y-105878285D01*
X131477523Y-105925904D01*
X131572761Y-106021142D01*
X131620380Y-106164000D01*
X131620380Y-106402095D01*
X130715619Y-105449714D02*
X130668000Y-105402095D01*
X130620380Y-105306857D01*
X130620380Y-105068761D01*
X130668000Y-104973523D01*
X130715619Y-104925904D01*
X130810857Y-104878285D01*
X130906095Y-104878285D01*
X131048952Y-104925904D01*
X131620380Y-105497333D01*
X131620380Y-104878285D01*
X168171904Y-89352380D02*
X168171904Y-88352380D01*
X168410000Y-88352380D01*
X168552857Y-88400000D01*
X168648095Y-88495238D01*
X168695714Y-88590476D01*
X168743333Y-88780952D01*
X168743333Y-88923809D01*
X168695714Y-89114285D01*
X168648095Y-89209523D01*
X168552857Y-89304761D01*
X168410000Y-89352380D01*
X168171904Y-89352380D01*
X169076666Y-88352380D02*
X169695714Y-88352380D01*
X169362380Y-88733333D01*
X169505238Y-88733333D01*
X169600476Y-88780952D01*
X169648095Y-88828571D01*
X169695714Y-88923809D01*
X169695714Y-89161904D01*
X169648095Y-89257142D01*
X169600476Y-89304761D01*
X169505238Y-89352380D01*
X169219523Y-89352380D01*
X169124285Y-89304761D01*
X169076666Y-89257142D01*
X168267142Y-85288380D02*
X167790952Y-85288380D01*
X167790952Y-84288380D01*
X168600476Y-84764571D02*
X168933809Y-84764571D01*
X169076666Y-85288380D02*
X168600476Y-85288380D01*
X168600476Y-84288380D01*
X169076666Y-84288380D01*
X169505238Y-85288380D02*
X169505238Y-84288380D01*
X169743333Y-84288380D01*
X169886190Y-84336000D01*
X169981428Y-84431238D01*
X170029047Y-84526476D01*
X170076666Y-84716952D01*
X170076666Y-84859809D01*
X170029047Y-85050285D01*
X169981428Y-85145523D01*
X169886190Y-85240761D01*
X169743333Y-85288380D01*
X169505238Y-85288380D01*
X206271904Y-98750380D02*
X206271904Y-97750380D01*
X206510000Y-97750380D01*
X206652857Y-97798000D01*
X206748095Y-97893238D01*
X206795714Y-97988476D01*
X206843333Y-98178952D01*
X206843333Y-98321809D01*
X206795714Y-98512285D01*
X206748095Y-98607523D01*
X206652857Y-98702761D01*
X206510000Y-98750380D01*
X206271904Y-98750380D01*
X207700476Y-98083714D02*
X207700476Y-98750380D01*
X207462380Y-97702761D02*
X207224285Y-98417047D01*
X207843333Y-98417047D01*
X210558095Y-100650380D02*
X210558095Y-99650380D01*
X211129523Y-100650380D02*
X210700952Y-100078952D01*
X211129523Y-99650380D02*
X210558095Y-100221809D01*
X185443904Y-98496380D02*
X185443904Y-97496380D01*
X185682000Y-97496380D01*
X185824857Y-97544000D01*
X185920095Y-97639238D01*
X185967714Y-97734476D01*
X186015333Y-97924952D01*
X186015333Y-98067809D01*
X185967714Y-98258285D01*
X185920095Y-98353523D01*
X185824857Y-98448761D01*
X185682000Y-98496380D01*
X185443904Y-98496380D01*
X186920095Y-97496380D02*
X186443904Y-97496380D01*
X186396285Y-97972571D01*
X186443904Y-97924952D01*
X186539142Y-97877333D01*
X186777238Y-97877333D01*
X186872476Y-97924952D01*
X186920095Y-97972571D01*
X186967714Y-98067809D01*
X186967714Y-98305904D01*
X186920095Y-98401142D01*
X186872476Y-98448761D01*
X186777238Y-98496380D01*
X186539142Y-98496380D01*
X186443904Y-98448761D01*
X186396285Y-98401142D01*
X189730095Y-100650380D02*
X189730095Y-99650380D01*
X190301523Y-100650380D02*
X189872952Y-100078952D01*
X190301523Y-99650380D02*
X189730095Y-100221809D01*
X119657904Y-97988380D02*
X119657904Y-96988380D01*
X119896000Y-96988380D01*
X120038857Y-97036000D01*
X120134095Y-97131238D01*
X120181714Y-97226476D01*
X120229333Y-97416952D01*
X120229333Y-97559809D01*
X120181714Y-97750285D01*
X120134095Y-97845523D01*
X120038857Y-97940761D01*
X119896000Y-97988380D01*
X119657904Y-97988380D01*
X121086476Y-96988380D02*
X120896000Y-96988380D01*
X120800761Y-97036000D01*
X120753142Y-97083619D01*
X120657904Y-97226476D01*
X120610285Y-97416952D01*
X120610285Y-97797904D01*
X120657904Y-97893142D01*
X120705523Y-97940761D01*
X120800761Y-97988380D01*
X120991238Y-97988380D01*
X121086476Y-97940761D01*
X121134095Y-97893142D01*
X121181714Y-97797904D01*
X121181714Y-97559809D01*
X121134095Y-97464571D01*
X121086476Y-97416952D01*
X120991238Y-97369333D01*
X120800761Y-97369333D01*
X120705523Y-97416952D01*
X120657904Y-97464571D01*
X120610285Y-97559809D01*
X124198095Y-99888380D02*
X124198095Y-98888380D01*
X124769523Y-99888380D02*
X124340952Y-99316952D01*
X124769523Y-98888380D02*
X124198095Y-99459809D01*
X98575904Y-97988380D02*
X98575904Y-96988380D01*
X98814000Y-96988380D01*
X98956857Y-97036000D01*
X99052095Y-97131238D01*
X99099714Y-97226476D01*
X99147333Y-97416952D01*
X99147333Y-97559809D01*
X99099714Y-97750285D01*
X99052095Y-97845523D01*
X98956857Y-97940761D01*
X98814000Y-97988380D01*
X98575904Y-97988380D01*
X99480666Y-96988380D02*
X100147333Y-96988380D01*
X99718761Y-97988380D01*
X103116095Y-99888380D02*
X103116095Y-98888380D01*
X103687523Y-99888380D02*
X103258952Y-99316952D01*
X103687523Y-98888380D02*
X103116095Y-99459809D01*
X206271904Y-105100380D02*
X206271904Y-104100380D01*
X206510000Y-104100380D01*
X206652857Y-104148000D01*
X206748095Y-104243238D01*
X206795714Y-104338476D01*
X206843333Y-104528952D01*
X206843333Y-104671809D01*
X206795714Y-104862285D01*
X206748095Y-104957523D01*
X206652857Y-105052761D01*
X206510000Y-105100380D01*
X206271904Y-105100380D01*
X207414761Y-104528952D02*
X207319523Y-104481333D01*
X207271904Y-104433714D01*
X207224285Y-104338476D01*
X207224285Y-104290857D01*
X207271904Y-104195619D01*
X207319523Y-104148000D01*
X207414761Y-104100380D01*
X207605238Y-104100380D01*
X207700476Y-104148000D01*
X207748095Y-104195619D01*
X207795714Y-104290857D01*
X207795714Y-104338476D01*
X207748095Y-104433714D01*
X207700476Y-104481333D01*
X207605238Y-104528952D01*
X207414761Y-104528952D01*
X207319523Y-104576571D01*
X207271904Y-104624190D01*
X207224285Y-104719428D01*
X207224285Y-104909904D01*
X207271904Y-105005142D01*
X207319523Y-105052761D01*
X207414761Y-105100380D01*
X207605238Y-105100380D01*
X207700476Y-105052761D01*
X207748095Y-105005142D01*
X207795714Y-104909904D01*
X207795714Y-104719428D01*
X207748095Y-104624190D01*
X207700476Y-104576571D01*
X207605238Y-104528952D01*
X210812095Y-107000380D02*
X210812095Y-106000380D01*
X211383523Y-107000380D02*
X210954952Y-106428952D01*
X211383523Y-106000380D02*
X210812095Y-106571809D01*
X185443904Y-105100380D02*
X185443904Y-104100380D01*
X185682000Y-104100380D01*
X185824857Y-104148000D01*
X185920095Y-104243238D01*
X185967714Y-104338476D01*
X186015333Y-104528952D01*
X186015333Y-104671809D01*
X185967714Y-104862285D01*
X185920095Y-104957523D01*
X185824857Y-105052761D01*
X185682000Y-105100380D01*
X185443904Y-105100380D01*
X186491523Y-105100380D02*
X186682000Y-105100380D01*
X186777238Y-105052761D01*
X186824857Y-105005142D01*
X186920095Y-104862285D01*
X186967714Y-104671809D01*
X186967714Y-104290857D01*
X186920095Y-104195619D01*
X186872476Y-104148000D01*
X186777238Y-104100380D01*
X186586761Y-104100380D01*
X186491523Y-104148000D01*
X186443904Y-104195619D01*
X186396285Y-104290857D01*
X186396285Y-104528952D01*
X186443904Y-104624190D01*
X186491523Y-104671809D01*
X186586761Y-104719428D01*
X186777238Y-104719428D01*
X186872476Y-104671809D01*
X186920095Y-104624190D01*
X186967714Y-104528952D01*
X189984095Y-106746380D02*
X189984095Y-105746380D01*
X190555523Y-106746380D02*
X190126952Y-106174952D01*
X190555523Y-105746380D02*
X189984095Y-106317809D01*
X118927714Y-104084380D02*
X118927714Y-103084380D01*
X119165809Y-103084380D01*
X119308666Y-103132000D01*
X119403904Y-103227238D01*
X119451523Y-103322476D01*
X119499142Y-103512952D01*
X119499142Y-103655809D01*
X119451523Y-103846285D01*
X119403904Y-103941523D01*
X119308666Y-104036761D01*
X119165809Y-104084380D01*
X118927714Y-104084380D01*
X120451523Y-104084380D02*
X119880095Y-104084380D01*
X120165809Y-104084380D02*
X120165809Y-103084380D01*
X120070571Y-103227238D01*
X119975333Y-103322476D01*
X119880095Y-103370095D01*
X121070571Y-103084380D02*
X121165809Y-103084380D01*
X121261047Y-103132000D01*
X121308666Y-103179619D01*
X121356285Y-103274857D01*
X121403904Y-103465333D01*
X121403904Y-103703428D01*
X121356285Y-103893904D01*
X121308666Y-103989142D01*
X121261047Y-104036761D01*
X121165809Y-104084380D01*
X121070571Y-104084380D01*
X120975333Y-104036761D01*
X120927714Y-103989142D01*
X120880095Y-103893904D01*
X120832476Y-103703428D01*
X120832476Y-103465333D01*
X120880095Y-103274857D01*
X120927714Y-103179619D01*
X120975333Y-103132000D01*
X121070571Y-103084380D01*
X124198095Y-105984380D02*
X124198095Y-104984380D01*
X124769523Y-105984380D02*
X124340952Y-105412952D01*
X124769523Y-104984380D02*
X124198095Y-105555809D01*
X98099714Y-104084380D02*
X98099714Y-103084380D01*
X98337809Y-103084380D01*
X98480666Y-103132000D01*
X98575904Y-103227238D01*
X98623523Y-103322476D01*
X98671142Y-103512952D01*
X98671142Y-103655809D01*
X98623523Y-103846285D01*
X98575904Y-103941523D01*
X98480666Y-104036761D01*
X98337809Y-104084380D01*
X98099714Y-104084380D01*
X99623523Y-104084380D02*
X99052095Y-104084380D01*
X99337809Y-104084380D02*
X99337809Y-103084380D01*
X99242571Y-103227238D01*
X99147333Y-103322476D01*
X99052095Y-103370095D01*
X100575904Y-104084380D02*
X100004476Y-104084380D01*
X100290190Y-104084380D02*
X100290190Y-103084380D01*
X100194952Y-103227238D01*
X100099714Y-103322476D01*
X100004476Y-103370095D01*
X103116095Y-105984380D02*
X103116095Y-104984380D01*
X103687523Y-105984380D02*
X103258952Y-105412952D01*
X103687523Y-104984380D02*
X103116095Y-105555809D01*
X205795714Y-110434380D02*
X205795714Y-109434380D01*
X206033809Y-109434380D01*
X206176666Y-109482000D01*
X206271904Y-109577238D01*
X206319523Y-109672476D01*
X206367142Y-109862952D01*
X206367142Y-110005809D01*
X206319523Y-110196285D01*
X206271904Y-110291523D01*
X206176666Y-110386761D01*
X206033809Y-110434380D01*
X205795714Y-110434380D01*
X207319523Y-110434380D02*
X206748095Y-110434380D01*
X207033809Y-110434380D02*
X207033809Y-109434380D01*
X206938571Y-109577238D01*
X206843333Y-109672476D01*
X206748095Y-109720095D01*
X207700476Y-109529619D02*
X207748095Y-109482000D01*
X207843333Y-109434380D01*
X208081428Y-109434380D01*
X208176666Y-109482000D01*
X208224285Y-109529619D01*
X208271904Y-109624857D01*
X208271904Y-109720095D01*
X208224285Y-109862952D01*
X207652857Y-110434380D01*
X208271904Y-110434380D01*
X210812095Y-112334380D02*
X210812095Y-111334380D01*
X211383523Y-112334380D02*
X210954952Y-111762952D01*
X211383523Y-111334380D02*
X210812095Y-111905809D01*
X184713714Y-111196380D02*
X184713714Y-110196380D01*
X184951809Y-110196380D01*
X185094666Y-110244000D01*
X185189904Y-110339238D01*
X185237523Y-110434476D01*
X185285142Y-110624952D01*
X185285142Y-110767809D01*
X185237523Y-110958285D01*
X185189904Y-111053523D01*
X185094666Y-111148761D01*
X184951809Y-111196380D01*
X184713714Y-111196380D01*
X186237523Y-111196380D02*
X185666095Y-111196380D01*
X185951809Y-111196380D02*
X185951809Y-110196380D01*
X185856571Y-110339238D01*
X185761333Y-110434476D01*
X185666095Y-110482095D01*
X186570857Y-110196380D02*
X187189904Y-110196380D01*
X186856571Y-110577333D01*
X186999428Y-110577333D01*
X187094666Y-110624952D01*
X187142285Y-110672571D01*
X187189904Y-110767809D01*
X187189904Y-111005904D01*
X187142285Y-111101142D01*
X187094666Y-111148761D01*
X186999428Y-111196380D01*
X186713714Y-111196380D01*
X186618476Y-111148761D01*
X186570857Y-111101142D01*
X189984095Y-113096380D02*
X189984095Y-112096380D01*
X190555523Y-113096380D02*
X190126952Y-112524952D01*
X190555523Y-112096380D02*
X189984095Y-112667809D01*
X118419714Y-110180380D02*
X118419714Y-109180380D01*
X118657809Y-109180380D01*
X118800666Y-109228000D01*
X118895904Y-109323238D01*
X118943523Y-109418476D01*
X118991142Y-109608952D01*
X118991142Y-109751809D01*
X118943523Y-109942285D01*
X118895904Y-110037523D01*
X118800666Y-110132761D01*
X118657809Y-110180380D01*
X118419714Y-110180380D01*
X119943523Y-110180380D02*
X119372095Y-110180380D01*
X119657809Y-110180380D02*
X119657809Y-109180380D01*
X119562571Y-109323238D01*
X119467333Y-109418476D01*
X119372095Y-109466095D01*
X120800666Y-109513714D02*
X120800666Y-110180380D01*
X120562571Y-109132761D02*
X120324476Y-109847047D01*
X120943523Y-109847047D01*
X123436095Y-112080380D02*
X123436095Y-111080380D01*
X124007523Y-112080380D02*
X123578952Y-111508952D01*
X124007523Y-111080380D02*
X123436095Y-111651809D01*
X97845714Y-109926380D02*
X97845714Y-108926380D01*
X98083809Y-108926380D01*
X98226666Y-108974000D01*
X98321904Y-109069238D01*
X98369523Y-109164476D01*
X98417142Y-109354952D01*
X98417142Y-109497809D01*
X98369523Y-109688285D01*
X98321904Y-109783523D01*
X98226666Y-109878761D01*
X98083809Y-109926380D01*
X97845714Y-109926380D01*
X99369523Y-109926380D02*
X98798095Y-109926380D01*
X99083809Y-109926380D02*
X99083809Y-108926380D01*
X98988571Y-109069238D01*
X98893333Y-109164476D01*
X98798095Y-109212095D01*
X100274285Y-108926380D02*
X99798095Y-108926380D01*
X99750476Y-109402571D01*
X99798095Y-109354952D01*
X99893333Y-109307333D01*
X100131428Y-109307333D01*
X100226666Y-109354952D01*
X100274285Y-109402571D01*
X100321904Y-109497809D01*
X100321904Y-109735904D01*
X100274285Y-109831142D01*
X100226666Y-109878761D01*
X100131428Y-109926380D01*
X99893333Y-109926380D01*
X99798095Y-109878761D01*
X99750476Y-109831142D01*
X103116095Y-112080380D02*
X103116095Y-111080380D01*
X103687523Y-112080380D02*
X103258952Y-111508952D01*
X103687523Y-111080380D02*
X103116095Y-111651809D01*
X205795714Y-116530380D02*
X205795714Y-115530380D01*
X206033809Y-115530380D01*
X206176666Y-115578000D01*
X206271904Y-115673238D01*
X206319523Y-115768476D01*
X206367142Y-115958952D01*
X206367142Y-116101809D01*
X206319523Y-116292285D01*
X206271904Y-116387523D01*
X206176666Y-116482761D01*
X206033809Y-116530380D01*
X205795714Y-116530380D01*
X207319523Y-116530380D02*
X206748095Y-116530380D01*
X207033809Y-116530380D02*
X207033809Y-115530380D01*
X206938571Y-115673238D01*
X206843333Y-115768476D01*
X206748095Y-115816095D01*
X208176666Y-115530380D02*
X207986190Y-115530380D01*
X207890952Y-115578000D01*
X207843333Y-115625619D01*
X207748095Y-115768476D01*
X207700476Y-115958952D01*
X207700476Y-116339904D01*
X207748095Y-116435142D01*
X207795714Y-116482761D01*
X207890952Y-116530380D01*
X208081428Y-116530380D01*
X208176666Y-116482761D01*
X208224285Y-116435142D01*
X208271904Y-116339904D01*
X208271904Y-116101809D01*
X208224285Y-116006571D01*
X208176666Y-115958952D01*
X208081428Y-115911333D01*
X207890952Y-115911333D01*
X207795714Y-115958952D01*
X207748095Y-116006571D01*
X207700476Y-116101809D01*
X210812095Y-118430380D02*
X210812095Y-117430380D01*
X211383523Y-118430380D02*
X210954952Y-117858952D01*
X211383523Y-117430380D02*
X210812095Y-118001809D01*
X184967714Y-117292380D02*
X184967714Y-116292380D01*
X185205809Y-116292380D01*
X185348666Y-116340000D01*
X185443904Y-116435238D01*
X185491523Y-116530476D01*
X185539142Y-116720952D01*
X185539142Y-116863809D01*
X185491523Y-117054285D01*
X185443904Y-117149523D01*
X185348666Y-117244761D01*
X185205809Y-117292380D01*
X184967714Y-117292380D01*
X186491523Y-117292380D02*
X185920095Y-117292380D01*
X186205809Y-117292380D02*
X186205809Y-116292380D01*
X186110571Y-116435238D01*
X186015333Y-116530476D01*
X185920095Y-116578095D01*
X186824857Y-116292380D02*
X187491523Y-116292380D01*
X187062952Y-117292380D01*
X190238095Y-119192380D02*
X190238095Y-118192380D01*
X190809523Y-119192380D02*
X190380952Y-118620952D01*
X190809523Y-118192380D02*
X190238095Y-118763809D01*
X118419714Y-116784380D02*
X118419714Y-115784380D01*
X118657809Y-115784380D01*
X118800666Y-115832000D01*
X118895904Y-115927238D01*
X118943523Y-116022476D01*
X118991142Y-116212952D01*
X118991142Y-116355809D01*
X118943523Y-116546285D01*
X118895904Y-116641523D01*
X118800666Y-116736761D01*
X118657809Y-116784380D01*
X118419714Y-116784380D01*
X119943523Y-116784380D02*
X119372095Y-116784380D01*
X119657809Y-116784380D02*
X119657809Y-115784380D01*
X119562571Y-115927238D01*
X119467333Y-116022476D01*
X119372095Y-116070095D01*
X120514952Y-116212952D02*
X120419714Y-116165333D01*
X120372095Y-116117714D01*
X120324476Y-116022476D01*
X120324476Y-115974857D01*
X120372095Y-115879619D01*
X120419714Y-115832000D01*
X120514952Y-115784380D01*
X120705428Y-115784380D01*
X120800666Y-115832000D01*
X120848285Y-115879619D01*
X120895904Y-115974857D01*
X120895904Y-116022476D01*
X120848285Y-116117714D01*
X120800666Y-116165333D01*
X120705428Y-116212952D01*
X120514952Y-116212952D01*
X120419714Y-116260571D01*
X120372095Y-116308190D01*
X120324476Y-116403428D01*
X120324476Y-116593904D01*
X120372095Y-116689142D01*
X120419714Y-116736761D01*
X120514952Y-116784380D01*
X120705428Y-116784380D01*
X120800666Y-116736761D01*
X120848285Y-116689142D01*
X120895904Y-116593904D01*
X120895904Y-116403428D01*
X120848285Y-116308190D01*
X120800666Y-116260571D01*
X120705428Y-116212952D01*
X123436095Y-118684380D02*
X123436095Y-117684380D01*
X124007523Y-118684380D02*
X123578952Y-118112952D01*
X124007523Y-117684380D02*
X123436095Y-118255809D01*
X98099714Y-116530380D02*
X98099714Y-115530380D01*
X98337809Y-115530380D01*
X98480666Y-115578000D01*
X98575904Y-115673238D01*
X98623523Y-115768476D01*
X98671142Y-115958952D01*
X98671142Y-116101809D01*
X98623523Y-116292285D01*
X98575904Y-116387523D01*
X98480666Y-116482761D01*
X98337809Y-116530380D01*
X98099714Y-116530380D01*
X99623523Y-116530380D02*
X99052095Y-116530380D01*
X99337809Y-116530380D02*
X99337809Y-115530380D01*
X99242571Y-115673238D01*
X99147333Y-115768476D01*
X99052095Y-115816095D01*
X100099714Y-116530380D02*
X100290190Y-116530380D01*
X100385428Y-116482761D01*
X100433047Y-116435142D01*
X100528285Y-116292285D01*
X100575904Y-116101809D01*
X100575904Y-115720857D01*
X100528285Y-115625619D01*
X100480666Y-115578000D01*
X100385428Y-115530380D01*
X100194952Y-115530380D01*
X100099714Y-115578000D01*
X100052095Y-115625619D01*
X100004476Y-115720857D01*
X100004476Y-115958952D01*
X100052095Y-116054190D01*
X100099714Y-116101809D01*
X100194952Y-116149428D01*
X100385428Y-116149428D01*
X100480666Y-116101809D01*
X100528285Y-116054190D01*
X100575904Y-115958952D01*
X103116095Y-118430380D02*
X103116095Y-117430380D01*
X103687523Y-118430380D02*
X103258952Y-117858952D01*
X103687523Y-117430380D02*
X103116095Y-118001809D01*
X126158666Y-84288380D02*
X126158666Y-85002666D01*
X126111047Y-85145523D01*
X126015809Y-85240761D01*
X125872952Y-85288380D01*
X125777714Y-85288380D01*
X127158666Y-85288380D02*
X126587238Y-85288380D01*
X126872952Y-85288380D02*
X126872952Y-84288380D01*
X126777714Y-84431238D01*
X126682476Y-84526476D01*
X126587238Y-84574095D01*
X127396952Y-92146380D02*
X126825523Y-92146380D01*
X127111238Y-92146380D02*
X127111238Y-91146380D01*
X127016000Y-91289238D01*
X126920761Y-91384476D01*
X126825523Y-91432095D01*
X128016000Y-91146380D02*
X128111238Y-91146380D01*
X128206476Y-91194000D01*
X128254095Y-91241619D01*
X128301714Y-91336857D01*
X128349333Y-91527333D01*
X128349333Y-91765428D01*
X128301714Y-91955904D01*
X128254095Y-92051142D01*
X128206476Y-92098761D01*
X128111238Y-92146380D01*
X128016000Y-92146380D01*
X127920761Y-92098761D01*
X127873142Y-92051142D01*
X127825523Y-91955904D01*
X127777904Y-91765428D01*
X127777904Y-91527333D01*
X127825523Y-91336857D01*
X127873142Y-91241619D01*
X127920761Y-91194000D01*
X128016000Y-91146380D01*
X128635047Y-91146380D02*
X128968380Y-92146380D01*
X129301714Y-91146380D01*
X177720666Y-121626380D02*
X177720666Y-122340666D01*
X177673047Y-122483523D01*
X177577809Y-122578761D01*
X177434952Y-122626380D01*
X177339714Y-122626380D01*
X178149238Y-121721619D02*
X178196857Y-121674000D01*
X178292095Y-121626380D01*
X178530190Y-121626380D01*
X178625428Y-121674000D01*
X178673047Y-121721619D01*
X178720666Y-121816857D01*
X178720666Y-121912095D01*
X178673047Y-122054952D01*
X178101619Y-122626380D01*
X178720666Y-122626380D01*
X180300380Y-116712666D02*
X181109904Y-116712666D01*
X181205142Y-116665047D01*
X181252761Y-116617428D01*
X181300380Y-116522190D01*
X181300380Y-116331714D01*
X181252761Y-116236476D01*
X181205142Y-116188857D01*
X181109904Y-116141238D01*
X180300380Y-116141238D01*
X181252761Y-115712666D02*
X181300380Y-115569809D01*
X181300380Y-115331714D01*
X181252761Y-115236476D01*
X181205142Y-115188857D01*
X181109904Y-115141238D01*
X181014666Y-115141238D01*
X180919428Y-115188857D01*
X180871809Y-115236476D01*
X180824190Y-115331714D01*
X180776571Y-115522190D01*
X180728952Y-115617428D01*
X180681333Y-115665047D01*
X180586095Y-115712666D01*
X180490857Y-115712666D01*
X180395619Y-115665047D01*
X180348000Y-115617428D01*
X180300380Y-115522190D01*
X180300380Y-115284095D01*
X180348000Y-115141238D01*
X180776571Y-114379333D02*
X180824190Y-114236476D01*
X180871809Y-114188857D01*
X180967047Y-114141238D01*
X181109904Y-114141238D01*
X181205142Y-114188857D01*
X181252761Y-114236476D01*
X181300380Y-114331714D01*
X181300380Y-114712666D01*
X180300380Y-114712666D01*
X180300380Y-114379333D01*
X180348000Y-114284095D01*
X180395619Y-114236476D01*
X180490857Y-114188857D01*
X180586095Y-114188857D01*
X180681333Y-114236476D01*
X180728952Y-114284095D01*
X180776571Y-114379333D01*
X180776571Y-114712666D01*
X181014666Y-113760285D02*
X181014666Y-113284095D01*
X181300380Y-113855523D02*
X180300380Y-113522190D01*
X181300380Y-113188857D01*
X181252761Y-112903142D02*
X181300380Y-112760285D01*
X181300380Y-112522190D01*
X181252761Y-112426952D01*
X181205142Y-112379333D01*
X181109904Y-112331714D01*
X181014666Y-112331714D01*
X180919428Y-112379333D01*
X180871809Y-112426952D01*
X180824190Y-112522190D01*
X180776571Y-112712666D01*
X180728952Y-112807904D01*
X180681333Y-112855523D01*
X180586095Y-112903142D01*
X180490857Y-112903142D01*
X180395619Y-112855523D01*
X180348000Y-112807904D01*
X180300380Y-112712666D01*
X180300380Y-112474571D01*
X180348000Y-112331714D01*
X181300380Y-111903142D02*
X180300380Y-111903142D01*
X180300380Y-111522190D01*
X180348000Y-111426952D01*
X180395619Y-111379333D01*
X180490857Y-111331714D01*
X180633714Y-111331714D01*
X180728952Y-111379333D01*
X180776571Y-111426952D01*
X180824190Y-111522190D01*
X180824190Y-111903142D01*
X166036666Y-106132380D02*
X166036666Y-106846666D01*
X165989047Y-106989523D01*
X165893809Y-107084761D01*
X165750952Y-107132380D01*
X165655714Y-107132380D01*
X166941428Y-106465714D02*
X166941428Y-107132380D01*
X166703333Y-106084761D02*
X166465238Y-106799047D01*
X167084285Y-106799047D01*
X166298571Y-104361904D02*
X166298571Y-104028571D01*
X166822380Y-103885714D02*
X166822380Y-104361904D01*
X165822380Y-104361904D01*
X165822380Y-103885714D01*
X166774761Y-103504761D02*
X166822380Y-103361904D01*
X166822380Y-103123809D01*
X166774761Y-103028571D01*
X166727142Y-102980952D01*
X166631904Y-102933333D01*
X166536666Y-102933333D01*
X166441428Y-102980952D01*
X166393809Y-103028571D01*
X166346190Y-103123809D01*
X166298571Y-103314285D01*
X166250952Y-103409523D01*
X166203333Y-103457142D01*
X166108095Y-103504761D01*
X166012857Y-103504761D01*
X165917619Y-103457142D01*
X165870000Y-103409523D01*
X165822380Y-103314285D01*
X165822380Y-103076190D01*
X165870000Y-102933333D01*
X166822380Y-102504761D02*
X165822380Y-102504761D01*
X165822380Y-102123809D01*
X165870000Y-102028571D01*
X165917619Y-101980952D01*
X166012857Y-101933333D01*
X166155714Y-101933333D01*
X166250952Y-101980952D01*
X166298571Y-102028571D01*
X166346190Y-102123809D01*
X166346190Y-102504761D01*
X166441428Y-101504761D02*
X166441428Y-100742857D01*
X165822380Y-100076190D02*
X165822380Y-99980952D01*
X165870000Y-99885714D01*
X165917619Y-99838095D01*
X166012857Y-99790476D01*
X166203333Y-99742857D01*
X166441428Y-99742857D01*
X166631904Y-99790476D01*
X166727142Y-99838095D01*
X166774761Y-99885714D01*
X166822380Y-99980952D01*
X166822380Y-100076190D01*
X166774761Y-100171428D01*
X166727142Y-100219047D01*
X166631904Y-100266666D01*
X166441428Y-100314285D01*
X166203333Y-100314285D01*
X166012857Y-100266666D01*
X165917619Y-100219047D01*
X165870000Y-100171428D01*
X165822380Y-100076190D01*
X166822380Y-98790476D02*
X166822380Y-99361904D01*
X166822380Y-99076190D02*
X165822380Y-99076190D01*
X165965238Y-99171428D01*
X166060476Y-99266666D01*
X166108095Y-99361904D01*
X198548666Y-108164380D02*
X198548666Y-108878666D01*
X198501047Y-109021523D01*
X198405809Y-109116761D01*
X198262952Y-109164380D01*
X198167714Y-109164380D01*
X199501047Y-108164380D02*
X199024857Y-108164380D01*
X198977238Y-108640571D01*
X199024857Y-108592952D01*
X199120095Y-108545333D01*
X199358190Y-108545333D01*
X199453428Y-108592952D01*
X199501047Y-108640571D01*
X199548666Y-108735809D01*
X199548666Y-108973904D01*
X199501047Y-109069142D01*
X199453428Y-109116761D01*
X199358190Y-109164380D01*
X199120095Y-109164380D01*
X199024857Y-109116761D01*
X198977238Y-109069142D01*
X193707142Y-122372380D02*
X193707142Y-121372380D01*
X194040476Y-122086666D01*
X194373809Y-121372380D01*
X194373809Y-122372380D01*
X195040476Y-121372380D02*
X195230952Y-121372380D01*
X195326190Y-121420000D01*
X195421428Y-121515238D01*
X195469047Y-121705714D01*
X195469047Y-122039047D01*
X195421428Y-122229523D01*
X195326190Y-122324761D01*
X195230952Y-122372380D01*
X195040476Y-122372380D01*
X194945238Y-122324761D01*
X194850000Y-122229523D01*
X194802380Y-122039047D01*
X194802380Y-121705714D01*
X194850000Y-121515238D01*
X194945238Y-121420000D01*
X195040476Y-121372380D01*
X195754761Y-121372380D02*
X196326190Y-121372380D01*
X196040476Y-122372380D02*
X196040476Y-121372380D01*
X196850000Y-121372380D02*
X197040476Y-121372380D01*
X197135714Y-121420000D01*
X197230952Y-121515238D01*
X197278571Y-121705714D01*
X197278571Y-122039047D01*
X197230952Y-122229523D01*
X197135714Y-122324761D01*
X197040476Y-122372380D01*
X196850000Y-122372380D01*
X196754761Y-122324761D01*
X196659523Y-122229523D01*
X196611904Y-122039047D01*
X196611904Y-121705714D01*
X196659523Y-121515238D01*
X196754761Y-121420000D01*
X196850000Y-121372380D01*
X198278571Y-122372380D02*
X197945238Y-121896190D01*
X197707142Y-122372380D02*
X197707142Y-121372380D01*
X198088095Y-121372380D01*
X198183333Y-121420000D01*
X198230952Y-121467619D01*
X198278571Y-121562857D01*
X198278571Y-121705714D01*
X198230952Y-121800952D01*
X198183333Y-121848571D01*
X198088095Y-121896190D01*
X197707142Y-121896190D01*
X198469047Y-122467619D02*
X199230952Y-122467619D01*
X199802380Y-121848571D02*
X199945238Y-121896190D01*
X199992857Y-121943809D01*
X200040476Y-122039047D01*
X200040476Y-122181904D01*
X199992857Y-122277142D01*
X199945238Y-122324761D01*
X199850000Y-122372380D01*
X199469047Y-122372380D01*
X199469047Y-121372380D01*
X199802380Y-121372380D01*
X199897619Y-121420000D01*
X199945238Y-121467619D01*
X199992857Y-121562857D01*
X199992857Y-121658095D01*
X199945238Y-121753333D01*
X199897619Y-121800952D01*
X199802380Y-121848571D01*
X199469047Y-121848571D01*
X107616666Y-108164380D02*
X107616666Y-108878666D01*
X107569047Y-109021523D01*
X107473809Y-109116761D01*
X107330952Y-109164380D01*
X107235714Y-109164380D01*
X108521428Y-108164380D02*
X108330952Y-108164380D01*
X108235714Y-108212000D01*
X108188095Y-108259619D01*
X108092857Y-108402476D01*
X108045238Y-108592952D01*
X108045238Y-108973904D01*
X108092857Y-109069142D01*
X108140476Y-109116761D01*
X108235714Y-109164380D01*
X108426190Y-109164380D01*
X108521428Y-109116761D01*
X108569047Y-109069142D01*
X108616666Y-108973904D01*
X108616666Y-108735809D01*
X108569047Y-108640571D01*
X108521428Y-108592952D01*
X108426190Y-108545333D01*
X108235714Y-108545333D01*
X108140476Y-108592952D01*
X108092857Y-108640571D01*
X108045238Y-108735809D01*
X106656571Y-121864380D02*
X106656571Y-120864380D01*
X106989904Y-121578666D01*
X107323238Y-120864380D01*
X107323238Y-121864380D01*
X107989904Y-120864380D02*
X108180380Y-120864380D01*
X108275619Y-120912000D01*
X108370857Y-121007238D01*
X108418476Y-121197714D01*
X108418476Y-121531047D01*
X108370857Y-121721523D01*
X108275619Y-121816761D01*
X108180380Y-121864380D01*
X107989904Y-121864380D01*
X107894666Y-121816761D01*
X107799428Y-121721523D01*
X107751809Y-121531047D01*
X107751809Y-121197714D01*
X107799428Y-121007238D01*
X107894666Y-120912000D01*
X107989904Y-120864380D01*
X108704190Y-120864380D02*
X109275619Y-120864380D01*
X108989904Y-121864380D02*
X108989904Y-120864380D01*
X109799428Y-120864380D02*
X109989904Y-120864380D01*
X110085142Y-120912000D01*
X110180380Y-121007238D01*
X110228000Y-121197714D01*
X110228000Y-121531047D01*
X110180380Y-121721523D01*
X110085142Y-121816761D01*
X109989904Y-121864380D01*
X109799428Y-121864380D01*
X109704190Y-121816761D01*
X109608952Y-121721523D01*
X109561333Y-121531047D01*
X109561333Y-121197714D01*
X109608952Y-121007238D01*
X109704190Y-120912000D01*
X109799428Y-120864380D01*
X111228000Y-121864380D02*
X110894666Y-121388190D01*
X110656571Y-121864380D02*
X110656571Y-120864380D01*
X111037523Y-120864380D01*
X111132761Y-120912000D01*
X111180380Y-120959619D01*
X111228000Y-121054857D01*
X111228000Y-121197714D01*
X111180380Y-121292952D01*
X111132761Y-121340571D01*
X111037523Y-121388190D01*
X110656571Y-121388190D01*
X111418476Y-121959619D02*
X112180380Y-121959619D01*
X112370857Y-121578666D02*
X112847047Y-121578666D01*
X112275619Y-121864380D02*
X112608952Y-120864380D01*
X112942285Y-121864380D01*
X136485333Y-100020380D02*
X136152000Y-99544190D01*
X135913904Y-100020380D02*
X135913904Y-99020380D01*
X136294857Y-99020380D01*
X136390095Y-99068000D01*
X136437714Y-99115619D01*
X136485333Y-99210857D01*
X136485333Y-99353714D01*
X136437714Y-99448952D01*
X136390095Y-99496571D01*
X136294857Y-99544190D01*
X135913904Y-99544190D01*
X137437714Y-100020380D02*
X136866285Y-100020380D01*
X137152000Y-100020380D02*
X137152000Y-99020380D01*
X137056761Y-99163238D01*
X136961523Y-99258476D01*
X136866285Y-99306095D01*
X138207904Y-99115619D02*
X138255523Y-99068000D01*
X138350761Y-99020380D01*
X138588857Y-99020380D01*
X138684095Y-99068000D01*
X138731714Y-99115619D01*
X138779333Y-99210857D01*
X138779333Y-99306095D01*
X138731714Y-99448952D01*
X138160285Y-100020380D01*
X138779333Y-100020380D01*
X139160285Y-99115619D02*
X139207904Y-99068000D01*
X139303142Y-99020380D01*
X139541238Y-99020380D01*
X139636476Y-99068000D01*
X139684095Y-99115619D01*
X139731714Y-99210857D01*
X139731714Y-99306095D01*
X139684095Y-99448952D01*
X139112666Y-100020380D01*
X139731714Y-100020380D01*
X140350761Y-99020380D02*
X140446000Y-99020380D01*
X140541238Y-99068000D01*
X140588857Y-99115619D01*
X140636476Y-99210857D01*
X140684095Y-99401333D01*
X140684095Y-99639428D01*
X140636476Y-99829904D01*
X140588857Y-99925142D01*
X140541238Y-99972761D01*
X140446000Y-100020380D01*
X140350761Y-100020380D01*
X140255523Y-99972761D01*
X140207904Y-99925142D01*
X140160285Y-99829904D01*
X140112666Y-99639428D01*
X140112666Y-99401333D01*
X140160285Y-99210857D01*
X140207904Y-99115619D01*
X140255523Y-99068000D01*
X140350761Y-99020380D01*
X129822380Y-110656666D02*
X129346190Y-110990000D01*
X129822380Y-111228095D02*
X128822380Y-111228095D01*
X128822380Y-110847142D01*
X128870000Y-110751904D01*
X128917619Y-110704285D01*
X129012857Y-110656666D01*
X129155714Y-110656666D01*
X129250952Y-110704285D01*
X129298571Y-110751904D01*
X129346190Y-110847142D01*
X129346190Y-111228095D01*
X128917619Y-110275714D02*
X128870000Y-110228095D01*
X128822380Y-110132857D01*
X128822380Y-109894761D01*
X128870000Y-109799523D01*
X128917619Y-109751904D01*
X129012857Y-109704285D01*
X129108095Y-109704285D01*
X129250952Y-109751904D01*
X129822380Y-110323333D01*
X129822380Y-109704285D01*
X127452380Y-112355238D02*
X127452380Y-112926666D01*
X127452380Y-112640952D02*
X126452380Y-112640952D01*
X126595238Y-112736190D01*
X126690476Y-112831428D01*
X126738095Y-112926666D01*
X126452380Y-111736190D02*
X126452380Y-111640952D01*
X126500000Y-111545714D01*
X126547619Y-111498095D01*
X126642857Y-111450476D01*
X126833333Y-111402857D01*
X127071428Y-111402857D01*
X127261904Y-111450476D01*
X127357142Y-111498095D01*
X127404761Y-111545714D01*
X127452380Y-111640952D01*
X127452380Y-111736190D01*
X127404761Y-111831428D01*
X127357142Y-111879047D01*
X127261904Y-111926666D01*
X127071428Y-111974285D01*
X126833333Y-111974285D01*
X126642857Y-111926666D01*
X126547619Y-111879047D01*
X126500000Y-111831428D01*
X126452380Y-111736190D01*
X127452380Y-110974285D02*
X126452380Y-110974285D01*
X127071428Y-110879047D02*
X127452380Y-110593333D01*
X126785714Y-110593333D02*
X127166666Y-110974285D01*
X157848380Y-91606666D02*
X157372190Y-91940000D01*
X157848380Y-92178095D02*
X156848380Y-92178095D01*
X156848380Y-91797142D01*
X156896000Y-91701904D01*
X156943619Y-91654285D01*
X157038857Y-91606666D01*
X157181714Y-91606666D01*
X157276952Y-91654285D01*
X157324571Y-91701904D01*
X157372190Y-91797142D01*
X157372190Y-92178095D01*
X156848380Y-91273333D02*
X156848380Y-90654285D01*
X157229333Y-90987619D01*
X157229333Y-90844761D01*
X157276952Y-90749523D01*
X157324571Y-90701904D01*
X157419809Y-90654285D01*
X157657904Y-90654285D01*
X157753142Y-90701904D01*
X157800761Y-90749523D01*
X157848380Y-90844761D01*
X157848380Y-91130476D01*
X157800761Y-91225714D01*
X157753142Y-91273333D01*
X159567619Y-90900095D02*
X159520000Y-90852476D01*
X159472380Y-90757238D01*
X159472380Y-90519142D01*
X159520000Y-90423904D01*
X159567619Y-90376285D01*
X159662857Y-90328666D01*
X159758095Y-90328666D01*
X159900952Y-90376285D01*
X160472380Y-90947714D01*
X160472380Y-90328666D01*
X159567619Y-89947714D02*
X159520000Y-89900095D01*
X159472380Y-89804857D01*
X159472380Y-89566761D01*
X159520000Y-89471523D01*
X159567619Y-89423904D01*
X159662857Y-89376285D01*
X159758095Y-89376285D01*
X159900952Y-89423904D01*
X160472380Y-89995333D01*
X160472380Y-89376285D01*
X159472380Y-88757238D02*
X159472380Y-88662000D01*
X159520000Y-88566761D01*
X159567619Y-88519142D01*
X159662857Y-88471523D01*
X159853333Y-88423904D01*
X160091428Y-88423904D01*
X160281904Y-88471523D01*
X160377142Y-88519142D01*
X160424761Y-88566761D01*
X160472380Y-88662000D01*
X160472380Y-88757238D01*
X160424761Y-88852476D01*
X160377142Y-88900095D01*
X160281904Y-88947714D01*
X160091428Y-88995333D01*
X159853333Y-88995333D01*
X159662857Y-88947714D01*
X159567619Y-88900095D01*
X159520000Y-88852476D01*
X159472380Y-88757238D01*
X130048761Y-115581333D02*
X130096380Y-115438476D01*
X130096380Y-115200380D01*
X130048761Y-115105142D01*
X130001142Y-115057523D01*
X129905904Y-115009904D01*
X129810666Y-115009904D01*
X129715428Y-115057523D01*
X129667809Y-115105142D01*
X129620190Y-115200380D01*
X129572571Y-115390857D01*
X129524952Y-115486095D01*
X129477333Y-115533714D01*
X129382095Y-115581333D01*
X129286857Y-115581333D01*
X129191619Y-115533714D01*
X129144000Y-115486095D01*
X129096380Y-115390857D01*
X129096380Y-115152761D01*
X129144000Y-115009904D01*
X129096380Y-114676571D02*
X130096380Y-114438476D01*
X129382095Y-114248000D01*
X130096380Y-114057523D01*
X129096380Y-113819428D01*
X130096380Y-112914666D02*
X130096380Y-113486095D01*
X130096380Y-113200380D02*
X129096380Y-113200380D01*
X129239238Y-113295619D01*
X129334476Y-113390857D01*
X129382095Y-113486095D01*
X150876095Y-93432380D02*
X150876095Y-94241904D01*
X150923714Y-94337142D01*
X150971333Y-94384761D01*
X151066571Y-94432380D01*
X151257047Y-94432380D01*
X151352285Y-94384761D01*
X151399904Y-94337142D01*
X151447523Y-94241904D01*
X151447523Y-93432380D01*
X152447523Y-94432380D02*
X151876095Y-94432380D01*
X152161809Y-94432380D02*
X152161809Y-93432380D01*
X152066571Y-93575238D01*
X151971333Y-93670476D01*
X151876095Y-93718095D01*
X151296666Y-116680476D02*
X151296666Y-116204285D01*
X151582380Y-116775714D02*
X150582380Y-116442380D01*
X151582380Y-116109047D01*
X150582380Y-115918571D02*
X150582380Y-115347142D01*
X151582380Y-115632857D02*
X150582380Y-115632857D01*
X151582380Y-115013809D02*
X150915714Y-115013809D01*
X151010952Y-115013809D02*
X150963333Y-114966190D01*
X150915714Y-114870952D01*
X150915714Y-114728095D01*
X150963333Y-114632857D01*
X151058571Y-114585238D01*
X151582380Y-114585238D01*
X151058571Y-114585238D02*
X150963333Y-114537619D01*
X150915714Y-114442380D01*
X150915714Y-114299523D01*
X150963333Y-114204285D01*
X151058571Y-114156666D01*
X151582380Y-114156666D01*
X151534761Y-113299523D02*
X151582380Y-113394761D01*
X151582380Y-113585238D01*
X151534761Y-113680476D01*
X151439523Y-113728095D01*
X151058571Y-113728095D01*
X150963333Y-113680476D01*
X150915714Y-113585238D01*
X150915714Y-113394761D01*
X150963333Y-113299523D01*
X151058571Y-113251904D01*
X151153809Y-113251904D01*
X151249047Y-113728095D01*
X150915714Y-112394761D02*
X151725238Y-112394761D01*
X151820476Y-112442380D01*
X151868095Y-112490000D01*
X151915714Y-112585238D01*
X151915714Y-112728095D01*
X151868095Y-112823333D01*
X151534761Y-112394761D02*
X151582380Y-112490000D01*
X151582380Y-112680476D01*
X151534761Y-112775714D01*
X151487142Y-112823333D01*
X151391904Y-112870952D01*
X151106190Y-112870952D01*
X151010952Y-112823333D01*
X150963333Y-112775714D01*
X150915714Y-112680476D01*
X150915714Y-112490000D01*
X150963333Y-112394761D01*
X151582380Y-111490000D02*
X151058571Y-111490000D01*
X150963333Y-111537619D01*
X150915714Y-111632857D01*
X150915714Y-111823333D01*
X150963333Y-111918571D01*
X151534761Y-111490000D02*
X151582380Y-111585238D01*
X151582380Y-111823333D01*
X151534761Y-111918571D01*
X151439523Y-111966190D01*
X151344285Y-111966190D01*
X151249047Y-111918571D01*
X151201428Y-111823333D01*
X151201428Y-111585238D01*
X151153809Y-111490000D01*
X150582380Y-111109047D02*
X150582380Y-110490000D01*
X150963333Y-110823333D01*
X150963333Y-110680476D01*
X151010952Y-110585238D01*
X151058571Y-110537619D01*
X151153809Y-110490000D01*
X151391904Y-110490000D01*
X151487142Y-110537619D01*
X151534761Y-110585238D01*
X151582380Y-110680476D01*
X151582380Y-110966190D01*
X151534761Y-111061428D01*
X151487142Y-111109047D01*
X150677619Y-110109047D02*
X150630000Y-110061428D01*
X150582380Y-109966190D01*
X150582380Y-109728095D01*
X150630000Y-109632857D01*
X150677619Y-109585238D01*
X150772857Y-109537619D01*
X150868095Y-109537619D01*
X151010952Y-109585238D01*
X151582380Y-110156666D01*
X151582380Y-109537619D01*
X151010952Y-108966190D02*
X150963333Y-109061428D01*
X150915714Y-109109047D01*
X150820476Y-109156666D01*
X150772857Y-109156666D01*
X150677619Y-109109047D01*
X150630000Y-109061428D01*
X150582380Y-108966190D01*
X150582380Y-108775714D01*
X150630000Y-108680476D01*
X150677619Y-108632857D01*
X150772857Y-108585238D01*
X150820476Y-108585238D01*
X150915714Y-108632857D01*
X150963333Y-108680476D01*
X151010952Y-108775714D01*
X151010952Y-108966190D01*
X151058571Y-109061428D01*
X151106190Y-109109047D01*
X151201428Y-109156666D01*
X151391904Y-109156666D01*
X151487142Y-109109047D01*
X151534761Y-109061428D01*
X151582380Y-108966190D01*
X151582380Y-108775714D01*
X151534761Y-108680476D01*
X151487142Y-108632857D01*
X151391904Y-108585238D01*
X151201428Y-108585238D01*
X151106190Y-108632857D01*
X151058571Y-108680476D01*
X151010952Y-108775714D01*
X151582380Y-108156666D02*
X150582380Y-108156666D01*
X150582380Y-107775714D01*
X150630000Y-107680476D01*
X150677619Y-107632857D01*
X150772857Y-107585238D01*
X150915714Y-107585238D01*
X151010952Y-107632857D01*
X151058571Y-107680476D01*
X151106190Y-107775714D01*
X151106190Y-108156666D01*
X151201428Y-107156666D02*
X151201428Y-106394761D01*
X151582380Y-105918571D02*
X150582380Y-105918571D01*
X150582380Y-105537619D01*
X150630000Y-105442380D01*
X150677619Y-105394761D01*
X150772857Y-105347142D01*
X150915714Y-105347142D01*
X151010952Y-105394761D01*
X151058571Y-105442380D01*
X151106190Y-105537619D01*
X151106190Y-105918571D01*
X150582380Y-104918571D02*
X151391904Y-104918571D01*
X151487142Y-104870952D01*
X151534761Y-104823333D01*
X151582380Y-104728095D01*
X151582380Y-104537619D01*
X151534761Y-104442380D01*
X151487142Y-104394761D01*
X151391904Y-104347142D01*
X150582380Y-104347142D01*
X140462095Y-84288380D02*
X140462095Y-85097904D01*
X140509714Y-85193142D01*
X140557333Y-85240761D01*
X140652571Y-85288380D01*
X140843047Y-85288380D01*
X140938285Y-85240761D01*
X140985904Y-85193142D01*
X141033523Y-85097904D01*
X141033523Y-84288380D01*
X141462095Y-84383619D02*
X141509714Y-84336000D01*
X141604952Y-84288380D01*
X141843047Y-84288380D01*
X141938285Y-84336000D01*
X141985904Y-84383619D01*
X142033523Y-84478857D01*
X142033523Y-84574095D01*
X141985904Y-84716952D01*
X141414476Y-85288380D01*
X142033523Y-85288380D01*
X131517047Y-85288380D02*
X131040857Y-85288380D01*
X131040857Y-84288380D01*
X131850380Y-85288380D02*
X131850380Y-84288380D01*
X132183714Y-85002666D01*
X132517047Y-84288380D01*
X132517047Y-85288380D01*
X132898000Y-84288380D02*
X133564666Y-84288380D01*
X133136095Y-85288380D01*
X134088476Y-84716952D02*
X133993238Y-84669333D01*
X133945619Y-84621714D01*
X133898000Y-84526476D01*
X133898000Y-84478857D01*
X133945619Y-84383619D01*
X133993238Y-84336000D01*
X134088476Y-84288380D01*
X134278952Y-84288380D01*
X134374190Y-84336000D01*
X134421809Y-84383619D01*
X134469428Y-84478857D01*
X134469428Y-84526476D01*
X134421809Y-84621714D01*
X134374190Y-84669333D01*
X134278952Y-84716952D01*
X134088476Y-84716952D01*
X133993238Y-84764571D01*
X133945619Y-84812190D01*
X133898000Y-84907428D01*
X133898000Y-85097904D01*
X133945619Y-85193142D01*
X133993238Y-85240761D01*
X134088476Y-85288380D01*
X134278952Y-85288380D01*
X134374190Y-85240761D01*
X134421809Y-85193142D01*
X134469428Y-85097904D01*
X134469428Y-84907428D01*
X134421809Y-84812190D01*
X134374190Y-84764571D01*
X134278952Y-84716952D01*
X135088476Y-84288380D02*
X135183714Y-84288380D01*
X135278952Y-84336000D01*
X135326571Y-84383619D01*
X135374190Y-84478857D01*
X135421809Y-84669333D01*
X135421809Y-84907428D01*
X135374190Y-85097904D01*
X135326571Y-85193142D01*
X135278952Y-85240761D01*
X135183714Y-85288380D01*
X135088476Y-85288380D01*
X134993238Y-85240761D01*
X134945619Y-85193142D01*
X134898000Y-85097904D01*
X134850380Y-84907428D01*
X134850380Y-84669333D01*
X134898000Y-84478857D01*
X134945619Y-84383619D01*
X134993238Y-84336000D01*
X135088476Y-84288380D01*
X136326571Y-84288380D02*
X135850380Y-84288380D01*
X135802761Y-84764571D01*
X135850380Y-84716952D01*
X135945619Y-84669333D01*
X136183714Y-84669333D01*
X136278952Y-84716952D01*
X136326571Y-84764571D01*
X136374190Y-84859809D01*
X136374190Y-85097904D01*
X136326571Y-85193142D01*
X136278952Y-85240761D01*
X136183714Y-85288380D01*
X135945619Y-85288380D01*
X135850380Y-85240761D01*
X135802761Y-85193142D01*
X136564666Y-85383619D02*
X137326571Y-85383619D01*
X137421809Y-84288380D02*
X137993238Y-84288380D01*
X137707523Y-85288380D02*
X137707523Y-84288380D01*
X138517047Y-84288380D02*
X138707523Y-84288380D01*
X138802761Y-84336000D01*
X138898000Y-84431238D01*
X138945619Y-84621714D01*
X138945619Y-84955047D01*
X138898000Y-85145523D01*
X138802761Y-85240761D01*
X138707523Y-85288380D01*
X138517047Y-85288380D01*
X138421809Y-85240761D01*
X138326571Y-85145523D01*
X138278952Y-84955047D01*
X138278952Y-84621714D01*
X138326571Y-84431238D01*
X138421809Y-84336000D01*
X138517047Y-84288380D01*
X139326571Y-84383619D02*
X139374190Y-84336000D01*
X139469428Y-84288380D01*
X139707523Y-84288380D01*
X139802761Y-84336000D01*
X139850380Y-84383619D01*
X139898000Y-84478857D01*
X139898000Y-84574095D01*
X139850380Y-84716952D01*
X139278952Y-85288380D01*
X139898000Y-85288380D01*
X140278952Y-84383619D02*
X140326571Y-84336000D01*
X140421809Y-84288380D01*
X140659904Y-84288380D01*
X140755142Y-84336000D01*
X140802761Y-84383619D01*
X140850380Y-84478857D01*
X140850380Y-84574095D01*
X140802761Y-84716952D01*
X140231333Y-85288380D01*
X140850380Y-85288380D01*
X141469428Y-84288380D02*
X141564666Y-84288380D01*
X141659904Y-84336000D01*
X141707523Y-84383619D01*
X141755142Y-84478857D01*
X141802761Y-84669333D01*
X141802761Y-84907428D01*
X141755142Y-85097904D01*
X141707523Y-85193142D01*
X141659904Y-85240761D01*
X141564666Y-85288380D01*
X141469428Y-85288380D01*
X141374190Y-85240761D01*
X141326571Y-85193142D01*
X141278952Y-85097904D01*
X141231333Y-84907428D01*
X141231333Y-84669333D01*
X141278952Y-84478857D01*
X141326571Y-84383619D01*
X141374190Y-84336000D01*
X141469428Y-84288380D01*
D17*
X94956380Y-94233904D02*
X95765904Y-94233904D01*
X95861142Y-94186285D01*
X95908761Y-94138666D01*
X95956380Y-94043428D01*
X95956380Y-93852952D01*
X95908761Y-93757714D01*
X95861142Y-93710095D01*
X95765904Y-93662476D01*
X94956380Y-93662476D01*
X95289714Y-92757714D02*
X95956380Y-92757714D01*
X94908761Y-92995809D02*
X95623047Y-93233904D01*
X95623047Y-92614857D01*
X107577142Y-85542380D02*
X107100952Y-85542380D01*
X107100952Y-84542380D01*
X107862857Y-84637619D02*
X107910476Y-84590000D01*
X108005714Y-84542380D01*
X108243809Y-84542380D01*
X108339047Y-84590000D01*
X108386666Y-84637619D01*
X108434285Y-84732857D01*
X108434285Y-84828095D01*
X108386666Y-84970952D01*
X107815238Y-85542380D01*
X108434285Y-85542380D01*
X108910476Y-85542380D02*
X109100952Y-85542380D01*
X109196190Y-85494761D01*
X109243809Y-85447142D01*
X109339047Y-85304285D01*
X109386666Y-85113809D01*
X109386666Y-84732857D01*
X109339047Y-84637619D01*
X109291428Y-84590000D01*
X109196190Y-84542380D01*
X109005714Y-84542380D01*
X108910476Y-84590000D01*
X108862857Y-84637619D01*
X108815238Y-84732857D01*
X108815238Y-84970952D01*
X108862857Y-85066190D01*
X108910476Y-85113809D01*
X109005714Y-85161428D01*
X109196190Y-85161428D01*
X109291428Y-85113809D01*
X109339047Y-85066190D01*
X109386666Y-84970952D01*
X109958095Y-84970952D02*
X109862857Y-84923333D01*
X109815238Y-84875714D01*
X109767619Y-84780476D01*
X109767619Y-84732857D01*
X109815238Y-84637619D01*
X109862857Y-84590000D01*
X109958095Y-84542380D01*
X110148571Y-84542380D01*
X110243809Y-84590000D01*
X110291428Y-84637619D01*
X110339047Y-84732857D01*
X110339047Y-84780476D01*
X110291428Y-84875714D01*
X110243809Y-84923333D01*
X110148571Y-84970952D01*
X109958095Y-84970952D01*
X109862857Y-85018571D01*
X109815238Y-85066190D01*
X109767619Y-85161428D01*
X109767619Y-85351904D01*
X109815238Y-85447142D01*
X109862857Y-85494761D01*
X109958095Y-85542380D01*
X110148571Y-85542380D01*
X110243809Y-85494761D01*
X110291428Y-85447142D01*
X110339047Y-85351904D01*
X110339047Y-85161428D01*
X110291428Y-85066190D01*
X110243809Y-85018571D01*
X110148571Y-84970952D01*
X110767619Y-85542380D02*
X110767619Y-84542380D01*
X111339047Y-85542380D01*
X111339047Y-84542380D01*
D10*
X145320190Y-111850190D02*
X145796380Y-111850190D01*
X144796380Y-112183523D02*
X145320190Y-111850190D01*
X144796380Y-111516857D01*
X145796380Y-110659714D02*
X145796380Y-111231142D01*
X145796380Y-110945428D02*
X144796380Y-110945428D01*
X144939238Y-111040666D01*
X145034476Y-111135904D01*
X145082095Y-111231142D01*
X173783333Y-90119142D02*
X173735714Y-90166761D01*
X173592857Y-90214380D01*
X173497619Y-90214380D01*
X173354761Y-90166761D01*
X173259523Y-90071523D01*
X173211904Y-89976285D01*
X173164285Y-89785809D01*
X173164285Y-89642952D01*
X173211904Y-89452476D01*
X173259523Y-89357238D01*
X173354761Y-89262000D01*
X173497619Y-89214380D01*
X173592857Y-89214380D01*
X173735714Y-89262000D01*
X173783333Y-89309619D01*
X174688095Y-89214380D02*
X174211904Y-89214380D01*
X174164285Y-89690571D01*
X174211904Y-89642952D01*
X174307142Y-89595333D01*
X174545238Y-89595333D01*
X174640476Y-89642952D01*
X174688095Y-89690571D01*
X174735714Y-89785809D01*
X174735714Y-90023904D01*
X174688095Y-90119142D01*
X174640476Y-90166761D01*
X174545238Y-90214380D01*
X174307142Y-90214380D01*
X174211904Y-90166761D01*
X174164285Y-90119142D01*
X171870952Y-98607619D02*
X171918571Y-98560000D01*
X172013809Y-98512380D01*
X172251904Y-98512380D01*
X172347142Y-98560000D01*
X172394761Y-98607619D01*
X172442380Y-98702857D01*
X172442380Y-98798095D01*
X172394761Y-98940952D01*
X171823333Y-99512380D01*
X172442380Y-99512380D01*
X172823333Y-98607619D02*
X172870952Y-98560000D01*
X172966190Y-98512380D01*
X173204285Y-98512380D01*
X173299523Y-98560000D01*
X173347142Y-98607619D01*
X173394761Y-98702857D01*
X173394761Y-98798095D01*
X173347142Y-98940952D01*
X172775714Y-99512380D01*
X173394761Y-99512380D01*
X174013809Y-98512380D02*
X174109047Y-98512380D01*
X174204285Y-98560000D01*
X174251904Y-98607619D01*
X174299523Y-98702857D01*
X174347142Y-98893333D01*
X174347142Y-99131428D01*
X174299523Y-99321904D01*
X174251904Y-99417142D01*
X174204285Y-99464761D01*
X174109047Y-99512380D01*
X174013809Y-99512380D01*
X173918571Y-99464761D01*
X173870952Y-99417142D01*
X173823333Y-99321904D01*
X173775714Y-99131428D01*
X173775714Y-98893333D01*
X173823333Y-98702857D01*
X173870952Y-98607619D01*
X173918571Y-98560000D01*
X174013809Y-98512380D01*
X175204285Y-98845714D02*
X175204285Y-99512380D01*
X174775714Y-98845714D02*
X174775714Y-99369523D01*
X174823333Y-99464761D01*
X174918571Y-99512380D01*
X175061428Y-99512380D01*
X175156666Y-99464761D01*
X175204285Y-99417142D01*
X176013809Y-98988571D02*
X175680476Y-98988571D01*
X175680476Y-99512380D02*
X175680476Y-98512380D01*
X176156666Y-98512380D01*
X105243333Y-96877142D02*
X105195714Y-96924761D01*
X105052857Y-96972380D01*
X104957619Y-96972380D01*
X104814761Y-96924761D01*
X104719523Y-96829523D01*
X104671904Y-96734285D01*
X104624285Y-96543809D01*
X104624285Y-96400952D01*
X104671904Y-96210476D01*
X104719523Y-96115238D01*
X104814761Y-96020000D01*
X104957619Y-95972380D01*
X105052857Y-95972380D01*
X105195714Y-96020000D01*
X105243333Y-96067619D01*
X106100476Y-95972380D02*
X105910000Y-95972380D01*
X105814761Y-96020000D01*
X105767142Y-96067619D01*
X105671904Y-96210476D01*
X105624285Y-96400952D01*
X105624285Y-96781904D01*
X105671904Y-96877142D01*
X105719523Y-96924761D01*
X105814761Y-96972380D01*
X106005238Y-96972380D01*
X106100476Y-96924761D01*
X106148095Y-96877142D01*
X106195714Y-96781904D01*
X106195714Y-96543809D01*
X106148095Y-96448571D01*
X106100476Y-96400952D01*
X106005238Y-96353333D01*
X105814761Y-96353333D01*
X105719523Y-96400952D01*
X105671904Y-96448571D01*
X105624285Y-96543809D01*
X107822952Y-103687619D02*
X107870571Y-103640000D01*
X107965809Y-103592380D01*
X108203904Y-103592380D01*
X108299142Y-103640000D01*
X108346761Y-103687619D01*
X108394380Y-103782857D01*
X108394380Y-103878095D01*
X108346761Y-104020952D01*
X107775333Y-104592380D01*
X108394380Y-104592380D01*
X108775333Y-103687619D02*
X108822952Y-103640000D01*
X108918190Y-103592380D01*
X109156285Y-103592380D01*
X109251523Y-103640000D01*
X109299142Y-103687619D01*
X109346761Y-103782857D01*
X109346761Y-103878095D01*
X109299142Y-104020952D01*
X108727714Y-104592380D01*
X109346761Y-104592380D01*
X109965809Y-103592380D02*
X110061047Y-103592380D01*
X110156285Y-103640000D01*
X110203904Y-103687619D01*
X110251523Y-103782857D01*
X110299142Y-103973333D01*
X110299142Y-104211428D01*
X110251523Y-104401904D01*
X110203904Y-104497142D01*
X110156285Y-104544761D01*
X110061047Y-104592380D01*
X109965809Y-104592380D01*
X109870571Y-104544761D01*
X109822952Y-104497142D01*
X109775333Y-104401904D01*
X109727714Y-104211428D01*
X109727714Y-103973333D01*
X109775333Y-103782857D01*
X109822952Y-103687619D01*
X109870571Y-103640000D01*
X109965809Y-103592380D01*
X111156285Y-103925714D02*
X111156285Y-104592380D01*
X110727714Y-103925714D02*
X110727714Y-104449523D01*
X110775333Y-104544761D01*
X110870571Y-104592380D01*
X111013428Y-104592380D01*
X111108666Y-104544761D01*
X111156285Y-104497142D01*
X111965809Y-104068571D02*
X111632476Y-104068571D01*
X111632476Y-104592380D02*
X111632476Y-103592380D01*
X112108666Y-103592380D01*
X196389333Y-95199142D02*
X196341714Y-95246761D01*
X196198857Y-95294380D01*
X196103619Y-95294380D01*
X195960761Y-95246761D01*
X195865523Y-95151523D01*
X195817904Y-95056285D01*
X195770285Y-94865809D01*
X195770285Y-94722952D01*
X195817904Y-94532476D01*
X195865523Y-94437238D01*
X195960761Y-94342000D01*
X196103619Y-94294380D01*
X196198857Y-94294380D01*
X196341714Y-94342000D01*
X196389333Y-94389619D01*
X196722666Y-94294380D02*
X197389333Y-94294380D01*
X196960761Y-95294380D01*
X194730952Y-97337619D02*
X194778571Y-97290000D01*
X194873809Y-97242380D01*
X195111904Y-97242380D01*
X195207142Y-97290000D01*
X195254761Y-97337619D01*
X195302380Y-97432857D01*
X195302380Y-97528095D01*
X195254761Y-97670952D01*
X194683333Y-98242380D01*
X195302380Y-98242380D01*
X195683333Y-97337619D02*
X195730952Y-97290000D01*
X195826190Y-97242380D01*
X196064285Y-97242380D01*
X196159523Y-97290000D01*
X196207142Y-97337619D01*
X196254761Y-97432857D01*
X196254761Y-97528095D01*
X196207142Y-97670952D01*
X195635714Y-98242380D01*
X196254761Y-98242380D01*
X196873809Y-97242380D02*
X196969047Y-97242380D01*
X197064285Y-97290000D01*
X197111904Y-97337619D01*
X197159523Y-97432857D01*
X197207142Y-97623333D01*
X197207142Y-97861428D01*
X197159523Y-98051904D01*
X197111904Y-98147142D01*
X197064285Y-98194761D01*
X196969047Y-98242380D01*
X196873809Y-98242380D01*
X196778571Y-98194761D01*
X196730952Y-98147142D01*
X196683333Y-98051904D01*
X196635714Y-97861428D01*
X196635714Y-97623333D01*
X196683333Y-97432857D01*
X196730952Y-97337619D01*
X196778571Y-97290000D01*
X196873809Y-97242380D01*
X198064285Y-97575714D02*
X198064285Y-98242380D01*
X197635714Y-97575714D02*
X197635714Y-98099523D01*
X197683333Y-98194761D01*
X197778571Y-98242380D01*
X197921428Y-98242380D01*
X198016666Y-98194761D01*
X198064285Y-98147142D01*
X198873809Y-97718571D02*
X198540476Y-97718571D01*
X198540476Y-98242380D02*
X198540476Y-97242380D01*
X199016666Y-97242380D01*
X172521714Y-105100380D02*
X172521714Y-104100380D01*
X172759809Y-104100380D01*
X172902666Y-104148000D01*
X172997904Y-104243238D01*
X173045523Y-104338476D01*
X173093142Y-104528952D01*
X173093142Y-104671809D01*
X173045523Y-104862285D01*
X172997904Y-104957523D01*
X172902666Y-105052761D01*
X172759809Y-105100380D01*
X172521714Y-105100380D01*
X173474095Y-104195619D02*
X173521714Y-104148000D01*
X173616952Y-104100380D01*
X173855047Y-104100380D01*
X173950285Y-104148000D01*
X173997904Y-104195619D01*
X174045523Y-104290857D01*
X174045523Y-104386095D01*
X173997904Y-104528952D01*
X173426476Y-105100380D01*
X174045523Y-105100380D01*
X174664571Y-104100380D02*
X174759809Y-104100380D01*
X174855047Y-104148000D01*
X174902666Y-104195619D01*
X174950285Y-104290857D01*
X174997904Y-104481333D01*
X174997904Y-104719428D01*
X174950285Y-104909904D01*
X174902666Y-105005142D01*
X174855047Y-105052761D01*
X174759809Y-105100380D01*
X174664571Y-105100380D01*
X174569333Y-105052761D01*
X174521714Y-105005142D01*
X174474095Y-104909904D01*
X174426476Y-104719428D01*
X174426476Y-104481333D01*
X174474095Y-104290857D01*
X174521714Y-104195619D01*
X174569333Y-104148000D01*
X174664571Y-104100380D01*
X177792095Y-106746380D02*
X177792095Y-105746380D01*
X178363523Y-106746380D02*
X177934952Y-106174952D01*
X178363523Y-105746380D02*
X177792095Y-106317809D01*
X166568380Y-91860666D02*
X166092190Y-92194000D01*
X166568380Y-92432095D02*
X165568380Y-92432095D01*
X165568380Y-92051142D01*
X165616000Y-91955904D01*
X165663619Y-91908285D01*
X165758857Y-91860666D01*
X165901714Y-91860666D01*
X165996952Y-91908285D01*
X166044571Y-91955904D01*
X166092190Y-92051142D01*
X166092190Y-92432095D01*
X165901714Y-91003523D02*
X166568380Y-91003523D01*
X165520761Y-91241619D02*
X166235047Y-91479714D01*
X166235047Y-90860666D01*
X163028380Y-91114380D02*
X163028380Y-90495333D01*
X163409333Y-90828666D01*
X163409333Y-90685809D01*
X163456952Y-90590571D01*
X163504571Y-90542952D01*
X163599809Y-90495333D01*
X163837904Y-90495333D01*
X163933142Y-90542952D01*
X163980761Y-90590571D01*
X164028380Y-90685809D01*
X164028380Y-90971523D01*
X163980761Y-91066761D01*
X163933142Y-91114380D01*
X163933142Y-90066761D02*
X163980761Y-90019142D01*
X164028380Y-90066761D01*
X163980761Y-90114380D01*
X163933142Y-90066761D01*
X164028380Y-90066761D01*
X163028380Y-89685809D02*
X163028380Y-89066761D01*
X163409333Y-89400095D01*
X163409333Y-89257238D01*
X163456952Y-89162000D01*
X163504571Y-89114380D01*
X163599809Y-89066761D01*
X163837904Y-89066761D01*
X163933142Y-89114380D01*
X163980761Y-89162000D01*
X164028380Y-89257238D01*
X164028380Y-89542952D01*
X163980761Y-89638190D01*
X163933142Y-89685809D01*
X164028380Y-88638190D02*
X163028380Y-88638190D01*
X163647428Y-88542952D02*
X164028380Y-88257238D01*
X163361714Y-88257238D02*
X163742666Y-88638190D01*
X168092380Y-110656666D02*
X167616190Y-110990000D01*
X168092380Y-111228095D02*
X167092380Y-111228095D01*
X167092380Y-110847142D01*
X167140000Y-110751904D01*
X167187619Y-110704285D01*
X167282857Y-110656666D01*
X167425714Y-110656666D01*
X167520952Y-110704285D01*
X167568571Y-110751904D01*
X167616190Y-110847142D01*
X167616190Y-111228095D01*
X167092380Y-109751904D02*
X167092380Y-110228095D01*
X167568571Y-110275714D01*
X167520952Y-110228095D01*
X167473333Y-110132857D01*
X167473333Y-109894761D01*
X167520952Y-109799523D01*
X167568571Y-109751904D01*
X167663809Y-109704285D01*
X167901904Y-109704285D01*
X167997142Y-109751904D01*
X168044761Y-109799523D01*
X168092380Y-109894761D01*
X168092380Y-110132857D01*
X168044761Y-110228095D01*
X167997142Y-110275714D01*
X164552380Y-115942952D02*
X164552380Y-116419142D01*
X165028571Y-116466761D01*
X164980952Y-116419142D01*
X164933333Y-116323904D01*
X164933333Y-116085809D01*
X164980952Y-115990571D01*
X165028571Y-115942952D01*
X165123809Y-115895333D01*
X165361904Y-115895333D01*
X165457142Y-115942952D01*
X165504761Y-115990571D01*
X165552380Y-116085809D01*
X165552380Y-116323904D01*
X165504761Y-116419142D01*
X165457142Y-116466761D01*
X165457142Y-115466761D02*
X165504761Y-115419142D01*
X165552380Y-115466761D01*
X165504761Y-115514380D01*
X165457142Y-115466761D01*
X165552380Y-115466761D01*
X164552380Y-114562000D02*
X164552380Y-114752476D01*
X164600000Y-114847714D01*
X164647619Y-114895333D01*
X164790476Y-114990571D01*
X164980952Y-115038190D01*
X165361904Y-115038190D01*
X165457142Y-114990571D01*
X165504761Y-114942952D01*
X165552380Y-114847714D01*
X165552380Y-114657238D01*
X165504761Y-114562000D01*
X165457142Y-114514380D01*
X165361904Y-114466761D01*
X165123809Y-114466761D01*
X165028571Y-114514380D01*
X164980952Y-114562000D01*
X164933333Y-114657238D01*
X164933333Y-114847714D01*
X164980952Y-114942952D01*
X165028571Y-114990571D01*
X165123809Y-115038190D01*
X165552380Y-114038190D02*
X164552380Y-114038190D01*
X165171428Y-113942952D02*
X165552380Y-113657238D01*
X164885714Y-113657238D02*
X165266666Y-114038190D01*
X181610095Y-83780380D02*
X181610095Y-84589904D01*
X181657714Y-84685142D01*
X181705333Y-84732761D01*
X181800571Y-84780380D01*
X181991047Y-84780380D01*
X182086285Y-84732761D01*
X182133904Y-84685142D01*
X182181523Y-84589904D01*
X182181523Y-83780380D01*
X183133904Y-83780380D02*
X182657714Y-83780380D01*
X182610095Y-84256571D01*
X182657714Y-84208952D01*
X182752952Y-84161333D01*
X182991047Y-84161333D01*
X183086285Y-84208952D01*
X183133904Y-84256571D01*
X183181523Y-84351809D01*
X183181523Y-84589904D01*
X183133904Y-84685142D01*
X183086285Y-84732761D01*
X182991047Y-84780380D01*
X182752952Y-84780380D01*
X182657714Y-84732761D01*
X182610095Y-84685142D01*
X175974571Y-84526380D02*
X175498380Y-84526380D01*
X175498380Y-83526380D01*
X176307904Y-84526380D02*
X176307904Y-83526380D01*
X176546000Y-83526380D01*
X176688857Y-83574000D01*
X176784095Y-83669238D01*
X176831714Y-83764476D01*
X176879333Y-83954952D01*
X176879333Y-84097809D01*
X176831714Y-84288285D01*
X176784095Y-84383523D01*
X176688857Y-84478761D01*
X176546000Y-84526380D01*
X176307904Y-84526380D01*
X177212666Y-83526380D02*
X177831714Y-83526380D01*
X177498380Y-83907333D01*
X177641238Y-83907333D01*
X177736476Y-83954952D01*
X177784095Y-84002571D01*
X177831714Y-84097809D01*
X177831714Y-84335904D01*
X177784095Y-84431142D01*
X177736476Y-84478761D01*
X177641238Y-84526380D01*
X177355523Y-84526380D01*
X177260285Y-84478761D01*
X177212666Y-84431142D01*
X178165047Y-83526380D02*
X178784095Y-83526380D01*
X178450761Y-83907333D01*
X178593619Y-83907333D01*
X178688857Y-83954952D01*
X178736476Y-84002571D01*
X178784095Y-84097809D01*
X178784095Y-84335904D01*
X178736476Y-84431142D01*
X178688857Y-84478761D01*
X178593619Y-84526380D01*
X178307904Y-84526380D01*
X178212666Y-84478761D01*
X178165047Y-84431142D01*
X179069809Y-83526380D02*
X179403142Y-84526380D01*
X179736476Y-83526380D01*
X103552666Y-120864380D02*
X103552666Y-121578666D01*
X103505047Y-121721523D01*
X103409809Y-121816761D01*
X103266952Y-121864380D01*
X103171714Y-121864380D01*
X103933619Y-120864380D02*
X104600285Y-120864380D01*
X104171714Y-121864380D01*
X86940000Y-121086571D02*
X86606666Y-121086571D01*
X86606666Y-121610380D02*
X86606666Y-120610380D01*
X87082857Y-120610380D01*
X87416190Y-121324666D02*
X87892380Y-121324666D01*
X87320952Y-121610380D02*
X87654285Y-120610380D01*
X87987619Y-121610380D01*
X88320952Y-121610380D02*
X88320952Y-120610380D01*
X88892380Y-121610380D01*
X88892380Y-120610380D01*
X89130476Y-121705619D02*
X89892380Y-121705619D01*
X90130476Y-121610380D02*
X90130476Y-120610380D01*
X90463809Y-121324666D01*
X90797142Y-120610380D01*
X90797142Y-121610380D01*
X91463809Y-120610380D02*
X91654285Y-120610380D01*
X91749523Y-120658000D01*
X91844761Y-120753238D01*
X91892380Y-120943714D01*
X91892380Y-121277047D01*
X91844761Y-121467523D01*
X91749523Y-121562761D01*
X91654285Y-121610380D01*
X91463809Y-121610380D01*
X91368571Y-121562761D01*
X91273333Y-121467523D01*
X91225714Y-121277047D01*
X91225714Y-120943714D01*
X91273333Y-120753238D01*
X91368571Y-120658000D01*
X91463809Y-120610380D01*
X92178095Y-120610380D02*
X92749523Y-120610380D01*
X92463809Y-121610380D02*
X92463809Y-120610380D01*
X93273333Y-120610380D02*
X93463809Y-120610380D01*
X93559047Y-120658000D01*
X93654285Y-120753238D01*
X93701904Y-120943714D01*
X93701904Y-121277047D01*
X93654285Y-121467523D01*
X93559047Y-121562761D01*
X93463809Y-121610380D01*
X93273333Y-121610380D01*
X93178095Y-121562761D01*
X93082857Y-121467523D01*
X93035238Y-121277047D01*
X93035238Y-120943714D01*
X93082857Y-120753238D01*
X93178095Y-120658000D01*
X93273333Y-120610380D01*
X94701904Y-121610380D02*
X94368571Y-121134190D01*
X94130476Y-121610380D02*
X94130476Y-120610380D01*
X94511428Y-120610380D01*
X94606666Y-120658000D01*
X94654285Y-120705619D01*
X94701904Y-120800857D01*
X94701904Y-120943714D01*
X94654285Y-121038952D01*
X94606666Y-121086571D01*
X94511428Y-121134190D01*
X94130476Y-121134190D01*
X94892380Y-121705619D02*
X95654285Y-121705619D01*
X95844761Y-121324666D02*
X96320952Y-121324666D01*
X95749523Y-121610380D02*
X96082857Y-120610380D01*
X96416190Y-121610380D01*
X202866666Y-120864380D02*
X202866666Y-121578666D01*
X202819047Y-121721523D01*
X202723809Y-121816761D01*
X202580952Y-121864380D01*
X202485714Y-121864380D01*
X203485714Y-121292952D02*
X203390476Y-121245333D01*
X203342857Y-121197714D01*
X203295238Y-121102476D01*
X203295238Y-121054857D01*
X203342857Y-120959619D01*
X203390476Y-120912000D01*
X203485714Y-120864380D01*
X203676190Y-120864380D01*
X203771428Y-120912000D01*
X203819047Y-120959619D01*
X203866666Y-121054857D01*
X203866666Y-121102476D01*
X203819047Y-121197714D01*
X203771428Y-121245333D01*
X203676190Y-121292952D01*
X203485714Y-121292952D01*
X203390476Y-121340571D01*
X203342857Y-121388190D01*
X203295238Y-121483428D01*
X203295238Y-121673904D01*
X203342857Y-121769142D01*
X203390476Y-121816761D01*
X203485714Y-121864380D01*
X203676190Y-121864380D01*
X203771428Y-121816761D01*
X203819047Y-121769142D01*
X203866666Y-121673904D01*
X203866666Y-121483428D01*
X203819047Y-121388190D01*
X203771428Y-121340571D01*
X203676190Y-121292952D01*
X210820571Y-121340571D02*
X210487238Y-121340571D01*
X210487238Y-121864380D02*
X210487238Y-120864380D01*
X210963428Y-120864380D01*
X211296761Y-121578666D02*
X211772952Y-121578666D01*
X211201523Y-121864380D02*
X211534857Y-120864380D01*
X211868190Y-121864380D01*
X212201523Y-121864380D02*
X212201523Y-120864380D01*
X212772952Y-121864380D01*
X212772952Y-120864380D01*
X213011047Y-121959619D02*
X213772952Y-121959619D01*
X214011047Y-121864380D02*
X214011047Y-120864380D01*
X214344380Y-121578666D01*
X214677714Y-120864380D01*
X214677714Y-121864380D01*
X215344380Y-120864380D02*
X215534857Y-120864380D01*
X215630095Y-120912000D01*
X215725333Y-121007238D01*
X215772952Y-121197714D01*
X215772952Y-121531047D01*
X215725333Y-121721523D01*
X215630095Y-121816761D01*
X215534857Y-121864380D01*
X215344380Y-121864380D01*
X215249142Y-121816761D01*
X215153904Y-121721523D01*
X215106285Y-121531047D01*
X215106285Y-121197714D01*
X215153904Y-121007238D01*
X215249142Y-120912000D01*
X215344380Y-120864380D01*
X216058666Y-120864380D02*
X216630095Y-120864380D01*
X216344380Y-121864380D02*
X216344380Y-120864380D01*
X217153904Y-120864380D02*
X217344380Y-120864380D01*
X217439619Y-120912000D01*
X217534857Y-121007238D01*
X217582476Y-121197714D01*
X217582476Y-121531047D01*
X217534857Y-121721523D01*
X217439619Y-121816761D01*
X217344380Y-121864380D01*
X217153904Y-121864380D01*
X217058666Y-121816761D01*
X216963428Y-121721523D01*
X216915809Y-121531047D01*
X216915809Y-121197714D01*
X216963428Y-121007238D01*
X217058666Y-120912000D01*
X217153904Y-120864380D01*
X218582476Y-121864380D02*
X218249142Y-121388190D01*
X218011047Y-121864380D02*
X218011047Y-120864380D01*
X218392000Y-120864380D01*
X218487238Y-120912000D01*
X218534857Y-120959619D01*
X218582476Y-121054857D01*
X218582476Y-121197714D01*
X218534857Y-121292952D01*
X218487238Y-121340571D01*
X218392000Y-121388190D01*
X218011047Y-121388190D01*
X218772952Y-121959619D02*
X219534857Y-121959619D01*
X220106285Y-121340571D02*
X220249142Y-121388190D01*
X220296761Y-121435809D01*
X220344380Y-121531047D01*
X220344380Y-121673904D01*
X220296761Y-121769142D01*
X220249142Y-121816761D01*
X220153904Y-121864380D01*
X219772952Y-121864380D01*
X219772952Y-120864380D01*
X220106285Y-120864380D01*
X220201523Y-120912000D01*
X220249142Y-120959619D01*
X220296761Y-121054857D01*
X220296761Y-121150095D01*
X220249142Y-121245333D01*
X220201523Y-121292952D01*
X220106285Y-121340571D01*
X219772952Y-121340571D01*
M02*
