G04 #@! TF.GenerationSoftware,KiCad,Pcbnew,(5.1.4)-1*
G04 #@! TF.CreationDate,2019-12-28T20:01:16+00:00*
G04 #@! TF.ProjectId,Plotter,506c6f74-7465-4722-9e6b-696361645f70,V1.0*
G04 #@! TF.SameCoordinates,Original*
G04 #@! TF.FileFunction,Soldermask,Bot*
G04 #@! TF.FilePolarity,Negative*
%FSLAX46Y46*%
G04 Gerber Fmt 4.6, Leading zero omitted, Abs format (unit mm)*
G04 Created by KiCad (PCBNEW (5.1.4)-1) date 2019-12-28 20:01:16*
%MOMM*%
%LPD*%
G04 APERTURE LIST*
%ADD10C,0.100000*%
G04 APERTURE END LIST*
D10*
G36*
X208898443Y-119501519D02*
G01*
X208964627Y-119508037D01*
X209134466Y-119559557D01*
X209290991Y-119643222D01*
X209319869Y-119666922D01*
X209428186Y-119755814D01*
X209511448Y-119857271D01*
X209540778Y-119893009D01*
X209624443Y-120049534D01*
X209675963Y-120219373D01*
X209693359Y-120396000D01*
X209675963Y-120572627D01*
X209624443Y-120742466D01*
X209540778Y-120898991D01*
X209511448Y-120934729D01*
X209428186Y-121036186D01*
X209326729Y-121119448D01*
X209290991Y-121148778D01*
X209134466Y-121232443D01*
X208964627Y-121283963D01*
X208898443Y-121290481D01*
X208832260Y-121297000D01*
X208743740Y-121297000D01*
X208677557Y-121290481D01*
X208611373Y-121283963D01*
X208441534Y-121232443D01*
X208285009Y-121148778D01*
X208249271Y-121119448D01*
X208147814Y-121036186D01*
X208064552Y-120934729D01*
X208035222Y-120898991D01*
X207951557Y-120742466D01*
X207900037Y-120572627D01*
X207882641Y-120396000D01*
X207900037Y-120219373D01*
X207951557Y-120049534D01*
X208035222Y-119893009D01*
X208064552Y-119857271D01*
X208147814Y-119755814D01*
X208256131Y-119666922D01*
X208285009Y-119643222D01*
X208441534Y-119559557D01*
X208611373Y-119508037D01*
X208677557Y-119501519D01*
X208743740Y-119495000D01*
X208832260Y-119495000D01*
X208898443Y-119501519D01*
X208898443Y-119501519D01*
G37*
G36*
X207149000Y-121297000D02*
G01*
X205347000Y-121297000D01*
X205347000Y-119495000D01*
X207149000Y-119495000D01*
X207149000Y-121297000D01*
X207149000Y-121297000D01*
G37*
G36*
X99199000Y-121297000D02*
G01*
X97397000Y-121297000D01*
X97397000Y-119495000D01*
X99199000Y-119495000D01*
X99199000Y-121297000D01*
X99199000Y-121297000D01*
G37*
G36*
X100948443Y-119501519D02*
G01*
X101014627Y-119508037D01*
X101184466Y-119559557D01*
X101340991Y-119643222D01*
X101369869Y-119666922D01*
X101478186Y-119755814D01*
X101561448Y-119857271D01*
X101590778Y-119893009D01*
X101674443Y-120049534D01*
X101725963Y-120219373D01*
X101743359Y-120396000D01*
X101725963Y-120572627D01*
X101674443Y-120742466D01*
X101590778Y-120898991D01*
X101561448Y-120934729D01*
X101478186Y-121036186D01*
X101376729Y-121119448D01*
X101340991Y-121148778D01*
X101184466Y-121232443D01*
X101014627Y-121283963D01*
X100948443Y-121290481D01*
X100882260Y-121297000D01*
X100793740Y-121297000D01*
X100727557Y-121290481D01*
X100661373Y-121283963D01*
X100491534Y-121232443D01*
X100335009Y-121148778D01*
X100299271Y-121119448D01*
X100197814Y-121036186D01*
X100114552Y-120934729D01*
X100085222Y-120898991D01*
X100001557Y-120742466D01*
X99950037Y-120572627D01*
X99932641Y-120396000D01*
X99950037Y-120219373D01*
X100001557Y-120049534D01*
X100085222Y-119893009D01*
X100114552Y-119857271D01*
X100197814Y-119755814D01*
X100306131Y-119666922D01*
X100335009Y-119643222D01*
X100491534Y-119559557D01*
X100661373Y-119508037D01*
X100727557Y-119501519D01*
X100793740Y-119495000D01*
X100882260Y-119495000D01*
X100948443Y-119501519D01*
X100948443Y-119501519D01*
G37*
G36*
X165520823Y-119303313D02*
G01*
X165681242Y-119351976D01*
X165813906Y-119422886D01*
X165829078Y-119430996D01*
X165958659Y-119537341D01*
X166065004Y-119666922D01*
X166065005Y-119666924D01*
X166144024Y-119814758D01*
X166192687Y-119975177D01*
X166209117Y-120142000D01*
X166192687Y-120308823D01*
X166144024Y-120469242D01*
X166073114Y-120601906D01*
X166065004Y-120617078D01*
X165958659Y-120746659D01*
X165829078Y-120853004D01*
X165829076Y-120853005D01*
X165681242Y-120932024D01*
X165520823Y-120980687D01*
X165395804Y-120993000D01*
X165312196Y-120993000D01*
X165187177Y-120980687D01*
X165026758Y-120932024D01*
X164878924Y-120853005D01*
X164878922Y-120853004D01*
X164749341Y-120746659D01*
X164642996Y-120617078D01*
X164634886Y-120601906D01*
X164563976Y-120469242D01*
X164515313Y-120308823D01*
X164498883Y-120142000D01*
X164515313Y-119975177D01*
X164563976Y-119814758D01*
X164642995Y-119666924D01*
X164642996Y-119666922D01*
X164749341Y-119537341D01*
X164878922Y-119430996D01*
X164894094Y-119422886D01*
X165026758Y-119351976D01*
X165187177Y-119303313D01*
X165312196Y-119291000D01*
X165395804Y-119291000D01*
X165520823Y-119303313D01*
X165520823Y-119303313D01*
G37*
G36*
X176415000Y-120535000D02*
G01*
X174613000Y-120535000D01*
X174613000Y-118733000D01*
X176415000Y-118733000D01*
X176415000Y-120535000D01*
X176415000Y-120535000D01*
G37*
G36*
X173084442Y-118739518D02*
G01*
X173150627Y-118746037D01*
X173320466Y-118797557D01*
X173476991Y-118881222D01*
X173499901Y-118900024D01*
X173614186Y-118993814D01*
X173697448Y-119095271D01*
X173726778Y-119131009D01*
X173810443Y-119287534D01*
X173861963Y-119457373D01*
X173879359Y-119634000D01*
X173861963Y-119810627D01*
X173810443Y-119980466D01*
X173726778Y-120136991D01*
X173722667Y-120142000D01*
X173614186Y-120274186D01*
X173512729Y-120357448D01*
X173476991Y-120386778D01*
X173320466Y-120470443D01*
X173150627Y-120521963D01*
X173084443Y-120528481D01*
X173018260Y-120535000D01*
X172929740Y-120535000D01*
X172863557Y-120528481D01*
X172797373Y-120521963D01*
X172627534Y-120470443D01*
X172471009Y-120386778D01*
X172435271Y-120357448D01*
X172333814Y-120274186D01*
X172225333Y-120142000D01*
X172221222Y-120136991D01*
X172137557Y-119980466D01*
X172086037Y-119810627D01*
X172068641Y-119634000D01*
X172086037Y-119457373D01*
X172137557Y-119287534D01*
X172221222Y-119131009D01*
X172250552Y-119095271D01*
X172333814Y-118993814D01*
X172448099Y-118900024D01*
X172471009Y-118881222D01*
X172627534Y-118797557D01*
X172797373Y-118746037D01*
X172863558Y-118739518D01*
X172929740Y-118733000D01*
X173018260Y-118733000D01*
X173084442Y-118739518D01*
X173084442Y-118739518D01*
G37*
G36*
X109838443Y-117977519D02*
G01*
X109904627Y-117984037D01*
X110074466Y-118035557D01*
X110230991Y-118119222D01*
X110264167Y-118146449D01*
X110368186Y-118231814D01*
X110426686Y-118303098D01*
X110480778Y-118369009D01*
X110480779Y-118369011D01*
X110559890Y-118517015D01*
X110564443Y-118525534D01*
X110615963Y-118695373D01*
X110633359Y-118872000D01*
X110615963Y-119048627D01*
X110564443Y-119218466D01*
X110480778Y-119374991D01*
X110451448Y-119410729D01*
X110368186Y-119512186D01*
X110266729Y-119595448D01*
X110230991Y-119624778D01*
X110074466Y-119708443D01*
X109904627Y-119759963D01*
X109838442Y-119766482D01*
X109772260Y-119773000D01*
X109683740Y-119773000D01*
X109617558Y-119766482D01*
X109551373Y-119759963D01*
X109381534Y-119708443D01*
X109225009Y-119624778D01*
X109189271Y-119595448D01*
X109087814Y-119512186D01*
X109004552Y-119410729D01*
X108975222Y-119374991D01*
X108891557Y-119218466D01*
X108840037Y-119048627D01*
X108822641Y-118872000D01*
X108840037Y-118695373D01*
X108891557Y-118525534D01*
X108896111Y-118517015D01*
X108975221Y-118369011D01*
X108975222Y-118369009D01*
X109029314Y-118303098D01*
X109087814Y-118231814D01*
X109191833Y-118146449D01*
X109225009Y-118119222D01*
X109381534Y-118035557D01*
X109551373Y-117984037D01*
X109617557Y-117977519D01*
X109683740Y-117971000D01*
X109772260Y-117971000D01*
X109838443Y-117977519D01*
X109838443Y-117977519D01*
G37*
G36*
X196960443Y-117977519D02*
G01*
X197026627Y-117984037D01*
X197196466Y-118035557D01*
X197352991Y-118119222D01*
X197386167Y-118146449D01*
X197490186Y-118231814D01*
X197548686Y-118303098D01*
X197602778Y-118369009D01*
X197602779Y-118369011D01*
X197681890Y-118517015D01*
X197686443Y-118525534D01*
X197737963Y-118695373D01*
X197755359Y-118872000D01*
X197737963Y-119048627D01*
X197686443Y-119218466D01*
X197602778Y-119374991D01*
X197573448Y-119410729D01*
X197490186Y-119512186D01*
X197388729Y-119595448D01*
X197352991Y-119624778D01*
X197196466Y-119708443D01*
X197026627Y-119759963D01*
X196960442Y-119766482D01*
X196894260Y-119773000D01*
X196805740Y-119773000D01*
X196739558Y-119766482D01*
X196673373Y-119759963D01*
X196503534Y-119708443D01*
X196347009Y-119624778D01*
X196311271Y-119595448D01*
X196209814Y-119512186D01*
X196126552Y-119410729D01*
X196097222Y-119374991D01*
X196013557Y-119218466D01*
X195962037Y-119048627D01*
X195944641Y-118872000D01*
X195962037Y-118695373D01*
X196013557Y-118525534D01*
X196018111Y-118517015D01*
X196097221Y-118369011D01*
X196097222Y-118369009D01*
X196151314Y-118303098D01*
X196209814Y-118231814D01*
X196313833Y-118146449D01*
X196347009Y-118119222D01*
X196503534Y-118035557D01*
X196673373Y-117984037D01*
X196739557Y-117977519D01*
X196805740Y-117971000D01*
X196894260Y-117971000D01*
X196960443Y-117977519D01*
X196960443Y-117977519D01*
G37*
G36*
X155614823Y-117271313D02*
G01*
X155775242Y-117319976D01*
X155907906Y-117390886D01*
X155923078Y-117398996D01*
X156052659Y-117505341D01*
X156159004Y-117634922D01*
X156159005Y-117634924D01*
X156238024Y-117782758D01*
X156286687Y-117943177D01*
X156303117Y-118110000D01*
X156286687Y-118276823D01*
X156238024Y-118437242D01*
X156199877Y-118508610D01*
X156159004Y-118585078D01*
X156052659Y-118714659D01*
X155923078Y-118821004D01*
X155923076Y-118821005D01*
X155775242Y-118900024D01*
X155614823Y-118948687D01*
X155489804Y-118961000D01*
X155406196Y-118961000D01*
X155281177Y-118948687D01*
X155120758Y-118900024D01*
X154972924Y-118821005D01*
X154972922Y-118821004D01*
X154843341Y-118714659D01*
X154736996Y-118585078D01*
X154696123Y-118508610D01*
X154657976Y-118437242D01*
X154609313Y-118276823D01*
X154592883Y-118110000D01*
X154609313Y-117943177D01*
X154657976Y-117782758D01*
X154736995Y-117634924D01*
X154736996Y-117634922D01*
X154843341Y-117505341D01*
X154972922Y-117398996D01*
X154988094Y-117390886D01*
X155120758Y-117319976D01*
X155281177Y-117271313D01*
X155406196Y-117259000D01*
X155489804Y-117259000D01*
X155614823Y-117271313D01*
X155614823Y-117271313D01*
G37*
G36*
X147994823Y-117271313D02*
G01*
X148155242Y-117319976D01*
X148287906Y-117390886D01*
X148303078Y-117398996D01*
X148432659Y-117505341D01*
X148539004Y-117634922D01*
X148539005Y-117634924D01*
X148618024Y-117782758D01*
X148666687Y-117943177D01*
X148683117Y-118110000D01*
X148666687Y-118276823D01*
X148618024Y-118437242D01*
X148579877Y-118508610D01*
X148539004Y-118585078D01*
X148432659Y-118714659D01*
X148303078Y-118821004D01*
X148303076Y-118821005D01*
X148155242Y-118900024D01*
X147994823Y-118948687D01*
X147869804Y-118961000D01*
X147786196Y-118961000D01*
X147661177Y-118948687D01*
X147500758Y-118900024D01*
X147352924Y-118821005D01*
X147352922Y-118821004D01*
X147223341Y-118714659D01*
X147116996Y-118585078D01*
X147076123Y-118508610D01*
X147037976Y-118437242D01*
X146989313Y-118276823D01*
X146972883Y-118110000D01*
X146989313Y-117943177D01*
X147037976Y-117782758D01*
X147116995Y-117634924D01*
X147116996Y-117634922D01*
X147223341Y-117505341D01*
X147352922Y-117398996D01*
X147368094Y-117390886D01*
X147500758Y-117319976D01*
X147661177Y-117271313D01*
X147786196Y-117259000D01*
X147869804Y-117259000D01*
X147994823Y-117271313D01*
X147994823Y-117271313D01*
G37*
G36*
X90799256Y-115485298D02*
G01*
X90905579Y-115506447D01*
X91206042Y-115630903D01*
X91476451Y-115811585D01*
X91706415Y-116041549D01*
X91885185Y-116309097D01*
X91887098Y-116311960D01*
X91909036Y-116364924D01*
X92011553Y-116612421D01*
X92028515Y-116697693D01*
X92075000Y-116931389D01*
X92075000Y-117256611D01*
X92038429Y-117440466D01*
X92011553Y-117575579D01*
X91950548Y-117722858D01*
X91897474Y-117850991D01*
X91887097Y-117876042D01*
X91706415Y-118146451D01*
X91476451Y-118376415D01*
X91206042Y-118557097D01*
X90905579Y-118681553D01*
X90836101Y-118695373D01*
X90586611Y-118745000D01*
X90261389Y-118745000D01*
X90011899Y-118695373D01*
X89942421Y-118681553D01*
X89641958Y-118557097D01*
X89371549Y-118376415D01*
X89141585Y-118146451D01*
X88960903Y-117876042D01*
X88950527Y-117850991D01*
X88897452Y-117722858D01*
X88836447Y-117575579D01*
X88809571Y-117440466D01*
X88773000Y-117256611D01*
X88773000Y-116931389D01*
X88819485Y-116697693D01*
X88836447Y-116612421D01*
X88938964Y-116364924D01*
X88960902Y-116311960D01*
X88962815Y-116309097D01*
X89141585Y-116041549D01*
X89371549Y-115811585D01*
X89641958Y-115630903D01*
X89942421Y-115506447D01*
X90048744Y-115485298D01*
X90261389Y-115443000D01*
X90586611Y-115443000D01*
X90799256Y-115485298D01*
X90799256Y-115485298D01*
G37*
G36*
X141472228Y-117037703D02*
G01*
X141627100Y-117101853D01*
X141766481Y-117194985D01*
X141885015Y-117313519D01*
X141978147Y-117452900D01*
X142042297Y-117607772D01*
X142075000Y-117772184D01*
X142075000Y-117939816D01*
X142042297Y-118104228D01*
X141978147Y-118259100D01*
X141885015Y-118398481D01*
X141766481Y-118517015D01*
X141627100Y-118610147D01*
X141472228Y-118674297D01*
X141307816Y-118707000D01*
X141140184Y-118707000D01*
X140975772Y-118674297D01*
X140820900Y-118610147D01*
X140681519Y-118517015D01*
X140562985Y-118398481D01*
X140469853Y-118259100D01*
X140405703Y-118104228D01*
X140373000Y-117939816D01*
X140373000Y-117772184D01*
X140405703Y-117607772D01*
X140469853Y-117452900D01*
X140562985Y-117313519D01*
X140681519Y-117194985D01*
X140820900Y-117101853D01*
X140975772Y-117037703D01*
X141140184Y-117005000D01*
X141307816Y-117005000D01*
X141472228Y-117037703D01*
X141472228Y-117037703D01*
G37*
G36*
X143972228Y-117037703D02*
G01*
X144127100Y-117101853D01*
X144266481Y-117194985D01*
X144385015Y-117313519D01*
X144478147Y-117452900D01*
X144542297Y-117607772D01*
X144575000Y-117772184D01*
X144575000Y-117939816D01*
X144542297Y-118104228D01*
X144478147Y-118259100D01*
X144385015Y-118398481D01*
X144266481Y-118517015D01*
X144127100Y-118610147D01*
X143972228Y-118674297D01*
X143807816Y-118707000D01*
X143640184Y-118707000D01*
X143475772Y-118674297D01*
X143320900Y-118610147D01*
X143181519Y-118517015D01*
X143062985Y-118398481D01*
X142969853Y-118259100D01*
X142905703Y-118104228D01*
X142873000Y-117939816D01*
X142873000Y-117772184D01*
X142905703Y-117607772D01*
X142969853Y-117452900D01*
X143062985Y-117313519D01*
X143181519Y-117194985D01*
X143320900Y-117101853D01*
X143475772Y-117037703D01*
X143640184Y-117005000D01*
X143807816Y-117005000D01*
X143972228Y-117037703D01*
X143972228Y-117037703D01*
G37*
G36*
X136450564Y-116487389D02*
G01*
X136641833Y-116566615D01*
X136641835Y-116566616D01*
X136813973Y-116681635D01*
X136960365Y-116828027D01*
X137029431Y-116931391D01*
X137075385Y-117000167D01*
X137154611Y-117191436D01*
X137195000Y-117394484D01*
X137195000Y-117601516D01*
X137154611Y-117804564D01*
X137085671Y-117971000D01*
X137075384Y-117995835D01*
X136960365Y-118167973D01*
X136813973Y-118314365D01*
X136641835Y-118429384D01*
X136641834Y-118429385D01*
X136641833Y-118429385D01*
X136450564Y-118508611D01*
X136247516Y-118549000D01*
X136040484Y-118549000D01*
X135837436Y-118508611D01*
X135646167Y-118429385D01*
X135646166Y-118429385D01*
X135646165Y-118429384D01*
X135474027Y-118314365D01*
X135327635Y-118167973D01*
X135212616Y-117995835D01*
X135202329Y-117971000D01*
X135133389Y-117804564D01*
X135093000Y-117601516D01*
X135093000Y-117394484D01*
X135133389Y-117191436D01*
X135212615Y-117000167D01*
X135258570Y-116931391D01*
X135327635Y-116828027D01*
X135474027Y-116681635D01*
X135646165Y-116566616D01*
X135646167Y-116566615D01*
X135837436Y-116487389D01*
X136040484Y-116447000D01*
X136247516Y-116447000D01*
X136450564Y-116487389D01*
X136450564Y-116487389D01*
G37*
G36*
X131950564Y-116487389D02*
G01*
X132141833Y-116566615D01*
X132141835Y-116566616D01*
X132313973Y-116681635D01*
X132460365Y-116828027D01*
X132529431Y-116931391D01*
X132575385Y-117000167D01*
X132654611Y-117191436D01*
X132695000Y-117394484D01*
X132695000Y-117601516D01*
X132654611Y-117804564D01*
X132585671Y-117971000D01*
X132575384Y-117995835D01*
X132460365Y-118167973D01*
X132313973Y-118314365D01*
X132141835Y-118429384D01*
X132141834Y-118429385D01*
X132141833Y-118429385D01*
X131950564Y-118508611D01*
X131747516Y-118549000D01*
X131540484Y-118549000D01*
X131337436Y-118508611D01*
X131146167Y-118429385D01*
X131146166Y-118429385D01*
X131146165Y-118429384D01*
X130974027Y-118314365D01*
X130827635Y-118167973D01*
X130712616Y-117995835D01*
X130702329Y-117971000D01*
X130633389Y-117804564D01*
X130593000Y-117601516D01*
X130593000Y-117394484D01*
X130633389Y-117191436D01*
X130712615Y-117000167D01*
X130758570Y-116931391D01*
X130827635Y-116828027D01*
X130974027Y-116681635D01*
X131146165Y-116566616D01*
X131146167Y-116566615D01*
X131337436Y-116487389D01*
X131540484Y-116447000D01*
X131747516Y-116447000D01*
X131950564Y-116487389D01*
X131950564Y-116487389D01*
G37*
G36*
X216783256Y-115231298D02*
G01*
X216889579Y-115252447D01*
X217190042Y-115376903D01*
X217460451Y-115557585D01*
X217690415Y-115787549D01*
X217871097Y-116057958D01*
X217995553Y-116358421D01*
X218008001Y-116421000D01*
X218059000Y-116677389D01*
X218059000Y-117002611D01*
X218039259Y-117101853D01*
X217995553Y-117321579D01*
X217941158Y-117452900D01*
X217881474Y-117596991D01*
X217871097Y-117622042D01*
X217690415Y-117892451D01*
X217460451Y-118122415D01*
X217190042Y-118303097D01*
X216889579Y-118427553D01*
X216840884Y-118437239D01*
X216570611Y-118491000D01*
X216245389Y-118491000D01*
X215975116Y-118437239D01*
X215926421Y-118427553D01*
X215625958Y-118303097D01*
X215355549Y-118122415D01*
X215125585Y-117892451D01*
X214944903Y-117622042D01*
X214934527Y-117596991D01*
X214874842Y-117452900D01*
X214820447Y-117321579D01*
X214776741Y-117101853D01*
X214757000Y-117002611D01*
X214757000Y-116677389D01*
X214807999Y-116421000D01*
X214820447Y-116358421D01*
X214944903Y-116057958D01*
X215125585Y-115787549D01*
X215355549Y-115557585D01*
X215625958Y-115376903D01*
X215926421Y-115252447D01*
X216032744Y-115231298D01*
X216245389Y-115189000D01*
X216570611Y-115189000D01*
X216783256Y-115231298D01*
X216783256Y-115231298D01*
G37*
G36*
X160638442Y-116453518D02*
G01*
X160704627Y-116460037D01*
X160874466Y-116511557D01*
X161030991Y-116595222D01*
X161047661Y-116608903D01*
X161168186Y-116707814D01*
X161251448Y-116809271D01*
X161280778Y-116845009D01*
X161280779Y-116845011D01*
X161326951Y-116931391D01*
X161364443Y-117001534D01*
X161415963Y-117171373D01*
X161433359Y-117348000D01*
X161415963Y-117524627D01*
X161364443Y-117694466D01*
X161280778Y-117850991D01*
X161260219Y-117876042D01*
X161168186Y-117988186D01*
X161066729Y-118071448D01*
X161030991Y-118100778D01*
X160874466Y-118184443D01*
X160704627Y-118235963D01*
X160638443Y-118242481D01*
X160572260Y-118249000D01*
X160483740Y-118249000D01*
X160417557Y-118242481D01*
X160351373Y-118235963D01*
X160181534Y-118184443D01*
X160025009Y-118100778D01*
X159989271Y-118071448D01*
X159887814Y-117988186D01*
X159795781Y-117876042D01*
X159775222Y-117850991D01*
X159691557Y-117694466D01*
X159640037Y-117524627D01*
X159622641Y-117348000D01*
X159640037Y-117171373D01*
X159691557Y-117001534D01*
X159729050Y-116931391D01*
X159775221Y-116845011D01*
X159775222Y-116845009D01*
X159804552Y-116809271D01*
X159887814Y-116707814D01*
X160008339Y-116608903D01*
X160025009Y-116595222D01*
X160181534Y-116511557D01*
X160351373Y-116460037D01*
X160417558Y-116453518D01*
X160483740Y-116447000D01*
X160572260Y-116447000D01*
X160638442Y-116453518D01*
X160638442Y-116453518D01*
G37*
G36*
X173084442Y-116199518D02*
G01*
X173150627Y-116206037D01*
X173320466Y-116257557D01*
X173476991Y-116341222D01*
X173497948Y-116358421D01*
X173614186Y-116453814D01*
X173667213Y-116518429D01*
X173726778Y-116591009D01*
X173726779Y-116591011D01*
X173772951Y-116677391D01*
X173810443Y-116747534D01*
X173861963Y-116917373D01*
X173879359Y-117094000D01*
X173861963Y-117270627D01*
X173810443Y-117440466D01*
X173726778Y-117596991D01*
X173697448Y-117632729D01*
X173614186Y-117734186D01*
X173512729Y-117817448D01*
X173476991Y-117846778D01*
X173320466Y-117930443D01*
X173150627Y-117981963D01*
X173087453Y-117988185D01*
X173018260Y-117995000D01*
X172929740Y-117995000D01*
X172860547Y-117988185D01*
X172797373Y-117981963D01*
X172627534Y-117930443D01*
X172471009Y-117846778D01*
X172435271Y-117817448D01*
X172333814Y-117734186D01*
X172250552Y-117632729D01*
X172221222Y-117596991D01*
X172137557Y-117440466D01*
X172086037Y-117270627D01*
X172068641Y-117094000D01*
X172086037Y-116917373D01*
X172137557Y-116747534D01*
X172175050Y-116677391D01*
X172221221Y-116591011D01*
X172221222Y-116591009D01*
X172280787Y-116518429D01*
X172333814Y-116453814D01*
X172450052Y-116358421D01*
X172471009Y-116341222D01*
X172627534Y-116257557D01*
X172797373Y-116206037D01*
X172863558Y-116199518D01*
X172929740Y-116193000D01*
X173018260Y-116193000D01*
X173084442Y-116199518D01*
X173084442Y-116199518D01*
G37*
G36*
X175624442Y-116199518D02*
G01*
X175690627Y-116206037D01*
X175860466Y-116257557D01*
X176016991Y-116341222D01*
X176037948Y-116358421D01*
X176154186Y-116453814D01*
X176207213Y-116518429D01*
X176266778Y-116591009D01*
X176266779Y-116591011D01*
X176312951Y-116677391D01*
X176350443Y-116747534D01*
X176401963Y-116917373D01*
X176419359Y-117094000D01*
X176401963Y-117270627D01*
X176350443Y-117440466D01*
X176266778Y-117596991D01*
X176237448Y-117632729D01*
X176154186Y-117734186D01*
X176052729Y-117817448D01*
X176016991Y-117846778D01*
X175860466Y-117930443D01*
X175690627Y-117981963D01*
X175627453Y-117988185D01*
X175558260Y-117995000D01*
X175469740Y-117995000D01*
X175400547Y-117988185D01*
X175337373Y-117981963D01*
X175167534Y-117930443D01*
X175011009Y-117846778D01*
X174975271Y-117817448D01*
X174873814Y-117734186D01*
X174790552Y-117632729D01*
X174761222Y-117596991D01*
X174677557Y-117440466D01*
X174626037Y-117270627D01*
X174608641Y-117094000D01*
X174626037Y-116917373D01*
X174677557Y-116747534D01*
X174715050Y-116677391D01*
X174761221Y-116591011D01*
X174761222Y-116591009D01*
X174820787Y-116518429D01*
X174873814Y-116453814D01*
X174990052Y-116358421D01*
X175011009Y-116341222D01*
X175167534Y-116257557D01*
X175337373Y-116206037D01*
X175403558Y-116199518D01*
X175469740Y-116193000D01*
X175558260Y-116193000D01*
X175624442Y-116199518D01*
X175624442Y-116199518D01*
G37*
G36*
X191451000Y-117791000D02*
G01*
X189549000Y-117791000D01*
X189549000Y-115889000D01*
X191451000Y-115889000D01*
X191451000Y-117791000D01*
X191451000Y-117791000D01*
G37*
G36*
X183066425Y-115902760D02*
G01*
X183066428Y-115902761D01*
X183066429Y-115902761D01*
X183245693Y-115957140D01*
X183245696Y-115957142D01*
X183245697Y-115957142D01*
X183410903Y-116045446D01*
X183555712Y-116164288D01*
X183674554Y-116309097D01*
X183762858Y-116474303D01*
X183762860Y-116474307D01*
X183817239Y-116653571D01*
X183817240Y-116653575D01*
X183835601Y-116840000D01*
X183817240Y-117026425D01*
X183817239Y-117026428D01*
X183817239Y-117026429D01*
X183762860Y-117205693D01*
X183762858Y-117205696D01*
X183762858Y-117205697D01*
X183674554Y-117370903D01*
X183555712Y-117515712D01*
X183410903Y-117634554D01*
X183245697Y-117722858D01*
X183245693Y-117722860D01*
X183066429Y-117777239D01*
X183066428Y-117777239D01*
X183066425Y-117777240D01*
X182926718Y-117791000D01*
X182833282Y-117791000D01*
X182693575Y-117777240D01*
X182693572Y-117777239D01*
X182693571Y-117777239D01*
X182514307Y-117722860D01*
X182514303Y-117722858D01*
X182349097Y-117634554D01*
X182204288Y-117515712D01*
X182085446Y-117370903D01*
X181997142Y-117205697D01*
X181997142Y-117205696D01*
X181997140Y-117205693D01*
X181942761Y-117026429D01*
X181942761Y-117026428D01*
X181942760Y-117026425D01*
X181924399Y-116840000D01*
X181942760Y-116653575D01*
X181942761Y-116653571D01*
X181997140Y-116474307D01*
X181997142Y-116474303D01*
X182085446Y-116309097D01*
X182204288Y-116164288D01*
X182349097Y-116045446D01*
X182514303Y-115957142D01*
X182514304Y-115957142D01*
X182514307Y-115957140D01*
X182693571Y-115902761D01*
X182693572Y-115902761D01*
X182693575Y-115902760D01*
X182833282Y-115889000D01*
X182926718Y-115889000D01*
X183066425Y-115902760D01*
X183066425Y-115902760D01*
G37*
G36*
X127166823Y-116001313D02*
G01*
X127327242Y-116049976D01*
X127459906Y-116120886D01*
X127475078Y-116128996D01*
X127604659Y-116235341D01*
X127711004Y-116364922D01*
X127711005Y-116364924D01*
X127790024Y-116512758D01*
X127838687Y-116673177D01*
X127855117Y-116840000D01*
X127838687Y-117006823D01*
X127790024Y-117167242D01*
X127734397Y-117271313D01*
X127711004Y-117315078D01*
X127604659Y-117444659D01*
X127475078Y-117551004D01*
X127475076Y-117551005D01*
X127327242Y-117630024D01*
X127166823Y-117678687D01*
X127041804Y-117691000D01*
X126958196Y-117691000D01*
X126833177Y-117678687D01*
X126672758Y-117630024D01*
X126524924Y-117551005D01*
X126524922Y-117551004D01*
X126395341Y-117444659D01*
X126288996Y-117315078D01*
X126265603Y-117271313D01*
X126209976Y-117167242D01*
X126161313Y-117006823D01*
X126144883Y-116840000D01*
X126161313Y-116673177D01*
X126209976Y-116512758D01*
X126288995Y-116364924D01*
X126288996Y-116364922D01*
X126395341Y-116235341D01*
X126524922Y-116128996D01*
X126540094Y-116120886D01*
X126672758Y-116049976D01*
X126833177Y-116001313D01*
X126958196Y-115989000D01*
X127041804Y-115989000D01*
X127166823Y-116001313D01*
X127166823Y-116001313D01*
G37*
G36*
X124649000Y-117283000D02*
G01*
X122747000Y-117283000D01*
X122747000Y-115381000D01*
X124649000Y-115381000D01*
X124649000Y-117283000D01*
X124649000Y-117283000D01*
G37*
G36*
X116264425Y-115394760D02*
G01*
X116264428Y-115394761D01*
X116264429Y-115394761D01*
X116443693Y-115449140D01*
X116443696Y-115449142D01*
X116443697Y-115449142D01*
X116608903Y-115537446D01*
X116753712Y-115656288D01*
X116872554Y-115801097D01*
X116926894Y-115902761D01*
X116960860Y-115966307D01*
X117010211Y-116128996D01*
X117015240Y-116145575D01*
X117033601Y-116332000D01*
X117015240Y-116518425D01*
X117015239Y-116518428D01*
X117015239Y-116518429D01*
X116960860Y-116697693D01*
X116960858Y-116697696D01*
X116960858Y-116697697D01*
X116872554Y-116862903D01*
X116753712Y-117007712D01*
X116608903Y-117126554D01*
X116460836Y-117205697D01*
X116443693Y-117214860D01*
X116264429Y-117269239D01*
X116264428Y-117269239D01*
X116264425Y-117269240D01*
X116124718Y-117283000D01*
X116031282Y-117283000D01*
X115891575Y-117269240D01*
X115891572Y-117269239D01*
X115891571Y-117269239D01*
X115712307Y-117214860D01*
X115695164Y-117205697D01*
X115547097Y-117126554D01*
X115402288Y-117007712D01*
X115283446Y-116862903D01*
X115195142Y-116697697D01*
X115195142Y-116697696D01*
X115195140Y-116697693D01*
X115140761Y-116518429D01*
X115140761Y-116518428D01*
X115140760Y-116518425D01*
X115122399Y-116332000D01*
X115140760Y-116145575D01*
X115145789Y-116128996D01*
X115195140Y-115966307D01*
X115229106Y-115902761D01*
X115283446Y-115801097D01*
X115402288Y-115656288D01*
X115547097Y-115537446D01*
X115712303Y-115449142D01*
X115712304Y-115449142D01*
X115712307Y-115449140D01*
X115891571Y-115394761D01*
X115891572Y-115394761D01*
X115891575Y-115394760D01*
X116031282Y-115381000D01*
X116124718Y-115381000D01*
X116264425Y-115394760D01*
X116264425Y-115394760D01*
G37*
G36*
X196960442Y-115437518D02*
G01*
X197026627Y-115444037D01*
X197196466Y-115495557D01*
X197352991Y-115579222D01*
X197388729Y-115608552D01*
X197490186Y-115691814D01*
X197568754Y-115787551D01*
X197602778Y-115829009D01*
X197686443Y-115985534D01*
X197737963Y-116155373D01*
X197755359Y-116332000D01*
X197737963Y-116508627D01*
X197686443Y-116678466D01*
X197602778Y-116834991D01*
X197579871Y-116862903D01*
X197490186Y-116972186D01*
X197388729Y-117055448D01*
X197352991Y-117084778D01*
X197196466Y-117168443D01*
X197026627Y-117219963D01*
X196960442Y-117226482D01*
X196894260Y-117233000D01*
X196805740Y-117233000D01*
X196739558Y-117226482D01*
X196673373Y-117219963D01*
X196503534Y-117168443D01*
X196347009Y-117084778D01*
X196311271Y-117055448D01*
X196209814Y-116972186D01*
X196120129Y-116862903D01*
X196097222Y-116834991D01*
X196013557Y-116678466D01*
X195962037Y-116508627D01*
X195944641Y-116332000D01*
X195962037Y-116155373D01*
X196013557Y-115985534D01*
X196097222Y-115829009D01*
X196131246Y-115787551D01*
X196209814Y-115691814D01*
X196311271Y-115608552D01*
X196347009Y-115579222D01*
X196503534Y-115495557D01*
X196673373Y-115444037D01*
X196739558Y-115437518D01*
X196805740Y-115431000D01*
X196894260Y-115431000D01*
X196960442Y-115437518D01*
X196960442Y-115437518D01*
G37*
G36*
X109838442Y-115437518D02*
G01*
X109904627Y-115444037D01*
X110074466Y-115495557D01*
X110230991Y-115579222D01*
X110266729Y-115608552D01*
X110368186Y-115691814D01*
X110446754Y-115787551D01*
X110480778Y-115829009D01*
X110564443Y-115985534D01*
X110615963Y-116155373D01*
X110633359Y-116332000D01*
X110615963Y-116508627D01*
X110564443Y-116678466D01*
X110480778Y-116834991D01*
X110457871Y-116862903D01*
X110368186Y-116972186D01*
X110266729Y-117055448D01*
X110230991Y-117084778D01*
X110074466Y-117168443D01*
X109904627Y-117219963D01*
X109838442Y-117226482D01*
X109772260Y-117233000D01*
X109683740Y-117233000D01*
X109617558Y-117226482D01*
X109551373Y-117219963D01*
X109381534Y-117168443D01*
X109225009Y-117084778D01*
X109189271Y-117055448D01*
X109087814Y-116972186D01*
X108998129Y-116862903D01*
X108975222Y-116834991D01*
X108891557Y-116678466D01*
X108840037Y-116508627D01*
X108822641Y-116332000D01*
X108840037Y-116155373D01*
X108891557Y-115985534D01*
X108975222Y-115829009D01*
X109009246Y-115787551D01*
X109087814Y-115691814D01*
X109189271Y-115608552D01*
X109225009Y-115579222D01*
X109381534Y-115495557D01*
X109551373Y-115444037D01*
X109617558Y-115437518D01*
X109683740Y-115431000D01*
X109772260Y-115431000D01*
X109838442Y-115437518D01*
X109838442Y-115437518D01*
G37*
G36*
X212025000Y-117029000D02*
G01*
X210123000Y-117029000D01*
X210123000Y-115127000D01*
X212025000Y-115127000D01*
X212025000Y-117029000D01*
X212025000Y-117029000D01*
G37*
G36*
X104329000Y-117029000D02*
G01*
X102427000Y-117029000D01*
X102427000Y-115127000D01*
X104329000Y-115127000D01*
X104329000Y-117029000D01*
X104329000Y-117029000D01*
G37*
G36*
X95944425Y-115140760D02*
G01*
X95944428Y-115140761D01*
X95944429Y-115140761D01*
X96123693Y-115195140D01*
X96123696Y-115195142D01*
X96123697Y-115195142D01*
X96288903Y-115283446D01*
X96433712Y-115402288D01*
X96552554Y-115547097D01*
X96640858Y-115712303D01*
X96640860Y-115712307D01*
X96694459Y-115889000D01*
X96695240Y-115891575D01*
X96713601Y-116078000D01*
X96695240Y-116264425D01*
X96695239Y-116264428D01*
X96695239Y-116264429D01*
X96640860Y-116443693D01*
X96640858Y-116443696D01*
X96640858Y-116443697D01*
X96552554Y-116608903D01*
X96433712Y-116753712D01*
X96288903Y-116872554D01*
X96123697Y-116960858D01*
X96123693Y-116960860D01*
X95944429Y-117015239D01*
X95944428Y-117015239D01*
X95944425Y-117015240D01*
X95804718Y-117029000D01*
X95711282Y-117029000D01*
X95571575Y-117015240D01*
X95571572Y-117015239D01*
X95571571Y-117015239D01*
X95392307Y-116960860D01*
X95392303Y-116960858D01*
X95227097Y-116872554D01*
X95082288Y-116753712D01*
X94963446Y-116608903D01*
X94875142Y-116443697D01*
X94875142Y-116443696D01*
X94875140Y-116443693D01*
X94820761Y-116264429D01*
X94820761Y-116264428D01*
X94820760Y-116264425D01*
X94802399Y-116078000D01*
X94820760Y-115891575D01*
X94821541Y-115889000D01*
X94875140Y-115712307D01*
X94875142Y-115712303D01*
X94963446Y-115547097D01*
X95082288Y-115402288D01*
X95227097Y-115283446D01*
X95392303Y-115195142D01*
X95392304Y-115195142D01*
X95392307Y-115195140D01*
X95571571Y-115140761D01*
X95571572Y-115140761D01*
X95571575Y-115140760D01*
X95711282Y-115127000D01*
X95804718Y-115127000D01*
X95944425Y-115140760D01*
X95944425Y-115140760D01*
G37*
G36*
X203640425Y-115140760D02*
G01*
X203640428Y-115140761D01*
X203640429Y-115140761D01*
X203819693Y-115195140D01*
X203819696Y-115195142D01*
X203819697Y-115195142D01*
X203984903Y-115283446D01*
X204129712Y-115402288D01*
X204248554Y-115547097D01*
X204336858Y-115712303D01*
X204336860Y-115712307D01*
X204390459Y-115889000D01*
X204391240Y-115891575D01*
X204409601Y-116078000D01*
X204391240Y-116264425D01*
X204391239Y-116264428D01*
X204391239Y-116264429D01*
X204336860Y-116443693D01*
X204336858Y-116443696D01*
X204336858Y-116443697D01*
X204248554Y-116608903D01*
X204129712Y-116753712D01*
X203984903Y-116872554D01*
X203819697Y-116960858D01*
X203819693Y-116960860D01*
X203640429Y-117015239D01*
X203640428Y-117015239D01*
X203640425Y-117015240D01*
X203500718Y-117029000D01*
X203407282Y-117029000D01*
X203267575Y-117015240D01*
X203267572Y-117015239D01*
X203267571Y-117015239D01*
X203088307Y-116960860D01*
X203088303Y-116960858D01*
X202923097Y-116872554D01*
X202778288Y-116753712D01*
X202659446Y-116608903D01*
X202571142Y-116443697D01*
X202571142Y-116443696D01*
X202571140Y-116443693D01*
X202516761Y-116264429D01*
X202516761Y-116264428D01*
X202516760Y-116264425D01*
X202498399Y-116078000D01*
X202516760Y-115891575D01*
X202517541Y-115889000D01*
X202571140Y-115712307D01*
X202571142Y-115712303D01*
X202659446Y-115547097D01*
X202778288Y-115402288D01*
X202923097Y-115283446D01*
X203088303Y-115195142D01*
X203088304Y-115195142D01*
X203088307Y-115195140D01*
X203267571Y-115140761D01*
X203267572Y-115140761D01*
X203267575Y-115140760D01*
X203407282Y-115127000D01*
X203500718Y-115127000D01*
X203640425Y-115140760D01*
X203640425Y-115140760D01*
G37*
G36*
X155614823Y-114731313D02*
G01*
X155775242Y-114779976D01*
X155907906Y-114850886D01*
X155923078Y-114858996D01*
X156052659Y-114965341D01*
X156159004Y-115094922D01*
X156159005Y-115094924D01*
X156238024Y-115242758D01*
X156286687Y-115403177D01*
X156303117Y-115570000D01*
X156286687Y-115736823D01*
X156238024Y-115897242D01*
X156201110Y-115966303D01*
X156159004Y-116045078D01*
X156052659Y-116174659D01*
X155923078Y-116281004D01*
X155923076Y-116281005D01*
X155775242Y-116360024D01*
X155614823Y-116408687D01*
X155489804Y-116421000D01*
X155406196Y-116421000D01*
X155281177Y-116408687D01*
X155120758Y-116360024D01*
X154972924Y-116281005D01*
X154972922Y-116281004D01*
X154843341Y-116174659D01*
X154736996Y-116045078D01*
X154694890Y-115966303D01*
X154657976Y-115897242D01*
X154609313Y-115736823D01*
X154592883Y-115570000D01*
X154609313Y-115403177D01*
X154657976Y-115242758D01*
X154736995Y-115094924D01*
X154736996Y-115094922D01*
X154843341Y-114965341D01*
X154972922Y-114858996D01*
X154988094Y-114850886D01*
X155120758Y-114779976D01*
X155281177Y-114731313D01*
X155406196Y-114719000D01*
X155489804Y-114719000D01*
X155614823Y-114731313D01*
X155614823Y-114731313D01*
G37*
G36*
X147994823Y-114731313D02*
G01*
X148155242Y-114779976D01*
X148287906Y-114850886D01*
X148303078Y-114858996D01*
X148432659Y-114965341D01*
X148539004Y-115094922D01*
X148539005Y-115094924D01*
X148618024Y-115242758D01*
X148666687Y-115403177D01*
X148683117Y-115570000D01*
X148666687Y-115736823D01*
X148618024Y-115897242D01*
X148581110Y-115966303D01*
X148539004Y-116045078D01*
X148432659Y-116174659D01*
X148303078Y-116281004D01*
X148303076Y-116281005D01*
X148155242Y-116360024D01*
X147994823Y-116408687D01*
X147869804Y-116421000D01*
X147786196Y-116421000D01*
X147661177Y-116408687D01*
X147500758Y-116360024D01*
X147352924Y-116281005D01*
X147352922Y-116281004D01*
X147223341Y-116174659D01*
X147116996Y-116045078D01*
X147074890Y-115966303D01*
X147037976Y-115897242D01*
X146989313Y-115736823D01*
X146972883Y-115570000D01*
X146989313Y-115403177D01*
X147037976Y-115242758D01*
X147116995Y-115094924D01*
X147116996Y-115094922D01*
X147223341Y-114965341D01*
X147352922Y-114858996D01*
X147368094Y-114850886D01*
X147500758Y-114779976D01*
X147661177Y-114731313D01*
X147786196Y-114719000D01*
X147869804Y-114719000D01*
X147994823Y-114731313D01*
X147994823Y-114731313D01*
G37*
G36*
X160638442Y-113913518D02*
G01*
X160704627Y-113920037D01*
X160874466Y-113971557D01*
X161030991Y-114055222D01*
X161055090Y-114075000D01*
X161168186Y-114167814D01*
X161251448Y-114269271D01*
X161280778Y-114305009D01*
X161364443Y-114461534D01*
X161415963Y-114631373D01*
X161433359Y-114808000D01*
X161415963Y-114984627D01*
X161364443Y-115154466D01*
X161280778Y-115310991D01*
X161251448Y-115346729D01*
X161168186Y-115448186D01*
X161066729Y-115531448D01*
X161030991Y-115560778D01*
X160874466Y-115644443D01*
X160704627Y-115695963D01*
X160638442Y-115702482D01*
X160572260Y-115709000D01*
X160483740Y-115709000D01*
X160417558Y-115702482D01*
X160351373Y-115695963D01*
X160181534Y-115644443D01*
X160025009Y-115560778D01*
X159989271Y-115531448D01*
X159887814Y-115448186D01*
X159804552Y-115346729D01*
X159775222Y-115310991D01*
X159691557Y-115154466D01*
X159640037Y-114984627D01*
X159622641Y-114808000D01*
X159640037Y-114631373D01*
X159691557Y-114461534D01*
X159775222Y-114305009D01*
X159804552Y-114269271D01*
X159887814Y-114167814D01*
X160000910Y-114075000D01*
X160025009Y-114055222D01*
X160181534Y-113971557D01*
X160351373Y-113920037D01*
X160417558Y-113913518D01*
X160483740Y-113907000D01*
X160572260Y-113907000D01*
X160638442Y-113913518D01*
X160638442Y-113913518D01*
G37*
G36*
X175624442Y-113659518D02*
G01*
X175690627Y-113666037D01*
X175860466Y-113717557D01*
X176016991Y-113801222D01*
X176039901Y-113820024D01*
X176154186Y-113913814D01*
X176211652Y-113983838D01*
X176266778Y-114051009D01*
X176350443Y-114207534D01*
X176401963Y-114377373D01*
X176419359Y-114554000D01*
X176401963Y-114730627D01*
X176350443Y-114900466D01*
X176266778Y-115056991D01*
X176237448Y-115092729D01*
X176154186Y-115194186D01*
X176052729Y-115277448D01*
X176016991Y-115306778D01*
X176016989Y-115306779D01*
X175878133Y-115381000D01*
X175860466Y-115390443D01*
X175690627Y-115441963D01*
X175627453Y-115448185D01*
X175558260Y-115455000D01*
X175469740Y-115455000D01*
X175400547Y-115448185D01*
X175337373Y-115441963D01*
X175167534Y-115390443D01*
X175149868Y-115381000D01*
X175011011Y-115306779D01*
X175011009Y-115306778D01*
X174975271Y-115277448D01*
X174873814Y-115194186D01*
X174790552Y-115092729D01*
X174761222Y-115056991D01*
X174677557Y-114900466D01*
X174626037Y-114730627D01*
X174608641Y-114554000D01*
X174626037Y-114377373D01*
X174677557Y-114207534D01*
X174761222Y-114051009D01*
X174816348Y-113983838D01*
X174873814Y-113913814D01*
X174988099Y-113820024D01*
X175011009Y-113801222D01*
X175167534Y-113717557D01*
X175337373Y-113666037D01*
X175403558Y-113659518D01*
X175469740Y-113653000D01*
X175558260Y-113653000D01*
X175624442Y-113659518D01*
X175624442Y-113659518D01*
G37*
G36*
X173084442Y-113659518D02*
G01*
X173150627Y-113666037D01*
X173320466Y-113717557D01*
X173476991Y-113801222D01*
X173499901Y-113820024D01*
X173614186Y-113913814D01*
X173671652Y-113983838D01*
X173726778Y-114051009D01*
X173810443Y-114207534D01*
X173861963Y-114377373D01*
X173879359Y-114554000D01*
X173861963Y-114730627D01*
X173810443Y-114900466D01*
X173726778Y-115056991D01*
X173697448Y-115092729D01*
X173614186Y-115194186D01*
X173512729Y-115277448D01*
X173476991Y-115306778D01*
X173476989Y-115306779D01*
X173338133Y-115381000D01*
X173320466Y-115390443D01*
X173150627Y-115441963D01*
X173087453Y-115448185D01*
X173018260Y-115455000D01*
X172929740Y-115455000D01*
X172860547Y-115448185D01*
X172797373Y-115441963D01*
X172627534Y-115390443D01*
X172609868Y-115381000D01*
X172471011Y-115306779D01*
X172471009Y-115306778D01*
X172435271Y-115277448D01*
X172333814Y-115194186D01*
X172250552Y-115092729D01*
X172221222Y-115056991D01*
X172137557Y-114900466D01*
X172086037Y-114730627D01*
X172068641Y-114554000D01*
X172086037Y-114377373D01*
X172137557Y-114207534D01*
X172221222Y-114051009D01*
X172276348Y-113983838D01*
X172333814Y-113913814D01*
X172448099Y-113820024D01*
X172471009Y-113801222D01*
X172627534Y-113717557D01*
X172797373Y-113666037D01*
X172863558Y-113659518D01*
X172929740Y-113653000D01*
X173018260Y-113653000D01*
X173084442Y-113659518D01*
X173084442Y-113659518D01*
G37*
G36*
X109838442Y-112897518D02*
G01*
X109904627Y-112904037D01*
X110074466Y-112955557D01*
X110230991Y-113039222D01*
X110266729Y-113068552D01*
X110368186Y-113151814D01*
X110451448Y-113253271D01*
X110480778Y-113289009D01*
X110564443Y-113445534D01*
X110615963Y-113615373D01*
X110633359Y-113792000D01*
X110615963Y-113968627D01*
X110564443Y-114138466D01*
X110480778Y-114294991D01*
X110451448Y-114330729D01*
X110368186Y-114432186D01*
X110266729Y-114515448D01*
X110230991Y-114544778D01*
X110074466Y-114628443D01*
X109904627Y-114679963D01*
X109838443Y-114686481D01*
X109772260Y-114693000D01*
X109683740Y-114693000D01*
X109617557Y-114686481D01*
X109551373Y-114679963D01*
X109381534Y-114628443D01*
X109225009Y-114544778D01*
X109189271Y-114515448D01*
X109087814Y-114432186D01*
X109004552Y-114330729D01*
X108975222Y-114294991D01*
X108891557Y-114138466D01*
X108840037Y-113968627D01*
X108822641Y-113792000D01*
X108840037Y-113615373D01*
X108891557Y-113445534D01*
X108975222Y-113289009D01*
X109004552Y-113253271D01*
X109087814Y-113151814D01*
X109189271Y-113068552D01*
X109225009Y-113039222D01*
X109381534Y-112955557D01*
X109551373Y-112904037D01*
X109617558Y-112897518D01*
X109683740Y-112891000D01*
X109772260Y-112891000D01*
X109838442Y-112897518D01*
X109838442Y-112897518D01*
G37*
G36*
X196960442Y-112897518D02*
G01*
X197026627Y-112904037D01*
X197196466Y-112955557D01*
X197352991Y-113039222D01*
X197388729Y-113068552D01*
X197490186Y-113151814D01*
X197573448Y-113253271D01*
X197602778Y-113289009D01*
X197686443Y-113445534D01*
X197737963Y-113615373D01*
X197755359Y-113792000D01*
X197737963Y-113968627D01*
X197686443Y-114138466D01*
X197602778Y-114294991D01*
X197573448Y-114330729D01*
X197490186Y-114432186D01*
X197388729Y-114515448D01*
X197352991Y-114544778D01*
X197196466Y-114628443D01*
X197026627Y-114679963D01*
X196960443Y-114686481D01*
X196894260Y-114693000D01*
X196805740Y-114693000D01*
X196739557Y-114686481D01*
X196673373Y-114679963D01*
X196503534Y-114628443D01*
X196347009Y-114544778D01*
X196311271Y-114515448D01*
X196209814Y-114432186D01*
X196126552Y-114330729D01*
X196097222Y-114294991D01*
X196013557Y-114138466D01*
X195962037Y-113968627D01*
X195944641Y-113792000D01*
X195962037Y-113615373D01*
X196013557Y-113445534D01*
X196097222Y-113289009D01*
X196126552Y-113253271D01*
X196209814Y-113151814D01*
X196311271Y-113068552D01*
X196347009Y-113039222D01*
X196503534Y-112955557D01*
X196673373Y-112904037D01*
X196739558Y-112897518D01*
X196805740Y-112891000D01*
X196894260Y-112891000D01*
X196960442Y-112897518D01*
X196960442Y-112897518D01*
G37*
G36*
X142727642Y-112503781D02*
G01*
X142873414Y-112564162D01*
X142873416Y-112564163D01*
X143004608Y-112651822D01*
X143116178Y-112763392D01*
X143201442Y-112891000D01*
X143203838Y-112894586D01*
X143264219Y-113040358D01*
X143295000Y-113195107D01*
X143295000Y-113352893D01*
X143264219Y-113507642D01*
X143204009Y-113653000D01*
X143203837Y-113653416D01*
X143116178Y-113784608D01*
X143004608Y-113896178D01*
X142873416Y-113983837D01*
X142873415Y-113983838D01*
X142873414Y-113983838D01*
X142727642Y-114044219D01*
X142572893Y-114075000D01*
X142415107Y-114075000D01*
X142260358Y-114044219D01*
X142114586Y-113983838D01*
X142114585Y-113983838D01*
X142114584Y-113983837D01*
X141983392Y-113896178D01*
X141871822Y-113784608D01*
X141784163Y-113653416D01*
X141783991Y-113653000D01*
X141723781Y-113507642D01*
X141693000Y-113352893D01*
X141693000Y-113195107D01*
X141723781Y-113040358D01*
X141784162Y-112894586D01*
X141786558Y-112891000D01*
X141871822Y-112763392D01*
X141983392Y-112651822D01*
X142114584Y-112564163D01*
X142114586Y-112564162D01*
X142260358Y-112503781D01*
X142415107Y-112473000D01*
X142572893Y-112473000D01*
X142727642Y-112503781D01*
X142727642Y-112503781D01*
G37*
G36*
X147994823Y-112191313D02*
G01*
X148155242Y-112239976D01*
X148287906Y-112310886D01*
X148303078Y-112318996D01*
X148432659Y-112425341D01*
X148539004Y-112554922D01*
X148539005Y-112554924D01*
X148618024Y-112702758D01*
X148666687Y-112863177D01*
X148683117Y-113030000D01*
X148666687Y-113196823D01*
X148618024Y-113357242D01*
X148570832Y-113445532D01*
X148539004Y-113505078D01*
X148432659Y-113634659D01*
X148303078Y-113741004D01*
X148303076Y-113741005D01*
X148155242Y-113820024D01*
X147994823Y-113868687D01*
X147869804Y-113881000D01*
X147786196Y-113881000D01*
X147661177Y-113868687D01*
X147500758Y-113820024D01*
X147352924Y-113741005D01*
X147352922Y-113741004D01*
X147223341Y-113634659D01*
X147116996Y-113505078D01*
X147085168Y-113445532D01*
X147037976Y-113357242D01*
X146989313Y-113196823D01*
X146972883Y-113030000D01*
X146989313Y-112863177D01*
X147037976Y-112702758D01*
X147116995Y-112554924D01*
X147116996Y-112554922D01*
X147223341Y-112425341D01*
X147352922Y-112318996D01*
X147368094Y-112310886D01*
X147500758Y-112239976D01*
X147661177Y-112191313D01*
X147786196Y-112179000D01*
X147869804Y-112179000D01*
X147994823Y-112191313D01*
X147994823Y-112191313D01*
G37*
G36*
X155614823Y-112191313D02*
G01*
X155775242Y-112239976D01*
X155907906Y-112310886D01*
X155923078Y-112318996D01*
X156052659Y-112425341D01*
X156159004Y-112554922D01*
X156159005Y-112554924D01*
X156238024Y-112702758D01*
X156286687Y-112863177D01*
X156303117Y-113030000D01*
X156286687Y-113196823D01*
X156238024Y-113357242D01*
X156190832Y-113445532D01*
X156159004Y-113505078D01*
X156052659Y-113634659D01*
X155923078Y-113741004D01*
X155923076Y-113741005D01*
X155775242Y-113820024D01*
X155614823Y-113868687D01*
X155489804Y-113881000D01*
X155406196Y-113881000D01*
X155281177Y-113868687D01*
X155120758Y-113820024D01*
X154972924Y-113741005D01*
X154972922Y-113741004D01*
X154843341Y-113634659D01*
X154736996Y-113505078D01*
X154705168Y-113445532D01*
X154657976Y-113357242D01*
X154609313Y-113196823D01*
X154592883Y-113030000D01*
X154609313Y-112863177D01*
X154657976Y-112702758D01*
X154736995Y-112554924D01*
X154736996Y-112554922D01*
X154843341Y-112425341D01*
X154972922Y-112318996D01*
X154988094Y-112310886D01*
X155120758Y-112239976D01*
X155281177Y-112191313D01*
X155406196Y-112179000D01*
X155489804Y-112179000D01*
X155614823Y-112191313D01*
X155614823Y-112191313D01*
G37*
G36*
X161429000Y-113169000D02*
G01*
X159627000Y-113169000D01*
X159627000Y-111367000D01*
X161429000Y-111367000D01*
X161429000Y-113169000D01*
X161429000Y-113169000D01*
G37*
G36*
X175624443Y-111119519D02*
G01*
X175690627Y-111126037D01*
X175860466Y-111177557D01*
X176016991Y-111261222D01*
X176033661Y-111274903D01*
X176154186Y-111373814D01*
X176237448Y-111475271D01*
X176266778Y-111511009D01*
X176350443Y-111667534D01*
X176401963Y-111837373D01*
X176419359Y-112014000D01*
X176401963Y-112190627D01*
X176350443Y-112360466D01*
X176266778Y-112516991D01*
X176237448Y-112552729D01*
X176154186Y-112654186D01*
X176052729Y-112737448D01*
X176016991Y-112766778D01*
X175860466Y-112850443D01*
X175690627Y-112901963D01*
X175624442Y-112908482D01*
X175558260Y-112915000D01*
X175469740Y-112915000D01*
X175403558Y-112908482D01*
X175337373Y-112901963D01*
X175167534Y-112850443D01*
X175011009Y-112766778D01*
X174975271Y-112737448D01*
X174873814Y-112654186D01*
X174790552Y-112552729D01*
X174761222Y-112516991D01*
X174677557Y-112360466D01*
X174626037Y-112190627D01*
X174608641Y-112014000D01*
X174626037Y-111837373D01*
X174677557Y-111667534D01*
X174761222Y-111511009D01*
X174790552Y-111475271D01*
X174873814Y-111373814D01*
X174994339Y-111274903D01*
X175011009Y-111261222D01*
X175167534Y-111177557D01*
X175337373Y-111126037D01*
X175403557Y-111119519D01*
X175469740Y-111113000D01*
X175558260Y-111113000D01*
X175624443Y-111119519D01*
X175624443Y-111119519D01*
G37*
G36*
X173084443Y-111119519D02*
G01*
X173150627Y-111126037D01*
X173320466Y-111177557D01*
X173476991Y-111261222D01*
X173493661Y-111274903D01*
X173614186Y-111373814D01*
X173697448Y-111475271D01*
X173726778Y-111511009D01*
X173810443Y-111667534D01*
X173861963Y-111837373D01*
X173879359Y-112014000D01*
X173861963Y-112190627D01*
X173810443Y-112360466D01*
X173726778Y-112516991D01*
X173697448Y-112552729D01*
X173614186Y-112654186D01*
X173512729Y-112737448D01*
X173476991Y-112766778D01*
X173320466Y-112850443D01*
X173150627Y-112901963D01*
X173084442Y-112908482D01*
X173018260Y-112915000D01*
X172929740Y-112915000D01*
X172863558Y-112908482D01*
X172797373Y-112901963D01*
X172627534Y-112850443D01*
X172471009Y-112766778D01*
X172435271Y-112737448D01*
X172333814Y-112654186D01*
X172250552Y-112552729D01*
X172221222Y-112516991D01*
X172137557Y-112360466D01*
X172086037Y-112190627D01*
X172068641Y-112014000D01*
X172086037Y-111837373D01*
X172137557Y-111667534D01*
X172221222Y-111511009D01*
X172250552Y-111475271D01*
X172333814Y-111373814D01*
X172454339Y-111274903D01*
X172471009Y-111261222D01*
X172627534Y-111177557D01*
X172797373Y-111126037D01*
X172863557Y-111119519D01*
X172929740Y-111113000D01*
X173018260Y-111113000D01*
X173084443Y-111119519D01*
X173084443Y-111119519D01*
G37*
G36*
X110629000Y-112153000D02*
G01*
X108827000Y-112153000D01*
X108827000Y-110351000D01*
X110629000Y-110351000D01*
X110629000Y-112153000D01*
X110629000Y-112153000D01*
G37*
G36*
X197751000Y-112153000D02*
G01*
X195949000Y-112153000D01*
X195949000Y-110351000D01*
X197751000Y-110351000D01*
X197751000Y-112153000D01*
X197751000Y-112153000D01*
G37*
G36*
X131950564Y-109987389D02*
G01*
X132139904Y-110065816D01*
X132141835Y-110066616D01*
X132213027Y-110114185D01*
X132313973Y-110181635D01*
X132460365Y-110328027D01*
X132575385Y-110500167D01*
X132654611Y-110691436D01*
X132695000Y-110894484D01*
X132695000Y-111101516D01*
X132654611Y-111304564D01*
X132625926Y-111373815D01*
X132575384Y-111495835D01*
X132460365Y-111667973D01*
X132313973Y-111814365D01*
X132141835Y-111929384D01*
X132141834Y-111929385D01*
X132141833Y-111929385D01*
X131950564Y-112008611D01*
X131747516Y-112049000D01*
X131540484Y-112049000D01*
X131337436Y-112008611D01*
X131146167Y-111929385D01*
X131146166Y-111929385D01*
X131146165Y-111929384D01*
X130974027Y-111814365D01*
X130827635Y-111667973D01*
X130712616Y-111495835D01*
X130662074Y-111373815D01*
X130633389Y-111304564D01*
X130593000Y-111101516D01*
X130593000Y-110894484D01*
X130633389Y-110691436D01*
X130712615Y-110500167D01*
X130827635Y-110328027D01*
X130974027Y-110181635D01*
X131074973Y-110114185D01*
X131146165Y-110066616D01*
X131148096Y-110065816D01*
X131337436Y-109987389D01*
X131540484Y-109947000D01*
X131747516Y-109947000D01*
X131950564Y-109987389D01*
X131950564Y-109987389D01*
G37*
G36*
X136450564Y-109987389D02*
G01*
X136639904Y-110065816D01*
X136641835Y-110066616D01*
X136713027Y-110114185D01*
X136813973Y-110181635D01*
X136960365Y-110328027D01*
X137075385Y-110500167D01*
X137154611Y-110691436D01*
X137195000Y-110894484D01*
X137195000Y-111101516D01*
X137154611Y-111304564D01*
X137125926Y-111373815D01*
X137075384Y-111495835D01*
X136960365Y-111667973D01*
X136813973Y-111814365D01*
X136641835Y-111929384D01*
X136641834Y-111929385D01*
X136641833Y-111929385D01*
X136450564Y-112008611D01*
X136247516Y-112049000D01*
X136040484Y-112049000D01*
X135837436Y-112008611D01*
X135646167Y-111929385D01*
X135646166Y-111929385D01*
X135646165Y-111929384D01*
X135474027Y-111814365D01*
X135327635Y-111667973D01*
X135212616Y-111495835D01*
X135162074Y-111373815D01*
X135133389Y-111304564D01*
X135093000Y-111101516D01*
X135093000Y-110894484D01*
X135133389Y-110691436D01*
X135212615Y-110500167D01*
X135327635Y-110328027D01*
X135474027Y-110181635D01*
X135574973Y-110114185D01*
X135646165Y-110066616D01*
X135648096Y-110065816D01*
X135837436Y-109987389D01*
X136040484Y-109947000D01*
X136247516Y-109947000D01*
X136450564Y-109987389D01*
X136450564Y-109987389D01*
G37*
G36*
X182812425Y-109806760D02*
G01*
X182812428Y-109806761D01*
X182812429Y-109806761D01*
X182991693Y-109861140D01*
X182991696Y-109861142D01*
X182991697Y-109861142D01*
X183156903Y-109949446D01*
X183301712Y-110068288D01*
X183420554Y-110213097D01*
X183508858Y-110378303D01*
X183508860Y-110378307D01*
X183553201Y-110524480D01*
X183563240Y-110557575D01*
X183581601Y-110744000D01*
X183563240Y-110930425D01*
X183563239Y-110930428D01*
X183563239Y-110930429D01*
X183508860Y-111109693D01*
X183508858Y-111109696D01*
X183508858Y-111109697D01*
X183420554Y-111274903D01*
X183301712Y-111419712D01*
X183156903Y-111538554D01*
X182991697Y-111626858D01*
X182991693Y-111626860D01*
X182812429Y-111681239D01*
X182812428Y-111681239D01*
X182812425Y-111681240D01*
X182672718Y-111695000D01*
X182579282Y-111695000D01*
X182439575Y-111681240D01*
X182439572Y-111681239D01*
X182439571Y-111681239D01*
X182260307Y-111626860D01*
X182260303Y-111626858D01*
X182095097Y-111538554D01*
X181950288Y-111419712D01*
X181831446Y-111274903D01*
X181743142Y-111109697D01*
X181743142Y-111109696D01*
X181743140Y-111109693D01*
X181688761Y-110930429D01*
X181688761Y-110930428D01*
X181688760Y-110930425D01*
X181670399Y-110744000D01*
X181688760Y-110557575D01*
X181698799Y-110524480D01*
X181743140Y-110378307D01*
X181743142Y-110378303D01*
X181831446Y-110213097D01*
X181950288Y-110068288D01*
X182095097Y-109949446D01*
X182260303Y-109861142D01*
X182260304Y-109861142D01*
X182260307Y-109861140D01*
X182439571Y-109806761D01*
X182439572Y-109806761D01*
X182439575Y-109806760D01*
X182579282Y-109793000D01*
X182672718Y-109793000D01*
X182812425Y-109806760D01*
X182812425Y-109806760D01*
G37*
G36*
X191197000Y-111695000D02*
G01*
X189295000Y-111695000D01*
X189295000Y-109793000D01*
X191197000Y-109793000D01*
X191197000Y-111695000D01*
X191197000Y-111695000D01*
G37*
G36*
X155614823Y-109651313D02*
G01*
X155775242Y-109699976D01*
X155907906Y-109770886D01*
X155923078Y-109778996D01*
X156052659Y-109885341D01*
X156159004Y-110014922D01*
X156159005Y-110014924D01*
X156238024Y-110162758D01*
X156286687Y-110323177D01*
X156303117Y-110490000D01*
X156286687Y-110656823D01*
X156238024Y-110817242D01*
X156196737Y-110894484D01*
X156159004Y-110965078D01*
X156052659Y-111094659D01*
X155923078Y-111201004D01*
X155923076Y-111201005D01*
X155775242Y-111280024D01*
X155614823Y-111328687D01*
X155489804Y-111341000D01*
X155406196Y-111341000D01*
X155281177Y-111328687D01*
X155120758Y-111280024D01*
X154972924Y-111201005D01*
X154972922Y-111201004D01*
X154843341Y-111094659D01*
X154736996Y-110965078D01*
X154699263Y-110894484D01*
X154657976Y-110817242D01*
X154609313Y-110656823D01*
X154592883Y-110490000D01*
X154609313Y-110323177D01*
X154657976Y-110162758D01*
X154736995Y-110014924D01*
X154736996Y-110014922D01*
X154843341Y-109885341D01*
X154972922Y-109778996D01*
X154988094Y-109770886D01*
X155120758Y-109699976D01*
X155281177Y-109651313D01*
X155406196Y-109639000D01*
X155489804Y-109639000D01*
X155614823Y-109651313D01*
X155614823Y-109651313D01*
G37*
G36*
X147994823Y-109651313D02*
G01*
X148155242Y-109699976D01*
X148287906Y-109770886D01*
X148303078Y-109778996D01*
X148432659Y-109885341D01*
X148539004Y-110014922D01*
X148539005Y-110014924D01*
X148618024Y-110162758D01*
X148666687Y-110323177D01*
X148683117Y-110490000D01*
X148666687Y-110656823D01*
X148618024Y-110817242D01*
X148576737Y-110894484D01*
X148539004Y-110965078D01*
X148432659Y-111094659D01*
X148303078Y-111201004D01*
X148303076Y-111201005D01*
X148155242Y-111280024D01*
X147994823Y-111328687D01*
X147869804Y-111341000D01*
X147786196Y-111341000D01*
X147661177Y-111328687D01*
X147500758Y-111280024D01*
X147352924Y-111201005D01*
X147352922Y-111201004D01*
X147223341Y-111094659D01*
X147116996Y-110965078D01*
X147079263Y-110894484D01*
X147037976Y-110817242D01*
X146989313Y-110656823D01*
X146972883Y-110490000D01*
X146989313Y-110323177D01*
X147037976Y-110162758D01*
X147116995Y-110014924D01*
X147116996Y-110014922D01*
X147223341Y-109885341D01*
X147352922Y-109778996D01*
X147368094Y-109770886D01*
X147500758Y-109699976D01*
X147661177Y-109651313D01*
X147786196Y-109639000D01*
X147869804Y-109639000D01*
X147994823Y-109651313D01*
X147994823Y-109651313D01*
G37*
G36*
X203640425Y-109044760D02*
G01*
X203640428Y-109044761D01*
X203640429Y-109044761D01*
X203819693Y-109099140D01*
X203819696Y-109099142D01*
X203819697Y-109099142D01*
X203984903Y-109187446D01*
X204129712Y-109306288D01*
X204248554Y-109451097D01*
X204316867Y-109578903D01*
X204336860Y-109616307D01*
X204386211Y-109778996D01*
X204391240Y-109795575D01*
X204409601Y-109982000D01*
X204391240Y-110168425D01*
X204391239Y-110168428D01*
X204391239Y-110168429D01*
X204336860Y-110347693D01*
X204336858Y-110347696D01*
X204336858Y-110347697D01*
X204248554Y-110512903D01*
X204129712Y-110657712D01*
X203984903Y-110776554D01*
X203879299Y-110833000D01*
X203819693Y-110864860D01*
X203640429Y-110919239D01*
X203640428Y-110919239D01*
X203640425Y-110919240D01*
X203500718Y-110933000D01*
X203407282Y-110933000D01*
X203267575Y-110919240D01*
X203267572Y-110919239D01*
X203267571Y-110919239D01*
X203088307Y-110864860D01*
X203028701Y-110833000D01*
X202923097Y-110776554D01*
X202778288Y-110657712D01*
X202659446Y-110512903D01*
X202571142Y-110347697D01*
X202571142Y-110347696D01*
X202571140Y-110347693D01*
X202516761Y-110168429D01*
X202516761Y-110168428D01*
X202516760Y-110168425D01*
X202498399Y-109982000D01*
X202516760Y-109795575D01*
X202521789Y-109778996D01*
X202571140Y-109616307D01*
X202591133Y-109578903D01*
X202659446Y-109451097D01*
X202778288Y-109306288D01*
X202923097Y-109187446D01*
X203088303Y-109099142D01*
X203088304Y-109099142D01*
X203088307Y-109099140D01*
X203267571Y-109044761D01*
X203267572Y-109044761D01*
X203267575Y-109044760D01*
X203407282Y-109031000D01*
X203500718Y-109031000D01*
X203640425Y-109044760D01*
X203640425Y-109044760D01*
G37*
G36*
X212025000Y-110933000D02*
G01*
X210123000Y-110933000D01*
X210123000Y-109031000D01*
X212025000Y-109031000D01*
X212025000Y-110933000D01*
X212025000Y-110933000D01*
G37*
G36*
X165602228Y-109163703D02*
G01*
X165757100Y-109227853D01*
X165896481Y-109320985D01*
X166015015Y-109439519D01*
X166108147Y-109578900D01*
X166172297Y-109733772D01*
X166205000Y-109898184D01*
X166205000Y-110065816D01*
X166172297Y-110230228D01*
X166108147Y-110385100D01*
X166015015Y-110524481D01*
X165896481Y-110643015D01*
X165757100Y-110736147D01*
X165602228Y-110800297D01*
X165437816Y-110833000D01*
X165270184Y-110833000D01*
X165105772Y-110800297D01*
X164950900Y-110736147D01*
X164811519Y-110643015D01*
X164692985Y-110524481D01*
X164599853Y-110385100D01*
X164535703Y-110230228D01*
X164503000Y-110065816D01*
X164503000Y-109898184D01*
X164535703Y-109733772D01*
X164599853Y-109578900D01*
X164692985Y-109439519D01*
X164811519Y-109320985D01*
X164950900Y-109227853D01*
X165105772Y-109163703D01*
X165270184Y-109131000D01*
X165437816Y-109131000D01*
X165602228Y-109163703D01*
X165602228Y-109163703D01*
G37*
G36*
X124649000Y-110679000D02*
G01*
X122747000Y-110679000D01*
X122747000Y-108777000D01*
X124649000Y-108777000D01*
X124649000Y-110679000D01*
X124649000Y-110679000D01*
G37*
G36*
X116264425Y-108790760D02*
G01*
X116264428Y-108790761D01*
X116264429Y-108790761D01*
X116443693Y-108845140D01*
X116443696Y-108845142D01*
X116443697Y-108845142D01*
X116608903Y-108933446D01*
X116753712Y-109052288D01*
X116872554Y-109197097D01*
X116938773Y-109320985D01*
X116960860Y-109362307D01*
X117015239Y-109541571D01*
X117015240Y-109541575D01*
X117033601Y-109728000D01*
X117015240Y-109914425D01*
X117015239Y-109914428D01*
X117015239Y-109914429D01*
X116960860Y-110093693D01*
X116960858Y-110093696D01*
X116960858Y-110093697D01*
X116872554Y-110258903D01*
X116753712Y-110403712D01*
X116608903Y-110522554D01*
X116443697Y-110610858D01*
X116443693Y-110610860D01*
X116264429Y-110665239D01*
X116264428Y-110665239D01*
X116264425Y-110665240D01*
X116124718Y-110679000D01*
X116031282Y-110679000D01*
X115891575Y-110665240D01*
X115891572Y-110665239D01*
X115891571Y-110665239D01*
X115712307Y-110610860D01*
X115712303Y-110610858D01*
X115547097Y-110522554D01*
X115402288Y-110403712D01*
X115283446Y-110258903D01*
X115195142Y-110093697D01*
X115195142Y-110093696D01*
X115195140Y-110093693D01*
X115140761Y-109914429D01*
X115140761Y-109914428D01*
X115140760Y-109914425D01*
X115122399Y-109728000D01*
X115140760Y-109541575D01*
X115140761Y-109541571D01*
X115195140Y-109362307D01*
X115217227Y-109320985D01*
X115283446Y-109197097D01*
X115402288Y-109052288D01*
X115547097Y-108933446D01*
X115712303Y-108845142D01*
X115712304Y-108845142D01*
X115712307Y-108845140D01*
X115891571Y-108790761D01*
X115891572Y-108790761D01*
X115891575Y-108790760D01*
X116031282Y-108777000D01*
X116124718Y-108777000D01*
X116264425Y-108790760D01*
X116264425Y-108790760D01*
G37*
G36*
X104329000Y-110679000D02*
G01*
X102427000Y-110679000D01*
X102427000Y-108777000D01*
X104329000Y-108777000D01*
X104329000Y-110679000D01*
X104329000Y-110679000D01*
G37*
G36*
X95944425Y-108790760D02*
G01*
X95944428Y-108790761D01*
X95944429Y-108790761D01*
X96123693Y-108845140D01*
X96123696Y-108845142D01*
X96123697Y-108845142D01*
X96288903Y-108933446D01*
X96433712Y-109052288D01*
X96552554Y-109197097D01*
X96618773Y-109320985D01*
X96640860Y-109362307D01*
X96695239Y-109541571D01*
X96695240Y-109541575D01*
X96713601Y-109728000D01*
X96695240Y-109914425D01*
X96695239Y-109914428D01*
X96695239Y-109914429D01*
X96640860Y-110093693D01*
X96640858Y-110093696D01*
X96640858Y-110093697D01*
X96552554Y-110258903D01*
X96433712Y-110403712D01*
X96288903Y-110522554D01*
X96123697Y-110610858D01*
X96123693Y-110610860D01*
X95944429Y-110665239D01*
X95944428Y-110665239D01*
X95944425Y-110665240D01*
X95804718Y-110679000D01*
X95711282Y-110679000D01*
X95571575Y-110665240D01*
X95571572Y-110665239D01*
X95571571Y-110665239D01*
X95392307Y-110610860D01*
X95392303Y-110610858D01*
X95227097Y-110522554D01*
X95082288Y-110403712D01*
X94963446Y-110258903D01*
X94875142Y-110093697D01*
X94875142Y-110093696D01*
X94875140Y-110093693D01*
X94820761Y-109914429D01*
X94820761Y-109914428D01*
X94820760Y-109914425D01*
X94802399Y-109728000D01*
X94820760Y-109541575D01*
X94820761Y-109541571D01*
X94875140Y-109362307D01*
X94897227Y-109320985D01*
X94963446Y-109197097D01*
X95082288Y-109052288D01*
X95227097Y-108933446D01*
X95392303Y-108845142D01*
X95392304Y-108845142D01*
X95392307Y-108845140D01*
X95571571Y-108790761D01*
X95571572Y-108790761D01*
X95571575Y-108790760D01*
X95711282Y-108777000D01*
X95804718Y-108777000D01*
X95944425Y-108790760D01*
X95944425Y-108790760D01*
G37*
G36*
X175624442Y-108579518D02*
G01*
X175690627Y-108586037D01*
X175860466Y-108637557D01*
X176016991Y-108721222D01*
X176039901Y-108740024D01*
X176154186Y-108833814D01*
X176235951Y-108933446D01*
X176266778Y-108971009D01*
X176350443Y-109127534D01*
X176401963Y-109297373D01*
X176419359Y-109474000D01*
X176401963Y-109650627D01*
X176350443Y-109820466D01*
X176266778Y-109976991D01*
X176237448Y-110012729D01*
X176154186Y-110114186D01*
X176052729Y-110197448D01*
X176016991Y-110226778D01*
X175860466Y-110310443D01*
X175690627Y-110361963D01*
X175624442Y-110368482D01*
X175558260Y-110375000D01*
X175469740Y-110375000D01*
X175403558Y-110368482D01*
X175337373Y-110361963D01*
X175167534Y-110310443D01*
X175011009Y-110226778D01*
X174975271Y-110197448D01*
X174873814Y-110114186D01*
X174790552Y-110012729D01*
X174761222Y-109976991D01*
X174677557Y-109820466D01*
X174626037Y-109650627D01*
X174608641Y-109474000D01*
X174626037Y-109297373D01*
X174677557Y-109127534D01*
X174761222Y-108971009D01*
X174792049Y-108933446D01*
X174873814Y-108833814D01*
X174988099Y-108740024D01*
X175011009Y-108721222D01*
X175167534Y-108637557D01*
X175337373Y-108586037D01*
X175403558Y-108579518D01*
X175469740Y-108573000D01*
X175558260Y-108573000D01*
X175624442Y-108579518D01*
X175624442Y-108579518D01*
G37*
G36*
X173084442Y-108579518D02*
G01*
X173150627Y-108586037D01*
X173320466Y-108637557D01*
X173476991Y-108721222D01*
X173499901Y-108740024D01*
X173614186Y-108833814D01*
X173695951Y-108933446D01*
X173726778Y-108971009D01*
X173810443Y-109127534D01*
X173861963Y-109297373D01*
X173879359Y-109474000D01*
X173861963Y-109650627D01*
X173810443Y-109820466D01*
X173726778Y-109976991D01*
X173697448Y-110012729D01*
X173614186Y-110114186D01*
X173512729Y-110197448D01*
X173476991Y-110226778D01*
X173320466Y-110310443D01*
X173150627Y-110361963D01*
X173084442Y-110368482D01*
X173018260Y-110375000D01*
X172929740Y-110375000D01*
X172863558Y-110368482D01*
X172797373Y-110361963D01*
X172627534Y-110310443D01*
X172471009Y-110226778D01*
X172435271Y-110197448D01*
X172333814Y-110114186D01*
X172250552Y-110012729D01*
X172221222Y-109976991D01*
X172137557Y-109820466D01*
X172086037Y-109650627D01*
X172068641Y-109474000D01*
X172086037Y-109297373D01*
X172137557Y-109127534D01*
X172221222Y-108971009D01*
X172252049Y-108933446D01*
X172333814Y-108833814D01*
X172448099Y-108740024D01*
X172471009Y-108721222D01*
X172627534Y-108637557D01*
X172797373Y-108586037D01*
X172863558Y-108579518D01*
X172929740Y-108573000D01*
X173018260Y-108573000D01*
X173084442Y-108579518D01*
X173084442Y-108579518D01*
G37*
G36*
X142727642Y-108703781D02*
G01*
X142815142Y-108740025D01*
X142873416Y-108764163D01*
X143004608Y-108851822D01*
X143116178Y-108963392D01*
X143203837Y-109094584D01*
X143203838Y-109094586D01*
X143264219Y-109240358D01*
X143295000Y-109395107D01*
X143295000Y-109552893D01*
X143264219Y-109707642D01*
X143203838Y-109853414D01*
X143203837Y-109853416D01*
X143116178Y-109984608D01*
X143004608Y-110096178D01*
X142873416Y-110183837D01*
X142873415Y-110183838D01*
X142873414Y-110183838D01*
X142727642Y-110244219D01*
X142572893Y-110275000D01*
X142415107Y-110275000D01*
X142260358Y-110244219D01*
X142114586Y-110183838D01*
X142114585Y-110183838D01*
X142114584Y-110183837D01*
X141983392Y-110096178D01*
X141871822Y-109984608D01*
X141784163Y-109853416D01*
X141784162Y-109853414D01*
X141723781Y-109707642D01*
X141693000Y-109552893D01*
X141693000Y-109395107D01*
X141723781Y-109240358D01*
X141784162Y-109094586D01*
X141784163Y-109094584D01*
X141871822Y-108963392D01*
X141983392Y-108851822D01*
X142114584Y-108764163D01*
X142172858Y-108740025D01*
X142260358Y-108703781D01*
X142415107Y-108673000D01*
X142572893Y-108673000D01*
X142727642Y-108703781D01*
X142727642Y-108703781D01*
G37*
G36*
X147994823Y-107111313D02*
G01*
X148155242Y-107159976D01*
X148287906Y-107230886D01*
X148303078Y-107238996D01*
X148432659Y-107345341D01*
X148539004Y-107474922D01*
X148539005Y-107474924D01*
X148618024Y-107622758D01*
X148666687Y-107783177D01*
X148683117Y-107950000D01*
X148666687Y-108116823D01*
X148618024Y-108277242D01*
X148547114Y-108409906D01*
X148539004Y-108425078D01*
X148432659Y-108554659D01*
X148303078Y-108661004D01*
X148303076Y-108661005D01*
X148155242Y-108740024D01*
X147994823Y-108788687D01*
X147869804Y-108801000D01*
X147786196Y-108801000D01*
X147661177Y-108788687D01*
X147500758Y-108740024D01*
X147352924Y-108661005D01*
X147352922Y-108661004D01*
X147223341Y-108554659D01*
X147116996Y-108425078D01*
X147108886Y-108409906D01*
X147037976Y-108277242D01*
X146989313Y-108116823D01*
X146972883Y-107950000D01*
X146989313Y-107783177D01*
X147037976Y-107622758D01*
X147116995Y-107474924D01*
X147116996Y-107474922D01*
X147223341Y-107345341D01*
X147352922Y-107238996D01*
X147368094Y-107230886D01*
X147500758Y-107159976D01*
X147661177Y-107111313D01*
X147786196Y-107099000D01*
X147869804Y-107099000D01*
X147994823Y-107111313D01*
X147994823Y-107111313D01*
G37*
G36*
X155614823Y-107111313D02*
G01*
X155775242Y-107159976D01*
X155907906Y-107230886D01*
X155923078Y-107238996D01*
X156052659Y-107345341D01*
X156159004Y-107474922D01*
X156159005Y-107474924D01*
X156238024Y-107622758D01*
X156286687Y-107783177D01*
X156303117Y-107950000D01*
X156286687Y-108116823D01*
X156238024Y-108277242D01*
X156167114Y-108409906D01*
X156159004Y-108425078D01*
X156052659Y-108554659D01*
X155923078Y-108661004D01*
X155923076Y-108661005D01*
X155775242Y-108740024D01*
X155614823Y-108788687D01*
X155489804Y-108801000D01*
X155406196Y-108801000D01*
X155281177Y-108788687D01*
X155120758Y-108740024D01*
X154972924Y-108661005D01*
X154972922Y-108661004D01*
X154843341Y-108554659D01*
X154736996Y-108425078D01*
X154728886Y-108409906D01*
X154657976Y-108277242D01*
X154609313Y-108116823D01*
X154592883Y-107950000D01*
X154609313Y-107783177D01*
X154657976Y-107622758D01*
X154736995Y-107474924D01*
X154736996Y-107474922D01*
X154843341Y-107345341D01*
X154972922Y-107238996D01*
X154988094Y-107230886D01*
X155120758Y-107159976D01*
X155281177Y-107111313D01*
X155406196Y-107099000D01*
X155489804Y-107099000D01*
X155614823Y-107111313D01*
X155614823Y-107111313D01*
G37*
G36*
X136079000Y-107885000D02*
G01*
X134177000Y-107885000D01*
X134177000Y-105983000D01*
X136079000Y-105983000D01*
X136079000Y-107885000D01*
X136079000Y-107885000D01*
G37*
G36*
X127248228Y-105861703D02*
G01*
X127403100Y-105925853D01*
X127542481Y-106018985D01*
X127661015Y-106137519D01*
X127754147Y-106276900D01*
X127818297Y-106431772D01*
X127851000Y-106596184D01*
X127851000Y-106763816D01*
X127818297Y-106928228D01*
X127754147Y-107083100D01*
X127661015Y-107222481D01*
X127542481Y-107341015D01*
X127403100Y-107434147D01*
X127248228Y-107498297D01*
X127083816Y-107531000D01*
X126916184Y-107531000D01*
X126751772Y-107498297D01*
X126596900Y-107434147D01*
X126457519Y-107341015D01*
X126338985Y-107222481D01*
X126245853Y-107083100D01*
X126181703Y-106928228D01*
X126149000Y-106763816D01*
X126149000Y-106596184D01*
X126181703Y-106431772D01*
X126245853Y-106276900D01*
X126338985Y-106137519D01*
X126457519Y-106018985D01*
X126596900Y-105925853D01*
X126751772Y-105861703D01*
X126916184Y-105829000D01*
X127083816Y-105829000D01*
X127248228Y-105861703D01*
X127248228Y-105861703D01*
G37*
G36*
X163171736Y-105530858D02*
G01*
X163244627Y-105538037D01*
X163414466Y-105589557D01*
X163414468Y-105589558D01*
X163492728Y-105631389D01*
X163570991Y-105673222D01*
X163606729Y-105702552D01*
X163708186Y-105785814D01*
X163770467Y-105861705D01*
X163820778Y-105923009D01*
X163904443Y-106079534D01*
X163955963Y-106249373D01*
X163973359Y-106426000D01*
X163955963Y-106602627D01*
X163904443Y-106772466D01*
X163820778Y-106928991D01*
X163791448Y-106964729D01*
X163708186Y-107066186D01*
X163606729Y-107149448D01*
X163570991Y-107178778D01*
X163414466Y-107262443D01*
X163244627Y-107313963D01*
X163178442Y-107320482D01*
X163112260Y-107327000D01*
X163023740Y-107327000D01*
X162957558Y-107320482D01*
X162891373Y-107313963D01*
X162721534Y-107262443D01*
X162565009Y-107178778D01*
X162529271Y-107149448D01*
X162427814Y-107066186D01*
X162344552Y-106964729D01*
X162315222Y-106928991D01*
X162231557Y-106772466D01*
X162180037Y-106602627D01*
X162162641Y-106426000D01*
X162180037Y-106249373D01*
X162231557Y-106079534D01*
X162315222Y-105923009D01*
X162365533Y-105861705D01*
X162427814Y-105785814D01*
X162529271Y-105702552D01*
X162565009Y-105673222D01*
X162643272Y-105631389D01*
X162721532Y-105589558D01*
X162721534Y-105589557D01*
X162891373Y-105538037D01*
X162964264Y-105530858D01*
X163023740Y-105525000D01*
X163112260Y-105525000D01*
X163171736Y-105530858D01*
X163171736Y-105530858D01*
G37*
G36*
X160631736Y-105530858D02*
G01*
X160704627Y-105538037D01*
X160874466Y-105589557D01*
X160874468Y-105589558D01*
X160952728Y-105631389D01*
X161030991Y-105673222D01*
X161066729Y-105702552D01*
X161168186Y-105785814D01*
X161230467Y-105861705D01*
X161280778Y-105923009D01*
X161364443Y-106079534D01*
X161415963Y-106249373D01*
X161433359Y-106426000D01*
X161415963Y-106602627D01*
X161364443Y-106772466D01*
X161280778Y-106928991D01*
X161251448Y-106964729D01*
X161168186Y-107066186D01*
X161066729Y-107149448D01*
X161030991Y-107178778D01*
X160874466Y-107262443D01*
X160704627Y-107313963D01*
X160638442Y-107320482D01*
X160572260Y-107327000D01*
X160483740Y-107327000D01*
X160417558Y-107320482D01*
X160351373Y-107313963D01*
X160181534Y-107262443D01*
X160025009Y-107178778D01*
X159989271Y-107149448D01*
X159887814Y-107066186D01*
X159804552Y-106964729D01*
X159775222Y-106928991D01*
X159691557Y-106772466D01*
X159640037Y-106602627D01*
X159622641Y-106426000D01*
X159640037Y-106249373D01*
X159691557Y-106079534D01*
X159775222Y-105923009D01*
X159825533Y-105861705D01*
X159887814Y-105785814D01*
X159989271Y-105702552D01*
X160025009Y-105673222D01*
X160103272Y-105631389D01*
X160181532Y-105589558D01*
X160181534Y-105589557D01*
X160351373Y-105538037D01*
X160424264Y-105530858D01*
X160483740Y-105525000D01*
X160572260Y-105525000D01*
X160631736Y-105530858D01*
X160631736Y-105530858D01*
G37*
G36*
X155614823Y-104571313D02*
G01*
X155775242Y-104619976D01*
X155871440Y-104671395D01*
X155923078Y-104698996D01*
X156052659Y-104805341D01*
X156159004Y-104934922D01*
X156159005Y-104934924D01*
X156238024Y-105082758D01*
X156286687Y-105243177D01*
X156303117Y-105410000D01*
X156286687Y-105576823D01*
X156238024Y-105737242D01*
X156212061Y-105785815D01*
X156159004Y-105885078D01*
X156052659Y-106014659D01*
X155923078Y-106121004D01*
X155923076Y-106121005D01*
X155775242Y-106200024D01*
X155614823Y-106248687D01*
X155489804Y-106261000D01*
X155406196Y-106261000D01*
X155281177Y-106248687D01*
X155120758Y-106200024D01*
X154972924Y-106121005D01*
X154972922Y-106121004D01*
X154843341Y-106014659D01*
X154736996Y-105885078D01*
X154683939Y-105785815D01*
X154657976Y-105737242D01*
X154609313Y-105576823D01*
X154592883Y-105410000D01*
X154609313Y-105243177D01*
X154657976Y-105082758D01*
X154736995Y-104934924D01*
X154736996Y-104934922D01*
X154843341Y-104805341D01*
X154972922Y-104698996D01*
X155024560Y-104671395D01*
X155120758Y-104619976D01*
X155281177Y-104571313D01*
X155406196Y-104559000D01*
X155489804Y-104559000D01*
X155614823Y-104571313D01*
X155614823Y-104571313D01*
G37*
G36*
X147994823Y-104571313D02*
G01*
X148155242Y-104619976D01*
X148251440Y-104671395D01*
X148303078Y-104698996D01*
X148432659Y-104805341D01*
X148539004Y-104934922D01*
X148539005Y-104934924D01*
X148618024Y-105082758D01*
X148666687Y-105243177D01*
X148683117Y-105410000D01*
X148666687Y-105576823D01*
X148618024Y-105737242D01*
X148592061Y-105785815D01*
X148539004Y-105885078D01*
X148432659Y-106014659D01*
X148303078Y-106121004D01*
X148303076Y-106121005D01*
X148155242Y-106200024D01*
X147994823Y-106248687D01*
X147869804Y-106261000D01*
X147786196Y-106261000D01*
X147661177Y-106248687D01*
X147500758Y-106200024D01*
X147352924Y-106121005D01*
X147352922Y-106121004D01*
X147223341Y-106014659D01*
X147116996Y-105885078D01*
X147063939Y-105785815D01*
X147037976Y-105737242D01*
X146989313Y-105576823D01*
X146972883Y-105410000D01*
X146989313Y-105243177D01*
X147037976Y-105082758D01*
X147116995Y-104934924D01*
X147116996Y-104934922D01*
X147223341Y-104805341D01*
X147352922Y-104698996D01*
X147404560Y-104671395D01*
X147500758Y-104619976D01*
X147661177Y-104571313D01*
X147786196Y-104559000D01*
X147869804Y-104559000D01*
X147994823Y-104571313D01*
X147994823Y-104571313D01*
G37*
G36*
X212025000Y-105599000D02*
G01*
X210123000Y-105599000D01*
X210123000Y-103697000D01*
X212025000Y-103697000D01*
X212025000Y-105599000D01*
X212025000Y-105599000D01*
G37*
G36*
X203640425Y-103710760D02*
G01*
X203640428Y-103710761D01*
X203640429Y-103710761D01*
X203819693Y-103765140D01*
X203819696Y-103765142D01*
X203819697Y-103765142D01*
X203984903Y-103853446D01*
X204129712Y-103972288D01*
X204248554Y-104117097D01*
X204336858Y-104282303D01*
X204336860Y-104282307D01*
X204391239Y-104461571D01*
X204391240Y-104461575D01*
X204409601Y-104648000D01*
X204391240Y-104834425D01*
X204391239Y-104834428D01*
X204391239Y-104834429D01*
X204336860Y-105013693D01*
X204336858Y-105013696D01*
X204336858Y-105013697D01*
X204248554Y-105178903D01*
X204129712Y-105323712D01*
X203984903Y-105442554D01*
X203819697Y-105530858D01*
X203819693Y-105530860D01*
X203640429Y-105585239D01*
X203640428Y-105585239D01*
X203640425Y-105585240D01*
X203500718Y-105599000D01*
X203407282Y-105599000D01*
X203267575Y-105585240D01*
X203267572Y-105585239D01*
X203267571Y-105585239D01*
X203088307Y-105530860D01*
X203088303Y-105530858D01*
X202923097Y-105442554D01*
X202778288Y-105323712D01*
X202659446Y-105178903D01*
X202571142Y-105013697D01*
X202571142Y-105013696D01*
X202571140Y-105013693D01*
X202516761Y-104834429D01*
X202516761Y-104834428D01*
X202516760Y-104834425D01*
X202498399Y-104648000D01*
X202516760Y-104461575D01*
X202516761Y-104461571D01*
X202571140Y-104282307D01*
X202571142Y-104282303D01*
X202659446Y-104117097D01*
X202778288Y-103972288D01*
X202923097Y-103853446D01*
X203088303Y-103765142D01*
X203088304Y-103765142D01*
X203088307Y-103765140D01*
X203267571Y-103710761D01*
X203267572Y-103710761D01*
X203267575Y-103710760D01*
X203407282Y-103697000D01*
X203500718Y-103697000D01*
X203640425Y-103710760D01*
X203640425Y-103710760D01*
G37*
G36*
X135405395Y-103479546D02*
G01*
X135578466Y-103551234D01*
X135615086Y-103575703D01*
X135734227Y-103655310D01*
X135866690Y-103787773D01*
X135909284Y-103851520D01*
X135970766Y-103943534D01*
X136042454Y-104116605D01*
X136079000Y-104300333D01*
X136079000Y-104487667D01*
X136042454Y-104671395D01*
X135970766Y-104844466D01*
X135970765Y-104844467D01*
X135866690Y-105000227D01*
X135734227Y-105132690D01*
X135711092Y-105148148D01*
X135578466Y-105236766D01*
X135405395Y-105308454D01*
X135221667Y-105345000D01*
X135034333Y-105345000D01*
X134850605Y-105308454D01*
X134677534Y-105236766D01*
X134544908Y-105148148D01*
X134521773Y-105132690D01*
X134389310Y-105000227D01*
X134285235Y-104844467D01*
X134285234Y-104844466D01*
X134213546Y-104671395D01*
X134177000Y-104487667D01*
X134177000Y-104300333D01*
X134213546Y-104116605D01*
X134285234Y-103943534D01*
X134346716Y-103851520D01*
X134389310Y-103787773D01*
X134521773Y-103655310D01*
X134640914Y-103575703D01*
X134677534Y-103551234D01*
X134850605Y-103479546D01*
X135034333Y-103443000D01*
X135221667Y-103443000D01*
X135405395Y-103479546D01*
X135405395Y-103479546D01*
G37*
G36*
X182812425Y-103456760D02*
G01*
X182812428Y-103456761D01*
X182812429Y-103456761D01*
X182991693Y-103511140D01*
X182991696Y-103511142D01*
X182991697Y-103511142D01*
X183156903Y-103599446D01*
X183301712Y-103718288D01*
X183420554Y-103863097D01*
X183492499Y-103997697D01*
X183508860Y-104028307D01*
X183563239Y-104207571D01*
X183563240Y-104207575D01*
X183581601Y-104394000D01*
X183563240Y-104580425D01*
X183563239Y-104580428D01*
X183563239Y-104580429D01*
X183508860Y-104759693D01*
X183508858Y-104759696D01*
X183508858Y-104759697D01*
X183420554Y-104924903D01*
X183301712Y-105069712D01*
X183156903Y-105188554D01*
X183051299Y-105245000D01*
X182991693Y-105276860D01*
X182812429Y-105331239D01*
X182812428Y-105331239D01*
X182812425Y-105331240D01*
X182672718Y-105345000D01*
X182579282Y-105345000D01*
X182439575Y-105331240D01*
X182439572Y-105331239D01*
X182439571Y-105331239D01*
X182260307Y-105276860D01*
X182200701Y-105245000D01*
X182095097Y-105188554D01*
X181950288Y-105069712D01*
X181831446Y-104924903D01*
X181743142Y-104759697D01*
X181743142Y-104759696D01*
X181743140Y-104759693D01*
X181688761Y-104580429D01*
X181688761Y-104580428D01*
X181688760Y-104580425D01*
X181670399Y-104394000D01*
X181688760Y-104207575D01*
X181688761Y-104207571D01*
X181743140Y-104028307D01*
X181759501Y-103997697D01*
X181831446Y-103863097D01*
X181950288Y-103718288D01*
X182095097Y-103599446D01*
X182260303Y-103511142D01*
X182260304Y-103511142D01*
X182260307Y-103511140D01*
X182439571Y-103456761D01*
X182439572Y-103456761D01*
X182439575Y-103456760D01*
X182579282Y-103443000D01*
X182672718Y-103443000D01*
X182812425Y-103456760D01*
X182812425Y-103456760D01*
G37*
G36*
X191197000Y-105345000D02*
G01*
X189295000Y-105345000D01*
X189295000Y-103443000D01*
X191197000Y-103443000D01*
X191197000Y-105345000D01*
X191197000Y-105345000D01*
G37*
G36*
X179005000Y-105345000D02*
G01*
X177103000Y-105345000D01*
X177103000Y-103443000D01*
X179005000Y-103443000D01*
X179005000Y-105345000D01*
X179005000Y-105345000D01*
G37*
G36*
X170620425Y-103456760D02*
G01*
X170620428Y-103456761D01*
X170620429Y-103456761D01*
X170799693Y-103511140D01*
X170799696Y-103511142D01*
X170799697Y-103511142D01*
X170964903Y-103599446D01*
X171109712Y-103718288D01*
X171228554Y-103863097D01*
X171300499Y-103997697D01*
X171316860Y-104028307D01*
X171371239Y-104207571D01*
X171371240Y-104207575D01*
X171389601Y-104394000D01*
X171371240Y-104580425D01*
X171371239Y-104580428D01*
X171371239Y-104580429D01*
X171316860Y-104759693D01*
X171316858Y-104759696D01*
X171316858Y-104759697D01*
X171228554Y-104924903D01*
X171109712Y-105069712D01*
X170964903Y-105188554D01*
X170859299Y-105245000D01*
X170799693Y-105276860D01*
X170620429Y-105331239D01*
X170620428Y-105331239D01*
X170620425Y-105331240D01*
X170480718Y-105345000D01*
X170387282Y-105345000D01*
X170247575Y-105331240D01*
X170247572Y-105331239D01*
X170247571Y-105331239D01*
X170068307Y-105276860D01*
X170008701Y-105245000D01*
X169903097Y-105188554D01*
X169758288Y-105069712D01*
X169639446Y-104924903D01*
X169551142Y-104759697D01*
X169551142Y-104759696D01*
X169551140Y-104759693D01*
X169496761Y-104580429D01*
X169496761Y-104580428D01*
X169496760Y-104580425D01*
X169478399Y-104394000D01*
X169496760Y-104207575D01*
X169496761Y-104207571D01*
X169551140Y-104028307D01*
X169567501Y-103997697D01*
X169639446Y-103863097D01*
X169758288Y-103718288D01*
X169903097Y-103599446D01*
X170068303Y-103511142D01*
X170068304Y-103511142D01*
X170068307Y-103511140D01*
X170247571Y-103456761D01*
X170247572Y-103456761D01*
X170247575Y-103456760D01*
X170387282Y-103443000D01*
X170480718Y-103443000D01*
X170620425Y-103456760D01*
X170620425Y-103456760D01*
G37*
G36*
X143972228Y-103575703D02*
G01*
X144127100Y-103639853D01*
X144266481Y-103732985D01*
X144385015Y-103851519D01*
X144478147Y-103990900D01*
X144542297Y-104145772D01*
X144575000Y-104310184D01*
X144575000Y-104477816D01*
X144542297Y-104642228D01*
X144478147Y-104797100D01*
X144385015Y-104936481D01*
X144266481Y-105055015D01*
X144127100Y-105148147D01*
X143972228Y-105212297D01*
X143807816Y-105245000D01*
X143640184Y-105245000D01*
X143475772Y-105212297D01*
X143320900Y-105148147D01*
X143181519Y-105055015D01*
X143062985Y-104936481D01*
X142969853Y-104797100D01*
X142905703Y-104642228D01*
X142873000Y-104477816D01*
X142873000Y-104310184D01*
X142905703Y-104145772D01*
X142969853Y-103990900D01*
X143062985Y-103851519D01*
X143181519Y-103732985D01*
X143320900Y-103639853D01*
X143475772Y-103575703D01*
X143640184Y-103543000D01*
X143807816Y-103543000D01*
X143972228Y-103575703D01*
X143972228Y-103575703D01*
G37*
G36*
X141472228Y-103575703D02*
G01*
X141627100Y-103639853D01*
X141766481Y-103732985D01*
X141885015Y-103851519D01*
X141978147Y-103990900D01*
X142042297Y-104145772D01*
X142075000Y-104310184D01*
X142075000Y-104477816D01*
X142042297Y-104642228D01*
X141978147Y-104797100D01*
X141885015Y-104936481D01*
X141766481Y-105055015D01*
X141627100Y-105148147D01*
X141472228Y-105212297D01*
X141307816Y-105245000D01*
X141140184Y-105245000D01*
X140975772Y-105212297D01*
X140820900Y-105148147D01*
X140681519Y-105055015D01*
X140562985Y-104936481D01*
X140469853Y-104797100D01*
X140405703Y-104642228D01*
X140373000Y-104477816D01*
X140373000Y-104310184D01*
X140405703Y-104145772D01*
X140469853Y-103990900D01*
X140562985Y-103851519D01*
X140681519Y-103732985D01*
X140820900Y-103639853D01*
X140975772Y-103575703D01*
X141140184Y-103543000D01*
X141307816Y-103543000D01*
X141472228Y-103575703D01*
X141472228Y-103575703D01*
G37*
G36*
X163178443Y-102991519D02*
G01*
X163244627Y-102998037D01*
X163414466Y-103049557D01*
X163570991Y-103133222D01*
X163606729Y-103162552D01*
X163708186Y-103245814D01*
X163789647Y-103345076D01*
X163820778Y-103383009D01*
X163820779Y-103383011D01*
X163872379Y-103479546D01*
X163904443Y-103539534D01*
X163955963Y-103709373D01*
X163973359Y-103886000D01*
X163955963Y-104062627D01*
X163904443Y-104232466D01*
X163820778Y-104388991D01*
X163816667Y-104394000D01*
X163708186Y-104526186D01*
X163606729Y-104609448D01*
X163570991Y-104638778D01*
X163414466Y-104722443D01*
X163244627Y-104773963D01*
X163178442Y-104780482D01*
X163112260Y-104787000D01*
X163023740Y-104787000D01*
X162957558Y-104780482D01*
X162891373Y-104773963D01*
X162721534Y-104722443D01*
X162565009Y-104638778D01*
X162529271Y-104609448D01*
X162427814Y-104526186D01*
X162319333Y-104394000D01*
X162315222Y-104388991D01*
X162231557Y-104232466D01*
X162180037Y-104062627D01*
X162162641Y-103886000D01*
X162180037Y-103709373D01*
X162231557Y-103539534D01*
X162263622Y-103479546D01*
X162315221Y-103383011D01*
X162315222Y-103383009D01*
X162346353Y-103345076D01*
X162427814Y-103245814D01*
X162529271Y-103162552D01*
X162565009Y-103133222D01*
X162721534Y-103049557D01*
X162891373Y-102998037D01*
X162957557Y-102991519D01*
X163023740Y-102985000D01*
X163112260Y-102985000D01*
X163178443Y-102991519D01*
X163178443Y-102991519D01*
G37*
G36*
X160638443Y-102991519D02*
G01*
X160704627Y-102998037D01*
X160874466Y-103049557D01*
X161030991Y-103133222D01*
X161066729Y-103162552D01*
X161168186Y-103245814D01*
X161249647Y-103345076D01*
X161280778Y-103383009D01*
X161280779Y-103383011D01*
X161332379Y-103479546D01*
X161364443Y-103539534D01*
X161415963Y-103709373D01*
X161433359Y-103886000D01*
X161415963Y-104062627D01*
X161364443Y-104232466D01*
X161280778Y-104388991D01*
X161276667Y-104394000D01*
X161168186Y-104526186D01*
X161066729Y-104609448D01*
X161030991Y-104638778D01*
X160874466Y-104722443D01*
X160704627Y-104773963D01*
X160638442Y-104780482D01*
X160572260Y-104787000D01*
X160483740Y-104787000D01*
X160417558Y-104780482D01*
X160351373Y-104773963D01*
X160181534Y-104722443D01*
X160025009Y-104638778D01*
X159989271Y-104609448D01*
X159887814Y-104526186D01*
X159779333Y-104394000D01*
X159775222Y-104388991D01*
X159691557Y-104232466D01*
X159640037Y-104062627D01*
X159622641Y-103886000D01*
X159640037Y-103709373D01*
X159691557Y-103539534D01*
X159723622Y-103479546D01*
X159775221Y-103383011D01*
X159775222Y-103383009D01*
X159806353Y-103345076D01*
X159887814Y-103245814D01*
X159989271Y-103162552D01*
X160025009Y-103133222D01*
X160181534Y-103049557D01*
X160351373Y-102998037D01*
X160417557Y-102991519D01*
X160483740Y-102985000D01*
X160572260Y-102985000D01*
X160638443Y-102991519D01*
X160638443Y-102991519D01*
G37*
G36*
X95944425Y-102694760D02*
G01*
X95944428Y-102694761D01*
X95944429Y-102694761D01*
X96123693Y-102749140D01*
X96123696Y-102749142D01*
X96123697Y-102749142D01*
X96288903Y-102837446D01*
X96433712Y-102956288D01*
X96552554Y-103101097D01*
X96603944Y-103197242D01*
X96640860Y-103266307D01*
X96694459Y-103443000D01*
X96695240Y-103445575D01*
X96713601Y-103632000D01*
X96695240Y-103818425D01*
X96695239Y-103818428D01*
X96695239Y-103818429D01*
X96640860Y-103997693D01*
X96640858Y-103997696D01*
X96640858Y-103997697D01*
X96552554Y-104162903D01*
X96433712Y-104307712D01*
X96288903Y-104426554D01*
X96123697Y-104514858D01*
X96123693Y-104514860D01*
X95944429Y-104569239D01*
X95944428Y-104569239D01*
X95944425Y-104569240D01*
X95804718Y-104583000D01*
X95711282Y-104583000D01*
X95571575Y-104569240D01*
X95571572Y-104569239D01*
X95571571Y-104569239D01*
X95392307Y-104514860D01*
X95392303Y-104514858D01*
X95227097Y-104426554D01*
X95082288Y-104307712D01*
X94963446Y-104162903D01*
X94875142Y-103997697D01*
X94875142Y-103997696D01*
X94875140Y-103997693D01*
X94820761Y-103818429D01*
X94820761Y-103818428D01*
X94820760Y-103818425D01*
X94802399Y-103632000D01*
X94820760Y-103445575D01*
X94821541Y-103443000D01*
X94875140Y-103266307D01*
X94912056Y-103197242D01*
X94963446Y-103101097D01*
X95082288Y-102956288D01*
X95227097Y-102837446D01*
X95392303Y-102749142D01*
X95392304Y-102749142D01*
X95392307Y-102749140D01*
X95571571Y-102694761D01*
X95571572Y-102694761D01*
X95571575Y-102694760D01*
X95711282Y-102681000D01*
X95804718Y-102681000D01*
X95944425Y-102694760D01*
X95944425Y-102694760D01*
G37*
G36*
X104329000Y-104583000D02*
G01*
X102427000Y-104583000D01*
X102427000Y-102681000D01*
X104329000Y-102681000D01*
X104329000Y-104583000D01*
X104329000Y-104583000D01*
G37*
G36*
X125411000Y-104583000D02*
G01*
X123509000Y-104583000D01*
X123509000Y-102681000D01*
X125411000Y-102681000D01*
X125411000Y-104583000D01*
X125411000Y-104583000D01*
G37*
G36*
X117026425Y-102694760D02*
G01*
X117026428Y-102694761D01*
X117026429Y-102694761D01*
X117205693Y-102749140D01*
X117205696Y-102749142D01*
X117205697Y-102749142D01*
X117370903Y-102837446D01*
X117515712Y-102956288D01*
X117634554Y-103101097D01*
X117685944Y-103197242D01*
X117722860Y-103266307D01*
X117776459Y-103443000D01*
X117777240Y-103445575D01*
X117795601Y-103632000D01*
X117777240Y-103818425D01*
X117777239Y-103818428D01*
X117777239Y-103818429D01*
X117722860Y-103997693D01*
X117722858Y-103997696D01*
X117722858Y-103997697D01*
X117634554Y-104162903D01*
X117515712Y-104307712D01*
X117370903Y-104426554D01*
X117205697Y-104514858D01*
X117205693Y-104514860D01*
X117026429Y-104569239D01*
X117026428Y-104569239D01*
X117026425Y-104569240D01*
X116886718Y-104583000D01*
X116793282Y-104583000D01*
X116653575Y-104569240D01*
X116653572Y-104569239D01*
X116653571Y-104569239D01*
X116474307Y-104514860D01*
X116474303Y-104514858D01*
X116309097Y-104426554D01*
X116164288Y-104307712D01*
X116045446Y-104162903D01*
X115957142Y-103997697D01*
X115957142Y-103997696D01*
X115957140Y-103997693D01*
X115902761Y-103818429D01*
X115902761Y-103818428D01*
X115902760Y-103818425D01*
X115884399Y-103632000D01*
X115902760Y-103445575D01*
X115903541Y-103443000D01*
X115957140Y-103266307D01*
X115994056Y-103197242D01*
X116045446Y-103101097D01*
X116164288Y-102956288D01*
X116309097Y-102837446D01*
X116474303Y-102749142D01*
X116474304Y-102749142D01*
X116474307Y-102749140D01*
X116653571Y-102694761D01*
X116653572Y-102694761D01*
X116653575Y-102694760D01*
X116793282Y-102681000D01*
X116886718Y-102681000D01*
X117026425Y-102694760D01*
X117026425Y-102694760D01*
G37*
G36*
X128964425Y-102440760D02*
G01*
X128964428Y-102440761D01*
X128964429Y-102440761D01*
X129143693Y-102495140D01*
X129143696Y-102495142D01*
X129143697Y-102495142D01*
X129308903Y-102583446D01*
X129453712Y-102702288D01*
X129572554Y-102847097D01*
X129660858Y-103012303D01*
X129660860Y-103012307D01*
X129697539Y-103133222D01*
X129715240Y-103191575D01*
X129733601Y-103378000D01*
X129715240Y-103564425D01*
X129715239Y-103564428D01*
X129715239Y-103564429D01*
X129660860Y-103743693D01*
X129660858Y-103743696D01*
X129660858Y-103743697D01*
X129572554Y-103908903D01*
X129453712Y-104053712D01*
X129308903Y-104172554D01*
X129143697Y-104260858D01*
X129143693Y-104260860D01*
X128964429Y-104315239D01*
X128964428Y-104315239D01*
X128964425Y-104315240D01*
X128824718Y-104329000D01*
X128731282Y-104329000D01*
X128591575Y-104315240D01*
X128591572Y-104315239D01*
X128591571Y-104315239D01*
X128412307Y-104260860D01*
X128412303Y-104260858D01*
X128247097Y-104172554D01*
X128102288Y-104053712D01*
X127983446Y-103908903D01*
X127895142Y-103743697D01*
X127895142Y-103743696D01*
X127895140Y-103743693D01*
X127840761Y-103564429D01*
X127840761Y-103564428D01*
X127840760Y-103564425D01*
X127822399Y-103378000D01*
X127840760Y-103191575D01*
X127858461Y-103133222D01*
X127895140Y-103012307D01*
X127895142Y-103012303D01*
X127983446Y-102847097D01*
X128102288Y-102702288D01*
X128247097Y-102583446D01*
X128412303Y-102495142D01*
X128412304Y-102495142D01*
X128412307Y-102495140D01*
X128591571Y-102440761D01*
X128591572Y-102440761D01*
X128591575Y-102440760D01*
X128731282Y-102427000D01*
X128824718Y-102427000D01*
X128964425Y-102440760D01*
X128964425Y-102440760D01*
G37*
G36*
X155614823Y-102031313D02*
G01*
X155775242Y-102079976D01*
X155893151Y-102143000D01*
X155923078Y-102158996D01*
X156052659Y-102265341D01*
X156159004Y-102394922D01*
X156159005Y-102394924D01*
X156238024Y-102542758D01*
X156286687Y-102703177D01*
X156303117Y-102870000D01*
X156286687Y-103036823D01*
X156238024Y-103197242D01*
X156212061Y-103245815D01*
X156159004Y-103345078D01*
X156052659Y-103474659D01*
X155923078Y-103581004D01*
X155923076Y-103581005D01*
X155775242Y-103660024D01*
X155614823Y-103708687D01*
X155489804Y-103721000D01*
X155406196Y-103721000D01*
X155281177Y-103708687D01*
X155120758Y-103660024D01*
X154972924Y-103581005D01*
X154972922Y-103581004D01*
X154843341Y-103474659D01*
X154736996Y-103345078D01*
X154683939Y-103245815D01*
X154657976Y-103197242D01*
X154609313Y-103036823D01*
X154592883Y-102870000D01*
X154609313Y-102703177D01*
X154657976Y-102542758D01*
X154736995Y-102394924D01*
X154736996Y-102394922D01*
X154843341Y-102265341D01*
X154972922Y-102158996D01*
X155002849Y-102143000D01*
X155120758Y-102079976D01*
X155281177Y-102031313D01*
X155406196Y-102019000D01*
X155489804Y-102019000D01*
X155614823Y-102031313D01*
X155614823Y-102031313D01*
G37*
G36*
X147994823Y-102031313D02*
G01*
X148155242Y-102079976D01*
X148273151Y-102143000D01*
X148303078Y-102158996D01*
X148432659Y-102265341D01*
X148539004Y-102394922D01*
X148539005Y-102394924D01*
X148618024Y-102542758D01*
X148666687Y-102703177D01*
X148683117Y-102870000D01*
X148666687Y-103036823D01*
X148618024Y-103197242D01*
X148592061Y-103245815D01*
X148539004Y-103345078D01*
X148432659Y-103474659D01*
X148303078Y-103581004D01*
X148303076Y-103581005D01*
X148155242Y-103660024D01*
X147994823Y-103708687D01*
X147869804Y-103721000D01*
X147786196Y-103721000D01*
X147661177Y-103708687D01*
X147500758Y-103660024D01*
X147352924Y-103581005D01*
X147352922Y-103581004D01*
X147223341Y-103474659D01*
X147116996Y-103345078D01*
X147063939Y-103245815D01*
X147037976Y-103197242D01*
X146989313Y-103036823D01*
X146972883Y-102870000D01*
X146989313Y-102703177D01*
X147037976Y-102542758D01*
X147116995Y-102394924D01*
X147116996Y-102394922D01*
X147223341Y-102265341D01*
X147352922Y-102158996D01*
X147382849Y-102143000D01*
X147500758Y-102079976D01*
X147661177Y-102031313D01*
X147786196Y-102019000D01*
X147869804Y-102019000D01*
X147994823Y-102031313D01*
X147994823Y-102031313D01*
G37*
G36*
X112748564Y-100335389D02*
G01*
X112920693Y-100406687D01*
X112939835Y-100414616D01*
X113004819Y-100458037D01*
X113111973Y-100529635D01*
X113258365Y-100676027D01*
X113373385Y-100848167D01*
X113452611Y-101039436D01*
X113493000Y-101242484D01*
X113493000Y-101449516D01*
X113452611Y-101652564D01*
X113436083Y-101692466D01*
X113373384Y-101843835D01*
X113258365Y-102015973D01*
X113111973Y-102162365D01*
X112939835Y-102277384D01*
X112939834Y-102277385D01*
X112939833Y-102277385D01*
X112748564Y-102356611D01*
X112545516Y-102397000D01*
X112338484Y-102397000D01*
X112135436Y-102356611D01*
X111944167Y-102277385D01*
X111944166Y-102277385D01*
X111944165Y-102277384D01*
X111772027Y-102162365D01*
X111625635Y-102015973D01*
X111510616Y-101843835D01*
X111447917Y-101692466D01*
X111431389Y-101652564D01*
X111391000Y-101449516D01*
X111391000Y-101242484D01*
X111431389Y-101039436D01*
X111510615Y-100848167D01*
X111625635Y-100676027D01*
X111772027Y-100529635D01*
X111879181Y-100458037D01*
X111944165Y-100414616D01*
X111963307Y-100406687D01*
X112135436Y-100335389D01*
X112338484Y-100295000D01*
X112545516Y-100295000D01*
X112748564Y-100335389D01*
X112748564Y-100335389D01*
G37*
G36*
X108493000Y-102397000D02*
G01*
X106391000Y-102397000D01*
X106391000Y-100295000D01*
X108493000Y-100295000D01*
X108493000Y-102397000D01*
X108493000Y-102397000D01*
G37*
G36*
X160638443Y-100451519D02*
G01*
X160704627Y-100458037D01*
X160874466Y-100509557D01*
X161030991Y-100593222D01*
X161032142Y-100594167D01*
X161168186Y-100705814D01*
X161233528Y-100785435D01*
X161280778Y-100843009D01*
X161364443Y-100999534D01*
X161415963Y-101169373D01*
X161433359Y-101346000D01*
X161415963Y-101522627D01*
X161364443Y-101692466D01*
X161280778Y-101848991D01*
X161251448Y-101884729D01*
X161168186Y-101986186D01*
X161066729Y-102069448D01*
X161030991Y-102098778D01*
X160874466Y-102182443D01*
X160704627Y-102233963D01*
X160638443Y-102240481D01*
X160572260Y-102247000D01*
X160483740Y-102247000D01*
X160417557Y-102240481D01*
X160351373Y-102233963D01*
X160181534Y-102182443D01*
X160025009Y-102098778D01*
X159989271Y-102069448D01*
X159887814Y-101986186D01*
X159804552Y-101884729D01*
X159775222Y-101848991D01*
X159691557Y-101692466D01*
X159640037Y-101522627D01*
X159622641Y-101346000D01*
X159640037Y-101169373D01*
X159691557Y-100999534D01*
X159775222Y-100843009D01*
X159822472Y-100785435D01*
X159887814Y-100705814D01*
X160023858Y-100594167D01*
X160025009Y-100593222D01*
X160181534Y-100509557D01*
X160351373Y-100458037D01*
X160417557Y-100451519D01*
X160483740Y-100445000D01*
X160572260Y-100445000D01*
X160638443Y-100451519D01*
X160638443Y-100451519D01*
G37*
G36*
X163178443Y-100451519D02*
G01*
X163244627Y-100458037D01*
X163414466Y-100509557D01*
X163570991Y-100593222D01*
X163572142Y-100594167D01*
X163708186Y-100705814D01*
X163773528Y-100785435D01*
X163820778Y-100843009D01*
X163904443Y-100999534D01*
X163955963Y-101169373D01*
X163973359Y-101346000D01*
X163955963Y-101522627D01*
X163904443Y-101692466D01*
X163820778Y-101848991D01*
X163791448Y-101884729D01*
X163708186Y-101986186D01*
X163606729Y-102069448D01*
X163570991Y-102098778D01*
X163414466Y-102182443D01*
X163244627Y-102233963D01*
X163178443Y-102240481D01*
X163112260Y-102247000D01*
X163023740Y-102247000D01*
X162957557Y-102240481D01*
X162891373Y-102233963D01*
X162721534Y-102182443D01*
X162565009Y-102098778D01*
X162529271Y-102069448D01*
X162427814Y-101986186D01*
X162344552Y-101884729D01*
X162315222Y-101848991D01*
X162231557Y-101692466D01*
X162180037Y-101522627D01*
X162162641Y-101346000D01*
X162180037Y-101169373D01*
X162231557Y-100999534D01*
X162315222Y-100843009D01*
X162362472Y-100785435D01*
X162427814Y-100705814D01*
X162563858Y-100594167D01*
X162565009Y-100593222D01*
X162721534Y-100509557D01*
X162891373Y-100458037D01*
X162957557Y-100451519D01*
X163023740Y-100445000D01*
X163112260Y-100445000D01*
X163178443Y-100451519D01*
X163178443Y-100451519D01*
G37*
G36*
X195107000Y-102143000D02*
G01*
X193005000Y-102143000D01*
X193005000Y-100041000D01*
X195107000Y-100041000D01*
X195107000Y-102143000D01*
X195107000Y-102143000D01*
G37*
G36*
X199362564Y-100081389D02*
G01*
X199553833Y-100160615D01*
X199553835Y-100160616D01*
X199656201Y-100229015D01*
X199725973Y-100275635D01*
X199872365Y-100422027D01*
X199987385Y-100594167D01*
X200066611Y-100785436D01*
X200107000Y-100988484D01*
X200107000Y-101195516D01*
X200066611Y-101398564D01*
X199987385Y-101589833D01*
X199987384Y-101589835D01*
X199872365Y-101761973D01*
X199725973Y-101908365D01*
X199553835Y-102023384D01*
X199553834Y-102023385D01*
X199553833Y-102023385D01*
X199362564Y-102102611D01*
X199159516Y-102143000D01*
X198952484Y-102143000D01*
X198749436Y-102102611D01*
X198558167Y-102023385D01*
X198558166Y-102023385D01*
X198558165Y-102023384D01*
X198386027Y-101908365D01*
X198239635Y-101761973D01*
X198124616Y-101589835D01*
X198124615Y-101589833D01*
X198045389Y-101398564D01*
X198005000Y-101195516D01*
X198005000Y-100988484D01*
X198045389Y-100785436D01*
X198124615Y-100594167D01*
X198239635Y-100422027D01*
X198386027Y-100275635D01*
X198455799Y-100229015D01*
X198558165Y-100160616D01*
X198558167Y-100160615D01*
X198749436Y-100081389D01*
X198952484Y-100041000D01*
X199159516Y-100041000D01*
X199362564Y-100081389D01*
X199362564Y-100081389D01*
G37*
G36*
X155614823Y-99491313D02*
G01*
X155775242Y-99539976D01*
X155907906Y-99610886D01*
X155923078Y-99618996D01*
X156052659Y-99725341D01*
X156159004Y-99854922D01*
X156159005Y-99854924D01*
X156238024Y-100002758D01*
X156286687Y-100163177D01*
X156303117Y-100330000D01*
X156286687Y-100496823D01*
X156238024Y-100657242D01*
X156212061Y-100705815D01*
X156159004Y-100805078D01*
X156052659Y-100934659D01*
X155923078Y-101041004D01*
X155923076Y-101041005D01*
X155775242Y-101120024D01*
X155614823Y-101168687D01*
X155489804Y-101181000D01*
X155406196Y-101181000D01*
X155281177Y-101168687D01*
X155120758Y-101120024D01*
X154972924Y-101041005D01*
X154972922Y-101041004D01*
X154843341Y-100934659D01*
X154736996Y-100805078D01*
X154683939Y-100705815D01*
X154657976Y-100657242D01*
X154609313Y-100496823D01*
X154592883Y-100330000D01*
X154609313Y-100163177D01*
X154657976Y-100002758D01*
X154736995Y-99854924D01*
X154736996Y-99854922D01*
X154843341Y-99725341D01*
X154972922Y-99618996D01*
X154988094Y-99610886D01*
X155120758Y-99539976D01*
X155281177Y-99491313D01*
X155406196Y-99479000D01*
X155489804Y-99479000D01*
X155614823Y-99491313D01*
X155614823Y-99491313D01*
G37*
G36*
X147994823Y-99491313D02*
G01*
X148155242Y-99539976D01*
X148287906Y-99610886D01*
X148303078Y-99618996D01*
X148432659Y-99725341D01*
X148539004Y-99854922D01*
X148539005Y-99854924D01*
X148618024Y-100002758D01*
X148666687Y-100163177D01*
X148683117Y-100330000D01*
X148666687Y-100496823D01*
X148618024Y-100657242D01*
X148592061Y-100705815D01*
X148539004Y-100805078D01*
X148432659Y-100934659D01*
X148303078Y-101041004D01*
X148303076Y-101041005D01*
X148155242Y-101120024D01*
X147994823Y-101168687D01*
X147869804Y-101181000D01*
X147786196Y-101181000D01*
X147661177Y-101168687D01*
X147500758Y-101120024D01*
X147352924Y-101041005D01*
X147352922Y-101041004D01*
X147223341Y-100934659D01*
X147116996Y-100805078D01*
X147063939Y-100705815D01*
X147037976Y-100657242D01*
X146989313Y-100496823D01*
X146972883Y-100330000D01*
X146989313Y-100163177D01*
X147037976Y-100002758D01*
X147116995Y-99854924D01*
X147116996Y-99854922D01*
X147223341Y-99725341D01*
X147352922Y-99618996D01*
X147368094Y-99610886D01*
X147500758Y-99539976D01*
X147661177Y-99491313D01*
X147786196Y-99479000D01*
X147869804Y-99479000D01*
X147994823Y-99491313D01*
X147994823Y-99491313D01*
G37*
G36*
X143758228Y-98749703D02*
G01*
X143913100Y-98813853D01*
X144052481Y-98906985D01*
X144171015Y-99025519D01*
X144264147Y-99164900D01*
X144328297Y-99319772D01*
X144361000Y-99484184D01*
X144361000Y-99651816D01*
X144328297Y-99816228D01*
X144264147Y-99971100D01*
X144171015Y-100110481D01*
X144052481Y-100229015D01*
X143913100Y-100322147D01*
X143758228Y-100386297D01*
X143593816Y-100419000D01*
X143426184Y-100419000D01*
X143261772Y-100386297D01*
X143106900Y-100322147D01*
X142967519Y-100229015D01*
X142848985Y-100110481D01*
X142755853Y-99971100D01*
X142691703Y-99816228D01*
X142659000Y-99651816D01*
X142659000Y-99484184D01*
X142691703Y-99319772D01*
X142755853Y-99164900D01*
X142848985Y-99025519D01*
X142967519Y-98906985D01*
X143106900Y-98813853D01*
X143261772Y-98749703D01*
X143426184Y-98717000D01*
X143593816Y-98717000D01*
X143758228Y-98749703D01*
X143758228Y-98749703D01*
G37*
G36*
X133516823Y-98729313D02*
G01*
X133677242Y-98777976D01*
X133809906Y-98848886D01*
X133825078Y-98856996D01*
X133954659Y-98963341D01*
X134061004Y-99092922D01*
X134061005Y-99092924D01*
X134140024Y-99240758D01*
X134188687Y-99401177D01*
X134205117Y-99568000D01*
X134188687Y-99734823D01*
X134140024Y-99895242D01*
X134099477Y-99971100D01*
X134061004Y-100043078D01*
X133954659Y-100172659D01*
X133825078Y-100279004D01*
X133825076Y-100279005D01*
X133677242Y-100358024D01*
X133516823Y-100406687D01*
X133391804Y-100419000D01*
X133308196Y-100419000D01*
X133183177Y-100406687D01*
X133022758Y-100358024D01*
X132874924Y-100279005D01*
X132874922Y-100279004D01*
X132745341Y-100172659D01*
X132638996Y-100043078D01*
X132600523Y-99971100D01*
X132559976Y-99895242D01*
X132511313Y-99734823D01*
X132494883Y-99568000D01*
X132511313Y-99401177D01*
X132559976Y-99240758D01*
X132638995Y-99092924D01*
X132638996Y-99092922D01*
X132745341Y-98963341D01*
X132874922Y-98856996D01*
X132890094Y-98848886D01*
X133022758Y-98777976D01*
X133183177Y-98729313D01*
X133308196Y-98717000D01*
X133391804Y-98717000D01*
X133516823Y-98729313D01*
X133516823Y-98729313D01*
G37*
G36*
X160638442Y-97911518D02*
G01*
X160704627Y-97918037D01*
X160874466Y-97969557D01*
X161030991Y-98053222D01*
X161047661Y-98066903D01*
X161168186Y-98165814D01*
X161249647Y-98265076D01*
X161280778Y-98303009D01*
X161364443Y-98459534D01*
X161415963Y-98629373D01*
X161433359Y-98806000D01*
X161415963Y-98982627D01*
X161364443Y-99152466D01*
X161280778Y-99308991D01*
X161271931Y-99319771D01*
X161168186Y-99446186D01*
X161066729Y-99529448D01*
X161030991Y-99558778D01*
X160874466Y-99642443D01*
X160704627Y-99693963D01*
X160638442Y-99700482D01*
X160572260Y-99707000D01*
X160483740Y-99707000D01*
X160417558Y-99700482D01*
X160351373Y-99693963D01*
X160181534Y-99642443D01*
X160025009Y-99558778D01*
X159989271Y-99529448D01*
X159887814Y-99446186D01*
X159784069Y-99319771D01*
X159775222Y-99308991D01*
X159691557Y-99152466D01*
X159640037Y-98982627D01*
X159622641Y-98806000D01*
X159640037Y-98629373D01*
X159691557Y-98459534D01*
X159775222Y-98303009D01*
X159806353Y-98265076D01*
X159887814Y-98165814D01*
X160008339Y-98066903D01*
X160025009Y-98053222D01*
X160181534Y-97969557D01*
X160351373Y-97918037D01*
X160417558Y-97911518D01*
X160483740Y-97905000D01*
X160572260Y-97905000D01*
X160638442Y-97911518D01*
X160638442Y-97911518D01*
G37*
G36*
X163969000Y-99707000D02*
G01*
X162167000Y-99707000D01*
X162167000Y-97905000D01*
X163969000Y-97905000D01*
X163969000Y-99707000D01*
X163969000Y-99707000D01*
G37*
G36*
X190943000Y-99249000D02*
G01*
X189041000Y-99249000D01*
X189041000Y-97347000D01*
X190943000Y-97347000D01*
X190943000Y-99249000D01*
X190943000Y-99249000D01*
G37*
G36*
X203386425Y-97360760D02*
G01*
X203386428Y-97360761D01*
X203386429Y-97360761D01*
X203565693Y-97415140D01*
X203565696Y-97415142D01*
X203565697Y-97415142D01*
X203730903Y-97503446D01*
X203875712Y-97622288D01*
X203994554Y-97767097D01*
X204082858Y-97932303D01*
X204082860Y-97932307D01*
X204119539Y-98053222D01*
X204137240Y-98111575D01*
X204155601Y-98298000D01*
X204137240Y-98484425D01*
X204137239Y-98484428D01*
X204137239Y-98484429D01*
X204082860Y-98663693D01*
X204082858Y-98663696D01*
X204082858Y-98663697D01*
X203994554Y-98828903D01*
X203875712Y-98973712D01*
X203730903Y-99092554D01*
X203565697Y-99180858D01*
X203565693Y-99180860D01*
X203386429Y-99235239D01*
X203386428Y-99235239D01*
X203386425Y-99235240D01*
X203246718Y-99249000D01*
X203153282Y-99249000D01*
X203013575Y-99235240D01*
X203013572Y-99235239D01*
X203013571Y-99235239D01*
X202834307Y-99180860D01*
X202834303Y-99180858D01*
X202669097Y-99092554D01*
X202524288Y-98973712D01*
X202405446Y-98828903D01*
X202317142Y-98663697D01*
X202317142Y-98663696D01*
X202317140Y-98663693D01*
X202262761Y-98484429D01*
X202262761Y-98484428D01*
X202262760Y-98484425D01*
X202244399Y-98298000D01*
X202262760Y-98111575D01*
X202280461Y-98053222D01*
X202317140Y-97932307D01*
X202317142Y-97932303D01*
X202405446Y-97767097D01*
X202524288Y-97622288D01*
X202669097Y-97503446D01*
X202834303Y-97415142D01*
X202834304Y-97415142D01*
X202834307Y-97415140D01*
X203013571Y-97360761D01*
X203013572Y-97360761D01*
X203013575Y-97360760D01*
X203153282Y-97347000D01*
X203246718Y-97347000D01*
X203386425Y-97360760D01*
X203386425Y-97360760D01*
G37*
G36*
X211771000Y-99249000D02*
G01*
X209869000Y-99249000D01*
X209869000Y-97347000D01*
X211771000Y-97347000D01*
X211771000Y-99249000D01*
X211771000Y-99249000D01*
G37*
G36*
X182558425Y-97360760D02*
G01*
X182558428Y-97360761D01*
X182558429Y-97360761D01*
X182737693Y-97415140D01*
X182737696Y-97415142D01*
X182737697Y-97415142D01*
X182902903Y-97503446D01*
X183047712Y-97622288D01*
X183166554Y-97767097D01*
X183254858Y-97932303D01*
X183254860Y-97932307D01*
X183291539Y-98053222D01*
X183309240Y-98111575D01*
X183327601Y-98298000D01*
X183309240Y-98484425D01*
X183309239Y-98484428D01*
X183309239Y-98484429D01*
X183254860Y-98663693D01*
X183254858Y-98663696D01*
X183254858Y-98663697D01*
X183166554Y-98828903D01*
X183047712Y-98973712D01*
X182902903Y-99092554D01*
X182737697Y-99180858D01*
X182737693Y-99180860D01*
X182558429Y-99235239D01*
X182558428Y-99235239D01*
X182558425Y-99235240D01*
X182418718Y-99249000D01*
X182325282Y-99249000D01*
X182185575Y-99235240D01*
X182185572Y-99235239D01*
X182185571Y-99235239D01*
X182006307Y-99180860D01*
X182006303Y-99180858D01*
X181841097Y-99092554D01*
X181696288Y-98973712D01*
X181577446Y-98828903D01*
X181489142Y-98663697D01*
X181489142Y-98663696D01*
X181489140Y-98663693D01*
X181434761Y-98484429D01*
X181434761Y-98484428D01*
X181434760Y-98484425D01*
X181416399Y-98298000D01*
X181434760Y-98111575D01*
X181452461Y-98053222D01*
X181489140Y-97932307D01*
X181489142Y-97932303D01*
X181577446Y-97767097D01*
X181696288Y-97622288D01*
X181841097Y-97503446D01*
X182006303Y-97415142D01*
X182006304Y-97415142D01*
X182006307Y-97415140D01*
X182185571Y-97360761D01*
X182185572Y-97360761D01*
X182185575Y-97360760D01*
X182325282Y-97347000D01*
X182418718Y-97347000D01*
X182558425Y-97360760D01*
X182558425Y-97360760D01*
G37*
G36*
X155614823Y-96951313D02*
G01*
X155775242Y-96999976D01*
X155893151Y-97063000D01*
X155923078Y-97078996D01*
X156052659Y-97185341D01*
X156159004Y-97314922D01*
X156159005Y-97314924D01*
X156238024Y-97462758D01*
X156286687Y-97623177D01*
X156303117Y-97790000D01*
X156286687Y-97956823D01*
X156238024Y-98117242D01*
X156212061Y-98165815D01*
X156159004Y-98265078D01*
X156052659Y-98394659D01*
X155923078Y-98501004D01*
X155923076Y-98501005D01*
X155775242Y-98580024D01*
X155614823Y-98628687D01*
X155489804Y-98641000D01*
X155406196Y-98641000D01*
X155281177Y-98628687D01*
X155120758Y-98580024D01*
X154972924Y-98501005D01*
X154972922Y-98501004D01*
X154843341Y-98394659D01*
X154736996Y-98265078D01*
X154683939Y-98165815D01*
X154657976Y-98117242D01*
X154609313Y-97956823D01*
X154592883Y-97790000D01*
X154609313Y-97623177D01*
X154657976Y-97462758D01*
X154736995Y-97314924D01*
X154736996Y-97314922D01*
X154843341Y-97185341D01*
X154972922Y-97078996D01*
X155002849Y-97063000D01*
X155120758Y-96999976D01*
X155281177Y-96951313D01*
X155406196Y-96939000D01*
X155489804Y-96939000D01*
X155614823Y-96951313D01*
X155614823Y-96951313D01*
G37*
G36*
X147994823Y-96951313D02*
G01*
X148155242Y-96999976D01*
X148273151Y-97063000D01*
X148303078Y-97078996D01*
X148432659Y-97185341D01*
X148539004Y-97314922D01*
X148539005Y-97314924D01*
X148618024Y-97462758D01*
X148666687Y-97623177D01*
X148683117Y-97790000D01*
X148666687Y-97956823D01*
X148618024Y-98117242D01*
X148592061Y-98165815D01*
X148539004Y-98265078D01*
X148432659Y-98394659D01*
X148303078Y-98501004D01*
X148303076Y-98501005D01*
X148155242Y-98580024D01*
X147994823Y-98628687D01*
X147869804Y-98641000D01*
X147786196Y-98641000D01*
X147661177Y-98628687D01*
X147500758Y-98580024D01*
X147352924Y-98501005D01*
X147352922Y-98501004D01*
X147223341Y-98394659D01*
X147116996Y-98265078D01*
X147063939Y-98165815D01*
X147037976Y-98117242D01*
X146989313Y-97956823D01*
X146972883Y-97790000D01*
X146989313Y-97623177D01*
X147037976Y-97462758D01*
X147116995Y-97314924D01*
X147116996Y-97314922D01*
X147223341Y-97185341D01*
X147352922Y-97078996D01*
X147382849Y-97063000D01*
X147500758Y-96999976D01*
X147661177Y-96951313D01*
X147786196Y-96939000D01*
X147869804Y-96939000D01*
X147994823Y-96951313D01*
X147994823Y-96951313D01*
G37*
G36*
X95944425Y-96598760D02*
G01*
X95944428Y-96598761D01*
X95944429Y-96598761D01*
X96123693Y-96653140D01*
X96123696Y-96653142D01*
X96123697Y-96653142D01*
X96288903Y-96741446D01*
X96433712Y-96860288D01*
X96552554Y-97005097D01*
X96640858Y-97170303D01*
X96640860Y-97170307D01*
X96684728Y-97314922D01*
X96695240Y-97349575D01*
X96713601Y-97536000D01*
X96695240Y-97722425D01*
X96695239Y-97722428D01*
X96695239Y-97722429D01*
X96640860Y-97901693D01*
X96640858Y-97901696D01*
X96640858Y-97901697D01*
X96552554Y-98066903D01*
X96433712Y-98211712D01*
X96288903Y-98330554D01*
X96168970Y-98394659D01*
X96123693Y-98418860D01*
X95944429Y-98473239D01*
X95944428Y-98473239D01*
X95944425Y-98473240D01*
X95804718Y-98487000D01*
X95711282Y-98487000D01*
X95571575Y-98473240D01*
X95571572Y-98473239D01*
X95571571Y-98473239D01*
X95392307Y-98418860D01*
X95347030Y-98394659D01*
X95227097Y-98330554D01*
X95082288Y-98211712D01*
X94963446Y-98066903D01*
X94875142Y-97901697D01*
X94875142Y-97901696D01*
X94875140Y-97901693D01*
X94820761Y-97722429D01*
X94820761Y-97722428D01*
X94820760Y-97722425D01*
X94802399Y-97536000D01*
X94820760Y-97349575D01*
X94831272Y-97314922D01*
X94875140Y-97170307D01*
X94875142Y-97170303D01*
X94963446Y-97005097D01*
X95082288Y-96860288D01*
X95227097Y-96741446D01*
X95392303Y-96653142D01*
X95392304Y-96653142D01*
X95392307Y-96653140D01*
X95571571Y-96598761D01*
X95571572Y-96598761D01*
X95571575Y-96598760D01*
X95711282Y-96585000D01*
X95804718Y-96585000D01*
X95944425Y-96598760D01*
X95944425Y-96598760D01*
G37*
G36*
X104329000Y-98487000D02*
G01*
X102427000Y-98487000D01*
X102427000Y-96585000D01*
X104329000Y-96585000D01*
X104329000Y-98487000D01*
X104329000Y-98487000D01*
G37*
G36*
X117026425Y-96598760D02*
G01*
X117026428Y-96598761D01*
X117026429Y-96598761D01*
X117205693Y-96653140D01*
X117205696Y-96653142D01*
X117205697Y-96653142D01*
X117370903Y-96741446D01*
X117515712Y-96860288D01*
X117634554Y-97005097D01*
X117722858Y-97170303D01*
X117722860Y-97170307D01*
X117766728Y-97314922D01*
X117777240Y-97349575D01*
X117795601Y-97536000D01*
X117777240Y-97722425D01*
X117777239Y-97722428D01*
X117777239Y-97722429D01*
X117722860Y-97901693D01*
X117722858Y-97901696D01*
X117722858Y-97901697D01*
X117634554Y-98066903D01*
X117515712Y-98211712D01*
X117370903Y-98330554D01*
X117250970Y-98394659D01*
X117205693Y-98418860D01*
X117026429Y-98473239D01*
X117026428Y-98473239D01*
X117026425Y-98473240D01*
X116886718Y-98487000D01*
X116793282Y-98487000D01*
X116653575Y-98473240D01*
X116653572Y-98473239D01*
X116653571Y-98473239D01*
X116474307Y-98418860D01*
X116429030Y-98394659D01*
X116309097Y-98330554D01*
X116164288Y-98211712D01*
X116045446Y-98066903D01*
X115957142Y-97901697D01*
X115957142Y-97901696D01*
X115957140Y-97901693D01*
X115902761Y-97722429D01*
X115902761Y-97722428D01*
X115902760Y-97722425D01*
X115884399Y-97536000D01*
X115902760Y-97349575D01*
X115913272Y-97314922D01*
X115957140Y-97170307D01*
X115957142Y-97170303D01*
X116045446Y-97005097D01*
X116164288Y-96860288D01*
X116309097Y-96741446D01*
X116474303Y-96653142D01*
X116474304Y-96653142D01*
X116474307Y-96653140D01*
X116653571Y-96598761D01*
X116653572Y-96598761D01*
X116653575Y-96598760D01*
X116793282Y-96585000D01*
X116886718Y-96585000D01*
X117026425Y-96598760D01*
X117026425Y-96598760D01*
G37*
G36*
X125411000Y-98487000D02*
G01*
X123509000Y-98487000D01*
X123509000Y-96585000D01*
X125411000Y-96585000D01*
X125411000Y-98487000D01*
X125411000Y-98487000D01*
G37*
G36*
X172501000Y-97063000D02*
G01*
X170399000Y-97063000D01*
X170399000Y-94961000D01*
X172501000Y-94961000D01*
X172501000Y-97063000D01*
X172501000Y-97063000D01*
G37*
G36*
X176756564Y-95001389D02*
G01*
X176920376Y-95069242D01*
X176947835Y-95080616D01*
X177119973Y-95195635D01*
X177266365Y-95342027D01*
X177369345Y-95496147D01*
X177381385Y-95514167D01*
X177460611Y-95705436D01*
X177501000Y-95908484D01*
X177501000Y-96115516D01*
X177460611Y-96318564D01*
X177381385Y-96509833D01*
X177381384Y-96509835D01*
X177266365Y-96681973D01*
X177119973Y-96828365D01*
X176947835Y-96943384D01*
X176947834Y-96943385D01*
X176947833Y-96943385D01*
X176756564Y-97022611D01*
X176553516Y-97063000D01*
X176346484Y-97063000D01*
X176143436Y-97022611D01*
X175952167Y-96943385D01*
X175952166Y-96943385D01*
X175952165Y-96943384D01*
X175780027Y-96828365D01*
X175633635Y-96681973D01*
X175518616Y-96509835D01*
X175518615Y-96509833D01*
X175439389Y-96318564D01*
X175399000Y-96115516D01*
X175399000Y-95908484D01*
X175439389Y-95705436D01*
X175518615Y-95514167D01*
X175530656Y-95496147D01*
X175633635Y-95342027D01*
X175780027Y-95195635D01*
X175952165Y-95080616D01*
X175979624Y-95069242D01*
X176143436Y-95001389D01*
X176346484Y-94961000D01*
X176553516Y-94961000D01*
X176756564Y-95001389D01*
X176756564Y-95001389D01*
G37*
G36*
X129729000Y-96709000D02*
G01*
X127827000Y-96709000D01*
X127827000Y-94807000D01*
X129729000Y-94807000D01*
X129729000Y-96709000D01*
X129729000Y-96709000D01*
G37*
G36*
X155614823Y-94411313D02*
G01*
X155775242Y-94459976D01*
X155907906Y-94530886D01*
X155923078Y-94538996D01*
X156052659Y-94645341D01*
X156159004Y-94774922D01*
X156159005Y-94774924D01*
X156238024Y-94922758D01*
X156286687Y-95083177D01*
X156303117Y-95250000D01*
X156286687Y-95416823D01*
X156238024Y-95577242D01*
X156229601Y-95593000D01*
X156159004Y-95725078D01*
X156052659Y-95854659D01*
X155923078Y-95961004D01*
X155923076Y-95961005D01*
X155775242Y-96040024D01*
X155614823Y-96088687D01*
X155489804Y-96101000D01*
X155406196Y-96101000D01*
X155281177Y-96088687D01*
X155120758Y-96040024D01*
X154972924Y-95961005D01*
X154972922Y-95961004D01*
X154843341Y-95854659D01*
X154736996Y-95725078D01*
X154666399Y-95593000D01*
X154657976Y-95577242D01*
X154609313Y-95416823D01*
X154592883Y-95250000D01*
X154609313Y-95083177D01*
X154657976Y-94922758D01*
X154736995Y-94774924D01*
X154736996Y-94774922D01*
X154843341Y-94645341D01*
X154972922Y-94538996D01*
X154988094Y-94530886D01*
X155120758Y-94459976D01*
X155281177Y-94411313D01*
X155406196Y-94399000D01*
X155489804Y-94399000D01*
X155614823Y-94411313D01*
X155614823Y-94411313D01*
G37*
G36*
X147994823Y-94411313D02*
G01*
X148155242Y-94459976D01*
X148287906Y-94530886D01*
X148303078Y-94538996D01*
X148432659Y-94645341D01*
X148539004Y-94774922D01*
X148539005Y-94774924D01*
X148618024Y-94922758D01*
X148666687Y-95083177D01*
X148683117Y-95250000D01*
X148666687Y-95416823D01*
X148618024Y-95577242D01*
X148609601Y-95593000D01*
X148539004Y-95725078D01*
X148432659Y-95854659D01*
X148303078Y-95961004D01*
X148303076Y-95961005D01*
X148155242Y-96040024D01*
X147994823Y-96088687D01*
X147869804Y-96101000D01*
X147786196Y-96101000D01*
X147661177Y-96088687D01*
X147500758Y-96040024D01*
X147352924Y-95961005D01*
X147352922Y-95961004D01*
X147223341Y-95854659D01*
X147116996Y-95725078D01*
X147046399Y-95593000D01*
X147037976Y-95577242D01*
X146989313Y-95416823D01*
X146972883Y-95250000D01*
X146989313Y-95083177D01*
X147037976Y-94922758D01*
X147116995Y-94774924D01*
X147116996Y-94774922D01*
X147223341Y-94645341D01*
X147352922Y-94538996D01*
X147368094Y-94530886D01*
X147500758Y-94459976D01*
X147661177Y-94411313D01*
X147786196Y-94399000D01*
X147869804Y-94399000D01*
X147994823Y-94411313D01*
X147994823Y-94411313D01*
G37*
G36*
X160014228Y-93923703D02*
G01*
X160169100Y-93987853D01*
X160308481Y-94080985D01*
X160427015Y-94199519D01*
X160520147Y-94338900D01*
X160584297Y-94493772D01*
X160617000Y-94658184D01*
X160617000Y-94825816D01*
X160584297Y-94990228D01*
X160520147Y-95145100D01*
X160427015Y-95284481D01*
X160308481Y-95403015D01*
X160169100Y-95496147D01*
X160014228Y-95560297D01*
X159849816Y-95593000D01*
X159682184Y-95593000D01*
X159517772Y-95560297D01*
X159362900Y-95496147D01*
X159223519Y-95403015D01*
X159104985Y-95284481D01*
X159011853Y-95145100D01*
X158947703Y-94990228D01*
X158915000Y-94825816D01*
X158915000Y-94658184D01*
X158947703Y-94493772D01*
X159011853Y-94338900D01*
X159104985Y-94199519D01*
X159223519Y-94080985D01*
X159362900Y-93987853D01*
X159517772Y-93923703D01*
X159682184Y-93891000D01*
X159849816Y-93891000D01*
X160014228Y-93923703D01*
X160014228Y-93923703D01*
G37*
G36*
X163742823Y-93903313D02*
G01*
X163903242Y-93951976D01*
X163970361Y-93987852D01*
X164051078Y-94030996D01*
X164180659Y-94137341D01*
X164287004Y-94266922D01*
X164287005Y-94266924D01*
X164366024Y-94414758D01*
X164414687Y-94575177D01*
X164431117Y-94742000D01*
X164414687Y-94908823D01*
X164366024Y-95069242D01*
X164325477Y-95145100D01*
X164287004Y-95217078D01*
X164180659Y-95346659D01*
X164051078Y-95453004D01*
X164051076Y-95453005D01*
X163903242Y-95532024D01*
X163742823Y-95580687D01*
X163617804Y-95593000D01*
X163534196Y-95593000D01*
X163409177Y-95580687D01*
X163248758Y-95532024D01*
X163100924Y-95453005D01*
X163100922Y-95453004D01*
X162971341Y-95346659D01*
X162864996Y-95217078D01*
X162826523Y-95145100D01*
X162785976Y-95069242D01*
X162737313Y-94908823D01*
X162720883Y-94742000D01*
X162737313Y-94575177D01*
X162785976Y-94414758D01*
X162864995Y-94266924D01*
X162864996Y-94266922D01*
X162971341Y-94137341D01*
X163100922Y-94030996D01*
X163181639Y-93987852D01*
X163248758Y-93951976D01*
X163409177Y-93903313D01*
X163534196Y-93891000D01*
X163617804Y-93891000D01*
X163742823Y-93903313D01*
X163742823Y-93903313D01*
G37*
G36*
X108963143Y-92390087D02*
G01*
X109119838Y-92454992D01*
X109260853Y-92549215D01*
X109380785Y-92669147D01*
X109475008Y-92810162D01*
X109539913Y-92966857D01*
X109573000Y-93133198D01*
X109573000Y-93302802D01*
X109539913Y-93469143D01*
X109475008Y-93625838D01*
X109380785Y-93766853D01*
X109260853Y-93886785D01*
X109119838Y-93981008D01*
X108963143Y-94045913D01*
X108796802Y-94079000D01*
X108627198Y-94079000D01*
X108460857Y-94045913D01*
X108304162Y-93981008D01*
X108163147Y-93886785D01*
X108043215Y-93766853D01*
X107948992Y-93625838D01*
X107884087Y-93469143D01*
X107851000Y-93302802D01*
X107851000Y-93133198D01*
X107884087Y-92966857D01*
X107948992Y-92810162D01*
X108043215Y-92669147D01*
X108163147Y-92549215D01*
X108304162Y-92454992D01*
X108460857Y-92390087D01*
X108627198Y-92357000D01*
X108796802Y-92357000D01*
X108963143Y-92390087D01*
X108963143Y-92390087D01*
G37*
G36*
X101953000Y-94079000D02*
G01*
X100231000Y-94079000D01*
X100231000Y-92357000D01*
X101953000Y-92357000D01*
X101953000Y-94079000D01*
X101953000Y-94079000D01*
G37*
G36*
X106423143Y-92390087D02*
G01*
X106579838Y-92454992D01*
X106720853Y-92549215D01*
X106840785Y-92669147D01*
X106935008Y-92810162D01*
X106999913Y-92966857D01*
X107033000Y-93133198D01*
X107033000Y-93302802D01*
X106999913Y-93469143D01*
X106935008Y-93625838D01*
X106840785Y-93766853D01*
X106720853Y-93886785D01*
X106579838Y-93981008D01*
X106423143Y-94045913D01*
X106256802Y-94079000D01*
X106087198Y-94079000D01*
X105920857Y-94045913D01*
X105764162Y-93981008D01*
X105623147Y-93886785D01*
X105503215Y-93766853D01*
X105408992Y-93625838D01*
X105344087Y-93469143D01*
X105311000Y-93302802D01*
X105311000Y-93133198D01*
X105344087Y-92966857D01*
X105408992Y-92810162D01*
X105503215Y-92669147D01*
X105623147Y-92549215D01*
X105764162Y-92454992D01*
X105920857Y-92390087D01*
X106087198Y-92357000D01*
X106256802Y-92357000D01*
X106423143Y-92390087D01*
X106423143Y-92390087D01*
G37*
G36*
X119123143Y-92390087D02*
G01*
X119279838Y-92454992D01*
X119420853Y-92549215D01*
X119540785Y-92669147D01*
X119635008Y-92810162D01*
X119699913Y-92966857D01*
X119733000Y-93133198D01*
X119733000Y-93302802D01*
X119699913Y-93469143D01*
X119635008Y-93625838D01*
X119540785Y-93766853D01*
X119420853Y-93886785D01*
X119279838Y-93981008D01*
X119123143Y-94045913D01*
X118956802Y-94079000D01*
X118787198Y-94079000D01*
X118620857Y-94045913D01*
X118464162Y-93981008D01*
X118323147Y-93886785D01*
X118203215Y-93766853D01*
X118108992Y-93625838D01*
X118044087Y-93469143D01*
X118011000Y-93302802D01*
X118011000Y-93133198D01*
X118044087Y-92966857D01*
X118108992Y-92810162D01*
X118203215Y-92669147D01*
X118323147Y-92549215D01*
X118464162Y-92454992D01*
X118620857Y-92390087D01*
X118787198Y-92357000D01*
X118956802Y-92357000D01*
X119123143Y-92390087D01*
X119123143Y-92390087D01*
G37*
G36*
X116583143Y-92390087D02*
G01*
X116739838Y-92454992D01*
X116880853Y-92549215D01*
X117000785Y-92669147D01*
X117095008Y-92810162D01*
X117159913Y-92966857D01*
X117193000Y-93133198D01*
X117193000Y-93302802D01*
X117159913Y-93469143D01*
X117095008Y-93625838D01*
X117000785Y-93766853D01*
X116880853Y-93886785D01*
X116739838Y-93981008D01*
X116583143Y-94045913D01*
X116416802Y-94079000D01*
X116247198Y-94079000D01*
X116080857Y-94045913D01*
X115924162Y-93981008D01*
X115783147Y-93886785D01*
X115663215Y-93766853D01*
X115568992Y-93625838D01*
X115504087Y-93469143D01*
X115471000Y-93302802D01*
X115471000Y-93133198D01*
X115504087Y-92966857D01*
X115568992Y-92810162D01*
X115663215Y-92669147D01*
X115783147Y-92549215D01*
X115924162Y-92454992D01*
X116080857Y-92390087D01*
X116247198Y-92357000D01*
X116416802Y-92357000D01*
X116583143Y-92390087D01*
X116583143Y-92390087D01*
G37*
G36*
X111503143Y-92390087D02*
G01*
X111659838Y-92454992D01*
X111800853Y-92549215D01*
X111920785Y-92669147D01*
X112015008Y-92810162D01*
X112079913Y-92966857D01*
X112113000Y-93133198D01*
X112113000Y-93302802D01*
X112079913Y-93469143D01*
X112015008Y-93625838D01*
X111920785Y-93766853D01*
X111800853Y-93886785D01*
X111659838Y-93981008D01*
X111503143Y-94045913D01*
X111336802Y-94079000D01*
X111167198Y-94079000D01*
X111000857Y-94045913D01*
X110844162Y-93981008D01*
X110703147Y-93886785D01*
X110583215Y-93766853D01*
X110488992Y-93625838D01*
X110424087Y-93469143D01*
X110391000Y-93302802D01*
X110391000Y-93133198D01*
X110424087Y-92966857D01*
X110488992Y-92810162D01*
X110583215Y-92669147D01*
X110703147Y-92549215D01*
X110844162Y-92454992D01*
X111000857Y-92390087D01*
X111167198Y-92357000D01*
X111336802Y-92357000D01*
X111503143Y-92390087D01*
X111503143Y-92390087D01*
G37*
G36*
X114043143Y-92390087D02*
G01*
X114199838Y-92454992D01*
X114340853Y-92549215D01*
X114460785Y-92669147D01*
X114555008Y-92810162D01*
X114619913Y-92966857D01*
X114653000Y-93133198D01*
X114653000Y-93302802D01*
X114619913Y-93469143D01*
X114555008Y-93625838D01*
X114460785Y-93766853D01*
X114340853Y-93886785D01*
X114199838Y-93981008D01*
X114043143Y-94045913D01*
X113876802Y-94079000D01*
X113707198Y-94079000D01*
X113540857Y-94045913D01*
X113384162Y-93981008D01*
X113243147Y-93886785D01*
X113123215Y-93766853D01*
X113028992Y-93625838D01*
X112964087Y-93469143D01*
X112931000Y-93302802D01*
X112931000Y-93133198D01*
X112964087Y-92966857D01*
X113028992Y-92810162D01*
X113123215Y-92669147D01*
X113243147Y-92549215D01*
X113384162Y-92454992D01*
X113540857Y-92390087D01*
X113707198Y-92357000D01*
X113876802Y-92357000D01*
X114043143Y-92390087D01*
X114043143Y-92390087D01*
G37*
G36*
X103883143Y-92390087D02*
G01*
X104039838Y-92454992D01*
X104180853Y-92549215D01*
X104300785Y-92669147D01*
X104395008Y-92810162D01*
X104459913Y-92966857D01*
X104493000Y-93133198D01*
X104493000Y-93302802D01*
X104459913Y-93469143D01*
X104395008Y-93625838D01*
X104300785Y-93766853D01*
X104180853Y-93886785D01*
X104039838Y-93981008D01*
X103883143Y-94045913D01*
X103716802Y-94079000D01*
X103547198Y-94079000D01*
X103380857Y-94045913D01*
X103224162Y-93981008D01*
X103083147Y-93886785D01*
X102963215Y-93766853D01*
X102868992Y-93625838D01*
X102804087Y-93469143D01*
X102771000Y-93302802D01*
X102771000Y-93133198D01*
X102804087Y-92966857D01*
X102868992Y-92810162D01*
X102963215Y-92669147D01*
X103083147Y-92549215D01*
X103224162Y-92454992D01*
X103380857Y-92390087D01*
X103547198Y-92357000D01*
X103716802Y-92357000D01*
X103883143Y-92390087D01*
X103883143Y-92390087D01*
G37*
G36*
X137114228Y-92399703D02*
G01*
X137269100Y-92463853D01*
X137408481Y-92556985D01*
X137527015Y-92675519D01*
X137620147Y-92814900D01*
X137684297Y-92969772D01*
X137717000Y-93134184D01*
X137717000Y-93301816D01*
X137684297Y-93466228D01*
X137620147Y-93621100D01*
X137527015Y-93760481D01*
X137408481Y-93879015D01*
X137269100Y-93972147D01*
X137114228Y-94036297D01*
X136949816Y-94069000D01*
X136782184Y-94069000D01*
X136617772Y-94036297D01*
X136462900Y-93972147D01*
X136323519Y-93879015D01*
X136204985Y-93760481D01*
X136111853Y-93621100D01*
X136047703Y-93466228D01*
X136015000Y-93301816D01*
X136015000Y-93134184D01*
X136047703Y-92969772D01*
X136111853Y-92814900D01*
X136204985Y-92675519D01*
X136323519Y-92556985D01*
X136462900Y-92463853D01*
X136617772Y-92399703D01*
X136782184Y-92367000D01*
X136949816Y-92367000D01*
X137114228Y-92399703D01*
X137114228Y-92399703D01*
G37*
G36*
X134614228Y-92399703D02*
G01*
X134769100Y-92463853D01*
X134908481Y-92556985D01*
X135027015Y-92675519D01*
X135120147Y-92814900D01*
X135184297Y-92969772D01*
X135217000Y-93134184D01*
X135217000Y-93301816D01*
X135184297Y-93466228D01*
X135120147Y-93621100D01*
X135027015Y-93760481D01*
X134908481Y-93879015D01*
X134769100Y-93972147D01*
X134614228Y-94036297D01*
X134449816Y-94069000D01*
X134282184Y-94069000D01*
X134117772Y-94036297D01*
X133962900Y-93972147D01*
X133823519Y-93879015D01*
X133704985Y-93760481D01*
X133611853Y-93621100D01*
X133547703Y-93466228D01*
X133515000Y-93301816D01*
X133515000Y-93134184D01*
X133547703Y-92969772D01*
X133611853Y-92814900D01*
X133704985Y-92675519D01*
X133823519Y-92556985D01*
X133962900Y-92463853D01*
X134117772Y-92399703D01*
X134282184Y-92367000D01*
X134449816Y-92367000D01*
X134614228Y-92399703D01*
X134614228Y-92399703D01*
G37*
G36*
X198117143Y-92136087D02*
G01*
X198273838Y-92200992D01*
X198414853Y-92295215D01*
X198534785Y-92415147D01*
X198629008Y-92556162D01*
X198693913Y-92712857D01*
X198727000Y-92879198D01*
X198727000Y-93048802D01*
X198693913Y-93215143D01*
X198629008Y-93371838D01*
X198534785Y-93512853D01*
X198414853Y-93632785D01*
X198273838Y-93727008D01*
X198117143Y-93791913D01*
X197950802Y-93825000D01*
X197781198Y-93825000D01*
X197614857Y-93791913D01*
X197458162Y-93727008D01*
X197317147Y-93632785D01*
X197197215Y-93512853D01*
X197102992Y-93371838D01*
X197038087Y-93215143D01*
X197005000Y-93048802D01*
X197005000Y-92879198D01*
X197038087Y-92712857D01*
X197102992Y-92556162D01*
X197197215Y-92415147D01*
X197317147Y-92295215D01*
X197458162Y-92200992D01*
X197614857Y-92136087D01*
X197781198Y-92103000D01*
X197950802Y-92103000D01*
X198117143Y-92136087D01*
X198117143Y-92136087D01*
G37*
G36*
X193037143Y-92136087D02*
G01*
X193193838Y-92200992D01*
X193334853Y-92295215D01*
X193454785Y-92415147D01*
X193549008Y-92556162D01*
X193613913Y-92712857D01*
X193647000Y-92879198D01*
X193647000Y-93048802D01*
X193613913Y-93215143D01*
X193549008Y-93371838D01*
X193454785Y-93512853D01*
X193334853Y-93632785D01*
X193193838Y-93727008D01*
X193037143Y-93791913D01*
X192870802Y-93825000D01*
X192701198Y-93825000D01*
X192534857Y-93791913D01*
X192378162Y-93727008D01*
X192237147Y-93632785D01*
X192117215Y-93512853D01*
X192022992Y-93371838D01*
X191958087Y-93215143D01*
X191925000Y-93048802D01*
X191925000Y-92879198D01*
X191958087Y-92712857D01*
X192022992Y-92556162D01*
X192117215Y-92415147D01*
X192237147Y-92295215D01*
X192378162Y-92200992D01*
X192534857Y-92136087D01*
X192701198Y-92103000D01*
X192870802Y-92103000D01*
X193037143Y-92136087D01*
X193037143Y-92136087D01*
G37*
G36*
X190497143Y-92136087D02*
G01*
X190653838Y-92200992D01*
X190794853Y-92295215D01*
X190914785Y-92415147D01*
X191009008Y-92556162D01*
X191073913Y-92712857D01*
X191107000Y-92879198D01*
X191107000Y-93048802D01*
X191073913Y-93215143D01*
X191009008Y-93371838D01*
X190914785Y-93512853D01*
X190794853Y-93632785D01*
X190653838Y-93727008D01*
X190497143Y-93791913D01*
X190330802Y-93825000D01*
X190161198Y-93825000D01*
X189994857Y-93791913D01*
X189838162Y-93727008D01*
X189697147Y-93632785D01*
X189577215Y-93512853D01*
X189482992Y-93371838D01*
X189418087Y-93215143D01*
X189385000Y-93048802D01*
X189385000Y-92879198D01*
X189418087Y-92712857D01*
X189482992Y-92556162D01*
X189577215Y-92415147D01*
X189697147Y-92295215D01*
X189838162Y-92200992D01*
X189994857Y-92136087D01*
X190161198Y-92103000D01*
X190330802Y-92103000D01*
X190497143Y-92136087D01*
X190497143Y-92136087D01*
G37*
G36*
X205737143Y-92136087D02*
G01*
X205893838Y-92200992D01*
X206034853Y-92295215D01*
X206154785Y-92415147D01*
X206249008Y-92556162D01*
X206313913Y-92712857D01*
X206347000Y-92879198D01*
X206347000Y-93048802D01*
X206313913Y-93215143D01*
X206249008Y-93371838D01*
X206154785Y-93512853D01*
X206034853Y-93632785D01*
X205893838Y-93727008D01*
X205737143Y-93791913D01*
X205570802Y-93825000D01*
X205401198Y-93825000D01*
X205234857Y-93791913D01*
X205078162Y-93727008D01*
X204937147Y-93632785D01*
X204817215Y-93512853D01*
X204722992Y-93371838D01*
X204658087Y-93215143D01*
X204625000Y-93048802D01*
X204625000Y-92879198D01*
X204658087Y-92712857D01*
X204722992Y-92556162D01*
X204817215Y-92415147D01*
X204937147Y-92295215D01*
X205078162Y-92200992D01*
X205234857Y-92136087D01*
X205401198Y-92103000D01*
X205570802Y-92103000D01*
X205737143Y-92136087D01*
X205737143Y-92136087D01*
G37*
G36*
X200657143Y-92136087D02*
G01*
X200813838Y-92200992D01*
X200954853Y-92295215D01*
X201074785Y-92415147D01*
X201169008Y-92556162D01*
X201233913Y-92712857D01*
X201267000Y-92879198D01*
X201267000Y-93048802D01*
X201233913Y-93215143D01*
X201169008Y-93371838D01*
X201074785Y-93512853D01*
X200954853Y-93632785D01*
X200813838Y-93727008D01*
X200657143Y-93791913D01*
X200490802Y-93825000D01*
X200321198Y-93825000D01*
X200154857Y-93791913D01*
X199998162Y-93727008D01*
X199857147Y-93632785D01*
X199737215Y-93512853D01*
X199642992Y-93371838D01*
X199578087Y-93215143D01*
X199545000Y-93048802D01*
X199545000Y-92879198D01*
X199578087Y-92712857D01*
X199642992Y-92556162D01*
X199737215Y-92415147D01*
X199857147Y-92295215D01*
X199998162Y-92200992D01*
X200154857Y-92136087D01*
X200321198Y-92103000D01*
X200490802Y-92103000D01*
X200657143Y-92136087D01*
X200657143Y-92136087D01*
G37*
G36*
X188567000Y-93825000D02*
G01*
X186845000Y-93825000D01*
X186845000Y-92103000D01*
X188567000Y-92103000D01*
X188567000Y-93825000D01*
X188567000Y-93825000D01*
G37*
G36*
X195577143Y-92136087D02*
G01*
X195733838Y-92200992D01*
X195874853Y-92295215D01*
X195994785Y-92415147D01*
X196089008Y-92556162D01*
X196153913Y-92712857D01*
X196187000Y-92879198D01*
X196187000Y-93048802D01*
X196153913Y-93215143D01*
X196089008Y-93371838D01*
X195994785Y-93512853D01*
X195874853Y-93632785D01*
X195733838Y-93727008D01*
X195577143Y-93791913D01*
X195410802Y-93825000D01*
X195241198Y-93825000D01*
X195074857Y-93791913D01*
X194918162Y-93727008D01*
X194777147Y-93632785D01*
X194657215Y-93512853D01*
X194562992Y-93371838D01*
X194498087Y-93215143D01*
X194465000Y-93048802D01*
X194465000Y-92879198D01*
X194498087Y-92712857D01*
X194562992Y-92556162D01*
X194657215Y-92415147D01*
X194777147Y-92295215D01*
X194918162Y-92200992D01*
X195074857Y-92136087D01*
X195241198Y-92103000D01*
X195410802Y-92103000D01*
X195577143Y-92136087D01*
X195577143Y-92136087D01*
G37*
G36*
X203197143Y-92136087D02*
G01*
X203353838Y-92200992D01*
X203494853Y-92295215D01*
X203614785Y-92415147D01*
X203709008Y-92556162D01*
X203773913Y-92712857D01*
X203807000Y-92879198D01*
X203807000Y-93048802D01*
X203773913Y-93215143D01*
X203709008Y-93371838D01*
X203614785Y-93512853D01*
X203494853Y-93632785D01*
X203353838Y-93727008D01*
X203197143Y-93791913D01*
X203030802Y-93825000D01*
X202861198Y-93825000D01*
X202694857Y-93791913D01*
X202538162Y-93727008D01*
X202397147Y-93632785D01*
X202277215Y-93512853D01*
X202182992Y-93371838D01*
X202118087Y-93215143D01*
X202085000Y-93048802D01*
X202085000Y-92879198D01*
X202118087Y-92712857D01*
X202182992Y-92556162D01*
X202277215Y-92415147D01*
X202397147Y-92295215D01*
X202538162Y-92200992D01*
X202694857Y-92136087D01*
X202861198Y-92103000D01*
X203030802Y-92103000D01*
X203197143Y-92136087D01*
X203197143Y-92136087D01*
G37*
G36*
X142956228Y-92145703D02*
G01*
X143111100Y-92209853D01*
X143250481Y-92302985D01*
X143369015Y-92421519D01*
X143462147Y-92560900D01*
X143526297Y-92715772D01*
X143559000Y-92880184D01*
X143559000Y-93047816D01*
X143526297Y-93212228D01*
X143462147Y-93367100D01*
X143369015Y-93506481D01*
X143250481Y-93625015D01*
X143111100Y-93718147D01*
X142956228Y-93782297D01*
X142791816Y-93815000D01*
X142624184Y-93815000D01*
X142459772Y-93782297D01*
X142304900Y-93718147D01*
X142165519Y-93625015D01*
X142046985Y-93506481D01*
X141953853Y-93367100D01*
X141889703Y-93212228D01*
X141857000Y-93047816D01*
X141857000Y-92880184D01*
X141889703Y-92715772D01*
X141953853Y-92560900D01*
X142046985Y-92421519D01*
X142165519Y-92302985D01*
X142304900Y-92209853D01*
X142459772Y-92145703D01*
X142624184Y-92113000D01*
X142791816Y-92113000D01*
X142956228Y-92145703D01*
X142956228Y-92145703D01*
G37*
G36*
X140456228Y-92145703D02*
G01*
X140611100Y-92209853D01*
X140750481Y-92302985D01*
X140869015Y-92421519D01*
X140962147Y-92560900D01*
X141026297Y-92715772D01*
X141059000Y-92880184D01*
X141059000Y-93047816D01*
X141026297Y-93212228D01*
X140962147Y-93367100D01*
X140869015Y-93506481D01*
X140750481Y-93625015D01*
X140611100Y-93718147D01*
X140456228Y-93782297D01*
X140291816Y-93815000D01*
X140124184Y-93815000D01*
X139959772Y-93782297D01*
X139804900Y-93718147D01*
X139665519Y-93625015D01*
X139546985Y-93506481D01*
X139453853Y-93367100D01*
X139389703Y-93212228D01*
X139357000Y-93047816D01*
X139357000Y-92880184D01*
X139389703Y-92715772D01*
X139453853Y-92560900D01*
X139546985Y-92421519D01*
X139665519Y-92302985D01*
X139804900Y-92209853D01*
X139959772Y-92145703D01*
X140124184Y-92113000D01*
X140291816Y-92113000D01*
X140456228Y-92145703D01*
X140456228Y-92145703D01*
G37*
G36*
X147994823Y-91871313D02*
G01*
X148155242Y-91919976D01*
X148287906Y-91990886D01*
X148303078Y-91998996D01*
X148432659Y-92105341D01*
X148539004Y-92234922D01*
X148539005Y-92234924D01*
X148618024Y-92382758D01*
X148666687Y-92543177D01*
X148683117Y-92710000D01*
X148666687Y-92876823D01*
X148618024Y-93037242D01*
X148566734Y-93133198D01*
X148539004Y-93185078D01*
X148432659Y-93314659D01*
X148303078Y-93421004D01*
X148303076Y-93421005D01*
X148155242Y-93500024D01*
X147994823Y-93548687D01*
X147869804Y-93561000D01*
X147786196Y-93561000D01*
X147661177Y-93548687D01*
X147500758Y-93500024D01*
X147352924Y-93421005D01*
X147352922Y-93421004D01*
X147223341Y-93314659D01*
X147116996Y-93185078D01*
X147089266Y-93133198D01*
X147037976Y-93037242D01*
X146989313Y-92876823D01*
X146972883Y-92710000D01*
X146989313Y-92543177D01*
X147037976Y-92382758D01*
X147116995Y-92234924D01*
X147116996Y-92234922D01*
X147223341Y-92105341D01*
X147352922Y-91998996D01*
X147368094Y-91990886D01*
X147500758Y-91919976D01*
X147661177Y-91871313D01*
X147786196Y-91859000D01*
X147869804Y-91859000D01*
X147994823Y-91871313D01*
X147994823Y-91871313D01*
G37*
G36*
X155614823Y-91871313D02*
G01*
X155775242Y-91919976D01*
X155907906Y-91990886D01*
X155923078Y-91998996D01*
X156052659Y-92105341D01*
X156159004Y-92234922D01*
X156159005Y-92234924D01*
X156238024Y-92382758D01*
X156286687Y-92543177D01*
X156303117Y-92710000D01*
X156286687Y-92876823D01*
X156238024Y-93037242D01*
X156186734Y-93133198D01*
X156159004Y-93185078D01*
X156052659Y-93314659D01*
X155923078Y-93421004D01*
X155923076Y-93421005D01*
X155775242Y-93500024D01*
X155614823Y-93548687D01*
X155489804Y-93561000D01*
X155406196Y-93561000D01*
X155281177Y-93548687D01*
X155120758Y-93500024D01*
X154972924Y-93421005D01*
X154972922Y-93421004D01*
X154843341Y-93314659D01*
X154736996Y-93185078D01*
X154709266Y-93133198D01*
X154657976Y-93037242D01*
X154609313Y-92876823D01*
X154592883Y-92710000D01*
X154609313Y-92543177D01*
X154657976Y-92382758D01*
X154736995Y-92234924D01*
X154736996Y-92234922D01*
X154843341Y-92105341D01*
X154972922Y-91998996D01*
X154988094Y-91990886D01*
X155120758Y-91919976D01*
X155281177Y-91871313D01*
X155406196Y-91859000D01*
X155489804Y-91859000D01*
X155614823Y-91871313D01*
X155614823Y-91871313D01*
G37*
G36*
X147994823Y-89331313D02*
G01*
X148125380Y-89370917D01*
X148146487Y-89377320D01*
X148155242Y-89379976D01*
X148287906Y-89450886D01*
X148303078Y-89458996D01*
X148432659Y-89565341D01*
X148539004Y-89694922D01*
X148539005Y-89694924D01*
X148618024Y-89842758D01*
X148666687Y-90003177D01*
X148683117Y-90170000D01*
X148666687Y-90336823D01*
X148618024Y-90497242D01*
X148547114Y-90629906D01*
X148539004Y-90645078D01*
X148432659Y-90774659D01*
X148303078Y-90881004D01*
X148303076Y-90881005D01*
X148155242Y-90960024D01*
X147994823Y-91008687D01*
X147869804Y-91021000D01*
X147786196Y-91021000D01*
X147661177Y-91008687D01*
X147500758Y-90960024D01*
X147352924Y-90881005D01*
X147352922Y-90881004D01*
X147223341Y-90774659D01*
X147116996Y-90645078D01*
X147108886Y-90629906D01*
X147037976Y-90497242D01*
X146989313Y-90336823D01*
X146972883Y-90170000D01*
X146989313Y-90003177D01*
X147037976Y-89842758D01*
X147116995Y-89694924D01*
X147116996Y-89694922D01*
X147223341Y-89565341D01*
X147352922Y-89458996D01*
X147368094Y-89450886D01*
X147500758Y-89379976D01*
X147509514Y-89377320D01*
X147530620Y-89370917D01*
X147661177Y-89331313D01*
X147786196Y-89319000D01*
X147869804Y-89319000D01*
X147994823Y-89331313D01*
X147994823Y-89331313D01*
G37*
G36*
X155614823Y-89331313D02*
G01*
X155745380Y-89370917D01*
X155766487Y-89377320D01*
X155775242Y-89379976D01*
X155907906Y-89450886D01*
X155923078Y-89458996D01*
X156052659Y-89565341D01*
X156159004Y-89694922D01*
X156159005Y-89694924D01*
X156238024Y-89842758D01*
X156286687Y-90003177D01*
X156303117Y-90170000D01*
X156286687Y-90336823D01*
X156238024Y-90497242D01*
X156167114Y-90629906D01*
X156159004Y-90645078D01*
X156052659Y-90774659D01*
X155923078Y-90881004D01*
X155923076Y-90881005D01*
X155775242Y-90960024D01*
X155614823Y-91008687D01*
X155489804Y-91021000D01*
X155406196Y-91021000D01*
X155281177Y-91008687D01*
X155120758Y-90960024D01*
X154972924Y-90881005D01*
X154972922Y-90881004D01*
X154843341Y-90774659D01*
X154736996Y-90645078D01*
X154728886Y-90629906D01*
X154657976Y-90497242D01*
X154609313Y-90336823D01*
X154592883Y-90170000D01*
X154609313Y-90003177D01*
X154657976Y-89842758D01*
X154736995Y-89694924D01*
X154736996Y-89694922D01*
X154843341Y-89565341D01*
X154972922Y-89458996D01*
X154988094Y-89450886D01*
X155120758Y-89379976D01*
X155129514Y-89377320D01*
X155150620Y-89370917D01*
X155281177Y-89331313D01*
X155406196Y-89319000D01*
X155489804Y-89319000D01*
X155614823Y-89331313D01*
X155614823Y-89331313D01*
G37*
G36*
X127898601Y-89076397D02*
G01*
X127937305Y-89084096D01*
X127969340Y-89097365D01*
X128046680Y-89129400D01*
X128145115Y-89195173D01*
X128228827Y-89278885D01*
X128294600Y-89377320D01*
X128339904Y-89486696D01*
X128363000Y-89602805D01*
X128363000Y-89721195D01*
X128339904Y-89837304D01*
X128294600Y-89946680D01*
X128228827Y-90045115D01*
X128145115Y-90128827D01*
X128046680Y-90194600D01*
X127969340Y-90226635D01*
X127937305Y-90239904D01*
X127898601Y-90247603D01*
X127821195Y-90263000D01*
X127702805Y-90263000D01*
X127625399Y-90247603D01*
X127586695Y-90239904D01*
X127554660Y-90226635D01*
X127477320Y-90194600D01*
X127378885Y-90128827D01*
X127295173Y-90045115D01*
X127229400Y-89946680D01*
X127184096Y-89837304D01*
X127161000Y-89721195D01*
X127161000Y-89602805D01*
X127184096Y-89486696D01*
X127229400Y-89377320D01*
X127295173Y-89278885D01*
X127378885Y-89195173D01*
X127477320Y-89129400D01*
X127554660Y-89097365D01*
X127586695Y-89084096D01*
X127625399Y-89076397D01*
X127702805Y-89061000D01*
X127821195Y-89061000D01*
X127898601Y-89076397D01*
X127898601Y-89076397D01*
G37*
G36*
X125358601Y-89076397D02*
G01*
X125397305Y-89084096D01*
X125429340Y-89097365D01*
X125506680Y-89129400D01*
X125605115Y-89195173D01*
X125688827Y-89278885D01*
X125754600Y-89377320D01*
X125799904Y-89486696D01*
X125823000Y-89602805D01*
X125823000Y-89721195D01*
X125799904Y-89837304D01*
X125754600Y-89946680D01*
X125688827Y-90045115D01*
X125605115Y-90128827D01*
X125506680Y-90194600D01*
X125429340Y-90226635D01*
X125397305Y-90239904D01*
X125358601Y-90247603D01*
X125281195Y-90263000D01*
X125162805Y-90263000D01*
X125085399Y-90247603D01*
X125046695Y-90239904D01*
X125014660Y-90226635D01*
X124937320Y-90194600D01*
X124838885Y-90128827D01*
X124755173Y-90045115D01*
X124689400Y-89946680D01*
X124644096Y-89837304D01*
X124621000Y-89721195D01*
X124621000Y-89602805D01*
X124644096Y-89486696D01*
X124689400Y-89377320D01*
X124755173Y-89278885D01*
X124838885Y-89195173D01*
X124937320Y-89129400D01*
X125014660Y-89097365D01*
X125046695Y-89084096D01*
X125085399Y-89076397D01*
X125162805Y-89061000D01*
X125281195Y-89061000D01*
X125358601Y-89076397D01*
X125358601Y-89076397D01*
G37*
G36*
X217037256Y-86275298D02*
G01*
X217143579Y-86296447D01*
X217444042Y-86420903D01*
X217714451Y-86601585D01*
X217944415Y-86831549D01*
X218125097Y-87101958D01*
X218125098Y-87101960D01*
X218147036Y-87154924D01*
X218238192Y-87374992D01*
X218249553Y-87402422D01*
X218313000Y-87721389D01*
X218313000Y-88046611D01*
X218295117Y-88136515D01*
X218249553Y-88365579D01*
X218125097Y-88666042D01*
X217944415Y-88936451D01*
X217714451Y-89166415D01*
X217444042Y-89347097D01*
X217143579Y-89471553D01*
X217067455Y-89486695D01*
X216824611Y-89535000D01*
X216499389Y-89535000D01*
X216256545Y-89486695D01*
X216180421Y-89471553D01*
X215879958Y-89347097D01*
X215609549Y-89166415D01*
X215379585Y-88936451D01*
X215198903Y-88666042D01*
X215074447Y-88365579D01*
X215028883Y-88136515D01*
X215011000Y-88046611D01*
X215011000Y-87721389D01*
X215074447Y-87402422D01*
X215085809Y-87374992D01*
X215176964Y-87154924D01*
X215198902Y-87101960D01*
X215198903Y-87101958D01*
X215379585Y-86831549D01*
X215609549Y-86601585D01*
X215879958Y-86420903D01*
X216180421Y-86296447D01*
X216286744Y-86275298D01*
X216499389Y-86233000D01*
X216824611Y-86233000D01*
X217037256Y-86275298D01*
X217037256Y-86275298D01*
G37*
G36*
X91053256Y-86275298D02*
G01*
X91159579Y-86296447D01*
X91460042Y-86420903D01*
X91730451Y-86601585D01*
X91960415Y-86831549D01*
X92141097Y-87101958D01*
X92141098Y-87101960D01*
X92163036Y-87154924D01*
X92254192Y-87374992D01*
X92265553Y-87402422D01*
X92329000Y-87721389D01*
X92329000Y-88046611D01*
X92311117Y-88136515D01*
X92265553Y-88365579D01*
X92141097Y-88666042D01*
X91960415Y-88936451D01*
X91730451Y-89166415D01*
X91460042Y-89347097D01*
X91159579Y-89471553D01*
X91083455Y-89486695D01*
X90840611Y-89535000D01*
X90515389Y-89535000D01*
X90272545Y-89486695D01*
X90196421Y-89471553D01*
X89895958Y-89347097D01*
X89625549Y-89166415D01*
X89395585Y-88936451D01*
X89214903Y-88666042D01*
X89090447Y-88365579D01*
X89044883Y-88136515D01*
X89027000Y-88046611D01*
X89027000Y-87721389D01*
X89090447Y-87402422D01*
X89101809Y-87374992D01*
X89192964Y-87154924D01*
X89214902Y-87101960D01*
X89214903Y-87101958D01*
X89395585Y-86831549D01*
X89625549Y-86601585D01*
X89895958Y-86420903D01*
X90196421Y-86296447D01*
X90302744Y-86275298D01*
X90515389Y-86233000D01*
X90840611Y-86233000D01*
X91053256Y-86275298D01*
X91053256Y-86275298D01*
G37*
G36*
X112773143Y-87310087D02*
G01*
X112929838Y-87374992D01*
X113070853Y-87469215D01*
X113190785Y-87589147D01*
X113285008Y-87730162D01*
X113349913Y-87886857D01*
X113383000Y-88053198D01*
X113383000Y-88222802D01*
X113349913Y-88389143D01*
X113285008Y-88545838D01*
X113190785Y-88686853D01*
X113070853Y-88806785D01*
X112929838Y-88901008D01*
X112773143Y-88965913D01*
X112606802Y-88999000D01*
X112437198Y-88999000D01*
X112270857Y-88965913D01*
X112114162Y-88901008D01*
X111973147Y-88806785D01*
X111853215Y-88686853D01*
X111758992Y-88545838D01*
X111694087Y-88389143D01*
X111661000Y-88222802D01*
X111661000Y-88053198D01*
X111694087Y-87886857D01*
X111758992Y-87730162D01*
X111853215Y-87589147D01*
X111973147Y-87469215D01*
X112114162Y-87374992D01*
X112270857Y-87310087D01*
X112437198Y-87277000D01*
X112606802Y-87277000D01*
X112773143Y-87310087D01*
X112773143Y-87310087D01*
G37*
G36*
X102613143Y-87310087D02*
G01*
X102769838Y-87374992D01*
X102910853Y-87469215D01*
X103030785Y-87589147D01*
X103125008Y-87730162D01*
X103189913Y-87886857D01*
X103223000Y-88053198D01*
X103223000Y-88222802D01*
X103189913Y-88389143D01*
X103125008Y-88545838D01*
X103030785Y-88686853D01*
X102910853Y-88806785D01*
X102769838Y-88901008D01*
X102613143Y-88965913D01*
X102446802Y-88999000D01*
X102277198Y-88999000D01*
X102110857Y-88965913D01*
X101954162Y-88901008D01*
X101813147Y-88806785D01*
X101693215Y-88686853D01*
X101598992Y-88545838D01*
X101534087Y-88389143D01*
X101501000Y-88222802D01*
X101501000Y-88053198D01*
X101534087Y-87886857D01*
X101598992Y-87730162D01*
X101693215Y-87589147D01*
X101813147Y-87469215D01*
X101954162Y-87374992D01*
X102110857Y-87310087D01*
X102277198Y-87277000D01*
X102446802Y-87277000D01*
X102613143Y-87310087D01*
X102613143Y-87310087D01*
G37*
G36*
X110233143Y-87310087D02*
G01*
X110389838Y-87374992D01*
X110530853Y-87469215D01*
X110650785Y-87589147D01*
X110745008Y-87730162D01*
X110809913Y-87886857D01*
X110843000Y-88053198D01*
X110843000Y-88222802D01*
X110809913Y-88389143D01*
X110745008Y-88545838D01*
X110650785Y-88686853D01*
X110530853Y-88806785D01*
X110389838Y-88901008D01*
X110233143Y-88965913D01*
X110066802Y-88999000D01*
X109897198Y-88999000D01*
X109730857Y-88965913D01*
X109574162Y-88901008D01*
X109433147Y-88806785D01*
X109313215Y-88686853D01*
X109218992Y-88545838D01*
X109154087Y-88389143D01*
X109121000Y-88222802D01*
X109121000Y-88053198D01*
X109154087Y-87886857D01*
X109218992Y-87730162D01*
X109313215Y-87589147D01*
X109433147Y-87469215D01*
X109574162Y-87374992D01*
X109730857Y-87310087D01*
X109897198Y-87277000D01*
X110066802Y-87277000D01*
X110233143Y-87310087D01*
X110233143Y-87310087D01*
G37*
G36*
X107693143Y-87310087D02*
G01*
X107849838Y-87374992D01*
X107990853Y-87469215D01*
X108110785Y-87589147D01*
X108205008Y-87730162D01*
X108269913Y-87886857D01*
X108303000Y-88053198D01*
X108303000Y-88222802D01*
X108269913Y-88389143D01*
X108205008Y-88545838D01*
X108110785Y-88686853D01*
X107990853Y-88806785D01*
X107849838Y-88901008D01*
X107693143Y-88965913D01*
X107526802Y-88999000D01*
X107357198Y-88999000D01*
X107190857Y-88965913D01*
X107034162Y-88901008D01*
X106893147Y-88806785D01*
X106773215Y-88686853D01*
X106678992Y-88545838D01*
X106614087Y-88389143D01*
X106581000Y-88222802D01*
X106581000Y-88053198D01*
X106614087Y-87886857D01*
X106678992Y-87730162D01*
X106773215Y-87589147D01*
X106893147Y-87469215D01*
X107034162Y-87374992D01*
X107190857Y-87310087D01*
X107357198Y-87277000D01*
X107526802Y-87277000D01*
X107693143Y-87310087D01*
X107693143Y-87310087D01*
G37*
G36*
X105153143Y-87310087D02*
G01*
X105309838Y-87374992D01*
X105450853Y-87469215D01*
X105570785Y-87589147D01*
X105665008Y-87730162D01*
X105729913Y-87886857D01*
X105763000Y-88053198D01*
X105763000Y-88222802D01*
X105729913Y-88389143D01*
X105665008Y-88545838D01*
X105570785Y-88686853D01*
X105450853Y-88806785D01*
X105309838Y-88901008D01*
X105153143Y-88965913D01*
X104986802Y-88999000D01*
X104817198Y-88999000D01*
X104650857Y-88965913D01*
X104494162Y-88901008D01*
X104353147Y-88806785D01*
X104233215Y-88686853D01*
X104138992Y-88545838D01*
X104074087Y-88389143D01*
X104041000Y-88222802D01*
X104041000Y-88053198D01*
X104074087Y-87886857D01*
X104138992Y-87730162D01*
X104233215Y-87589147D01*
X104353147Y-87469215D01*
X104494162Y-87374992D01*
X104650857Y-87310087D01*
X104817198Y-87277000D01*
X104986802Y-87277000D01*
X105153143Y-87310087D01*
X105153143Y-87310087D01*
G37*
G36*
X117853143Y-87310087D02*
G01*
X118009838Y-87374992D01*
X118150853Y-87469215D01*
X118270785Y-87589147D01*
X118365008Y-87730162D01*
X118429913Y-87886857D01*
X118463000Y-88053198D01*
X118463000Y-88222802D01*
X118429913Y-88389143D01*
X118365008Y-88545838D01*
X118270785Y-88686853D01*
X118150853Y-88806785D01*
X118009838Y-88901008D01*
X117853143Y-88965913D01*
X117686802Y-88999000D01*
X117517198Y-88999000D01*
X117350857Y-88965913D01*
X117194162Y-88901008D01*
X117053147Y-88806785D01*
X116933215Y-88686853D01*
X116838992Y-88545838D01*
X116774087Y-88389143D01*
X116741000Y-88222802D01*
X116741000Y-88053198D01*
X116774087Y-87886857D01*
X116838992Y-87730162D01*
X116933215Y-87589147D01*
X117053147Y-87469215D01*
X117194162Y-87374992D01*
X117350857Y-87310087D01*
X117517198Y-87277000D01*
X117686802Y-87277000D01*
X117853143Y-87310087D01*
X117853143Y-87310087D01*
G37*
G36*
X115313143Y-87310087D02*
G01*
X115469838Y-87374992D01*
X115610853Y-87469215D01*
X115730785Y-87589147D01*
X115825008Y-87730162D01*
X115889913Y-87886857D01*
X115923000Y-88053198D01*
X115923000Y-88222802D01*
X115889913Y-88389143D01*
X115825008Y-88545838D01*
X115730785Y-88686853D01*
X115610853Y-88806785D01*
X115469838Y-88901008D01*
X115313143Y-88965913D01*
X115146802Y-88999000D01*
X114977198Y-88999000D01*
X114810857Y-88965913D01*
X114654162Y-88901008D01*
X114513147Y-88806785D01*
X114393215Y-88686853D01*
X114298992Y-88545838D01*
X114234087Y-88389143D01*
X114201000Y-88222802D01*
X114201000Y-88053198D01*
X114234087Y-87886857D01*
X114298992Y-87730162D01*
X114393215Y-87589147D01*
X114513147Y-87469215D01*
X114654162Y-87374992D01*
X114810857Y-87310087D01*
X114977198Y-87277000D01*
X115146802Y-87277000D01*
X115313143Y-87310087D01*
X115313143Y-87310087D01*
G37*
G36*
X196847143Y-87056087D02*
G01*
X197003838Y-87120992D01*
X197144853Y-87215215D01*
X197264785Y-87335147D01*
X197359008Y-87476162D01*
X197423913Y-87632857D01*
X197457000Y-87799198D01*
X197457000Y-87968802D01*
X197423913Y-88135143D01*
X197359008Y-88291838D01*
X197264785Y-88432853D01*
X197144853Y-88552785D01*
X197003838Y-88647008D01*
X196847143Y-88711913D01*
X196680802Y-88745000D01*
X196511198Y-88745000D01*
X196344857Y-88711913D01*
X196188162Y-88647008D01*
X196047147Y-88552785D01*
X195927215Y-88432853D01*
X195832992Y-88291838D01*
X195768087Y-88135143D01*
X195735000Y-87968802D01*
X195735000Y-87799198D01*
X195768087Y-87632857D01*
X195832992Y-87476162D01*
X195927215Y-87335147D01*
X196047147Y-87215215D01*
X196188162Y-87120992D01*
X196344857Y-87056087D01*
X196511198Y-87023000D01*
X196680802Y-87023000D01*
X196847143Y-87056087D01*
X196847143Y-87056087D01*
G37*
G36*
X189227143Y-87056087D02*
G01*
X189383838Y-87120992D01*
X189524853Y-87215215D01*
X189644785Y-87335147D01*
X189739008Y-87476162D01*
X189803913Y-87632857D01*
X189837000Y-87799198D01*
X189837000Y-87968802D01*
X189803913Y-88135143D01*
X189739008Y-88291838D01*
X189644785Y-88432853D01*
X189524853Y-88552785D01*
X189383838Y-88647008D01*
X189227143Y-88711913D01*
X189060802Y-88745000D01*
X188891198Y-88745000D01*
X188724857Y-88711913D01*
X188568162Y-88647008D01*
X188427147Y-88552785D01*
X188307215Y-88432853D01*
X188212992Y-88291838D01*
X188148087Y-88135143D01*
X188115000Y-87968802D01*
X188115000Y-87799198D01*
X188148087Y-87632857D01*
X188212992Y-87476162D01*
X188307215Y-87335147D01*
X188427147Y-87215215D01*
X188568162Y-87120992D01*
X188724857Y-87056087D01*
X188891198Y-87023000D01*
X189060802Y-87023000D01*
X189227143Y-87056087D01*
X189227143Y-87056087D01*
G37*
G36*
X199387143Y-87056087D02*
G01*
X199543838Y-87120992D01*
X199684853Y-87215215D01*
X199804785Y-87335147D01*
X199899008Y-87476162D01*
X199963913Y-87632857D01*
X199997000Y-87799198D01*
X199997000Y-87968802D01*
X199963913Y-88135143D01*
X199899008Y-88291838D01*
X199804785Y-88432853D01*
X199684853Y-88552785D01*
X199543838Y-88647008D01*
X199387143Y-88711913D01*
X199220802Y-88745000D01*
X199051198Y-88745000D01*
X198884857Y-88711913D01*
X198728162Y-88647008D01*
X198587147Y-88552785D01*
X198467215Y-88432853D01*
X198372992Y-88291838D01*
X198308087Y-88135143D01*
X198275000Y-87968802D01*
X198275000Y-87799198D01*
X198308087Y-87632857D01*
X198372992Y-87476162D01*
X198467215Y-87335147D01*
X198587147Y-87215215D01*
X198728162Y-87120992D01*
X198884857Y-87056087D01*
X199051198Y-87023000D01*
X199220802Y-87023000D01*
X199387143Y-87056087D01*
X199387143Y-87056087D01*
G37*
G36*
X201927143Y-87056087D02*
G01*
X202083838Y-87120992D01*
X202224853Y-87215215D01*
X202344785Y-87335147D01*
X202439008Y-87476162D01*
X202503913Y-87632857D01*
X202537000Y-87799198D01*
X202537000Y-87968802D01*
X202503913Y-88135143D01*
X202439008Y-88291838D01*
X202344785Y-88432853D01*
X202224853Y-88552785D01*
X202083838Y-88647008D01*
X201927143Y-88711913D01*
X201760802Y-88745000D01*
X201591198Y-88745000D01*
X201424857Y-88711913D01*
X201268162Y-88647008D01*
X201127147Y-88552785D01*
X201007215Y-88432853D01*
X200912992Y-88291838D01*
X200848087Y-88135143D01*
X200815000Y-87968802D01*
X200815000Y-87799198D01*
X200848087Y-87632857D01*
X200912992Y-87476162D01*
X201007215Y-87335147D01*
X201127147Y-87215215D01*
X201268162Y-87120992D01*
X201424857Y-87056087D01*
X201591198Y-87023000D01*
X201760802Y-87023000D01*
X201927143Y-87056087D01*
X201927143Y-87056087D01*
G37*
G36*
X191767143Y-87056087D02*
G01*
X191923838Y-87120992D01*
X192064853Y-87215215D01*
X192184785Y-87335147D01*
X192279008Y-87476162D01*
X192343913Y-87632857D01*
X192377000Y-87799198D01*
X192377000Y-87968802D01*
X192343913Y-88135143D01*
X192279008Y-88291838D01*
X192184785Y-88432853D01*
X192064853Y-88552785D01*
X191923838Y-88647008D01*
X191767143Y-88711913D01*
X191600802Y-88745000D01*
X191431198Y-88745000D01*
X191264857Y-88711913D01*
X191108162Y-88647008D01*
X190967147Y-88552785D01*
X190847215Y-88432853D01*
X190752992Y-88291838D01*
X190688087Y-88135143D01*
X190655000Y-87968802D01*
X190655000Y-87799198D01*
X190688087Y-87632857D01*
X190752992Y-87476162D01*
X190847215Y-87335147D01*
X190967147Y-87215215D01*
X191108162Y-87120992D01*
X191264857Y-87056087D01*
X191431198Y-87023000D01*
X191600802Y-87023000D01*
X191767143Y-87056087D01*
X191767143Y-87056087D01*
G37*
G36*
X194307143Y-87056087D02*
G01*
X194463838Y-87120992D01*
X194604853Y-87215215D01*
X194724785Y-87335147D01*
X194819008Y-87476162D01*
X194883913Y-87632857D01*
X194917000Y-87799198D01*
X194917000Y-87968802D01*
X194883913Y-88135143D01*
X194819008Y-88291838D01*
X194724785Y-88432853D01*
X194604853Y-88552785D01*
X194463838Y-88647008D01*
X194307143Y-88711913D01*
X194140802Y-88745000D01*
X193971198Y-88745000D01*
X193804857Y-88711913D01*
X193648162Y-88647008D01*
X193507147Y-88552785D01*
X193387215Y-88432853D01*
X193292992Y-88291838D01*
X193228087Y-88135143D01*
X193195000Y-87968802D01*
X193195000Y-87799198D01*
X193228087Y-87632857D01*
X193292992Y-87476162D01*
X193387215Y-87335147D01*
X193507147Y-87215215D01*
X193648162Y-87120992D01*
X193804857Y-87056087D01*
X193971198Y-87023000D01*
X194140802Y-87023000D01*
X194307143Y-87056087D01*
X194307143Y-87056087D01*
G37*
G36*
X204467143Y-87056087D02*
G01*
X204623838Y-87120992D01*
X204764853Y-87215215D01*
X204884785Y-87335147D01*
X204979008Y-87476162D01*
X205043913Y-87632857D01*
X205077000Y-87799198D01*
X205077000Y-87968802D01*
X205043913Y-88135143D01*
X204979008Y-88291838D01*
X204884785Y-88432853D01*
X204764853Y-88552785D01*
X204623838Y-88647008D01*
X204467143Y-88711913D01*
X204300802Y-88745000D01*
X204131198Y-88745000D01*
X203964857Y-88711913D01*
X203808162Y-88647008D01*
X203667147Y-88552785D01*
X203547215Y-88432853D01*
X203452992Y-88291838D01*
X203388087Y-88135143D01*
X203355000Y-87968802D01*
X203355000Y-87799198D01*
X203388087Y-87632857D01*
X203452992Y-87476162D01*
X203547215Y-87335147D01*
X203667147Y-87215215D01*
X203808162Y-87120992D01*
X203964857Y-87056087D01*
X204131198Y-87023000D01*
X204300802Y-87023000D01*
X204467143Y-87056087D01*
X204467143Y-87056087D01*
G37*
G36*
X155614823Y-86791313D02*
G01*
X155775242Y-86839976D01*
X155907906Y-86910886D01*
X155923078Y-86918996D01*
X156052659Y-87025341D01*
X156159004Y-87154922D01*
X156159005Y-87154924D01*
X156238024Y-87302758D01*
X156286687Y-87463177D01*
X156303117Y-87630000D01*
X156286687Y-87796823D01*
X156238024Y-87957242D01*
X156190256Y-88046609D01*
X156159004Y-88105078D01*
X156052659Y-88234659D01*
X155923078Y-88341004D01*
X155923076Y-88341005D01*
X155775242Y-88420024D01*
X155614823Y-88468687D01*
X155489804Y-88481000D01*
X155406196Y-88481000D01*
X155281177Y-88468687D01*
X155120758Y-88420024D01*
X154972924Y-88341005D01*
X154972922Y-88341004D01*
X154843341Y-88234659D01*
X154736996Y-88105078D01*
X154705744Y-88046609D01*
X154657976Y-87957242D01*
X154609313Y-87796823D01*
X154592883Y-87630000D01*
X154609313Y-87463177D01*
X154657976Y-87302758D01*
X154736995Y-87154924D01*
X154736996Y-87154922D01*
X154843341Y-87025341D01*
X154972922Y-86918996D01*
X154988094Y-86910886D01*
X155120758Y-86839976D01*
X155281177Y-86791313D01*
X155406196Y-86779000D01*
X155489804Y-86779000D01*
X155614823Y-86791313D01*
X155614823Y-86791313D01*
G37*
G36*
X147994823Y-86791313D02*
G01*
X148155242Y-86839976D01*
X148287906Y-86910886D01*
X148303078Y-86918996D01*
X148432659Y-87025341D01*
X148539004Y-87154922D01*
X148539005Y-87154924D01*
X148618024Y-87302758D01*
X148666687Y-87463177D01*
X148683117Y-87630000D01*
X148666687Y-87796823D01*
X148618024Y-87957242D01*
X148570256Y-88046609D01*
X148539004Y-88105078D01*
X148432659Y-88234659D01*
X148303078Y-88341004D01*
X148303076Y-88341005D01*
X148155242Y-88420024D01*
X147994823Y-88468687D01*
X147869804Y-88481000D01*
X147786196Y-88481000D01*
X147661177Y-88468687D01*
X147500758Y-88420024D01*
X147352924Y-88341005D01*
X147352922Y-88341004D01*
X147223341Y-88234659D01*
X147116996Y-88105078D01*
X147085744Y-88046609D01*
X147037976Y-87957242D01*
X146989313Y-87796823D01*
X146972883Y-87630000D01*
X146989313Y-87463177D01*
X147037976Y-87302758D01*
X147116995Y-87154924D01*
X147116996Y-87154922D01*
X147223341Y-87025341D01*
X147352922Y-86918996D01*
X147368094Y-86910886D01*
X147500758Y-86839976D01*
X147661177Y-86791313D01*
X147786196Y-86779000D01*
X147869804Y-86779000D01*
X147994823Y-86791313D01*
X147994823Y-86791313D01*
G37*
G36*
X138372719Y-86339520D02*
G01*
X138533460Y-86388280D01*
X138561883Y-86396902D01*
X138600482Y-86417534D01*
X138736212Y-86490083D01*
X138889015Y-86615485D01*
X139014417Y-86768288D01*
X139107599Y-86942619D01*
X139164980Y-87131780D01*
X139173198Y-87215218D01*
X139175496Y-87238547D01*
X139179500Y-87279206D01*
X139179500Y-87472793D01*
X139164980Y-87620219D01*
X139124423Y-87753917D01*
X139107598Y-87809383D01*
X139082830Y-87855720D01*
X139014417Y-87983712D01*
X138889015Y-88136515D01*
X138736212Y-88261917D01*
X138561881Y-88355099D01*
X138372720Y-88412480D01*
X138176000Y-88431855D01*
X137979281Y-88412480D01*
X137790120Y-88355099D01*
X137615788Y-88261917D01*
X137462985Y-88136515D01*
X137337583Y-87983712D01*
X137244401Y-87809381D01*
X137187020Y-87620220D01*
X137172500Y-87472794D01*
X137172500Y-87279207D01*
X137187020Y-87131781D01*
X137244401Y-86942620D01*
X137244402Y-86942617D01*
X137303768Y-86831551D01*
X137337583Y-86768288D01*
X137462985Y-86615485D01*
X137615788Y-86490083D01*
X137790119Y-86396901D01*
X137979280Y-86339520D01*
X138176000Y-86320145D01*
X138372719Y-86339520D01*
X138372719Y-86339520D01*
G37*
G36*
X140912719Y-86339520D02*
G01*
X141073460Y-86388280D01*
X141101883Y-86396902D01*
X141140482Y-86417534D01*
X141276212Y-86490083D01*
X141429015Y-86615485D01*
X141554417Y-86768288D01*
X141647599Y-86942619D01*
X141704980Y-87131780D01*
X141713198Y-87215218D01*
X141715496Y-87238547D01*
X141719500Y-87279206D01*
X141719500Y-87472793D01*
X141704980Y-87620219D01*
X141664423Y-87753917D01*
X141647598Y-87809383D01*
X141622830Y-87855720D01*
X141554417Y-87983712D01*
X141429015Y-88136515D01*
X141276212Y-88261917D01*
X141101881Y-88355099D01*
X140912720Y-88412480D01*
X140716000Y-88431855D01*
X140519281Y-88412480D01*
X140330120Y-88355099D01*
X140155788Y-88261917D01*
X140002985Y-88136515D01*
X139877583Y-87983712D01*
X139784401Y-87809381D01*
X139727020Y-87620220D01*
X139712500Y-87472794D01*
X139712500Y-87279207D01*
X139727020Y-87131781D01*
X139784401Y-86942620D01*
X139784402Y-86942617D01*
X139843768Y-86831551D01*
X139877583Y-86768288D01*
X140002985Y-86615485D01*
X140155788Y-86490083D01*
X140330119Y-86396901D01*
X140519280Y-86339520D01*
X140716000Y-86320145D01*
X140912719Y-86339520D01*
X140912719Y-86339520D01*
G37*
G36*
X136639500Y-88427000D02*
G01*
X134632500Y-88427000D01*
X134632500Y-86325000D01*
X136639500Y-86325000D01*
X136639500Y-88427000D01*
X136639500Y-88427000D01*
G37*
G36*
X126373000Y-86936007D02*
G01*
X126375402Y-86960393D01*
X126382515Y-86983842D01*
X126394066Y-87005453D01*
X126409611Y-87024395D01*
X126428553Y-87039940D01*
X126450164Y-87051491D01*
X126473613Y-87058604D01*
X126497999Y-87061006D01*
X126522385Y-87058604D01*
X126545834Y-87051491D01*
X126567445Y-87039940D01*
X126586387Y-87024395D01*
X126601932Y-87005453D01*
X126613483Y-86983842D01*
X126620596Y-86960393D01*
X126632050Y-86902808D01*
X126655232Y-86786266D01*
X126731730Y-86601584D01*
X126741996Y-86576799D01*
X126741997Y-86576797D01*
X126867960Y-86388280D01*
X127028280Y-86227960D01*
X127216797Y-86101997D01*
X127426266Y-86015232D01*
X127537451Y-85993116D01*
X127648635Y-85971000D01*
X127875365Y-85971000D01*
X127986549Y-85993116D01*
X128097734Y-86015232D01*
X128307203Y-86101997D01*
X128495720Y-86227960D01*
X128656040Y-86388280D01*
X128782003Y-86576797D01*
X128782004Y-86576799D01*
X128792270Y-86601584D01*
X128868768Y-86786266D01*
X128890884Y-86897451D01*
X128913000Y-87008635D01*
X128913000Y-87235365D01*
X128899868Y-87301383D01*
X128868768Y-87457734D01*
X128782003Y-87667203D01*
X128656040Y-87855720D01*
X128495720Y-88016040D01*
X128307203Y-88142003D01*
X128097734Y-88228768D01*
X127986549Y-88250884D01*
X127875365Y-88273000D01*
X127648635Y-88273000D01*
X127537451Y-88250884D01*
X127426266Y-88228768D01*
X127216797Y-88142003D01*
X127028280Y-88016040D01*
X126867960Y-87855720D01*
X126741997Y-87667203D01*
X126655232Y-87457734D01*
X126624132Y-87301383D01*
X126620596Y-87283607D01*
X126613483Y-87260158D01*
X126601932Y-87238547D01*
X126586387Y-87219605D01*
X126567445Y-87204060D01*
X126545834Y-87192509D01*
X126522385Y-87185396D01*
X126497999Y-87182994D01*
X126473613Y-87185396D01*
X126450164Y-87192509D01*
X126428553Y-87204060D01*
X126409611Y-87219605D01*
X126394066Y-87238547D01*
X126382515Y-87260158D01*
X126375402Y-87283607D01*
X126373000Y-87307993D01*
X126373000Y-88273000D01*
X124071000Y-88273000D01*
X124071000Y-85971000D01*
X126373000Y-85971000D01*
X126373000Y-86936007D01*
X126373000Y-86936007D01*
G37*
G36*
X181806719Y-85831520D02*
G01*
X181995880Y-85888901D01*
X181995883Y-85888902D01*
X182048450Y-85917000D01*
X182170212Y-85982083D01*
X182323015Y-86107485D01*
X182448417Y-86260288D01*
X182541599Y-86434619D01*
X182598980Y-86623780D01*
X182613500Y-86771206D01*
X182613500Y-86964793D01*
X182598980Y-87112219D01*
X182548326Y-87279205D01*
X182541598Y-87301383D01*
X182502253Y-87374992D01*
X182448417Y-87475712D01*
X182323015Y-87628515D01*
X182170212Y-87753917D01*
X181995881Y-87847099D01*
X181806720Y-87904480D01*
X181610000Y-87923855D01*
X181413281Y-87904480D01*
X181224120Y-87847099D01*
X181049788Y-87753917D01*
X180896985Y-87628515D01*
X180771583Y-87475712D01*
X180678401Y-87301381D01*
X180621020Y-87112220D01*
X180610818Y-87008635D01*
X180606500Y-86964795D01*
X180606500Y-86771206D01*
X180621020Y-86623783D01*
X180621020Y-86623781D01*
X180678401Y-86434620D01*
X180678402Y-86434617D01*
X180752256Y-86296447D01*
X180771583Y-86260288D01*
X180896985Y-86107485D01*
X181049788Y-85982083D01*
X181224119Y-85888901D01*
X181413280Y-85831520D01*
X181610000Y-85812145D01*
X181806719Y-85831520D01*
X181806719Y-85831520D01*
G37*
G36*
X179266719Y-85831520D02*
G01*
X179455880Y-85888901D01*
X179455883Y-85888902D01*
X179508450Y-85917000D01*
X179630212Y-85982083D01*
X179783015Y-86107485D01*
X179908417Y-86260288D01*
X180001599Y-86434619D01*
X180058980Y-86623780D01*
X180073500Y-86771206D01*
X180073500Y-86964793D01*
X180058980Y-87112219D01*
X180008326Y-87279205D01*
X180001598Y-87301383D01*
X179962253Y-87374992D01*
X179908417Y-87475712D01*
X179783015Y-87628515D01*
X179630212Y-87753917D01*
X179455881Y-87847099D01*
X179266720Y-87904480D01*
X179070000Y-87923855D01*
X178873281Y-87904480D01*
X178684120Y-87847099D01*
X178509788Y-87753917D01*
X178356985Y-87628515D01*
X178231583Y-87475712D01*
X178138401Y-87301381D01*
X178081020Y-87112220D01*
X178070818Y-87008635D01*
X178066500Y-86964795D01*
X178066500Y-86771206D01*
X178081020Y-86623783D01*
X178081020Y-86623781D01*
X178138401Y-86434620D01*
X178138402Y-86434617D01*
X178212256Y-86296447D01*
X178231583Y-86260288D01*
X178356985Y-86107485D01*
X178509788Y-85982083D01*
X178684119Y-85888901D01*
X178873280Y-85831520D01*
X179070000Y-85812145D01*
X179266719Y-85831520D01*
X179266719Y-85831520D01*
G37*
G36*
X177533500Y-87919000D02*
G01*
X175526500Y-87919000D01*
X175526500Y-85817000D01*
X177533500Y-85817000D01*
X177533500Y-87919000D01*
X177533500Y-87919000D01*
G37*
G36*
X168591000Y-87819000D02*
G01*
X166689000Y-87819000D01*
X166689000Y-85917000D01*
X168591000Y-85917000D01*
X168591000Y-87819000D01*
X168591000Y-87819000D01*
G37*
G36*
X170457395Y-85953546D02*
G01*
X170630466Y-86025234D01*
X170630467Y-86025235D01*
X170786227Y-86129310D01*
X170918690Y-86261773D01*
X170918691Y-86261775D01*
X171022766Y-86417534D01*
X171094454Y-86590605D01*
X171131000Y-86774333D01*
X171131000Y-86961667D01*
X171094454Y-87145395D01*
X171022766Y-87318466D01*
X171022765Y-87318467D01*
X170918690Y-87474227D01*
X170786227Y-87606690D01*
X170747065Y-87632857D01*
X170630466Y-87710766D01*
X170457395Y-87782454D01*
X170273667Y-87819000D01*
X170086333Y-87819000D01*
X169902605Y-87782454D01*
X169729534Y-87710766D01*
X169612935Y-87632857D01*
X169573773Y-87606690D01*
X169441310Y-87474227D01*
X169337235Y-87318467D01*
X169337234Y-87318466D01*
X169265546Y-87145395D01*
X169229000Y-86961667D01*
X169229000Y-86774333D01*
X169265546Y-86590605D01*
X169337234Y-86417534D01*
X169441309Y-86261775D01*
X169441310Y-86261773D01*
X169573773Y-86129310D01*
X169729533Y-86025235D01*
X169729534Y-86025234D01*
X169902605Y-85953546D01*
X170086333Y-85917000D01*
X170273667Y-85917000D01*
X170457395Y-85953546D01*
X170457395Y-85953546D01*
G37*
G36*
X155614823Y-84251313D02*
G01*
X155775242Y-84299976D01*
X155907906Y-84370886D01*
X155923078Y-84378996D01*
X156052659Y-84485341D01*
X156159004Y-84614922D01*
X156159005Y-84614924D01*
X156238024Y-84762758D01*
X156286687Y-84923177D01*
X156303117Y-85090000D01*
X156286687Y-85256823D01*
X156238024Y-85417242D01*
X156229601Y-85433000D01*
X156159004Y-85565078D01*
X156052659Y-85694659D01*
X155923078Y-85801004D01*
X155923076Y-85801005D01*
X155775242Y-85880024D01*
X155614823Y-85928687D01*
X155489804Y-85941000D01*
X155406196Y-85941000D01*
X155281177Y-85928687D01*
X155120758Y-85880024D01*
X154972924Y-85801005D01*
X154972922Y-85801004D01*
X154843341Y-85694659D01*
X154736996Y-85565078D01*
X154666399Y-85433000D01*
X154657976Y-85417242D01*
X154609313Y-85256823D01*
X154592883Y-85090000D01*
X154609313Y-84923177D01*
X154657976Y-84762758D01*
X154736995Y-84614924D01*
X154736996Y-84614922D01*
X154843341Y-84485341D01*
X154972922Y-84378996D01*
X154988094Y-84370886D01*
X155120758Y-84299976D01*
X155281177Y-84251313D01*
X155406196Y-84239000D01*
X155489804Y-84239000D01*
X155614823Y-84251313D01*
X155614823Y-84251313D01*
G37*
G36*
X148679000Y-85941000D02*
G01*
X146977000Y-85941000D01*
X146977000Y-84239000D01*
X148679000Y-84239000D01*
X148679000Y-85941000D01*
X148679000Y-85941000D01*
G37*
G36*
X163824228Y-83763703D02*
G01*
X163979100Y-83827853D01*
X164118481Y-83920985D01*
X164237015Y-84039519D01*
X164330147Y-84178900D01*
X164394297Y-84333772D01*
X164427000Y-84498184D01*
X164427000Y-84665816D01*
X164394297Y-84830228D01*
X164330147Y-84985100D01*
X164237015Y-85124481D01*
X164118481Y-85243015D01*
X163979100Y-85336147D01*
X163824228Y-85400297D01*
X163659816Y-85433000D01*
X163492184Y-85433000D01*
X163327772Y-85400297D01*
X163172900Y-85336147D01*
X163033519Y-85243015D01*
X162914985Y-85124481D01*
X162821853Y-84985100D01*
X162757703Y-84830228D01*
X162725000Y-84665816D01*
X162725000Y-84498184D01*
X162757703Y-84333772D01*
X162821853Y-84178900D01*
X162914985Y-84039519D01*
X163033519Y-83920985D01*
X163172900Y-83827853D01*
X163327772Y-83763703D01*
X163492184Y-83731000D01*
X163659816Y-83731000D01*
X163824228Y-83763703D01*
X163824228Y-83763703D01*
G37*
G36*
X159932823Y-83743313D02*
G01*
X160093242Y-83791976D01*
X160160361Y-83827852D01*
X160241078Y-83870996D01*
X160370659Y-83977341D01*
X160477004Y-84106922D01*
X160477005Y-84106924D01*
X160556024Y-84254758D01*
X160604687Y-84415177D01*
X160621117Y-84582000D01*
X160604687Y-84748823D01*
X160556024Y-84909242D01*
X160515477Y-84985100D01*
X160477004Y-85057078D01*
X160370659Y-85186659D01*
X160241078Y-85293004D01*
X160241076Y-85293005D01*
X160093242Y-85372024D01*
X159932823Y-85420687D01*
X159807804Y-85433000D01*
X159724196Y-85433000D01*
X159599177Y-85420687D01*
X159438758Y-85372024D01*
X159290924Y-85293005D01*
X159290922Y-85293004D01*
X159161341Y-85186659D01*
X159054996Y-85057078D01*
X159016523Y-84985100D01*
X158975976Y-84909242D01*
X158927313Y-84748823D01*
X158910883Y-84582000D01*
X158927313Y-84415177D01*
X158975976Y-84254758D01*
X159054995Y-84106924D01*
X159054996Y-84106922D01*
X159161341Y-83977341D01*
X159290922Y-83870996D01*
X159371639Y-83827852D01*
X159438758Y-83791976D01*
X159599177Y-83743313D01*
X159724196Y-83731000D01*
X159807804Y-83731000D01*
X159932823Y-83743313D01*
X159932823Y-83743313D01*
G37*
M02*
