M48
; DRILL file {KiCad (5.1.4)-1} date 28/12/2019 20:01:20
; FORMAT={-:-/ absolute / metric / decimal}
; #@! TF.CreationDate,2019-12-28T20:01:20+00:00
; #@! TF.GenerationSoftware,Kicad,Pcbnew,(5.1.4)-1
; #@! TF.FileFunction,Plated,1,2,PTH
FMAT,2
METRIC
T1C0.400
T2C0.800
T3C0.900
T4C1.000
T5C1.080
T6C1.100
%
G90
G05
T1
X110.236Y-100.076
X120.396Y-105.918
X151.638Y-87.884
X151.638Y-98.19
X151.892Y-103.886
X165.608Y-121.92
X189.738Y-95.25
T2
X163.576Y-84.582
X163.576Y-94.742
X127.0Y-106.68
X127.0Y-116.84
X140.208Y-92.964
X142.708Y-92.964
X133.35Y-99.568
X143.51Y-99.568
X165.354Y-109.982
X165.354Y-120.142
X134.366Y-93.218
X136.866Y-93.218
X159.766Y-84.582
X159.766Y-94.742
X141.224Y-117.856
X143.724Y-117.856
X147.828Y-85.09
X147.828Y-87.63
X147.828Y-90.17
X147.828Y-92.71
X147.828Y-95.25
X147.828Y-97.79
X147.828Y-100.33
X147.828Y-102.87
X147.828Y-105.41
X147.828Y-107.95
X147.828Y-110.49
X147.828Y-113.03
X147.828Y-115.57
X147.828Y-118.11
X155.448Y-85.09
X155.448Y-87.63
X155.448Y-90.17
X155.448Y-92.71
X155.448Y-95.25
X155.448Y-97.79
X155.448Y-100.33
X155.448Y-102.87
X155.448Y-105.41
X155.448Y-107.95
X155.448Y-110.49
X155.448Y-113.03
X155.448Y-115.57
X155.448Y-118.11
X141.224Y-104.394
X143.724Y-104.394
X142.494Y-109.474
X142.494Y-113.274
T3
X203.454Y-104.648
X211.074Y-104.648
X116.84Y-97.536
X124.46Y-97.536
X135.128Y-104.394
X135.128Y-106.934
X95.758Y-97.536
X103.378Y-97.536
X116.078Y-109.728
X123.698Y-109.728
X116.078Y-116.332
X123.698Y-116.332
X203.454Y-116.078
X211.074Y-116.078
X203.454Y-109.982
X211.074Y-109.982
X170.434Y-104.394
X178.054Y-104.394
X182.626Y-110.744
X190.246Y-110.744
X182.88Y-116.84
X190.5Y-116.84
X95.758Y-109.728
X103.378Y-109.728
X203.2Y-98.298
X210.82Y-98.298
X116.84Y-103.632
X124.46Y-103.632
X182.372Y-98.298
X189.992Y-98.298
X182.626Y-104.394
X190.246Y-104.394
X167.64Y-86.868
X170.18Y-86.868
X128.778Y-95.758
X128.778Y-103.378
X95.758Y-116.078
X103.378Y-116.078
X95.758Y-103.632
X103.378Y-103.632
T4
X160.528Y-112.268
X160.528Y-114.808
X160.528Y-117.348
X107.442Y-101.346
X112.442Y-101.346
X109.728Y-111.252
X109.728Y-113.792
X109.728Y-116.332
X109.728Y-118.872
X206.248Y-120.396
X208.788Y-120.396
X194.056Y-101.092
X199.056Y-101.092
X160.528Y-98.806
X160.528Y-101.346
X160.528Y-103.886
X160.528Y-106.426
X163.068Y-98.806
X163.068Y-101.346
X163.068Y-103.886
X163.068Y-106.426
X172.974Y-109.474
X172.974Y-112.014
X172.974Y-114.554
X172.974Y-117.094
X172.974Y-119.634
X175.514Y-109.474
X175.514Y-112.014
X175.514Y-114.554
X175.514Y-117.094
X175.514Y-119.634
X196.85Y-111.252
X196.85Y-113.792
X196.85Y-116.332
X196.85Y-118.872
X98.298Y-120.396
X100.838Y-120.396
X171.45Y-96.012
X176.45Y-96.012
T5
X187.706Y-92.964
X188.976Y-87.884
X190.246Y-92.964
X191.516Y-87.884
X192.786Y-92.964
X194.056Y-87.884
X195.326Y-92.964
X196.596Y-87.884
X197.866Y-92.964
X199.136Y-87.884
X200.406Y-92.964
X201.676Y-87.884
X202.946Y-92.964
X204.216Y-87.884
X205.486Y-92.964
X101.092Y-93.218
X102.362Y-88.138
X103.632Y-93.218
X104.902Y-88.138
X106.172Y-93.218
X107.442Y-88.138
X108.712Y-93.218
X109.982Y-88.138
X111.252Y-93.218
X112.522Y-88.138
X113.792Y-93.218
X115.062Y-88.138
X116.332Y-93.218
X117.602Y-88.138
X118.872Y-93.218
T6
X135.636Y-87.376
X138.176Y-87.376
X140.716Y-87.376
X131.644Y-110.998
X131.644Y-117.498
X136.144Y-110.998
X136.144Y-117.498
X125.222Y-87.122
X127.762Y-87.122
X176.53Y-86.868
X179.07Y-86.868
X181.61Y-86.868
T0
M30
